<svg width="120" height="120" viewBox="0 0 120 120" fill="none" xmlns="http://www.w3.org/2000/svg">
<circle cx="60" cy="60" r="60" fill="#585E48"/>
<path d="M64.7068 18.2179C64.0486 18.1361 63.4552 17.9469 62.9267 17.6504C62.3993 17.3455 61.9551 16.9569 61.5942 16.4847C61.2418 16.0135 60.9874 15.4776 60.8312 14.8769C60.6759 14.2679 60.6409 13.6225 60.7262 12.9408C60.8114 12.259 60.999 11.6499 61.2889 11.1133C61.5872 10.5777 61.9647 10.1289 62.4213 9.76693C62.8874 9.39754 63.4125 9.13807 63.9968 8.98851C64.5822 8.83054 65.2082 8.79301 65.8748 8.87592C66.6258 8.96932 67.2825 9.20057 67.8448 9.56965C68.4166 9.93137 68.8592 10.4009 69.1726 10.9784C69.4955 11.5485 69.655 12.1923 69.651 12.9097L67.7523 12.6736C67.7237 12.0119 67.5189 11.4907 67.138 11.11C66.7582 10.7209 66.2771 10.4901 65.6949 10.4177C65.1802 10.3536 64.7092 10.419 64.2821 10.6138C63.8634 10.8095 63.5154 11.1252 63.2382 11.5609C62.962 11.988 62.7833 12.5257 62.7023 13.1737C62.6202 13.8302 62.6589 14.4119 62.8183 14.9189C62.9872 15.4186 63.2537 15.8235 63.6177 16.1338C63.9827 16.4356 64.4226 16.6185 64.9373 16.6825C65.4858 16.7507 65.9916 16.6469 66.4545 16.3712C66.9175 16.0954 67.2527 15.6414 67.4603 15.0091L69.3843 15.2484C69.1862 15.9417 68.8599 16.5293 68.4055 17.0113C67.9521 17.4848 67.4079 17.8274 66.773 18.039C66.1381 18.2507 65.4494 18.3103 64.7068 18.2179Z" fill="white"/>
<path d="M73.8847 20.3801C73.2136 20.1359 72.6706 19.7894 72.2554 19.3404C71.8512 18.8864 71.5928 18.368 71.48 17.7853C71.3782 17.1975 71.4424 16.5889 71.6726 15.9595C71.9028 15.33 72.2437 14.8311 72.6953 14.4627C73.1548 14.0973 73.6843 13.8746 74.2838 13.7948C74.8912 13.7179 75.5305 13.8015 76.2015 14.0457C76.8806 14.2927 77.4237 14.6393 77.8308 15.0853C78.2459 15.5343 78.5073 16.0447 78.6149 16.6165C78.7226 17.1883 78.6613 17.789 78.4311 18.4185C78.2009 19.0479 77.8531 19.5533 77.3877 19.9347C76.9333 20.3111 76.4008 20.5417 75.7905 20.6266C75.191 20.7064 74.5558 20.6242 73.8847 20.3801ZM74.4005 18.9698C74.6801 19.0715 74.958 19.0913 75.2341 19.0293C75.5183 18.9702 75.7763 18.8339 76.0083 18.6203C76.2432 18.3988 76.4291 18.1008 76.5661 17.7264C76.7672 17.1766 76.7739 16.7005 76.5861 16.2982C76.4092 15.8907 76.1091 15.61 75.6857 15.456C75.2623 15.3019 74.8474 15.3225 74.4411 15.5177C74.0428 15.7159 73.7445 16.0859 73.5463 16.6277C73.4094 17.0022 73.3593 17.3496 73.396 17.6699C73.4356 17.9822 73.5411 18.2508 73.7123 18.4756C73.8915 18.7033 74.1209 18.868 74.4005 18.9698Z" fill="white"/>
<path d="M79.0673 22.3346L82.4764 16.8085L84.0734 17.7886L83.2712 19.0888L83.3038 19.1088L80.6969 23.3346L79.0673 22.3346ZM82.924 24.7013L85.0363 21.2773C85.2234 20.974 85.2842 20.6975 85.2184 20.448C85.1599 20.203 84.9822 19.9894 84.6852 19.8072C84.4317 19.6516 84.1679 19.5694 83.8938 19.5605C83.627 19.5561 83.3732 19.6195 83.1326 19.7506C82.8992 19.8862 82.6978 20.0912 82.5284 20.3657L83.2094 18.9463C83.64 18.6529 84.1027 18.4937 84.5974 18.4686C85.1038 18.4408 85.6141 18.5847 86.1283 18.9003C86.7439 19.278 87.1077 19.7403 87.2198 20.287C87.3362 20.8266 87.2162 21.3853 86.8597 21.9632L84.5536 25.7014L82.924 24.7013Z" fill="white"/>
<path d="M88.4546 29.1754C87.8281 28.6273 87.4932 28.0692 87.4499 27.5011C87.4186 26.9322 87.6749 26.3385 88.2188 25.72L91.9449 21.483L93.8543 22.2057L89.6152 27.0262C89.4245 27.2429 89.3423 27.4587 89.3684 27.6733C89.3945 27.888 89.5355 28.1072 89.7912 28.3309C89.8871 28.4148 89.985 28.4835 90.0849 28.5371C90.1849 28.5906 90.2876 28.641 90.3931 28.6882L89.4343 29.7786C89.3119 29.7505 89.1628 29.6821 88.9869 29.5734C88.8175 29.4703 88.64 29.3376 88.4546 29.1754ZM89.1161 22.8667L90.075 21.7763L93.6903 24.939L92.7314 26.0293L89.1161 22.8667Z" fill="white"/>
<path d="M93.2405 34.1291C93.3522 33.971 93.4818 33.8146 93.6294 33.6598C93.7824 33.5117 93.967 33.3484 94.1833 33.17L94.1508 33.1308L96.52 31.1771C96.7231 31.0096 96.8235 30.8112 96.8211 30.5821C96.8307 30.3541 96.7272 30.1094 96.5104 29.8479C96.3045 29.5995 96.0966 29.4353 95.8868 29.3552C95.6824 29.2816 95.4793 29.2895 95.2775 29.3789L94.1152 27.9768C94.6216 27.6693 95.1876 27.5933 95.813 27.7488C96.4385 27.9043 97.0384 28.3285 97.6128 29.0214C98.2088 29.7404 98.5034 30.4219 98.4966 31.0658C98.4897 31.7098 98.1848 32.2804 97.5819 32.7776L95.37 34.6016C95.2061 34.7367 95.0471 34.8843 94.893 35.0444C94.7508 35.2057 94.6064 35.3908 94.4597 35.5998L93.2405 34.1291ZM91.6954 32.4649C91.2836 31.9681 91.0803 31.47 91.0855 30.9705C91.0972 30.4655 91.3128 30.0401 91.7323 29.6943C92.1976 29.3105 92.7148 29.1757 93.2838 29.2898C93.8647 29.4049 94.4579 29.7412 95.0633 30.2984L96.4808 31.5891L95.6255 32.2944L94.4309 31.2326C94.1748 31.0036 93.9429 30.8702 93.7351 30.8325C93.5272 30.7947 93.3316 30.8515 93.1481 31.0029C92.9842 31.138 92.9085 31.2995 92.9208 31.4874C92.9332 31.6753 93.0206 31.8673 93.1832 32.0634C93.4378 32.3706 93.7365 32.5645 94.0792 32.6451C94.4284 32.7203 94.7144 32.666 94.9372 32.4823L94.2646 33.2681C93.7718 33.4323 93.3085 33.4458 92.8746 33.3083C92.4407 33.1709 92.0476 32.8898 91.6954 32.4649Z" fill="white"/>
<path d="M96.8772 39.8267C96.5472 39.2334 96.3827 38.6406 96.3839 38.0483C96.3851 37.456 96.5365 36.9066 96.8383 36.4002C97.1442 35.9011 97.5834 35.4932 98.156 35.1763C98.7286 34.8595 99.3081 34.7037 99.8945 34.709C100.485 34.7217 101.033 34.8843 101.537 35.1968C102.042 35.5093 102.459 35.9623 102.789 36.5556C103.065 37.0525 103.22 37.5489 103.253 38.0448C103.297 38.5441 103.229 39.0082 103.05 39.4373C102.874 39.8738 102.592 40.2485 102.202 40.5613L101.304 38.9482C101.534 38.7144 101.66 38.4509 101.682 38.1576C101.707 37.8718 101.642 37.5879 101.485 37.3061C101.337 37.0391 101.14 36.8425 100.894 36.7164C100.653 36.5976 100.381 36.5542 100.078 36.5861C99.7749 36.6181 99.456 36.7266 99.1214 36.9118C98.7868 37.097 98.5256 37.3094 98.338 37.549C98.1504 37.7886 98.0433 38.0418 98.0167 38.3087C97.9942 38.583 98.0572 38.8537 98.2058 39.1207C98.3625 39.4025 98.5693 39.6082 98.8261 39.7376C99.087 39.8745 99.3777 39.9077 99.6983 39.837L100.596 41.4501C100.123 41.6146 99.6547 41.6555 99.1905 41.5728C98.7305 41.4976 98.2962 41.3112 97.8875 41.0136C97.4904 40.7192 97.1536 40.3236 96.8772 39.8267Z" fill="white"/>
<path d="M100.093 47.1141C99.8108 46.3319 99.7889 45.6819 100.027 45.1639C100.276 44.6511 100.788 44.2555 101.565 43.9772L106.882 42.0707L108.202 43.6256L102.152 45.7946C101.88 45.8921 101.703 46.0411 101.622 46.2415C101.54 46.4419 101.557 46.7018 101.672 47.021C101.715 47.1407 101.768 47.2482 101.829 47.3433C101.89 47.4385 101.956 47.5322 102.025 47.6245L100.657 48.1151C100.563 48.0314 100.466 47.8995 100.365 47.7195C100.267 47.5474 100.176 47.3456 100.093 47.1141ZM103.736 41.9146L105.104 41.424L106.731 45.9375L105.362 46.4281L103.736 41.9146Z" fill="white"/>
<path d="M102.108 56.8809C102.009 55.5785 102.29 54.5747 102.953 53.8694C103.624 53.1719 104.647 52.771 106.021 52.6667L111.095 52.2812L111.245 54.2348L105.826 54.6463C105.029 54.7069 104.458 54.9247 104.111 55.2998C103.764 55.6748 103.614 56.1668 103.661 56.7757C103.707 57.3846 103.93 57.8483 104.33 58.1667C104.729 58.4851 105.323 58.6143 106.112 58.5544L111.543 58.1419L111.692 60.0955L106.592 60.4829C105.235 60.5859 104.172 60.3392 103.401 59.7428C102.639 59.1457 102.208 58.1917 102.108 56.8809Z" fill="white"/>
<path d="M101.932 65.9101C102.051 64.9676 102.335 64.2424 102.784 63.7346C103.234 63.2268 103.795 62.9894 104.468 63.0225L104.255 64.7139C103.963 64.7201 103.726 64.8356 103.543 65.0606C103.368 65.2951 103.252 65.6311 103.197 66.0687C103.148 66.4642 103.166 66.7572 103.254 66.9477C103.348 67.1476 103.501 67.2608 103.712 67.2873C103.873 67.3074 104.002 67.268 104.1 67.1692C104.206 67.0798 104.305 66.9 104.399 66.6297L104.745 65.6216C105.002 64.8759 105.313 64.3422 105.68 64.0206C106.054 63.7 106.499 63.5719 107.014 63.6365C107.638 63.7147 108.093 64.0154 108.378 64.5384C108.672 65.0625 108.765 65.7537 108.657 66.6121C108.55 67.462 108.291 68.1178 107.882 68.5793C107.481 69.0419 106.973 69.2604 106.359 69.2347L106.573 67.5433C106.796 67.5371 106.976 67.4399 107.111 67.2517C107.254 67.0645 107.349 66.7858 107.396 66.4155C107.439 66.0789 107.42 65.8201 107.34 65.6391C107.267 65.4676 107.142 65.3708 106.965 65.3485C106.813 65.3295 106.682 65.3815 106.572 65.5045C106.471 65.6286 106.367 65.842 106.26 66.1449L105.874 67.2761C105.657 67.9072 105.342 68.3635 104.93 68.6452C104.524 68.9363 104.073 69.0507 103.575 68.9882C102.942 68.9089 102.48 68.5988 102.188 68.0579C101.904 67.5264 101.818 66.8105 101.932 65.9101Z" fill="white"/>
<path d="M104.799 76.7165L105.936 77.5298L105.386 76.2179L106.964 75.9466L106.826 77.3783L107.667 76.214L108.664 77.4643L107.378 78.0782L108.768 78.2258L108.187 79.7474L107.051 78.9341L107.6 80.246L106.027 80.5054L106.172 79.0901L105.323 80.238L104.323 78.9996L105.608 78.3857L104.218 78.2381L104.799 76.7165Z" fill="white"/>
<path d="M93.7916 86.0617C94.1898 85.5327 94.6492 85.1131 95.1698 84.803C95.6972 84.4979 96.256 84.3065 96.8462 84.2288C97.4313 84.1578 98.024 84.2039 98.6243 84.3671C99.2313 84.5353 99.8103 84.8257 100.361 85.2382C100.912 85.6507 101.349 86.1157 101.672 86.6332C101.989 87.1575 102.192 87.7072 102.281 88.2823C102.37 88.8693 102.335 89.4528 102.175 90.0328C102.022 90.6179 101.743 91.1784 101.34 91.7142C100.886 92.3179 100.358 92.7714 99.7576 93.0747C99.1588 93.3899 98.5303 93.5397 97.8721 93.5241C97.2156 93.5204 96.5762 93.3385 95.9539 92.9786L97.1027 91.4525C97.6927 91.7565 98.248 91.8382 98.7685 91.6977C99.2958 91.5622 99.7356 91.2605 100.088 90.7925C100.399 90.3788 100.576 89.9387 100.619 89.4722C100.657 89.0126 100.555 88.5545 100.314 88.0981C100.079 87.6468 99.7002 87.225 99.1766 86.8329C98.6462 86.4357 98.1208 86.1802 97.6004 86.0662C97.0817 85.9642 96.597 85.9936 96.1462 86.1546C95.7022 86.3206 95.3245 86.6104 95.0131 87.0242C94.6812 87.465 94.5202 87.9543 94.5301 88.4921C94.5401 89.0298 94.7686 89.5456 95.2156 90.0394L94.0515 91.5858C93.5466 91.0699 93.1974 90.4955 93.0039 89.8627C92.8171 89.235 92.7894 88.5938 92.9207 87.9391C93.052 87.2844 93.3423 86.6586 93.7916 86.0617Z" fill="white"/>
<path d="M87.3498 92.9445C87.8946 92.4838 88.4653 92.1846 89.0619 92.047C89.6575 91.9214 90.2371 91.9539 90.8005 92.1446C91.363 92.3472 91.8615 92.7041 92.296 93.2151C92.7304 93.7261 92.9964 94.2685 93.0939 94.8421C93.1849 95.4213 93.1168 95.9904 92.8897 96.5494C92.6561 97.1139 92.2668 97.6266 91.722 98.0873C91.1707 98.5536 90.6 98.8527 90.0099 98.9848C89.4133 99.1224 88.8393 99.0964 88.2878 98.9067C87.7363 98.717 87.2433 98.3666 86.8089 97.8556C86.3744 97.3445 86.1062 96.793 86.0042 96.2009C85.9012 95.6208 85.9638 95.0452 86.1919 94.4742C86.419 93.9152 86.805 93.4053 87.3498 92.9445ZM88.3232 94.0895C88.0962 94.2815 87.9414 94.5125 87.8588 94.7825C87.7697 95.0581 87.7608 95.3492 87.832 95.6559C87.9087 95.9691 88.0763 96.2777 88.3348 96.5817C88.7143 97.0281 89.1258 97.2695 89.5692 97.3059C90.0117 97.3542 90.4048 97.233 90.7486 96.9423C91.0923 96.6516 91.2797 96.2819 91.3107 95.8331C91.3352 95.3898 91.1605 94.9482 90.7865 94.5083C90.528 94.2043 90.2502 93.9889 89.9529 93.8622C89.6612 93.742 89.375 93.7005 89.0944 93.7376C88.8073 93.7802 88.5503 93.8976 88.3232 94.0895Z" fill="white"/>
<path d="M83.0854 96.4706L86.2198 102.156L84.5767 103.057L83.8392 101.719L83.8057 101.738L81.4088 97.3901L83.0854 96.4706ZM79.1174 98.6467L81.0595 102.169C81.2316 102.482 81.4426 102.671 81.6926 102.737C81.9351 102.807 82.2092 102.759 82.5147 102.591C82.7755 102.448 82.9774 102.26 83.1205 102.026C83.2562 101.797 83.3262 101.546 83.3307 101.272C83.3278 101.003 83.2485 100.727 83.0928 100.445L83.994 101.736C84.0372 102.255 83.9475 102.734 83.725 103.176C83.4992 103.629 83.1218 104 82.5927 104.29C81.9593 104.638 81.3767 104.725 80.8447 104.552C80.3168 104.387 79.8889 104.007 79.5612 103.412L77.4408 99.5661L79.1174 98.6467Z" fill="white"/>
<path d="M72.4851 101.228C73.2727 100.957 73.9247 100.943 74.4411 101.186C74.9522 101.441 75.3425 101.957 75.6121 102.735L77.4587 108.061L75.8839 109.358L73.783 103.298C73.6885 103.025 73.5413 102.847 73.3413 102.764C73.1414 102.68 72.8807 102.694 72.5592 102.805C72.4386 102.846 72.3303 102.897 72.2342 102.957C72.138 103.017 72.0433 103.081 71.9499 103.149L71.4747 101.779C71.5597 101.687 71.6931 101.591 71.8749 101.493C72.0486 101.397 72.252 101.309 72.4851 101.228ZM77.6536 104.925L78.1288 106.295L73.5839 107.863L73.1087 106.492L77.6536 104.925Z" fill="white"/>
<path d="M65.7872 102.916C65.8693 103.092 65.941 103.281 66.0022 103.486C66.0551 103.692 66.1054 103.933 66.1531 104.209L66.2034 104.2L66.7258 107.222C66.7706 107.481 66.8933 107.666 67.0938 107.778C67.2874 107.9 67.5518 107.932 67.887 107.874C68.2055 107.819 68.4517 107.721 68.6256 107.579C68.7912 107.439 68.8853 107.259 68.9078 107.04L70.7053 106.731C70.7212 107.322 70.5061 107.85 70.06 108.314C69.6138 108.778 68.9466 109.086 68.0583 109.239C67.1365 109.397 66.3972 109.314 65.8403 108.988C65.2835 108.662 64.9386 108.114 64.8056 107.345L64.3179 104.525C64.2817 104.316 64.2323 104.105 64.1696 103.892C64.1 103.689 64.0107 103.471 63.9017 103.241L65.7872 102.916ZM68.003 102.406C68.6399 102.297 69.1744 102.368 69.6064 102.621C70.0398 102.882 70.3028 103.28 70.3953 103.815C70.4979 104.408 70.3582 104.923 69.9762 105.359C69.5873 105.804 68.9999 106.151 68.2142 106.398L66.3868 106.983L66.1982 105.892L67.7157 105.386C68.0423 105.278 68.2736 105.144 68.4097 104.983C68.5458 104.822 68.5936 104.624 68.5531 104.39C68.517 104.181 68.4141 104.035 68.2445 103.953C68.0749 103.87 67.8644 103.85 67.613 103.893C67.2191 103.961 66.902 104.123 66.6616 104.38C66.4226 104.645 66.3277 104.919 66.3768 105.203L66.0274 104.231C66.1294 103.722 66.348 103.315 66.6832 103.008C67.0184 102.7 67.4583 102.5 68.003 102.406Z" fill="white"/>
<path d="M58.9835 103.232C59.6637 103.241 60.2612 103.393 60.776 103.688C61.2908 103.983 61.6936 104.388 61.9844 104.9C62.2666 105.413 62.4033 105.996 62.3945 106.649C62.3857 107.302 62.2334 107.881 61.9374 108.386C61.6329 108.891 61.2194 109.284 60.6969 109.565C60.1743 109.847 59.5729 109.983 58.8927 109.974C58.323 109.966 57.8142 109.853 57.3664 109.635C56.91 109.425 56.5397 109.136 56.2555 108.768C55.9628 108.399 55.7773 107.968 55.6989 107.475L57.5483 107.5C57.6376 107.815 57.8044 108.055 58.0488 108.219C58.2847 108.384 58.5643 108.468 58.8874 108.472C59.1935 108.476 59.4624 108.404 59.694 108.254C59.9171 108.104 60.0901 107.89 60.2129 107.612C60.3357 107.334 60.3997 107.004 60.4048 106.622C60.41 106.241 60.3549 105.909 60.2396 105.628C60.1244 105.346 59.9572 105.128 59.7382 104.972C59.5107 104.816 59.2439 104.736 58.9378 104.732C58.6146 104.728 58.333 104.805 58.0927 104.963C57.8439 105.121 57.6707 105.356 57.5729 105.668L55.7235 105.643C55.8152 105.153 56.0123 104.727 56.3148 104.366C56.6088 104.006 56.9868 103.722 57.4488 103.516C57.9022 103.319 58.4138 103.224 58.9835 103.232Z" fill="white"/>
<path d="M51.0315 102.401C51.8524 102.544 52.4293 102.848 52.7624 103.31C53.0856 103.78 53.176 104.42 53.0336 105.231L52.0581 110.782L50.0502 111.154L51.16 104.839C51.2099 104.555 51.1678 104.328 51.0336 104.158C50.8994 103.988 50.6648 103.874 50.3298 103.815C50.2041 103.793 50.0846 103.785 49.9714 103.791C49.8581 103.797 49.744 103.808 49.6293 103.822L49.8803 102.393C49.9995 102.354 50.1625 102.335 50.3694 102.337C50.5679 102.337 50.7886 102.358 51.0315 102.401ZM53.7538 108.134L53.5028 109.562L48.7661 108.734L49.0171 107.306L53.7538 108.134Z" fill="white"/>
<path d="M41.5169 99.3006C42.6998 99.8612 43.4337 100.603 43.7185 101.527C43.9921 102.455 43.8332 103.539 43.242 104.78L41.0579 109.365L39.2836 108.524L41.6156 103.629C41.9586 102.909 42.053 102.306 41.8986 101.82C41.7443 101.333 41.3906 100.959 40.8376 100.697C40.2846 100.435 39.7703 100.398 39.2948 100.586C38.8193 100.774 38.4119 101.224 38.0725 101.936L35.735 106.843L33.9608 106.002L36.1559 101.394C36.7398 100.168 37.4826 99.3701 38.3842 98.9992C39.2822 98.636 40.3264 98.7365 41.5169 99.3006Z" fill="white"/>
<path d="M33.8178 94.7027C34.5789 95.2737 35.0687 95.88 35.2871 96.5216C35.5055 97.1631 35.4332 97.7669 35.0701 98.3329L33.7042 97.308C33.8441 97.0521 33.8615 96.7892 33.7564 96.5193C33.6395 96.2511 33.4043 95.9844 33.051 95.7193C32.7316 95.4796 32.4673 95.3503 32.2581 95.3314C32.0371 95.3141 31.8626 95.3901 31.7348 95.5596C31.6377 95.6884 31.6077 95.8198 31.6449 95.9538C31.6703 96.0896 31.7771 96.2653 31.9656 96.481L32.6711 97.281C33.1923 97.8738 33.5019 98.4086 33.5998 98.8854C33.6927 99.369 33.5831 99.8175 33.2713 100.231C32.893 100.732 32.4053 100.977 31.8084 100.964C31.2063 100.958 30.5587 100.695 29.8656 100.175C29.1793 99.66 28.7371 99.1106 28.5389 98.5267C28.3357 97.9497 28.3978 97.4019 28.7251 96.8833L30.0909 97.9082C29.9852 98.1048 29.9807 98.3084 30.0773 98.5188C30.1688 98.7361 30.3641 98.9569 30.663 99.1813C30.9349 99.3852 31.1694 99.4975 31.3667 99.5182C31.552 99.5405 31.6984 99.4805 31.8057 99.3382C31.8977 99.2162 31.9175 99.0771 31.865 98.921C31.8074 98.7716 31.6733 98.5755 31.4628 98.3326L30.6708 97.4358C30.2293 96.9347 29.9885 96.4357 29.9485 95.9386C29.8965 95.4432 30.0213 94.9956 30.3229 94.5957C30.7064 94.0874 31.2059 93.8413 31.8216 93.8575C32.4253 93.8754 33.0907 94.1571 33.8178 94.7027Z" fill="white"/>
<path d="M22.9837 91.8224L21.7129 92.4047L23.1279 92.5774L22.5835 94.0794L21.4042 93.2516L22.0025 94.5566L20.4201 94.8015L20.5215 93.3833L19.7048 94.5155L18.6669 93.2585L19.9377 92.6762L18.5227 92.5035L19.0752 91.0113L20.2365 91.8374L19.6562 90.5341L21.2305 90.2794L21.1291 91.6976L21.9458 90.5653L22.9837 91.8224Z" fill="white"/>
<path d="M20.276 77.6526C20.5401 78.2595 20.6785 78.8653 20.6913 79.4699C20.6962 80.078 20.5866 80.657 20.3625 81.2071C20.1349 81.7494 19.8016 82.2403 19.3625 82.68C18.9156 83.123 18.3763 83.4812 17.7444 83.7547C17.1125 84.0282 16.4912 84.1769 15.8806 84.2008C15.2665 84.2169 14.6871 84.121 14.1424 83.9129C13.5865 83.7005 13.0954 83.3814 12.6691 82.9557C12.2351 82.5333 11.8844 82.0148 11.617 81.4001C11.3157 80.7077 11.1814 80.0261 11.2141 79.3556C11.2356 78.6806 11.4159 78.0617 11.7551 77.4989C12.083 76.9316 12.5577 76.4673 13.1791 76.1059L13.9408 77.8565C13.3841 78.2176 13.0383 78.6585 12.9033 79.1792C12.7605 79.7033 12.8059 80.2338 13.0395 80.7706C13.2459 81.2452 13.5419 81.6164 13.9272 81.8842C14.3091 82.1442 14.7586 82.2825 15.2757 82.2991C15.7849 82.3191 16.3399 82.1991 16.9406 81.9391C17.5491 81.6758 18.0316 81.3468 18.3883 80.952C18.7337 80.5529 18.9478 80.1182 19.0306 79.6478C19.1055 79.1808 19.0397 78.7101 18.8332 78.2354C18.6132 77.7297 18.2664 77.3482 17.793 77.0908C17.3195 76.8335 16.757 76.7764 16.1055 76.9197L15.3338 75.1457C16.033 74.9633 16.7063 74.9446 17.3534 75.0898C17.9928 75.2384 18.5653 75.5315 19.0709 75.9692C19.5764 76.4068 19.9782 76.9679 20.276 77.6526Z" fill="white"/>
<path d="M17.4762 68.6594C17.6063 69.3599 17.5829 70.0026 17.4061 70.5873C17.2194 71.1652 16.9031 71.6506 16.4571 72.0435C16.0013 72.4296 15.4431 72.6837 14.7825 72.8057C14.1219 72.9277 13.5179 72.8883 12.9704 72.6876C12.4213 72.4785 11.96 72.1367 11.5865 71.6623C11.2115 71.1796 10.9589 70.5879 10.8288 69.8874C10.6972 69.1785 10.7205 68.5359 10.8989 67.9595C11.0757 67.3748 11.3837 66.891 11.8228 66.508C12.2619 66.1249 12.8118 65.8724 13.4723 65.7504C14.1329 65.6284 14.7461 65.6704 15.3119 65.8764C15.8678 66.0756 16.3374 66.4158 16.7208 66.897C17.0943 67.3714 17.3461 67.9589 17.4762 68.6594ZM15.9962 68.9328C15.942 68.6409 15.818 68.3921 15.6241 68.1864C15.4287 67.9724 15.1798 67.82 14.8776 67.7292C14.567 67.6399 14.2152 67.6316 13.8222 67.7042C13.2452 67.8108 12.8307 68.0469 12.5786 68.4126C12.3167 68.7715 12.2267 69.172 12.3088 69.614C12.3909 70.056 12.6194 70.4019 12.9945 70.6518C13.368 70.8933 13.839 70.9616 14.4076 70.8565C14.8006 70.7839 15.126 70.6505 15.384 70.4562C15.6336 70.2635 15.812 70.0364 15.9191 69.7751C16.0247 69.5055 16.0504 69.2247 15.9962 68.9328Z" fill="white"/>
<path d="M16.5294 63.1813L10.025 63.0696L10.0573 61.1997L11.5877 61.226L11.5884 61.1878L16.5623 61.2732L16.5294 63.1813ZM16.6074 58.6656L12.5772 58.5964C12.2201 58.5902 11.9506 58.6789 11.7689 58.8624C11.5872 59.0374 11.4934 59.2988 11.4874 59.6465C11.4823 59.9433 11.5457 60.2116 11.6776 60.4514C11.8097 60.6827 11.9936 60.8682 12.2294 61.008C12.4652 61.1393 12.7447 61.2077 13.0678 61.2132L11.4963 61.3516C11.0238 61.1315 10.6508 60.8154 10.3772 60.4036C10.0953 59.9831 9.95954 59.4718 9.96993 58.8697C9.98238 58.1489 10.196 57.6012 10.6107 57.2266C11.0169 56.8518 11.5601 56.6703 12.2403 56.682L16.6403 56.7576L16.6074 58.6656Z" fill="white"/>
<path d="M17.6481 51.6366C17.4944 52.4535 17.1835 53.0253 16.7154 53.3519C16.2405 53.6686 15.5977 53.7511 14.787 53.5993L9.23319 52.5598L8.88405 50.5528L15.2026 51.7355C15.4867 51.7886 15.7148 51.7493 15.8866 51.6176C16.0585 51.4858 16.1758 51.2532 16.2386 50.9197C16.2621 50.7947 16.2715 50.6756 16.2668 50.5626C16.2622 50.4495 16.2533 50.3357 16.2403 50.2211L17.6695 50.4886C17.7076 50.6079 17.7245 50.7707 17.7203 50.977C17.7177 51.175 17.6936 51.3949 17.6481 51.6366ZM11.8681 54.2826L10.4389 54.0151L11.3259 49.3012L12.755 49.5687L11.8681 54.2826Z" fill="white"/>
<path d="M19.4987 44.9918C19.3055 44.9761 19.1045 44.944 18.896 44.8956C18.6903 44.8393 18.4556 44.7634 18.1918 44.668L18.1744 44.7159L15.2844 43.6707C15.0366 43.5811 14.8143 43.5955 14.6175 43.7138C14.4156 43.8212 14.2567 44.0344 14.1407 44.3533C14.0306 44.6563 13.9942 44.9183 14.0314 45.1393C14.0716 45.3523 14.1814 45.5228 14.361 45.6509L13.7392 47.3612C13.2166 47.082 12.8638 46.6341 12.6809 46.0176C12.498 45.4012 12.5601 44.6703 12.8674 43.8251C13.1862 42.9481 13.6256 42.3491 14.1855 42.0283C14.7453 41.7075 15.393 41.6801 16.1285 41.9461L18.8266 42.9218C19.0264 42.9941 19.2347 43.0559 19.4512 43.1071C19.6627 43.1475 19.8959 43.1777 20.1509 43.1978L19.4987 44.9918ZM18.8447 47.1641C18.6244 47.7701 18.2971 48.1976 17.8629 48.4465C17.4207 48.6925 16.9437 48.7231 16.4321 48.538C15.8645 48.3328 15.4856 47.9567 15.2955 47.4098C15.1003 46.852 15.0898 46.1716 15.2642 45.3685L15.6602 43.4954L16.7035 43.8727L16.3922 45.4382C16.3242 45.7744 16.3266 46.0415 16.3994 46.2392C16.4723 46.437 16.6206 46.5763 16.8445 46.6573C17.0443 46.7295 17.2223 46.7127 17.3784 46.6068C17.5345 46.5008 17.656 46.3283 17.743 46.0891C17.8792 45.7143 17.8953 45.3592 17.7911 45.0238C17.6789 44.6855 17.4869 44.4672 17.215 44.3689L18.2353 44.5484C18.6272 44.8886 18.8738 45.2801 18.9752 45.7227C19.0766 46.1654 19.0331 46.6458 18.8447 47.1641Z" fill="white"/>
<path d="M22.5836 38.9766C22.2377 39.5608 21.8084 40.0024 21.2957 40.3013C20.7829 40.6001 20.2312 40.748 19.6406 40.7448C19.0542 40.7344 18.4791 40.5631 17.9153 40.2311C17.3515 39.899 16.9234 39.4795 16.6311 38.9724C16.343 38.458 16.2064 37.9048 16.2212 37.3127C16.236 36.7205 16.4164 36.1324 16.7623 35.5481C17.052 35.0588 17.403 34.6745 17.8152 34.3952C18.2244 34.1044 18.66 33.9275 19.1218 33.8646C19.588 33.7945 20.0551 33.8479 20.523 34.025L19.5826 35.6135C19.2641 35.5342 18.9726 35.5595 18.7081 35.6894C18.4479 35.8119 18.2356 36.012 18.0713 36.2895C17.9157 36.5524 17.8454 36.8213 17.8604 37.0961C17.8798 37.3636 17.9801 37.6196 18.1612 37.8642C18.3423 38.1088 18.5976 38.3281 18.9271 38.5221C19.2566 38.7162 19.5724 38.8333 19.8746 38.8733C20.1768 38.9134 20.45 38.8773 20.6942 38.765C20.9427 38.6455 21.1449 38.4543 21.3005 38.1913C21.4648 37.9138 21.5379 37.6318 21.5199 37.3454C21.5062 37.0517 21.3876 36.7849 21.1642 36.545L22.1047 34.9565C22.4861 35.2797 22.7586 35.6618 22.9222 36.1028C23.09 36.5366 23.1487 37.0046 23.0983 37.5067C23.0449 37.9973 22.8733 38.4872 22.5836 38.9766Z" fill="white"/>
<path d="M27.2519 32.5199C26.7191 33.159 26.1686 33.5077 25.6003 33.5659C25.0309 33.6121 24.4291 33.3723 23.7948 32.8463L19.4497 29.2432L20.1237 27.3203L25.0671 31.4196C25.2894 31.6039 25.5078 31.6802 25.7222 31.6485C25.9367 31.6168 26.1527 31.4705 26.3701 31.2096C26.4517 31.1118 26.518 31.0123 26.569 30.9113C26.6201 30.8102 26.6679 30.7065 26.7124 30.6L27.8306 31.5272C27.8057 31.65 27.741 31.8004 27.6367 31.9787C27.5378 32.1503 27.4096 32.3308 27.2519 32.5199ZM20.9113 32.0269L19.7931 31.0997L22.8675 27.4117L23.9857 28.3389L20.9113 32.0269Z" fill="white"/>
<path d="M34.6655 25.8137C33.5923 26.5622 32.5828 26.8317 31.6368 26.6221C30.6929 26.4007 29.8263 25.727 29.0368 24.6011L26.1201 20.4412L27.7299 19.3184L30.844 23.7598C31.3021 24.4131 31.7812 24.7931 32.2813 24.8996C32.7815 25.0061 33.2824 24.8844 33.7842 24.5345C34.2859 24.1845 34.5725 23.757 34.6437 23.2519C34.715 22.7468 34.5241 22.171 34.0709 21.5246L30.9495 17.0728L32.5593 15.95L35.4906 20.1308C36.2703 21.2428 36.599 22.2814 36.4766 23.2465C36.3494 24.2046 35.7457 25.0603 34.6655 25.8137Z" fill="white"/>
<path d="M42.4827 21.4074C41.6086 21.7847 40.838 21.9093 40.1709 21.7814C39.5039 21.6534 39.0135 21.2921 38.6999 20.6974L40.2686 20.0203C40.4224 20.2681 40.6429 20.4132 40.93 20.4557C41.2216 20.4869 41.5702 20.415 41.9761 20.2398C42.3429 20.0815 42.5863 19.9164 42.7062 19.7445C42.8307 19.5614 42.8507 19.3726 42.7662 19.178C42.702 19.0301 42.6024 18.9391 42.4671 18.9051C42.3363 18.8599 42.1303 18.8656 41.8491 18.9223L40.8031 19.1381C40.0287 19.2967 39.4096 19.3006 38.9457 19.1496C38.4784 18.9909 38.1417 18.6741 37.9357 18.1993C37.6858 17.6233 37.714 17.0797 38.0204 16.5686C38.3234 16.0497 38.8729 15.6184 39.6689 15.2748C40.4572 14.9346 41.1547 14.823 41.7614 14.9401C42.3647 15.0493 42.8114 15.3741 43.1014 15.9143L41.5327 16.5913C41.4137 16.4024 41.2386 16.2978 41.0074 16.2775C40.7728 16.2493 40.4838 16.3094 40.1404 16.4576C39.8282 16.5923 39.6144 16.7401 39.4988 16.9008C39.3877 17.0505 39.3676 17.207 39.4385 17.3705C39.4993 17.5106 39.6107 17.5965 39.7727 17.6282C39.9314 17.6522 40.1686 17.633 40.4844 17.5706L41.6576 17.3276C42.3126 17.1928 42.8665 17.2309 43.3195 17.442C43.7769 17.642 44.1052 17.9716 44.3045 18.4309C44.5578 19.0146 44.5251 19.5694 44.2065 20.095C43.8923 20.6095 43.3177 21.047 42.4827 21.4074Z" fill="white"/>
<path d="M50.3621 13.4508L50.487 12.0616L49.6336 13.2004L48.5973 11.9827L49.9036 11.3735L48.4709 11.2428L49.0442 9.75154L50.2277 10.5441L49.6484 9.27455L51.2579 9.00093L51.133 10.3902L51.9865 9.25133L53.0102 10.4711L51.7143 11.0657L53.1366 11.211L52.5759 12.7002L51.3924 11.9077L51.9717 13.1772L50.3621 13.4508Z" fill="white"/>
<circle cx="60" cy="60" r="30" fill="white"/>
<circle cx="59" cy="59" r="18" fill="#585E48"/>
<path d="M56.4164 56.3352C56.6433 56.0584 56.8362 55.792 57.0606 55.5545C58.1181 54.4354 59.3111 53.4625 60.4934 52.4769C61.9773 51.2399 63.3061 49.8733 64.1767 48.1271C65.1553 46.1642 65.4019 44.1465 64.7032 42.0456C64.6506 41.8872 64.6126 41.7242 64.5468 41.4876C64.721 41.6169 64.8498 41.6858 64.8968 41.8187C64.9784 42.0495 65.1579 42.1398 65.3713 42.2234C67.8408 43.1905 70.0411 44.5697 71.8435 46.5017C74.4417 49.2867 76.1338 52.5314 76.7558 56.2841C77.2294 59.1417 77.0205 61.955 76.0726 64.6985C75.2521 67.0732 73.9525 69.1802 72.2668 71.0572C70.3834 73.1543 68.0684 74.6265 65.4285 75.6271C64.8722 75.838 64.8773 75.8398 64.5962 75.3169C63.4318 73.1511 63.3088 70.9005 64.0269 68.5813C64.543 66.9146 65.3143 65.376 66.4563 64.0374C67.2869 63.0637 68.3738 62.4762 69.597 62.1019C70.5037 61.8244 71.4378 61.6711 72.3585 61.4575C72.7334 61.3705 73.0909 61.2421 73.4156 61.0338C74.0404 60.633 74.1652 59.9653 73.7194 59.3785C73.6167 59.2433 73.498 59.1195 73.3832 58.9935C73.0967 58.6786 73.0726 58.373 73.3092 58.0175C73.5644 57.6341 73.5006 57.3686 73.1092 57.1077C72.9588 57.0074 72.8382 57.0739 72.7072 57.1292C72.3414 57.2838 71.9826 57.462 71.5687 57.4761C71.5368 57.3292 71.6474 57.2958 71.7169 57.2488C71.9929 57.0625 72.2739 56.8833 72.555 56.7045C72.708 56.6072 72.86 56.5099 72.9775 56.3694C73.2587 56.0332 73.2286 55.8318 72.8596 55.5884C72.2973 55.2174 72.2322 54.8807 72.6237 54.3431C72.7797 54.1289 72.9486 53.9235 73.0457 53.6732C73.1762 53.3368 73.1254 53.2098 72.7757 53.0998C72.1827 52.9133 71.6021 52.6992 71.0389 52.4365C70.7618 52.3072 70.481 52.184 70.2314 52.0095C70.0448 51.8792 69.8639 52.0208 69.8584 52.1079C69.8469 52.2897 69.7187 52.344 69.6257 52.4331C69.4448 52.6064 69.4378 52.5993 69.6367 52.7839C68.7457 52.8849 67.8574 53.1838 67.0547 52.5354C67.0711 52.5134 67.0823 52.4866 67.092 52.4871C67.872 52.5247 68.5907 52.2154 69.3437 52.1009C69.7353 52.0413 69.9996 51.803 70.1865 51.4688C69.3573 51.9653 68.438 52.1497 67.4321 52.3329C67.5501 52.1369 67.6754 52.1097 67.782 52.0625C68.2732 51.8448 68.7853 51.6934 69.3202 51.6283C69.5177 51.6042 69.5638 51.5318 69.4854 51.3498C69.3308 50.9908 69.2602 50.6074 69.2393 50.2226C69.2007 49.5142 68.8873 48.921 68.4921 48.3567C67.9019 47.5141 67.2173 46.758 66.3766 46.1478C66.3025 46.094 66.2283 45.9953 66.1289 46.0412C66.0244 46.0894 66.0664 46.209 66.0677 46.2978C66.0969 48.3709 65.5881 50.322 64.7203 52.1984C64.1558 53.4188 63.5522 54.6127 62.669 55.6478C62.0157 56.4133 61.2725 57.0708 60.334 57.4786C60.0774 57.5901 60.055 57.7069 60.1577 57.9496C60.5884 58.9673 60.7939 60.0328 60.8552 61.1348C61.0521 64.678 59.9643 67.8667 58.1582 70.8726C57.2717 72.348 56.1906 73.6724 55.0452 74.9527C54.8052 75.221 54.5586 75.4845 54.3323 75.7636C54.1476 75.9913 53.946 76.0452 53.6583 75.965C52.984 75.777 52.3325 75.5312 51.6995 75.2421C49.4435 74.2119 47.4481 72.8197 45.7724 71.0052C44.112 69.2074 42.8637 67.167 42.0597 64.8588C41.535 63.3526 41.1835 61.8155 41.0518 60.2329C40.8748 58.1072 41.1622 56.0245 41.7516 53.9811C42.2029 52.4164 42.8215 50.9096 43.6776 49.5211C45.6805 46.273 48.4467 43.8791 52.007 42.36C54.4096 41.3349 56.9048 40.9085 59.4999 41.0162C60.9241 41.0754 62.3326 41.2948 63.7174 41.642C63.9108 41.6904 64.1017 41.7373 64.3085 41.736C64.5598 41.7343 64.5671 41.9522 64.5736 42.1266C64.6028 42.9106 64.4515 43.6618 64.1264 44.3789C63.5587 45.6307 62.6624 46.6408 61.7023 47.6089C60.2241 49.0995 58.8136 50.6439 57.7392 52.4578C57.0814 53.5685 56.6075 54.7392 56.4047 56.0121C56.3901 56.1037 56.3553 56.195 56.4164 56.3352ZM64.098 42.3634C64.0488 42.4173 64.0007 42.4722 63.95 42.5247C63.891 42.5858 63.8315 42.6468 63.7689 42.7044C63.0086 43.4031 62.0673 43.7701 61.1129 44.1163C59.7958 44.5941 58.4519 44.9979 57.2206 45.6941C55.3928 46.7275 54.0898 48.1632 53.447 50.1609C52.9444 51.7226 52.8265 53.3071 53.0323 54.9303C53.2738 56.8338 53.8891 58.5916 55.0113 60.1677C55.1153 60.3137 55.201 60.4774 55.3753 60.6151C55.3753 60.5129 55.3836 60.4561 55.3741 60.4024C55.2245 59.5567 55.1701 58.7079 55.2047 57.8476C55.2407 56.9502 55.3399 56.0641 55.5508 55.1923C56.1105 52.8789 57.2987 50.9081 58.9675 49.21C59.7655 48.398 60.5965 47.6176 61.3975 46.8084C62.2281 45.9692 62.9634 45.053 63.5198 44.0131C63.7938 43.501 64.006 42.9582 64.098 42.3634ZM49.4265 46.1724C49.1788 46.3135 48.994 46.5117 48.8104 46.7173C47.1228 48.6084 46.2666 50.7935 46.3171 53.3269C46.3585 55.4069 47.1317 57.1733 48.5699 58.6686C49.3942 59.5256 50.3326 60.2539 51.322 60.9185C53.101 62.1134 54.8249 63.3756 56.3356 64.8985C56.3793 64.9426 56.4134 65.0097 56.5128 65.0041C56.5157 64.7572 56.4233 64.5304 56.3611 64.3002C55.9302 62.7029 55.1987 61.2751 53.9198 60.1635C53.2309 59.5647 52.4851 59.0369 51.7311 58.5227C50.9426 57.985 50.1596 57.4372 49.563 56.6907C48.0315 54.7744 47.5126 52.5869 47.8412 50.1881C48.0415 48.7257 48.5517 47.3816 49.4265 46.1724ZM52.2142 57.6438C52.2048 57.59 52.1969 57.536 52.1859 57.4826C51.805 55.6393 51.6081 53.7853 51.8289 51.9041C51.9292 51.0496 52.0994 50.2107 52.4185 49.4093C53.2859 47.2313 54.9099 45.8055 57.0553 44.8897C58.1892 44.4057 59.3621 44.0345 60.528 43.6402C60.9358 43.5023 61.3315 43.3298 61.7328 43.1731C61.7251 43.1463 61.7174 43.1195 61.7097 43.0928C61.2078 43.1313 60.7064 43.1775 60.2039 43.2068C58.9345 43.2809 57.6715 43.3892 56.4353 43.7115C54.2351 44.285 52.4874 45.4876 51.2278 47.3529C50.3928 48.5895 49.9222 49.9513 49.8003 51.4443C49.6768 52.9562 49.8671 54.3904 50.6164 55.7325C51.0244 56.4631 51.5465 57.1025 52.2142 57.6438ZM47.0083 70.0121C47.1054 69.992 47.1439 69.9902 47.1772 69.9763C47.9282 69.6617 48.7085 69.6147 49.5116 69.6967C50.252 69.7722 50.993 69.8751 51.7406 69.8304C52.5862 69.7799 53.3658 69.5341 54.0824 69.0761C54.7086 68.6757 55.2199 68.1603 55.6979 67.6078C55.8473 67.4351 56.0725 67.3311 56.192 67.0984C53.9851 66.7233 51.9144 66.9567 50.0074 68.1497C52.0145 66.6338 54.2746 66.1384 56.7916 66.5129C56.7292 66.4483 56.7013 66.4123 56.6666 66.3845C56.3617 66.1397 56.0283 65.9374 55.6846 65.7507C53.9435 64.8052 52.1981 64.6602 50.4268 65.6871C49.2605 66.3631 48.4455 67.3542 47.7638 68.4722C47.4743 68.947 47.2166 69.4388 47.0083 70.0121ZM57.4007 70.5248C57.4177 70.4929 57.4362 70.4617 57.4515 70.429C58.2408 68.7468 58.3521 66.9767 58.103 65.1755C57.938 63.9827 57.5905 62.8184 57.4807 61.615C57.3757 60.464 57.525 59.3667 58.1383 58.3492C58.6805 57.4494 59.452 56.7585 60.228 56.0774C61.1197 55.2949 62.0562 54.564 62.8329 53.6596C63.5089 52.8725 64.136 52.0502 64.5862 51.1208C65.2315 49.7886 65.6692 48.3888 65.8737 46.9189C65.9997 46.0126 65.9355 45.1241 65.7521 44.2367C65.7355 44.3668 65.7165 44.4997 65.7388 44.6255C65.833 45.1544 65.78 45.6814 65.6883 46.1989C65.3696 47.997 64.5969 49.6011 63.478 51.0472C62.4091 52.4285 61.0679 53.5391 59.7335 54.6528C58.8074 55.4257 57.9887 56.2873 57.3388 57.2978C56.4887 58.6197 56.1364 60.0544 56.3658 61.6138C56.5132 62.6161 56.8472 63.5704 57.1498 64.5323C57.4994 65.6436 57.7633 66.7709 57.7404 67.9416C57.7234 68.809 57.5922 69.6649 57.4007 70.5248ZM46.3988 63.077C48.5582 62.7829 50.6805 62.9182 52.7547 63.7051C52.743 63.5752 52.6738 63.5198 52.6221 63.4545C52.3032 63.052 51.9334 62.6954 51.5508 62.3552C50.3926 61.3254 49.0406 60.9224 47.4946 61.186C45.9453 61.4502 44.6312 62.2077 43.3812 63.096C43.186 63.2347 42.9664 63.3513 42.8099 63.5687C43.139 63.6813 43.4568 63.7444 43.7564 63.8683C44.429 64.1463 45.0412 64.5351 45.6841 64.8671C46.352 65.212 47.0443 65.4515 47.8096 65.4819C49.3601 65.5435 50.5267 64.6732 51.8166 63.9256C50.0361 63.2492 48.242 63.0341 46.3988 63.077Z" fill="white"/>
</svg>
