<svg width="29" height="29" viewBox="0 0 29 29" fill="none" xmlns="http://www.w3.org/2000/svg">
<g clip-path="url(#clip0_362_612)">
<path d="M28.0789 13.4523C27.7558 13.4523 27.4629 13.2361 27.3809 12.9125L26.372 8.89262C26.1237 7.90347 25.3775 7.08569 24.375 6.70524L23.3819 6.32835C23.2423 6.27573 23.097 6.23093 22.9502 6.19609L20.3523 5.57955C18.7022 5.18844 17.4544 3.90062 17.173 2.2992L16.9154 0.832177C16.8478 0.445333 17.1097 0.0769775 17.5012 0.0101331C17.8927 -0.0552891 18.2654 0.202844 18.3331 0.588977L18.5907 2.056C18.7735 3.09778 19.5967 3.93831 20.6884 4.19715L23.2855 4.81298C23.4935 4.86204 23.6979 4.92462 23.8972 5L24.8917 5.3776C26.3331 5.92444 27.409 7.11058 27.7702 8.54986L28.7791 12.5698C28.8748 12.9509 28.6395 13.3364 28.2538 13.4309C28.1955 13.4452 28.1372 13.4516 28.0796 13.4516L28.0789 13.4523Z" fill="white"/>
<path d="M0.720442 13.5092C0.662872 13.5092 0.604583 13.5028 0.546293 13.4886C0.160576 13.394 -0.0747407 13.0086 0.0209691 12.6274L1.04427 8.54989C1.40552 7.1106 2.48136 5.92447 3.92276 5.37762L4.91584 5.00073C5.11589 4.92535 5.32027 4.86207 5.52896 4.813L8.12535 4.19718C9.2163 3.93833 10.0395 3.0978 10.2231 2.05531L10.4807 0.588998C10.549 0.202154 10.9232 -0.0552682 11.3126 0.010154C11.704 0.0769984 11.9667 0.445354 11.8983 0.832198L11.6407 2.29922C11.3586 3.90064 10.1115 5.18847 8.46142 5.58029L5.8643 6.19611C5.71606 6.23095 5.57141 6.27575 5.43037 6.32909L4.43801 6.70598C3.43558 7.08642 2.68861 7.9042 2.44106 8.89335L1.41776 12.9709C1.33644 13.2944 1.04283 13.5106 0.719722 13.5106L0.720442 13.5092Z" fill="white"/>
<path d="M3.08275 24.7708C3.00143 24.7708 2.91868 24.7565 2.83736 24.7281C2.46387 24.5944 2.2703 24.1862 2.4063 23.8172L5.18908 16.2296C5.32437 15.8605 5.73744 15.6728 6.11092 15.8029C6.4844 15.9366 6.67798 16.3448 6.54197 16.7139L3.75919 24.3014C3.65341 24.5901 3.37707 24.7708 3.08275 24.7708Z" fill="white"/>
<path d="M5.867 28.4452C5.81015 28.4452 5.75186 28.4388 5.69429 28.4246C5.30858 28.3307 5.07254 27.9453 5.16753 27.5642L6.03611 24.079C6.55136 22.0104 6.42543 19.8614 5.67055 17.8653L4.38746 14.4726C4.24857 14.1043 4.43711 13.6954 4.80916 13.5574C5.1812 13.4188 5.59643 13.6065 5.73531 13.9741L7.0184 17.3676C7.87475 19.6324 8.01867 22.0708 7.43434 24.4189L6.56576 27.9041C6.48516 28.2283 6.19083 28.4452 5.86772 28.4452H5.867Z" fill="white"/>
<path d="M25.8646 24.7703C25.5703 24.7703 25.294 24.5904 25.1882 24.3017L22.4054 16.7141C22.2701 16.3444 22.463 15.9369 22.8365 15.8032C23.2107 15.6724 23.623 15.8608 23.7583 16.2299L26.5411 23.8174C26.6764 24.1872 26.4835 24.5947 26.11 24.7284C26.0294 24.7568 25.9459 24.771 25.8646 24.771V24.7703Z" fill="white"/>
<path d="M23.0812 28.4453C22.7581 28.4453 22.4637 28.2284 22.3831 27.9042L21.5145 24.419C20.9302 22.0709 21.0734 19.6332 21.9298 17.3676L23.2136 13.9742C23.3525 13.6059 23.7684 13.4188 24.1397 13.5575C24.5118 13.6947 24.701 14.1043 24.5614 14.4727L23.2783 17.8654C22.5242 19.8622 22.3968 22.0112 22.9128 24.0791L23.7814 27.5643C23.8763 27.9454 23.6403 28.3308 23.2546 28.4247C23.1963 28.4396 23.138 28.4453 23.0812 28.4453Z" fill="white"/>
<path d="M17.25 28.798C16.8527 28.798 16.5303 28.4801 16.5303 28.0869V26.1996C16.5879 25.5688 16.8736 25.0419 17.3169 24.6849C17.5889 24.4666 17.7321 24.1317 17.8041 23.8885C17.9336 23.4547 18.048 23.0053 18.1452 22.553C18.3719 21.4956 18.4899 20.5747 18.5223 19.592C18.5 19.5607 18.4683 19.5265 18.4237 19.5045C18.3107 19.449 18.1819 19.5045 18.1761 19.5059C17.9595 19.5984 17.7041 19.5856 17.504 19.464C17.3032 19.3431 17.1672 19.1361 17.1528 18.9043C17.1492 18.851 17.1226 18.8097 17.0988 18.7998C17.0686 18.7834 16.9995 18.7955 16.9499 18.8545C16.7556 19.0849 16.4368 19.1681 16.1525 19.0679C15.8676 18.9655 15.6783 18.6981 15.6783 18.3994V14.6832C15.6402 14.5822 15.5294 14.5004 15.4387 14.5153C15.3271 14.5189 15.2264 14.6092 15.2048 14.7251C15.1357 15.0977 14.7773 15.3495 14.4024 15.3025C14.0217 15.2528 13.7483 14.9164 13.78 14.5381C13.7893 14.4243 13.7353 14.3461 13.7022 14.3091C13.654 14.2558 13.5914 14.2231 13.5331 14.2209C13.4756 14.2273 13.405 14.2508 13.3525 14.3041C13.3165 14.3418 13.2575 14.4222 13.2669 14.5402L13.269 21.5688C13.269 21.844 13.1085 22.0936 12.8581 22.211C12.607 22.3297 12.3098 22.2928 12.0939 22.1192L10.918 21.1699C10.7525 21.0362 10.4776 21.032 10.2955 21.1479C10.2747 21.2275 10.2927 21.3143 10.3481 21.3811L11.8535 23.1745C12.1234 23.496 12.2803 23.8856 12.3076 24.3009C12.3256 24.5683 12.394 24.8243 12.5098 25.0604C12.5883 25.2197 12.6883 25.369 12.807 25.5041C13.1049 25.844 13.2712 26.2906 13.2741 26.7635L13.2813 28.0826C13.2834 28.4759 12.9632 28.7959 12.5652 28.798H12.5616C12.1658 28.798 11.8442 28.4823 11.842 28.0912L11.8348 26.7713C11.8348 26.6391 11.7931 26.5196 11.719 26.4357C11.5175 26.206 11.3483 25.9521 11.2152 25.6819C11.018 25.2801 10.9022 24.8471 10.8712 24.3948C10.8633 24.2789 10.8201 24.1715 10.7453 24.0826L9.23986 22.2885C8.77282 21.7303 8.71741 20.9424 9.10313 20.328C9.13263 20.2817 9.16645 20.2384 9.20603 20.1993C9.90839 19.5059 11.0598 19.4469 11.8291 20.0677H11.8305V14.5957C11.7931 14.1626 11.9679 13.6769 12.3119 13.3207C12.648 12.9729 13.0999 12.7802 13.5828 12.798C13.9922 12.8122 14.3902 12.9836 14.691 13.2723C14.9033 13.1649 15.1408 13.1009 15.3883 13.0924C16.1986 13.0611 16.9542 13.6542 17.106 14.4663C17.114 14.5089 17.1183 14.5523 17.1183 14.5957V17.3704C17.3205 17.3776 17.5227 17.4231 17.7134 17.512C17.9732 17.6328 18.1884 17.8234 18.3409 18.0581C18.5762 18.0624 18.8267 18.1121 19.0699 18.233C19.642 18.516 19.8622 19.0202 19.9298 19.2243C19.9557 19.3011 19.968 19.3829 19.9658 19.464C19.9392 20.5996 19.8118 21.6421 19.5542 22.8474C19.4491 23.3367 19.3254 23.8216 19.185 24.2903C18.9994 24.9153 18.6676 25.433 18.2258 25.7879C18.0797 25.9052 17.9854 26.0801 17.9674 26.2664L17.9703 28.0869C17.9703 28.4801 17.6472 28.798 17.25 28.798Z" fill="white"/>
<path d="M14.5248 18.6583C14.1297 18.6583 13.8081 18.344 13.8052 17.9529L13.7779 14.6035C13.775 14.211 14.0938 13.8896 14.4917 13.8867C14.912 13.896 15.2142 14.1996 15.2171 14.5921L15.2444 17.9422C15.2473 18.3347 14.9285 18.6554 14.5306 18.659L14.5248 18.6583Z" fill="white"/>
<path d="M16.2051 12.5253C16.0122 12.5253 15.8208 12.4492 15.679 12.2992C15.1379 11.7253 14.2247 11.6933 13.6447 12.2288C13.3539 12.4961 12.8984 12.4805 12.6271 12.1939C12.3565 11.9066 12.3724 11.4565 12.6624 11.1884C13.8224 10.1196 15.6474 10.1815 16.7311 11.3285C17.0017 11.6158 16.9859 12.0659 16.6959 12.334C16.557 12.462 16.3807 12.5253 16.2051 12.5253Z" fill="white"/>
<path d="M18.31 10.5847C18.1171 10.5847 17.9257 10.5087 17.7839 10.3586C16.1597 8.63843 13.4223 8.54314 11.6815 10.1481C11.3908 10.4155 10.936 10.3999 10.664 10.1133C10.3934 9.82598 10.4092 9.37585 10.6992 9.10776C13.0215 6.96803 16.6714 7.09461 18.836 9.38865C19.1066 9.67594 19.0907 10.1261 18.8007 10.3942C18.6619 10.5222 18.4855 10.5855 18.31 10.5855V10.5847Z" fill="white"/>
</g>
<defs>
<clipPath id="clip0_362_612">
<rect width="28.8" height="28.8" fill="white"/>
</clipPath>
</defs>
</svg>
