<svg width="50" height="50" viewBox="0 0 50 50" fill="none" xmlns="http://www.w3.org/2000/svg">
<g clip-path="url(#clip0_1030_27)">
<path d="M28.1733 27.7858C27.7065 27.7858 27.2596 27.5254 27.0467 27.0786C26.7542 26.4628 27.0194 25.7273 27.6405 25.4349C28.5704 24.9992 29.6111 24.8005 30.6182 24.845C31.4398 24.8857 32.2365 25.0831 32.9822 25.4361C33.6034 25.7286 33.8685 26.4641 33.5735 27.0811C33.2797 27.6969 32.5328 27.9598 31.9154 27.6661C31.466 27.455 30.9892 27.3353 30.4962 27.3119C29.7132 27.2749 29.0945 27.4834 28.7061 27.6673C28.5331 27.7475 28.3514 27.7858 28.1733 27.7858Z" fill="#585E48"/>
<path d="M17.7232 27.7858C17.2564 27.7858 16.8095 27.5254 16.5966 27.0786C16.3041 26.4628 16.5692 25.7273 17.1904 25.4349C18.1203 24.9992 19.161 24.8005 20.1681 24.845C20.9897 24.8857 21.7864 25.0831 22.5321 25.4361C23.1532 25.7286 23.4184 26.4641 23.1234 27.0811C22.8296 27.6969 22.0827 27.9598 21.4652 27.6661C21.0158 27.455 20.5391 27.3353 20.0461 27.3119C19.2606 27.2749 18.6456 27.4834 18.256 27.6673C18.083 27.7475 17.9012 27.7858 17.7232 27.7858Z" fill="#585E48"/>
<path d="M41.7924 20.9802C41.5895 20.9802 41.3829 20.9308 41.1936 20.8272C40.5911 20.4977 40.372 19.7474 40.7032 19.1501C41.6667 17.4162 43.107 14.1594 41.9169 11.8209C39.487 7.04497 42.3626 1.38794 42.4858 1.14977C42.802 0.545067 43.5489 0.30689 44.1601 0.61541C44.7713 0.925164 45.0141 1.66931 44.7029 2.27525C44.678 2.32214 42.2866 7.06471 44.1402 10.709C45.761 13.8916 44.3518 17.7037 42.8854 20.3422C42.6576 20.7507 42.2331 20.9802 41.7937 20.9802H41.7924Z" fill="#585E48"/>
<path d="M8.20637 20.9805C7.76694 20.9805 7.34245 20.7497 7.11464 20.3425C5.64696 17.7052 4.23779 13.8944 5.85858 10.7092C7.72337 7.04278 5.32205 2.32489 5.2984 2.27676C4.9847 1.66959 5.22496 0.926673 5.83742 0.61445C6.45113 0.29976 7.19929 0.542874 7.51424 1.14881C7.63872 1.38698 10.5118 7.04524 8.08189 11.8199C6.89181 14.161 8.33086 17.4177 9.29686 19.1503C9.62924 19.7464 9.41014 20.498 8.80763 20.8262C8.61717 20.9299 8.41053 20.9805 8.20762 20.9805H8.20637Z" fill="#585E48"/>
<path d="M29.9514 9.38781C29.8282 9.38781 29.7049 9.3693 29.5804 9.33105C28.8298 9.09904 28.0555 8.92257 27.2775 8.80903C26.1409 8.63996 24.9571 8.60047 23.818 8.68192C23.1396 8.73622 22.5346 8.22037 22.486 7.54286C22.435 6.86289 22.9504 6.27176 23.6363 6.22116C24.9583 6.12491 26.3289 6.1718 27.6472 6.36802C28.5509 6.5013 29.451 6.70616 30.3224 6.97519C30.9784 7.17881 31.3444 7.86989 31.1402 8.52026C30.9734 9.04844 30.4817 9.38781 29.9514 9.38781Z" fill="#585E48"/>
<path d="M24.9334 49.9998C24.3384 49.9998 23.7396 49.9665 23.1358 49.8974C16.4336 49.1285 10.8355 43.8146 9.52091 36.9741L9.36033 36.1361L8.44163 35.8017C6.41501 35.0649 4.8577 33.3952 4.27387 31.3343L4.1693 30.9604C3.7585 29.5103 4.10581 27.9591 5.09672 26.8163C5.75773 26.0549 6.64033 25.5452 7.60384 25.3453C7.31006 23.1684 7.40218 21.1013 7.88393 19.1947C8.6408 16.1897 10.167 13.487 12.2944 11.378C12.7314 10.9448 13.1945 10.5314 13.6688 10.1489C13.9239 9.94277 14.2538 9.84774 14.58 9.87983L15.5622 9.97979C15.6207 9.98596 15.6779 9.99583 15.7352 10.0094L16.2941 10.1476C17.5502 10.4586 18.4813 11.4792 18.6693 12.7454C18.7054 12.9959 18.866 13.1267 18.9581 13.1822C19.0502 13.2378 19.2432 13.3217 19.481 13.2402C19.8021 13.1329 19.9739 12.7984 19.8756 12.4788L18.8486 9.14432C18.6257 8.42485 18.1465 7.81274 17.4979 7.42154L15.0331 5.93077C14.8003 5.79009 14.6211 5.57782 14.5215 5.3273L13.0837 1.68553C12.8335 1.04998 13.1497 0.334215 13.7895 0.0861652C14.4256 -0.164353 15.1514 0.150337 15.4028 0.784655L16.6875 4.04016L18.7938 5.31496C19.9627 6.02209 20.8291 7.12536 21.2287 8.42485L22.2557 11.7593C22.7512 13.3649 21.8823 15.0445 20.2764 15.5813C19.4038 15.8738 18.4452 15.7676 17.6573 15.2888C16.868 14.8087 16.3377 14.0128 16.2058 13.1045C16.1647 12.8317 15.963 12.6108 15.6904 12.543L14.8489 12.3887C14.575 12.6232 14.3086 12.87 14.0522 13.1242C12.2434 14.9173 10.945 17.2238 10.2952 19.7944C9.86823 21.4876 9.80847 23.3535 10.1147 25.3416L10.2678 26.3363C10.3276 26.7189 10.2018 27.1051 9.93047 27.3828C9.65909 27.6605 9.26198 27.7913 8.88604 27.7481C8.0856 27.6518 7.43703 27.9048 6.98391 28.4281C6.52954 28.9513 6.37642 29.6338 6.56439 30.2989L6.66896 30.6728C7.03619 31.9711 8.01838 33.0238 9.29435 33.4878L10.8766 34.0629C11.2874 34.2122 11.5899 34.5651 11.672 34.9909L11.9646 36.515C13.0774 42.3065 17.788 46.8023 23.4197 47.4477C30.2452 48.2264 36.6176 43.6122 37.9023 36.9309L38.272 35.0094C38.3541 34.5836 38.6566 34.2319 39.0662 34.0826L40.6994 33.489C41.9779 33.025 42.9588 31.9723 43.3261 30.6728L43.4306 30.3026C43.6186 29.635 43.4655 28.9538 43.0111 28.4293C42.5567 27.9048 41.8957 27.6494 41.2073 27.737L41.0492 27.7567C40.6646 27.8073 40.2749 27.6691 40.0036 27.3939C39.7309 27.1175 39.6052 26.73 39.665 26.3474L39.8255 25.2984C40.0944 23.5386 40.0783 21.9109 39.777 20.4633C39.1122 17.2757 37.5213 14.5076 35.1798 12.4628C35.1536 12.4405 35.1287 12.4183 35.1026 12.3961L34.7789 12.4307L34.3021 12.5479C34.032 12.6158 33.8303 12.8355 33.7905 13.1094C33.6573 14.0177 33.127 14.8137 32.3378 15.2937C31.5473 15.7726 30.5937 15.8799 29.7174 15.585C28.114 15.0482 27.2451 13.3698 27.7393 11.7643L28.7675 8.42978C29.1671 7.13153 30.0323 6.02826 31.2 5.3199L33.3075 4.0451L34.5922 0.789591C34.8437 0.155274 35.5669 -0.159417 36.2055 0.0911015C36.8466 0.339152 37.1628 1.05492 36.9114 1.69047L35.4736 5.33224C35.374 5.58276 35.1935 5.79502 34.9619 5.93571L32.4971 7.42648C31.8485 7.81891 31.3705 8.43102 31.1477 9.15049L30.1195 12.4837C30.0211 12.8034 30.1954 13.139 30.5141 13.2464C30.7531 13.3266 30.9448 13.2452 31.0369 13.1884C31.129 13.1316 31.2909 13.0008 31.327 12.7515C31.5124 11.4841 32.4436 10.4635 33.6984 10.1526L34.2598 10.0143C34.3146 10.0008 34.3706 9.99089 34.4266 9.98472L35.3628 9.88476C35.7001 9.84774 36.0225 9.94523 36.2815 10.1538C36.4632 10.3019 36.6437 10.4537 36.823 10.6079C39.5766 13.0132 41.4401 16.2477 42.2157 19.9647C42.5567 21.6073 42.5966 23.414 42.3352 25.3392C43.3211 25.5304 44.2273 26.045 44.902 26.8225C45.8929 27.9665 46.2403 29.5165 45.8295 30.969L45.7249 31.3393C45.1435 33.4014 43.585 35.0711 41.5571 35.8091L40.5862 36.162L40.3496 37.3961C38.9355 44.7512 32.349 50.006 24.9322 50.006L24.9334 49.9998Z" fill="#585E48"/>
</g>
<defs>
<clipPath id="clip0_1030_27">
<rect width="42" height="50" fill="white" transform="translate(4)"/>
</clipPath>
</defs>
</svg>
