<svg width="52" height="60" viewBox="0 0 52 60" fill="none" xmlns="http://www.w3.org/2000/svg">
<g clip-path="url(#clip0_408_4161)">
<path d="M29.9294 33.3424C29.3514 33.3424 28.7981 33.0299 28.5346 32.4938C28.1724 31.7549 28.5006 30.8722 29.2697 30.5213C30.421 29.9985 31.7095 29.7601 32.9564 29.8134C33.9736 29.8623 34.96 30.0992 35.8832 30.5228C36.6523 30.8737 36.9806 31.7563 36.6153 32.4968C36.2516 33.2358 35.3268 33.5512 34.5624 33.1987C34.006 32.9455 33.4157 32.8019 32.8053 32.7737C31.8359 32.7293 31.0699 32.9796 30.589 33.2002C30.3748 33.2965 30.1498 33.3424 29.9294 33.3424Z" fill="#585E48"/>
<path d="M16.9909 33.3424C16.4129 33.3424 15.8596 33.0299 15.5961 32.4938C15.2339 31.7549 15.5622 30.8722 16.3313 30.5213C17.4826 29.9985 18.771 29.7601 20.0179 29.8134C21.0351 29.8623 22.0215 30.0992 22.9447 30.5228C23.7138 30.8737 24.0421 31.7563 23.6768 32.4968C23.3131 33.2358 22.3883 33.5512 21.6239 33.1987C21.0675 32.9455 20.4772 32.8019 19.8669 32.7737C18.8943 32.7293 18.133 32.9796 17.6506 33.2002C17.4363 33.2965 17.2113 33.3424 16.9909 33.3424Z" fill="#585E48"/>
<path d="M46.7907 25.1767C46.5394 25.1767 46.2836 25.1175 46.0493 24.9931C45.3034 24.5977 45.0321 23.6973 45.4421 22.9805C46.635 20.8999 48.4182 16.9918 46.9448 14.1855C43.9363 8.45443 47.4965 1.666 47.6491 1.38018C48.0406 0.654544 48.9654 0.368731 49.7221 0.738955C50.4789 1.11066 50.7794 2.00364 50.3941 2.73076C50.3633 2.78704 47.4025 8.47812 49.6974 12.8512C51.7041 16.6704 49.9595 21.2449 48.1439 24.4111C47.8618 24.9013 47.3363 25.1767 46.7922 25.1767H46.7907Z" fill="#585E48"/>
<path d="M5.20768 25.1767C4.66362 25.1767 4.13806 24.8998 3.85601 24.4111C2.03888 21.2464 0.294197 16.6734 2.3009 12.8512C4.60968 8.45148 1.63662 2.79001 1.60734 2.73225C1.21894 2.00365 1.5164 1.11215 2.27469 0.737487C3.03453 0.359858 3.96081 0.651595 4.35075 1.37872C4.50487 1.66453 8.06206 8.45444 5.05356 14.184C3.58013 16.9933 5.3618 20.9014 6.55781 22.9806C6.96932 23.6958 6.69806 24.5977 5.9521 24.9916C5.71629 25.116 5.46044 25.1767 5.20922 25.1767H5.20768Z" fill="#585E48"/>
<path d="M32.1305 11.2652C31.9779 11.2652 31.8253 11.243 31.6712 11.1971C30.7418 10.9187 29.7831 10.7069 28.8199 10.5706C27.4127 10.3678 25.947 10.3204 24.5367 10.4181C23.6968 10.4833 22.9477 9.86425 22.8876 9.05124C22.8244 8.23527 23.4625 7.52592 24.3117 7.4652C25.9485 7.34969 27.6454 7.40597 29.2776 7.64143C30.3966 7.80136 31.5109 8.04719 32.5897 8.37003C33.402 8.61438 33.8551 9.44368 33.6023 10.2241C33.3958 10.8579 32.787 11.2652 32.1305 11.2652Z" fill="#585E48"/>
<path d="M25.9175 59.9997C25.1808 59.9997 24.4395 59.9598 23.692 59.8768C15.3939 58.9542 8.46297 52.5775 6.83542 44.3689L6.6366 43.3633L5.49916 42.962C2.99001 42.0779 1.06192 40.0743 0.339076 37.6012L0.209612 37.1525C-0.298999 35.4124 0.131008 33.5509 1.35784 32.1796C2.17624 31.2659 3.26898 30.6543 4.4619 30.4144C4.09817 27.8021 4.21222 25.3216 4.80868 23.0336C5.74576 19.4276 7.63532 16.1845 10.2693 13.6536C10.8103 13.1338 11.3836 12.6377 11.9708 12.1786C12.2868 11.9313 12.6952 11.8173 13.099 11.8558L14.3151 11.9757C14.3875 11.9831 14.4584 11.995 14.5293 12.0113L15.2213 12.1771C16.7764 12.5503 17.9293 13.775 18.162 15.2944C18.2067 15.5951 18.4055 15.752 18.5196 15.8187C18.6336 15.8853 18.8725 15.986 19.1669 15.8883C19.5645 15.7594 19.7772 15.3581 19.6555 14.9746L18.384 10.9732C18.1081 10.1098 17.5147 9.37529 16.7117 8.90585L13.66 7.11692C13.3718 6.9481 13.1499 6.69339 13.0266 6.39277L11.2465 2.02264C10.9367 1.25998 11.3281 0.401058 12.1203 0.103398C12.9079 -0.197224 13.8065 0.180405 14.1178 0.941586L15.7084 4.84819L18.3161 6.37796C19.7634 7.22651 20.8361 8.55043 21.3308 10.1098L22.6023 14.1112C23.2157 16.0378 22.14 18.0533 20.1518 18.6975C19.0713 19.0485 17.8846 18.9212 16.909 18.3466C15.9318 17.7705 15.2753 16.8153 15.1119 15.7254C15.061 15.3981 14.8113 15.133 14.4738 15.0516L13.4319 14.8665C13.0929 15.1478 12.763 15.444 12.4455 15.7491C10.2061 17.9008 8.5986 20.6686 7.79407 23.7533C7.26542 25.7851 7.19144 28.0242 7.57059 30.4099L7.76016 31.6035C7.83414 32.0626 7.67848 32.5261 7.34248 32.8593C7.00649 33.1925 6.51484 33.3495 6.04938 33.2977C5.05836 33.1822 4.25537 33.4858 3.69436 34.1137C3.13181 34.7416 2.94224 35.5605 3.17496 36.3587L3.30443 36.8074C3.75909 38.3653 4.97513 39.6285 6.55491 40.1853L8.51383 40.8754C9.02244 41.0546 9.39696 41.4782 9.49868 41.9891L9.86088 43.818C11.2387 50.7678 17.0708 56.1627 24.0434 56.9372C32.494 57.8717 40.3837 52.3346 41.9742 44.317L42.432 42.0113C42.5337 41.5004 42.9082 41.0783 43.4153 40.8991L45.4374 40.1868C47.0203 39.63 48.2347 38.3668 48.6894 36.8074L48.8189 36.3631C49.0516 35.562 48.862 34.7445 48.2995 34.1151C47.7369 33.4858 46.9185 33.1792 46.0662 33.2844L45.8705 33.3081C45.3942 33.3688 44.9118 33.2029 44.5758 32.8727C44.2383 32.541 44.0826 32.076 44.1566 31.6169L44.3554 30.3581C44.6883 28.2464 44.6683 26.2931 44.2953 24.556C43.4723 20.7308 41.5026 17.4092 38.6035 14.9553C38.5712 14.9287 38.5403 14.902 38.508 14.8753L38.1072 14.9168L37.5169 15.0575C37.1825 15.1389 36.9328 15.4025 36.8835 15.7313C36.7186 16.8212 36.062 17.7764 35.0849 18.3525C34.1062 18.9271 32.9256 19.0559 31.8405 18.702C29.8554 18.0578 28.7796 16.0438 29.3915 14.1171L30.6646 10.1157C31.1593 8.55784 32.2305 7.23391 33.6762 6.38388L36.2855 4.85411L37.8761 0.947509C38.1874 0.186328 39.0828 -0.1913 39.8735 0.109322C40.6672 0.406982 41.0587 1.2659 40.7474 2.02856L38.9673 6.39869C38.844 6.69931 38.6205 6.95402 38.3338 7.12285L35.2821 8.91177C34.4792 9.3827 33.8873 10.1172 33.6114 10.9806L32.3384 14.9805C32.2166 15.364 32.4324 15.7668 32.8269 15.8957C33.1229 15.9919 33.3602 15.8942 33.4743 15.8261C33.5883 15.758 33.7887 15.601 33.8334 15.3018C34.063 13.781 35.2159 12.5563 36.7694 12.1831L37.4645 12.0172C37.5324 12.0009 37.6017 11.9891 37.6711 11.9817L38.8301 11.8617C39.2478 11.8173 39.6469 11.9343 39.9675 12.1846C40.1925 12.3623 40.416 12.5444 40.638 12.7295C44.0472 15.6158 46.3544 19.4972 47.3146 23.9577C47.7369 25.9288 47.7862 28.0968 47.4626 30.407C48.6833 30.6365 49.8053 31.2541 50.6406 32.187C51.8675 33.5598 52.2975 35.4198 51.7889 37.1628L51.6594 37.6071C50.9396 40.0817 49.01 42.0853 46.4993 42.9709L45.2971 43.3944L45.0043 44.8753C43.2535 53.7015 35.0987 60.0071 25.916 60.0071L25.9175 59.9997Z" fill="#585E48"/>
</g>
<defs>
<clipPath id="clip0_408_4161">
<rect width="52" height="60" fill="white"/>
</clipPath>
</defs>
</svg>
