<svg width="50" height="50" viewBox="0 0 50 50" fill="none" xmlns="http://www.w3.org/2000/svg">
<g clip-path="url(#clip0_771_214)">
<path d="M45.625 32.5004H4.375C1.9625 32.5004 0 30.5379 0 28.1255C0 25.7131 1.9625 23.7506 4.375 23.7506H45.625C48.0375 23.7506 50 25.7131 50 28.1255C50 30.5379 48.0375 32.5004 45.625 32.5004ZM4.375 26.2505C3.34125 26.2505 2.5 27.0918 2.5 28.1255C2.5 29.1592 3.34125 30.0005 4.375 30.0005H45.625C46.6588 30.0005 47.5 29.1592 47.5 28.1255C47.5 27.0918 46.6588 26.2505 45.625 26.2505H4.375Z" fill="white"/>
<path d="M13.125 26.2505H6.875C4.4625 26.2505 2.5 24.2881 2.5 21.8756C2.5 19.4632 4.4625 17.5007 6.875 17.5007H13.125C15.5375 17.5007 17.5 19.4632 17.5 21.8756C17.5 24.2881 15.5375 26.2505 13.125 26.2505ZM6.875 20.0007C5.84125 20.0007 5 20.8419 5 21.8756C5 22.9093 5.84125 23.7506 6.875 23.7506H13.125C14.1588 23.7506 15 22.9093 15 21.8756C15 20.8419 14.1588 20.0007 13.125 20.0007H6.875Z" fill="white"/>
<path d="M5 50C4.30875 50 3.75 49.4413 3.75 48.75V31.2505C3.75 30.5592 4.30875 30.0005 5 30.0005C5.69125 30.0005 6.25 30.5592 6.25 31.2505V48.75C6.25 49.4413 5.69125 50 5 50Z" fill="white"/>
<path d="M5.00001 42.5001C4.68001 42.5001 4.36001 42.3776 4.11626 42.1339C3.62751 41.6451 3.62751 40.8552 4.11626 40.3664L14.1163 30.3667C14.605 29.8779 15.395 29.8779 15.8838 30.3667C16.3725 30.8554 16.3725 31.6454 15.8838 32.1341L5.88376 42.1339C5.64001 42.3776 5.32001 42.5001 5.00001 42.5001Z" fill="white"/>
<path d="M45 50C44.3088 50 43.75 49.4413 43.75 48.75V31.2505C43.75 30.5592 44.3088 30.0005 45 30.0005C45.6912 30.0005 46.25 30.5592 46.25 31.2505V48.75C46.25 49.4413 45.6912 50 45 50Z" fill="white"/>
<path d="M45 42.5001C44.68 42.5001 44.36 42.3776 44.1163 42.1339L34.1163 32.1341C33.6275 31.6454 33.6275 30.8554 34.1163 30.3667C34.605 29.8779 35.395 29.8779 35.8838 30.3667L45.8838 40.3664C46.3725 40.8552 46.3725 41.6451 45.8838 42.1339C45.64 42.3776 45.32 42.5001 45 42.5001Z" fill="white"/>
<path d="M48.75 21.2507C48.0587 21.2507 47.5 20.6908 47.5 20.0008V3.09744L45.5587 3.87367C43.58 4.6649 41.3487 4.57365 39.44 3.61868C38.1687 2.98244 36.6875 2.92119 35.3675 3.44868L34.025 3.98617C32.2325 4.70115 30.26 4.70115 28.4737 3.98617L26.8475 3.33493C25.6562 2.8587 24.3425 2.8587 23.1512 3.33493L21.525 3.98617C19.735 4.7024 17.7625 4.7024 15.9737 3.98617L14.6312 3.44993C13.31 2.92119 11.8287 2.98369 10.5587 3.61868C8.65125 4.5724 6.41875 4.6649 4.44 3.87242L2.49875 3.09619V16.2496C2.49875 16.9396 1.94 17.4996 1.24875 17.4996C0.557499 17.4996 -0.00125122 16.9396 -0.00125122 16.2496V1.25124C-1.22064e-06 0.836246 0.206249 0.448756 0.548749 0.216262C0.893749 -0.0174826 1.3325 -0.0624815 1.71375 0.0900147L5.36875 1.55123C6.6875 2.07997 8.17125 2.01747 9.44125 1.38248C11.3487 0.428756 13.5812 0.336259 15.56 1.12874L16.9025 1.66498C18.0937 2.14246 19.4075 2.14121 20.5987 1.66498L22.225 1.01374C24.015 0.29751 25.9875 0.29751 27.7762 1.01374L29.4025 1.66498C30.5937 2.14121 31.9075 2.14121 33.0987 1.66498L34.4412 1.12749C36.42 0.336259 38.6513 0.427506 40.56 1.38248C41.8313 2.01747 43.3112 2.07871 44.6325 1.55248L48.2875 0.0900147C48.67 -0.0649814 49.1075 -0.0187325 49.4525 0.216262C49.795 0.448756 50.0012 0.836246 50.0012 1.25124V20.0008C50.0012 20.6908 49.4412 21.2507 48.75 21.2507Z" fill="white"/>
<path d="M7.5 12.5008C6.80875 12.5008 6.25 11.9409 6.25 11.2509V3.75107C6.25 3.06108 6.80875 2.5011 7.5 2.5011C8.19125 2.5011 8.75 3.06108 8.75 3.75107V11.2509C8.75 11.9409 8.19125 12.5008 7.5 12.5008Z" fill="white"/>
<path d="M18.75 12.5008C18.0588 12.5008 17.5 11.9409 17.5 11.2509V3.75107C17.5 3.06108 18.0588 2.5011 18.75 2.5011C19.4412 2.5011 20 3.06108 20 3.75107V11.2509C20 11.9409 19.4412 12.5008 18.75 12.5008Z" fill="white"/>
<path d="M31.25 12.5008C30.5588 12.5008 30 11.9409 30 11.2509V3.75107C30 3.06108 30.5588 2.5011 31.25 2.5011C31.9412 2.5011 32.5 3.06108 32.5 3.75107V11.2509C32.5 11.9409 31.9412 12.5008 31.25 12.5008Z" fill="white"/>
<path d="M42.5 12.5008C41.8088 12.5008 41.25 11.9409 41.25 11.2509V3.75107C41.25 3.06108 41.8088 2.5011 42.5 2.5011C43.1912 2.5011 43.75 3.06108 43.75 3.75107V11.2509C43.75 11.9409 43.1912 12.5008 42.5 12.5008Z" fill="white"/>
</g>
<defs>
<clipPath id="clip0_771_214">
<rect width="50" height="50" fill="white"/>
</clipPath>
</defs>
</svg>
