<svg width="50" height="50" viewBox="0 0 50 50" fill="none" xmlns="http://www.w3.org/2000/svg">
<path d="M37.6658 17.0528H35.1637C35.1637 15.7082 33.411 14.2444 30.5887 13.2309C30.2021 13.0929 29.9081 12.7718 29.8018 12.3729C29.6967 11.9753 29.7918 11.5513 30.0582 11.2365C30.3572 10.8853 30.635 10.3999 30.8439 9.8718C31.7559 7.55381 30.2522 5.04139 29.7693 4.32642C29.4215 3.81215 29.0099 3.34303 28.5382 2.92659C27.9415 3.47724 27.2897 3.96643 26.5916 4.38287C26.0049 4.73533 25.0366 5.23581 23.7681 5.60709C23.0024 5.83161 22.4907 5.89809 21.5612 6.02102L21.1346 6.07746C18.8227 6.38979 17.678 6.54407 16.5921 6.8263C15.2223 7.18127 14.588 7.36189 13.9012 7.9C13.4533 8.25247 12.794 8.77176 12.6501 9.48672C12.505 10.2105 12.8866 10.9518 13.2319 11.446C13.4545 11.7621 13.5171 12.1647 13.4033 12.5347C13.2894 12.906 13.0117 13.202 12.6501 13.34C10.0067 14.3422 8.36535 15.7646 8.36535 17.0528H5.86328C5.86328 14.8866 7.48212 12.9625 10.4571 11.5488C10.1205 10.6859 10.0305 9.82037 10.1969 8.98876C10.5234 7.36942 11.7544 6.40108 12.3449 5.93447C13.4858 5.03888 14.5254 4.7692 15.9654 4.39666C17.1964 4.07556 18.3911 3.915 20.7718 3.59389L21.236 3.53118C22.1204 3.41452 22.487 3.36686 23.0675 3.19627C23.8581 2.96422 24.6538 2.62054 25.3093 2.22919C26.1225 1.74125 26.8556 1.13416 27.4886 0.420446C27.9052 -0.0474184 28.602 -0.13773 29.1225 0.214736C30.2121 0.949772 31.1266 1.86041 31.8422 2.91907C32.499 3.89117 34.5344 7.33179 33.1721 10.79C33.082 11.0195 32.9832 11.2403 32.8768 11.4548C35.9431 12.8722 37.6683 14.8653 37.6683 17.0503L37.6658 17.0528Z" fill="white"/>
<path d="M16.2738 14.3937C13.7855 14.3937 11.3723 13.1983 11.2709 13.1481C10.6542 12.8383 10.404 12.0869 10.7117 11.4673C11.0195 10.8489 11.7688 10.5968 12.3881 10.9029C12.4081 10.9129 14.386 11.885 16.2738 11.885C16.9644 11.885 17.5248 12.4457 17.5248 13.1393C17.5248 13.833 16.9644 14.3937 16.2738 14.3937Z" fill="white"/>
<path d="M27.384 13.8606C27.2202 13.8606 27.0538 13.8556 26.8886 13.8455C26.1993 13.8041 25.6739 13.2096 25.7152 12.5184C25.7565 11.8261 26.3444 11.3055 27.0388 11.3419C28.9128 11.4623 30.9545 10.6031 30.9745 10.5943C31.61 10.3259 32.3444 10.6206 32.6146 11.2566C32.8848 11.8938 32.5908 12.6301 31.9566 12.9023C31.859 12.9437 29.6922 13.8606 27.384 13.8606Z" fill="white"/>
<path d="M30.0248 47.5242H11.2593C5.05167 47.5242 0 42.4605 0 36.2353V26.2006C0 24.126 1.68389 22.4377 3.7531 22.4377H38.782C40.8512 22.4377 42.5351 24.126 42.5351 26.2006V27.455C42.5351 28.1486 41.9746 28.7093 41.2841 28.7093C40.5935 28.7093 40.033 28.1486 40.033 27.455V26.2006C40.033 25.5082 39.4713 24.9463 38.782 24.9463H3.7531C3.06378 24.9463 2.50206 25.5082 2.50206 26.2006V36.2353C2.50206 41.0757 6.43031 45.0156 11.2593 45.0156H30.0248C30.7153 45.0156 31.2758 45.5762 31.2758 46.2699C31.2758 46.9635 30.7153 47.5242 30.0248 47.5242Z" fill="white"/>
<path d="M40.0329 24.9463H2.50195V19.929C2.50195 17.8543 4.18584 16.166 6.25505 16.166H36.2798C38.349 16.166 40.0329 17.8543 40.0329 19.929V24.9463ZM5.00402 22.4377H37.5309V19.929C37.5309 19.2366 36.9691 18.6747 36.2798 18.6747H6.25505C5.56573 18.6747 5.00402 19.2366 5.00402 19.929V22.4377Z" fill="white"/>
<path d="M21.2679 42.5069C17.1282 42.5069 13.7617 39.1315 13.7617 34.9809C13.7617 30.8304 17.1282 27.455 21.2679 27.455C25.4076 27.455 28.7741 30.8304 28.7741 34.9809C28.7741 39.1315 25.4076 42.5069 21.2679 42.5069ZM21.2679 29.9636C18.5081 29.9636 16.2638 32.2139 16.2638 34.9809C16.2638 37.748 18.5081 39.9982 21.2679 39.9982C24.0277 39.9982 26.272 37.748 26.272 34.9809C26.272 32.2139 24.0277 29.9636 21.2679 29.9636Z" fill="white"/>
<path d="M45.7511 49.989C45.6736 49.989 45.596 49.9814 45.5172 49.9664L42.4021 49.3768C40.9146 49.1009 39.6461 48.1664 38.928 46.8143C38.604 46.2034 38.8342 45.4433 39.4447 45.1171C40.0552 44.7923 40.8121 45.0243 41.1373 45.6352C41.4901 46.2987 42.1344 46.7754 42.8625 46.9108L44.7578 47.2696L45.1231 45.3718C45.2457 44.7133 45.1094 44.051 44.7378 43.5179C44.3425 42.9509 44.4801 42.1682 45.0468 41.7706C45.6135 41.3767 46.3942 41.5135 46.7895 42.0817C47.5476 43.1692 47.8291 44.5038 47.5814 45.8371L46.9796 48.9692C46.8645 49.5688 46.3404 49.9864 45.7524 49.9864L45.7511 49.989Z" fill="white"/>
<path d="M34.3144 50.0015C33.7264 50.0015 33.2023 49.5851 33.0872 48.9842L32.4867 45.8622C32.2402 44.5289 32.5142 43.198 33.2573 42.1068C33.6464 41.5348 34.427 41.3905 34.9962 41.7781C35.5667 42.1695 35.7131 42.9497 35.324 43.5229C34.9562 44.0623 34.8223 44.7283 34.9462 45.3956L35.3077 47.2784L37.1943 46.9134C37.9424 46.7779 38.5704 46.3125 38.9282 45.6364C39.2097 45.1247 39.2973 44.5602 39.1897 43.9845L38.8031 41.9726C38.673 41.2915 39.1159 40.6342 39.7952 40.5025C40.4733 40.3733 41.1288 40.8173 41.2601 41.4972L41.648 43.5166C41.8594 44.6618 41.6742 45.8359 41.1263 46.8306C40.4157 48.1702 39.1459 49.1047 37.6534 49.3781L34.5509 49.9789C34.4721 49.994 34.392 50.0015 34.3132 50.0015H34.3144Z" fill="white"/>
<path d="M35.8267 44.4072C35.1224 44.4072 34.4193 44.2554 33.7676 43.9544C32.4515 43.3724 31.4456 42.2297 31.0278 40.8286L30.1158 37.7831C29.9169 37.1196 30.2922 36.4196 30.9527 36.2202L33.9927 35.3045C35.0524 34.9947 36.182 35.0311 37.1804 35.4074C37.6695 35.5905 37.9935 36.0597 37.9935 36.5827C37.9935 37.2763 37.4331 37.8433 36.7425 37.8433C36.5498 37.8433 36.3672 37.8007 36.2046 37.7229C35.7329 37.5724 35.2037 37.5648 34.7033 37.7103L32.8718 38.2623L33.4248 40.1086C33.6337 40.8073 34.1329 41.3742 34.7972 41.6677C35.3576 41.9261 35.9706 41.9675 36.5398 41.7919L38.3914 41.235L38.2913 40.9064C38.1312 40.4623 38.225 39.9443 38.579 39.5893C39.0657 39.1001 39.8526 39.0926 40.3417 39.5831C40.4843 39.7261 40.6019 39.9142 40.6632 40.1061L41.1449 41.7179C41.3413 42.3802 40.966 43.0776 40.3054 43.2771L37.2654 44.1915C36.7963 44.3344 36.3096 44.4072 35.8267 44.4072Z" fill="white"/>
<path d="M39.4575 41.7229C39.1372 41.7229 38.8169 41.6 38.573 41.3554L36.9341 39.7123C36.121 38.912 35.6218 37.8722 35.4992 36.7119C35.3266 35.2042 35.8495 33.7078 36.9341 32.619L39.186 30.3612C39.4212 30.1254 39.7389 29.9937 40.0705 29.9937C40.4032 29.9937 40.7223 30.1267 40.9574 30.3638L43.1968 32.6215C44.2539 33.6827 44.7831 35.1565 44.6442 36.6693C44.5804 37.3591 43.9699 37.8584 43.2844 37.8032C42.5963 37.7392 42.0896 37.1283 42.1534 36.4385C42.2235 35.6733 41.9583 34.927 41.4253 34.3927L40.068 33.0242L38.7031 34.3927C38.1601 34.937 37.8987 35.6808 37.9862 36.436C38.0475 37.0217 38.2928 37.5335 38.6943 37.9286L40.3419 39.5793C40.8311 40.0697 40.8311 40.8625 40.3419 41.3529C40.098 41.5975 39.7777 41.7204 39.4575 41.7204V41.7229Z" fill="white"/>
<path d="M44.2381 44.3997C43.7614 44.3997 43.2773 44.3307 42.7994 44.1864L39.7619 43.2708C39.1001 43.0713 38.7248 42.3714 38.9249 41.7079L39.8382 38.6611C40.6338 36.012 43.4349 34.5055 46.0721 35.302L49.1096 36.2177C49.4274 36.3143 49.6938 36.5325 49.8515 36.8248C50.0078 37.1183 50.0429 37.462 49.9478 37.7806L49.0333 40.8261C48.3815 42.9948 46.3898 44.3997 44.2381 44.3997ZM41.6797 41.2287L43.5187 41.7832C44.8373 42.1795 46.2385 41.4294 46.6363 40.1036L47.1893 38.2597L45.3502 37.7053C44.0292 37.3065 42.6317 38.0591 42.2327 39.3836L41.6797 41.2287Z" fill="white"/>
</svg>
