<svg width="50" height="50" viewBox="0 0 50 50" fill="none" xmlns="http://www.w3.org/2000/svg">
<g clip-path="url(#clip0_437_1478)">
<path d="M47.5 43.75H2.5C1.12125 43.75 0 42.6287 0 41.25V38.75C0 37.3712 1.12125 36.25 2.5 36.25H47.5C48.8787 36.25 50 37.3712 50 38.75V41.25C50 42.6287 48.8787 43.75 47.5 43.75ZM2.5 38.75V41.25H47.5013V38.75H2.5Z" fill="#585E48"/>
<path d="M7.5 50H5C3.62125 50 2.5 48.8787 2.5 47.5V42.5C2.5 41.8088 3.06 41.25 3.75 41.25H8.75C9.44 41.25 10 41.8088 10 42.5V47.5C10 48.8787 8.87875 50 7.5 50ZM5 43.75V47.5H7.50125V43.75H5Z" fill="#585E48"/>
<path d="M45 50H42.5C41.1212 50 40 48.8787 40 47.5V42.5C40 41.8088 40.56 41.25 41.25 41.25H46.25C46.94 41.25 47.5 41.8088 47.5 42.5V47.5C47.5 48.8787 46.3787 50 45 50ZM42.5 43.75V47.5H45.0012V43.75H42.5Z" fill="#585E48"/>
<path d="M19.0638 11.3237C19.0125 11.3237 18.96 11.3212 18.9088 11.3137C18.2238 11.23 17.7363 10.6063 17.8213 9.92125L18.5838 3.7475L16.25 3.75C15.9188 3.75 15.6 3.61875 15.3663 3.38375L14.4825 2.5H11.4L12.205 9.875C12.2813 10.5612 11.7863 11.1788 11.0988 11.255C10.4175 11.3275 9.79627 10.835 9.71877 10.1487L8.90627 2.775C8.83377 2.05875 9.06502 1.35125 9.54002 0.825C10.0138 0.3 10.6913 0 11.3988 0H14.9988C15.33 0 15.6488 0.13125 15.8825 0.36625L16.7663 1.25H18.5863C19.3075 1.25 19.9938 1.5625 20.47 2.1075C20.9413 2.64875 21.1575 3.3625 21.0613 4.06875L20.3013 10.2275C20.2225 10.8612 19.6838 11.325 19.0625 11.325L19.0638 11.3237Z" fill="#585E48"/>
<path d="M21.25 38.7505H8.75C4.61375 38.7505 1.25 35.3867 1.25 31.2505V30.0005C1.25 25.573 3.40375 21.3892 7.01 18.8092C7.8175 18.2292 8.48375 17.483 8.98875 16.5955C9.32875 15.9942 10.0912 15.7855 10.6925 16.1242C11.2925 16.4655 11.5025 17.2292 11.1625 17.828C10.4788 19.033 9.5725 20.0455 8.4675 20.8405C5.51375 22.953 3.75125 26.3767 3.75125 29.9992V31.2492C3.75125 34.0067 5.99375 36.2492 8.75125 36.2492H21.2512C24.0087 36.2492 26.2512 34.0067 26.2512 31.2492V29.9992C26.2512 26.3767 24.4888 22.953 21.5363 20.8417C20.3813 20.0192 19.4037 18.898 18.7113 17.6005C18.3862 16.9917 18.6163 16.2342 19.225 15.9092C19.8363 15.5842 20.5925 15.8142 20.9175 16.423C21.4287 17.3817 22.145 18.2055 22.99 18.8055C26.5988 21.3867 28.7525 25.5705 28.7525 29.998V31.248C28.7525 35.3842 25.3888 38.748 21.2525 38.748L21.25 38.7505Z" fill="#585E48"/>
<path d="M18.8125 15.0243C18.2188 15.0243 17.7213 14.6106 17.5938 14.0556C17.4388 13.4918 17.6975 12.8793 18.2413 12.6081C18.8613 12.3006 19.61 12.5506 19.9188 13.1668C20.005 13.3406 20.0625 13.5806 20.0625 13.7743C20.0625 14.4643 19.5025 15.0243 18.8125 15.0243Z" fill="#585E48"/>
<path d="M18.5662 18.75H11.0662C9.34372 18.75 7.94122 17.3488 7.94122 15.625C7.94122 13.9013 9.34372 12.5 11.0662 12.5H18.5662C20.2887 12.5 21.6912 13.9013 21.6912 15.625C21.6912 17.3488 20.2887 18.75 18.5662 18.75ZM11.0662 15C10.7212 15 10.4412 15.2812 10.4412 15.625C10.4412 15.9688 10.7212 16.25 11.0662 16.25H18.5662C18.9112 16.25 19.1912 15.9688 19.1912 15.625C19.1912 15.2812 18.9112 15 18.5662 15H11.0662Z" fill="#585E48"/>
<path d="M18.5662 15H11.0662C9.34372 15 7.94122 13.5988 7.94122 11.875C7.94122 10.1513 9.34372 8.75 11.0662 8.75H18.5662C20.2887 8.75 21.6912 10.1513 21.6912 11.875C21.6912 13.5988 20.2887 15 18.5662 15ZM11.0662 11.25C10.7212 11.25 10.4412 11.5312 10.4412 11.875C10.4412 12.2188 10.7212 12.5 11.0662 12.5H18.5662C18.9112 12.5 19.1912 12.2188 19.1912 11.875C19.1912 11.5312 18.9112 11.25 18.5662 11.25H11.0662Z" fill="#585E48"/>
<path d="M8.74875 28.7503C8.18875 28.7503 7.68 28.3716 7.5375 27.8028C6.66 24.2953 7.70375 20.5291 10.2612 17.9728L11.6162 16.6166C12.1037 16.1278 12.895 16.1278 13.3837 16.6166C13.8725 17.1053 13.8725 17.8953 13.3837 18.3841L12.0287 19.7403C10.09 21.6803 9.2975 24.5366 9.96375 27.1978C10.1312 27.8666 9.72375 28.5453 9.05375 28.7128C8.95125 28.7391 8.85 28.7503 8.74875 28.7503Z" fill="#585E48"/>
<path d="M15.13 29.0328C14.6925 29.0328 14.2688 28.8028 14.0388 28.394C12.2575 25.2228 12.355 21.339 14.2938 18.2615L15.1925 16.834C15.5613 16.249 16.3325 16.074 16.9163 16.444C17.5 16.8115 17.675 17.5828 17.3075 18.1678L16.4088 19.594C14.96 21.8965 14.8863 24.8003 16.2188 27.1715C16.5575 27.7728 16.3425 28.5353 15.7413 28.8728C15.5475 28.9815 15.3375 29.0328 15.13 29.0328Z" fill="#585E48"/>
<path d="M21.25 26.2503C20.56 26.2503 20 25.6916 20 25.0003C20 22.9166 19.1888 20.9578 17.715 19.4828L16.6163 18.3841C16.1275 17.8953 16.1275 17.1053 16.6163 16.6166C17.105 16.1278 17.895 16.1278 18.3838 16.6166L19.4825 17.7153C21.4288 19.6628 22.5 22.2491 22.5 25.0003C22.5 25.6916 21.94 26.2503 21.25 26.2503Z" fill="#585E48"/>
<path d="M15 7.5C14.31 7.5 13.75 6.94125 13.75 6.25V2.5C13.75 1.80875 14.31 1.25 15 1.25C15.69 1.25 16.25 1.80875 16.25 2.5V6.25C16.25 6.94125 15.69 7.5 15 7.5Z" fill="#585E48"/>
<path d="M45.7137 38.2234C45.6362 38.2234 45.5587 38.2159 45.48 38.2009L42.3675 37.6134C40.8825 37.3384 39.615 36.4084 38.8962 35.0609C38.5712 34.4521 38.8025 33.6934 39.4112 33.3684C40.0212 33.0471 40.7775 33.2759 41.1025 33.8834C41.455 34.5459 42.1 35.0209 42.8262 35.1559L44.72 35.5134L45.085 33.6221C45.2075 32.9659 45.0712 32.3046 44.7 31.7734C44.305 31.2071 44.4437 30.4284 45.0112 30.0321C45.5787 29.6396 46.3575 29.7771 46.7512 30.3421C47.5075 31.4271 47.7887 32.7571 47.5425 34.0859L46.9412 37.2071C46.8262 37.8046 46.3025 38.2209 45.715 38.2209L45.7137 38.2234Z" fill="#585E48"/>
<path d="M34.2862 38.2346C33.6987 38.2346 33.175 37.8196 33.06 37.2209L32.46 34.1084C32.2137 32.7809 32.4875 31.4546 33.23 30.3671C33.6187 29.7984 34.3975 29.6534 34.9675 30.0396C35.5375 30.4296 35.6837 31.2071 35.295 31.7784C34.9275 32.3159 34.7937 32.9784 34.9175 33.6434L35.2787 35.5209L37.1637 35.1571C37.91 35.0221 38.5387 34.5584 38.8975 33.8834C39.1737 33.3821 39.2637 32.8034 39.1587 32.2384L38.7725 30.2334C38.6425 29.5546 39.085 28.8996 39.7637 28.7684C40.44 28.6396 41.0962 29.0821 41.2275 29.7596L41.615 31.7721C41.8262 32.9134 41.6412 34.0834 41.0937 35.0746C40.3825 36.4109 39.115 37.3409 37.6237 37.6134L34.5237 38.2121C34.445 38.2271 34.365 38.2346 34.2862 38.2346Z" fill="#585E48"/>
<path d="M35.7975 32.6613C35.0925 32.6613 34.3912 32.5113 33.74 32.2113C32.4237 31.6288 31.42 30.49 31.0025 29.0963L30.0912 26.06C29.995 25.7413 30.03 25.4 30.1875 25.1075C30.3437 24.8163 30.6112 24.5975 30.9287 24.5025L33.9662 23.5913C35.02 23.2825 36.1487 23.3175 37.1487 23.6913C37.6387 23.8738 37.9625 24.3413 37.9625 24.8638C37.9625 25.555 37.4025 26.12 36.7125 26.12C36.5187 26.12 36.335 26.0775 36.1712 25.9988C35.6987 25.85 35.1712 25.8438 34.6762 25.9888L32.8437 26.5375L33.3962 28.3788C33.605 29.0738 34.1037 29.64 34.7687 29.9338C35.3262 30.1888 35.94 30.2313 36.51 30.0563L38.3587 29.5L38.2587 29.1738C38.0987 28.7313 38.1925 28.215 38.5462 27.8613C39.0337 27.3725 39.82 27.365 40.3075 27.855C40.45 27.9975 40.5675 28.185 40.6287 28.3763L41.11 29.9813C41.3062 30.6413 40.9312 31.3363 40.2725 31.535L37.235 32.4475C36.765 32.59 36.28 32.6613 35.7975 32.6613Z" fill="#585E48"/>
<path d="M39.425 29.9869C39.105 29.9869 38.785 29.8644 38.5412 29.6206L36.9037 27.9819C36.0912 27.1844 35.5925 26.1481 35.47 24.9919C35.2975 23.4894 35.82 21.9981 36.9037 20.9144L39.1525 18.6631C39.3875 18.4281 39.705 18.2969 40.0375 18.2969C40.37 18.2969 40.69 18.4294 40.9237 18.6656L43.1612 20.9169C44.2175 21.9719 44.7462 23.4431 44.6075 24.9506C44.545 25.6381 43.9362 26.1444 43.2487 26.0806C42.5612 26.0169 42.055 25.4081 42.1187 24.7206C42.1887 23.9569 41.9237 23.2144 41.3925 22.6831L40.0362 21.3181L38.6737 22.6819C38.1312 23.2244 37.87 23.9656 37.9562 24.7169C38.0175 25.3006 38.2625 25.8106 38.6637 26.2044L40.31 27.8506C40.7987 28.3394 40.7987 29.1294 40.31 29.6181C40.0662 29.8619 39.7462 29.9844 39.4262 29.9844L39.425 29.9869Z" fill="#585E48"/>
<path d="M44.2013 32.6535C43.725 32.6535 43.2413 32.5847 42.7638 32.441L39.7288 31.526C39.0675 31.3272 38.6938 30.6297 38.8925 29.9697L39.805 26.9347C40.19 25.656 41.05 24.6035 42.2263 23.971C43.4038 23.341 44.755 23.206 46.0338 23.5872L49.0688 24.4997C49.3863 24.596 49.6525 24.8135 49.81 25.1047C49.9663 25.3972 50.0013 25.7397 49.9063 26.0572L48.9925 29.0922C48.3413 31.2535 46.3513 32.6535 44.2013 32.6535ZM41.645 29.4935L43.4838 30.0472C44.8038 30.4372 46.2013 29.6935 46.5975 28.3722L47.15 26.5347L45.3125 25.9822C44.6725 25.7897 43.9975 25.8572 43.4088 26.1722C42.8213 26.4885 42.3913 27.0147 42.1988 27.6547L41.645 29.4935Z" fill="#585E48"/>
</g>
<defs>
<clipPath id="clip0_437_1478">
<rect width="50" height="50" fill="white"/>
</clipPath>
</defs>
</svg>
