<svg width="50" height="47" viewBox="0 0 50 47" fill="none" xmlns="http://www.w3.org/2000/svg">
<g clip-path="url(#clip0_482_56)">
<path d="M19.9083 12.6422C12.649 12.6422 7.17383 9.92541 7.17383 6.32111C7.17383 2.71681 12.649 0 19.9083 0C27.1676 0 32.6428 2.71681 32.6428 6.32111C32.6428 9.92541 27.1688 12.6422 19.9083 12.6422ZM19.9083 2.52845C13.6672 2.52845 9.68481 4.77497 9.68481 6.32111C9.68481 7.86726 13.6672 10.1138 19.9083 10.1138C26.1493 10.1138 30.1318 7.86726 30.1318 6.32111C30.1318 4.77497 26.1493 2.52845 19.9083 2.52845Z" fill="#585E48"/>
<path d="M19.9084 26.5482C10.1947 26.5482 2.87012 23.0159 2.87012 18.3307C2.87012 13.6455 10.1947 10.1133 19.9084 10.1133C29.6222 10.1133 36.9467 13.6455 36.9467 18.3307C36.9467 23.0159 29.6222 26.5482 19.9084 26.5482ZM19.9084 12.6417C11.3472 12.6417 5.3811 15.6405 5.3811 18.3307C5.3811 21.021 11.3472 24.0197 19.9084 24.0197C28.4696 24.0197 34.4357 21.021 34.4357 18.3307C34.4357 15.6405 28.4696 12.6417 19.9084 12.6417Z" fill="#585E48"/>
<path d="M20.7507 22.233C20.0564 22.233 19.4952 21.6666 19.4952 20.9688C19.4952 20.2709 20.0564 19.7045 20.7507 19.7045C25.5618 19.7045 28.2962 18.4605 28.6892 17.793C29.0445 17.1925 29.8141 16.9978 30.4105 17.3531C31.0069 17.7109 31.2015 18.4858 30.8474 19.0863C29.4739 21.4074 24.5499 22.233 20.7507 22.233Z" fill="#585E48"/>
<path d="M19.9083 42.9829C8.74451 42.9829 0 38.8185 0 33.5012C0 28.1839 8.74576 24.0195 19.9083 24.0195C26.0264 24.0195 31.6849 25.2736 35.4325 27.4607C36.0339 27.8109 36.2385 28.5846 35.8895 29.1889C35.5405 29.792 34.7709 29.998 34.1745 29.6491C30.8475 27.7073 25.5141 26.5492 19.9083 26.5492C9.65599 26.5492 2.51099 30.213 2.51099 33.5025C2.51099 36.792 9.65599 40.4557 19.9083 40.4557C22.8776 40.4557 25.818 40.1333 28.4105 39.5214C29.0835 39.3609 29.7615 39.7844 29.9184 40.4645C30.0766 41.1447 29.6572 41.8248 28.9818 41.9841C26.2046 42.639 23.0672 42.9854 19.9071 42.9854L19.9083 42.9829Z" fill="#585E48"/>
<path d="M18.0251 38.6685C12.6101 38.6685 7.86562 37.5497 5.94095 35.8203C5.42369 35.355 5.37974 34.556 5.84051 34.0352C6.30253 33.5143 7.09851 33.4701 7.61327 33.934C8.83361 35.0314 12.801 36.1414 18.0251 36.1414C18.7194 36.1414 19.2806 36.7077 19.2806 37.4056C19.2806 38.1034 18.7194 38.6685 18.0251 38.6685Z" fill="#585E48"/>
<path d="M45.7364 46.9865C45.6585 46.9865 45.5807 46.9802 45.5016 46.9638L42.3754 46.3696C40.8826 46.0927 39.6096 45.1509 38.8889 43.7881C38.5625 43.1724 38.7948 42.4063 39.4074 42.0776C40.0176 41.7501 40.7809 41.984 41.1061 42.5997C41.4589 43.2685 42.1067 43.7489 42.8374 43.8854L44.7395 44.247L45.1049 42.3355C45.2279 41.6705 45.0911 41.0042 44.7182 40.4657C44.3227 39.893 44.4608 39.1054 45.0295 38.7046C45.602 38.3039 46.3817 38.4455 46.7784 39.0181C47.538 40.1155 47.8205 41.4594 47.5732 42.8045L46.9705 45.9613C46.8538 46.5668 46.3277 46.9865 45.7389 46.9865H45.7364Z" fill="#585E48"/>
<path d="M34.2586 46.9994C34.01 46.9994 33.764 46.9248 33.5543 46.7819C33.2781 46.5935 33.0885 46.304 33.0245 45.9741L32.4231 42.8262C32.177 41.4848 32.4507 40.1435 33.1965 39.0423C33.5882 38.4646 34.3679 38.3167 34.9416 38.7098C35.5141 39.103 35.6623 39.8894 35.2718 40.4671C34.9027 41.012 34.7684 41.6833 34.8914 42.3559L35.2542 44.2535L37.1475 43.8856C37.8996 43.7478 38.5298 43.2787 38.8889 42.5986C39.1726 42.0828 39.2593 41.5139 39.1513 40.9349L38.7633 38.9071C38.6328 38.2219 39.0785 37.5581 39.7602 37.4267C40.4357 37.2901 41.0973 37.7427 41.2304 38.4292L41.6196 40.4646C41.833 41.6176 41.646 42.8021 41.096 43.8059C40.3829 45.1549 39.1099 46.0967 37.6121 46.3723L34.4984 46.9766C34.4193 46.9918 34.3402 46.9994 34.2611 46.9994H34.2586Z" fill="#585E48"/>
<path d="M35.7765 41.3614C35.0697 41.3614 34.3641 41.2084 33.71 40.905C32.3867 40.3184 31.3786 39.1667 30.9605 37.7546L30.0452 34.6838C29.8469 34.015 30.2235 33.3108 30.8864 33.1098L33.9372 32.1869C35.0032 31.8734 36.1344 31.9126 37.1362 32.2893C37.6284 32.4739 37.9523 32.9467 37.9523 33.4739C37.9523 34.1718 37.3911 34.7445 36.6968 34.7445C36.5047 34.7445 36.3202 34.7015 36.157 34.6231C35.6799 34.4676 35.1501 34.4651 34.6504 34.6117L32.8111 35.168L33.366 37.0302C33.5744 37.7331 34.0754 38.3045 34.742 38.6003C35.3032 38.8608 35.9197 38.9012 36.4922 38.7255L38.3491 38.1629L38.2486 37.8292C38.0892 37.3816 38.1846 36.862 38.5386 36.5055C39.0308 36.0099 39.8192 36.0061 40.3076 36.4992C40.4507 36.6446 40.5713 36.8342 40.6315 37.0302L41.1136 38.6509C41.3095 39.3184 40.9329 40.0213 40.2712 40.2223L37.2204 41.1452C36.7496 41.2906 36.2624 41.3627 35.7778 41.3627L35.7765 41.3614Z" fill="#585E48"/>
<path d="M39.4187 38.6564C39.0973 38.6564 38.7759 38.5325 38.5311 38.286L36.8864 36.6299C36.0715 35.8258 35.5693 34.7778 35.4463 33.6071C35.2705 32.0863 35.7953 30.578 36.8864 29.4807L39.1462 27.2064C39.3823 26.9687 39.6999 26.8359 40.0339 26.8359C40.3678 26.8359 40.688 26.9699 40.9228 27.2089L43.1701 29.4845C44.2297 30.5515 44.7608 32.0395 44.6227 33.5629C44.5587 34.2582 43.9573 34.7689 43.258 34.7083C42.5675 34.645 42.059 34.0294 42.1218 33.3353C42.1921 32.5603 41.9259 31.8081 41.3923 31.2708L40.0301 29.8916L38.6604 31.2708C38.1142 31.8195 37.8518 32.5692 37.9397 33.329C38.0025 33.9194 38.2486 34.4364 38.6503 34.8334L40.3038 36.4984C40.7947 36.9927 40.7947 37.793 40.3038 38.286C40.059 38.5325 39.7376 38.6564 39.4162 38.6564H39.4187Z" fill="#585E48"/>
<path d="M44.2272 41.3568C43.7401 41.3568 43.2517 41.2847 42.7734 41.1393L39.7238 40.2165C39.4049 40.1204 39.1374 39.9004 38.9793 39.6046C38.8211 39.31 38.7872 38.9636 38.8838 38.6412L39.8016 35.5717C40.5976 32.9029 43.4074 31.3846 46.0565 32.1874L49.1048 33.1103C49.769 33.3113 50.1456 34.0167 49.946 34.6855L49.0295 37.755C48.6415 39.0483 47.779 40.1128 46.5963 40.7525C45.8543 41.1533 45.0445 41.3581 44.226 41.3581L44.2272 41.3568ZM41.6497 38.1596L43.4965 38.7184C44.1381 38.9118 44.8186 38.8435 45.4074 38.5249C46 38.2051 46.4306 37.6728 46.624 37.0256L47.1789 35.1672L45.3333 34.6084C44.0088 34.2076 42.6039 34.9661 42.2059 36.2999L41.6497 38.1596Z" fill="#585E48"/>
<path d="M19.9133 8.55746C18.9993 8.55746 18.0853 8.47528 17.1738 8.30967C16.4921 8.18578 16.0389 7.52838 16.1606 6.84064C16.2837 6.15417 16.9303 5.69779 17.6195 5.82042C19.145 6.09854 20.6829 6.09728 22.1945 5.82042C23.3822 5.60297 24.536 5.21612 25.6245 4.66871C26.241 4.35645 26.9981 4.61055 27.3082 5.23508C27.6183 5.85961 27.3659 6.6194 26.7457 6.9304C25.4463 7.58527 24.0652 8.04798 22.6428 8.30714C21.7388 8.47275 20.8273 8.55493 19.9121 8.55493L19.9133 8.55746Z" fill="#585E48"/>
</g>
<defs>
<clipPath id="clip0_482_56">
<rect width="50" height="47" fill="white"/>
</clipPath>
</defs>
</svg>
