<svg width="24" height="24" viewBox="0 0 24 24" fill="none" xmlns="http://www.w3.org/2000/svg">
<g clip-path="url(#clip0_265_17572)">
<path d="M2.57171 10.2852H4.28599C4.51332 10.2852 4.73134 10.3755 4.89208 10.5362C5.05283 10.697 5.14314 10.915 5.14314 11.1423V15.428C5.14314 15.6553 5.05283 15.8734 4.89208 16.0341C4.73134 16.1949 4.51332 16.2852 4.28599 16.2852H2.57171C2.11705 16.2852 1.68102 16.1045 1.35952 15.7831C1.03803 15.4616 0.857422 15.0255 0.857422 14.5709V11.9994C0.857422 11.5448 1.03803 11.1088 1.35952 10.7873C1.68102 10.4658 2.11705 10.2852 2.57171 10.2852V10.2852Z" stroke="white" stroke-width="1.5" stroke-linecap="round" stroke-linejoin="round"/>
<path d="M21.4289 16.2852H19.7146C19.4873 16.2852 19.2693 16.1949 19.1085 16.0341C18.9478 15.8734 18.8575 15.6553 18.8575 15.428V11.1423C18.8575 10.915 18.9478 10.697 19.1085 10.5362C19.2693 10.3755 19.4873 10.2852 19.7146 10.2852H21.4289C21.8836 10.2852 22.3196 10.4658 22.6411 10.7873C22.9626 11.1088 23.1432 11.5448 23.1432 11.9994V14.5709C23.1432 15.0255 22.9626 15.4616 22.6411 15.7831C22.3196 16.1045 21.8836 16.2852 21.4289 16.2852V16.2852Z" stroke="white" stroke-width="1.5" stroke-linecap="round" stroke-linejoin="round"/>
<path d="M16.286 20.9994C17.1953 20.9994 18.0674 20.6382 18.7104 19.9952C19.3534 19.3523 19.7146 18.4802 19.7146 17.5709V16.2852" stroke="white" stroke-width="1.5" stroke-linecap="round" stroke-linejoin="round"/>
<path d="M14.1431 18.8574C14.7114 18.8574 15.2565 19.0832 15.6583 19.4851C16.0602 19.8869 16.286 20.432 16.286 21.0003C16.286 21.5686 16.0602 22.1136 15.6583 22.5155C15.2565 22.9174 14.7114 23.1431 14.1431 23.1431H11.5717C11.0034 23.1431 10.4583 22.9174 10.0565 22.5155C9.6546 22.1136 9.42883 21.5686 9.42883 21.0003C9.42883 20.432 9.6546 19.8869 10.0565 19.4851C10.4583 19.0832 11.0034 18.8574 11.5717 18.8574H14.1431Z" stroke="white" stroke-width="1.5" stroke-linecap="round" stroke-linejoin="round"/>
<path d="M4.28601 10.286V8.57171C4.28601 6.52575 5.09876 4.56359 6.54547 3.11688C7.99218 1.67017 9.95434 0.857422 12.0003 0.857422C14.0463 0.857422 16.0084 1.67017 17.4551 3.11688C18.9018 4.56359 19.7146 6.52575 19.7146 8.57171V10.286" stroke="white" stroke-width="1.5" stroke-linecap="round" stroke-linejoin="round"/>
<path d="M9.42883 6.85742V9.42885" stroke="white" stroke-width="1.5" stroke-linecap="round" stroke-linejoin="round"/>
<path d="M14.5717 6.85742V9.42885" stroke="white" stroke-width="1.5" stroke-linecap="round" stroke-linejoin="round"/>
<path d="M9.42883 12.8574C9.42883 15.1374 14.5717 15.1374 14.5717 12.8574" stroke="white" stroke-width="1.5" stroke-linecap="round" stroke-linejoin="round"/>
</g>
<defs>
<clipPath id="clip0_265_17572">
<rect width="24" height="24" fill="white"/>
</clipPath>
</defs>
</svg>
