<svg width="50" height="50" viewBox="0 0 50 50" fill="none" xmlns="http://www.w3.org/2000/svg">
<path d="M45.6239 32.5H4.376C1.96362 32.5 0.0012207 30.5375 0.0012207 28.125C0.0012207 25.7125 1.96362 23.75 4.376 23.75H45.6239C48.0363 23.75 49.9987 25.7125 49.9987 28.125C49.9987 30.5375 48.0363 32.5 45.6239 32.5ZM4.376 26.25C3.3423 26.25 2.5011 27.0912 2.5011 28.125C2.5011 29.1588 3.3423 30 4.376 30H45.6239C46.6576 30 47.4988 29.1588 47.4988 28.125C47.4988 27.0912 46.6576 26.25 45.6239 26.25H4.376Z" fill="#585E48"/>
<path d="M13.1256 26.25H6.87588C4.4635 26.25 2.5011 24.2875 2.5011 21.875C2.5011 19.4625 4.4635 17.5 6.87588 17.5H13.1256C15.5379 17.5 17.5003 19.4625 17.5003 21.875C17.5003 24.2875 15.5379 26.25 13.1256 26.25ZM6.87588 20C5.84218 20 5.00097 20.8412 5.00097 21.875C5.00097 22.9087 5.84218 23.75 6.87588 23.75H13.1256C14.1593 23.75 15.0005 22.9087 15.0005 21.875C15.0005 20.8412 14.1593 20 13.1256 20H6.87588Z" fill="#585E48"/>
<path d="M5.00098 50C4.30976 50 3.75104 49.4412 3.75104 48.75V31.25C3.75104 30.5588 4.30976 30 5.00098 30C5.69219 30 6.25091 30.5588 6.25091 31.25V48.75C6.25091 49.4412 5.69219 50 5.00098 50Z" fill="#585E48"/>
<path d="M5.00098 42.5003C4.681 42.5003 4.36101 42.3778 4.11728 42.1341C3.62855 41.6453 3.62855 40.8553 4.11728 40.3666L14.1168 30.3666C14.6055 29.8778 15.3955 29.8778 15.8842 30.3666C16.3729 30.8553 16.3729 31.6453 15.8842 32.1341L5.88469 42.1341C5.64095 42.3778 5.32097 42.5003 5.00098 42.5003Z" fill="#585E48"/>
<path d="M44.999 50C44.3077 50 43.749 49.4412 43.749 48.75V31.25C43.749 30.5588 44.3077 30 44.999 30C45.6902 30 46.2489 30.5588 46.2489 31.25V48.75C46.2489 49.4412 45.6902 50 44.999 50Z" fill="#585E48"/>
<path d="M44.999 42.5003C44.679 42.5003 44.359 42.3778 44.1153 42.1341L34.1158 32.1341C33.627 31.6453 33.627 30.8553 34.1158 30.3666C34.6045 29.8778 35.3944 29.8778 35.8832 30.3666L45.8827 40.3666C46.3714 40.8553 46.3714 41.6453 45.8827 42.1341C45.6389 42.3778 45.3189 42.5003 44.999 42.5003Z" fill="#585E48"/>
<path d="M48.7488 21.2515C48.0576 21.2515 47.4989 20.6915 47.4989 20.0015V3.09776L45.5577 3.87401C43.5791 4.66526 41.3479 4.57401 39.4393 3.61901C38.1681 2.98276 36.6869 2.92151 35.367 3.44901L34.0245 3.98651C32.2321 4.70151 30.2597 4.70151 28.4736 3.98651L26.8474 3.33526C25.6562 2.85901 24.3425 2.85901 23.1513 3.33526L21.5252 3.98651C19.7353 4.70276 17.7629 4.70276 15.9742 3.98651L14.6318 3.45026C13.3106 2.92151 11.8294 2.98401 10.5595 3.61901C8.65207 4.57276 6.41968 4.66526 4.44103 3.87276L2.49988 3.09651V16.2503C2.49988 16.9403 1.94115 17.5003 1.24994 17.5003C0.558722 17.5003 0 16.9403 0 16.2503V1.25151C0.00124994 0.836511 0.20749 0.449011 0.549973 0.216511C0.894955 -0.0172389 1.33368 -0.0622389 1.71491 0.0902611L5.36973 1.55151C6.68842 2.08026 8.17209 2.01776 9.44203 1.38276C11.3494 0.429011 13.5818 0.336511 15.5605 1.12901L16.9029 1.66526C18.0941 2.14276 19.4078 2.14151 20.599 1.66526L22.2251 1.01401C24.0151 0.297761 25.9875 0.297761 27.7761 1.01401L29.4023 1.66526C30.5935 2.14151 31.9072 2.14151 33.0983 1.66526L34.4408 1.12776C36.4194 0.336511 38.6506 0.427761 40.5592 1.38276C41.8304 2.01776 43.3103 2.07901 44.6315 1.55276L48.2863 0.0902611C48.6688 -0.0647389 49.1063 -0.0184889 49.4513 0.216511C49.7938 0.449011 50 0.836511 50 1.25151V20.0015C50 20.6915 49.44 21.2515 48.7488 21.2515Z" fill="#585E48"/>
<path d="M7.50085 12.5C6.80964 12.5 6.25092 11.94 6.25092 11.25V3.75C6.25092 3.06 6.80964 2.5 7.50085 2.5C8.19207 2.5 8.75079 3.06 8.75079 3.75V11.25C8.75079 11.94 8.19207 12.5 7.50085 12.5Z" fill="#585E48"/>
<path d="M18.7503 12.5C18.0591 12.5 17.5004 11.94 17.5004 11.25V3.75C17.5004 3.06 18.0591 2.5 18.7503 2.5C19.4415 2.5 20.0002 3.06 20.0002 3.75V11.25C20.0002 11.94 19.4415 12.5 18.7503 12.5Z" fill="#585E48"/>
<path d="M31.2496 12.5C30.5584 12.5 29.9997 11.94 29.9997 11.25V3.75C29.9997 3.06 30.5584 2.5 31.2496 2.5C31.9408 2.5 32.4996 3.06 32.4996 3.75V11.25C32.4996 11.94 31.9408 12.5 31.2496 12.5Z" fill="#585E48"/>
<path d="M42.4991 12.5C41.8079 12.5 41.2491 11.94 41.2491 11.25V3.75C41.2491 3.06 41.8079 2.5 42.4991 2.5C43.1903 2.5 43.749 3.06 43.749 3.75V11.25C43.749 11.94 43.1903 12.5 42.4991 12.5Z" fill="#585E48"/>
</svg>
