<svg width="60" height="60" viewBox="0 0 60 60" fill="none" xmlns="http://www.w3.org/2000/svg">
<g clip-path="url(#clip0_408_4149)">
<path d="M39.7526 59.6791C38.9027 59.6791 38.2056 59.0192 38.1931 58.1936L38.1011 51.8661C38.1853 49.5038 38.8918 47.2756 40.1472 45.3503C40.6681 44.5518 41.0673 43.6855 41.3324 42.7741C41.5664 41.9756 42.4288 41.501 43.2569 41.7345C44.0866 41.959 44.5685 42.7921 44.3345 43.5921C43.9868 44.7808 43.4659 45.9122 42.7859 46.9547C41.8237 48.4297 41.281 50.1396 41.2186 51.8977L41.3122 58.1514C41.3246 58.9831 40.6353 59.667 39.7745 59.6791H39.7526Z" fill="#585E48"/>
<path d="M18.624 44.8666C18.1748 44.8666 17.7288 44.6798 17.4216 44.3198L13.4354 39.657C12.3281 38.3614 11.3565 36.9437 10.5471 35.4447L7.25965 29.3461C6.5251 28.272 6.33328 26.9552 6.73408 25.7153C7.13956 24.4604 8.094 23.4826 9.35098 23.0307C10.9791 22.4476 12.7882 22.877 13.9625 24.1304L18.5975 29.0765C18.7628 28.7827 18.9577 28.4889 19.1901 28.2012C19.594 27.7191 19.7266 27.2686 19.6502 26.8272L16.5935 8.86755C16.1833 6.45406 17.7678 4.10835 20.1274 3.6368C21.322 3.39877 22.5322 3.62475 23.5396 4.27407C24.5549 4.93093 25.2707 5.97949 25.5031 7.1546L25.6466 7.88528L25.7682 4.51361C25.8587 2.02629 27.8299 0.0436707 30.255 -0.00152588C31.5182 -0.00152588 32.6816 0.441401 33.5628 1.30767C34.4595 2.1875 34.9476 3.4063 34.9024 4.65222L34.709 9.99898L35.8896 5.92224C36.5228 3.6368 38.887 2.20557 41.2482 2.68617C42.4896 2.93625 43.5469 3.65488 44.2206 4.71248C44.9037 5.78364 45.1002 7.09735 44.7618 8.31917L44.0101 10.915C44.4015 10.6468 44.8429 10.4479 45.317 10.3304C46.4258 10.0562 47.6048 10.2656 48.5468 10.9074C49.9441 11.8596 50.5711 13.5816 50.1063 15.1921L46.8204 26.5876C46.8017 26.6524 46.7783 26.7157 46.7518 26.7775C46.2964 27.8004 46.011 28.8821 45.9003 29.997C45.8176 30.8256 45.0628 31.4357 44.1988 31.3529C43.3411 31.273 42.7126 30.5378 42.7952 29.7092C42.9325 28.3187 43.2849 26.9643 43.8432 25.6837L47.1011 14.3815C47.2103 14.0019 47.0668 13.5846 46.7486 13.3691C46.482 13.1868 46.22 13.2155 46.0874 13.2486C45.9455 13.2833 45.6819 13.3902 45.5197 13.7066L40.0692 24.4152C39.7136 25.1127 38.8667 25.4381 38.1135 25.1579C37.3618 24.8792 36.9516 24.0943 37.1684 23.344L41.7535 7.5222C41.8689 7.1079 41.8034 6.66497 41.5647 6.29135C41.3449 5.94635 41.008 5.71434 40.6134 5.63449C39.8571 5.48534 39.1069 5.9584 38.8964 6.7162L34.1959 22.9538C33.9838 23.6875 33.2259 24.1455 32.4555 24.037C31.6757 23.9195 31.1081 23.2582 31.1361 22.4958L31.7849 4.54525C31.8005 4.11588 31.643 3.71514 31.3404 3.41835C31.0644 3.14717 30.6776 2.98748 30.3143 3.01007C29.5704 3.02363 28.9169 3.76034 28.8842 4.61757L28.2775 21.4021C28.2494 22.1689 27.6303 22.7926 26.8381 22.8514C26.052 22.8996 25.3362 22.3859 25.1865 21.6311L22.437 7.71805C22.3606 7.32635 22.1345 6.9919 21.8039 6.77796C21.5871 6.63786 21.23 6.49021 20.7574 6.58663C20.0276 6.73277 19.5301 7.55233 19.6704 8.37792L22.7271 26.3375C22.9455 27.6226 22.5696 28.9544 21.6963 29.9924C21.0631 30.7789 20.8993 31.6045 20.865 32.1694C20.8292 32.7751 20.419 33.3023 19.8264 33.5042C19.2353 33.7046 18.5741 33.5449 18.1514 33.0944L11.6466 26.1522C11.3332 25.8178 10.8559 25.6988 10.4349 25.8554C10.0886 25.979 9.82352 26.2562 9.70812 26.6148C9.58491 26.9929 9.64729 27.3936 9.87655 27.713C9.91397 27.7658 9.94984 27.8215 9.97948 27.8787L13.3091 34.0541C14.0171 35.3663 14.8671 36.6062 15.8355 37.7391L19.8217 42.4019C20.3707 43.0437 20.2771 43.9928 19.6127 44.5232C19.3211 44.7537 18.9702 44.8682 18.6209 44.8682L18.624 44.8666Z" fill="#585E48"/>
<path d="M22.7442 59.8177C21.8927 59.8177 21.1971 59.1578 21.1846 58.3322L21.1254 54.0807C21.1145 53.2476 21.8038 52.5652 22.6646 52.5531H22.6865C23.538 52.5531 24.2335 53.213 24.246 54.0386L24.3053 58.2901C24.3162 59.1232 23.6269 59.8057 22.766 59.8177H22.7442Z" fill="#585E48"/>
<path d="M19.6284 32.0489C19.2416 32.0489 18.8549 31.9103 18.5539 31.6331C17.93 31.0591 17.9051 30.1054 18.4993 29.5028C19.0919 28.9002 20.09 28.8685 20.7107 29.4425C21.3345 30.0165 21.3657 30.9626 20.7731 31.5653L20.7575 31.5818C20.4518 31.8922 20.0401 32.0489 19.6284 32.0489Z" fill="#585E48"/>
<path d="M11.4049 60C11.2146 60 11.0197 59.9669 10.831 59.8945C10.0309 59.5887 9.63794 58.7134 9.95453 57.939L11.2848 54.6924C11.8743 53.2537 13.1781 52.1509 14.9544 51.5919L18.6115 50.4439C19.7812 50.0763 20.7247 49.5415 21.414 48.8545L22.7271 47.5453C23.2652 47.009 23.9373 46.5721 24.7249 46.2512L28.6736 44.6377C28.619 44.5639 28.5442 44.4765 28.4428 44.377C27.6303 43.5981 26.3203 43.3029 25.8649 43.4972L24.1619 44.2188C22.9517 44.7311 21.4608 44.9601 19.8357 44.8878L18.5944 44.832C17.7335 44.7944 17.0691 44.0878 17.1081 43.2562C17.1487 42.4261 17.9144 41.7828 18.7378 41.8219L19.9808 41.8777C21.127 41.9349 22.1376 41.7843 22.9111 41.4588L24.6157 40.7372C26.3515 40.0035 28.9965 40.6649 30.6402 42.2377C31.6258 43.1808 32.0719 44.3168 31.866 45.3518C31.6945 46.218 31.08 46.9261 30.1817 47.2937L25.9429 49.0248C25.5436 49.1875 25.2161 49.3954 24.9682 49.6409L23.655 50.9501C22.6086 51.9927 21.2362 52.7881 19.5769 53.3079L15.9213 54.4559C15.3022 54.6502 14.4975 55.0434 14.1871 55.7997L12.8568 59.0463C12.6151 59.6384 12.0272 59.9985 11.4065 59.9985L11.4049 60Z" fill="#585E48"/>
<path d="M2.88826 54.8114L0 53.6694L6.56564 38.167C7.59338 35.7354 9.63793 34.4006 12.4794 34.3087C13.3808 34.2364 14.0623 34.9309 14.0904 35.764C14.12 36.5957 13.4448 37.2917 12.5839 37.3188C10.9994 37.37 10.0044 38.0028 9.45234 39.3059L2.8867 54.8099L2.88826 54.8114Z" fill="#585E48"/>
<path d="M51.3211 46.5118C50.6926 46.5118 50.1015 46.1427 49.8629 45.5416L48.5748 42.2799C48.2753 41.5176 47.4753 41.1183 46.8593 40.9164L43.2193 39.7233C41.5662 39.1809 40.2047 38.3719 39.1723 37.3143L37.8763 35.99C37.6331 35.7414 37.3087 35.5305 36.9094 35.3618L32.694 33.5765C31.8004 33.1984 31.1969 32.4843 31.0347 31.6165C30.8413 30.5785 31.3029 29.4486 32.301 28.516C33.9682 26.9612 36.6225 26.336 38.3442 27.0893L40.0394 27.8305C40.8083 28.168 41.8189 28.3277 42.962 28.2855L44.2065 28.2448C45.1142 28.1951 45.7894 28.8685 45.8191 29.6986C45.8487 30.5288 45.175 31.2278 44.3141 31.2564L43.0712 31.2971C41.4539 31.3513 39.9583 31.1028 38.7544 30.5755L37.0592 29.8342C36.6661 29.661 35.353 29.8599 34.4703 30.6824C34.3674 30.7788 34.291 30.8662 34.2364 30.9385L38.1633 32.6018C38.9462 32.9347 39.6137 33.3777 40.1455 33.9215L41.4414 35.2458C42.1214 35.9403 43.0571 36.4857 44.2237 36.8683L47.8636 38.0615C49.6321 38.6416 50.9203 39.7579 51.4927 41.2057L52.7808 44.4674C53.0881 45.2463 52.6841 46.1156 51.8794 46.4124C51.6969 46.4801 51.5082 46.5103 51.3242 46.5103L51.3211 46.5118Z" fill="#585E48"/>
<path d="M57.0992 41.4256L50.7363 25.8449C50.2014 24.5327 49.2142 23.8894 47.6297 23.8186C46.7689 23.7794 46.1045 23.0743 46.1435 22.2442C46.184 21.4141 46.9451 20.7964 47.7732 20.8085C50.6131 20.935 52.6405 22.2954 53.637 24.7391L59.9984 40.3183L57.0977 41.4241L57.0992 41.4256Z" fill="#585E48"/>
</g>
<defs>
<clipPath id="clip0_408_4149">
<rect width="60" height="60" fill="white"/>
</clipPath>
</defs>
</svg>
