<svg width="50" height="50" viewBox="0 0 50 50" fill="none" xmlns="http://www.w3.org/2000/svg">
<g clip-path="url(#clip0_265_18207)">
<path d="M44.375 26.25H13.125C5.8875 26.25 0 20.3625 0 13.125C0 5.8875 5.8875 0 13.125 0H41.25C46.0737 0 50 3.925 50 8.75C50 11.485 48.7388 13.93 46.7688 15.535C48.6763 16.4363 50 18.3787 50 20.625C50 23.7262 47.4762 26.25 44.375 26.25ZM13.125 2.5C7.26625 2.5 2.5 7.26625 2.5 13.125C2.5 18.9837 7.26625 23.75 13.125 23.75H44.375C46.0988 23.75 47.5 22.3475 47.5 20.625C47.5 18.9025 46.0988 17.5 44.375 17.5H40C39.3088 17.5 38.75 16.94 38.75 16.25C38.75 15.56 39.3088 15 40 15H41.25C44.6963 15 47.5 12.1962 47.5 8.75C47.5 5.30375 44.6963 2.5 41.25 2.5H13.125Z" fill="white"/>
<path d="M40 17.5H16.25C13.4925 17.5 11.25 15.2575 11.25 12.5C11.25 9.7425 13.4925 7.5 16.25 7.5H37.5C38.1912 7.5 38.75 8.06 38.75 8.75C38.75 9.44 38.1912 10 37.5 10H16.25C14.8712 10 13.75 11.1212 13.75 12.5C13.75 13.8787 14.8712 15 16.25 15H40C40.6912 15 41.25 15.56 41.25 16.25C41.25 16.94 40.6912 17.5 40 17.5Z" fill="white"/>
<path d="M36.875 50H5.625C2.52375 50 0 47.4762 0 44.375C0 42.1287 1.32375 40.1862 3.23125 39.285C1.26125 37.6787 0 35.2338 0 32.5C0 27.675 3.92625 23.75 8.75 23.75H36.875C44.1125 23.75 50 29.6375 50 36.875C50 44.1125 44.1125 50 36.875 50ZM5.625 41.25C3.90125 41.25 2.5 42.6525 2.5 44.375C2.5 46.0975 3.90125 47.5 5.625 47.5H36.875C42.7337 47.5 47.5 42.7337 47.5 36.875C47.5 31.0163 42.7337 26.25 36.875 26.25H8.75C5.30375 26.25 2.5 29.0538 2.5 32.5C2.5 35.9462 5.30375 38.75 8.75 38.75H10C10.6912 38.75 11.25 39.31 11.25 40C11.25 40.69 10.6912 41.25 10 41.25H5.625Z" fill="white"/>
<path d="M33.75 41.25H10C9.30875 41.25 8.75 40.69 8.75 40C8.75 39.31 9.30875 38.75 10 38.75H33.75C35.1287 38.75 36.25 37.6287 36.25 36.25C36.25 34.8712 35.1287 33.75 33.75 33.75H12.5C11.8088 33.75 11.25 33.19 11.25 32.5C11.25 31.81 11.8088 31.25 12.5 31.25H33.75C36.5075 31.25 38.75 33.4925 38.75 36.25C38.75 39.0075 36.5075 41.25 33.75 41.25Z" fill="white"/>
</g>
<defs>
<clipPath id="clip0_265_18207">
<rect width="50" height="50" fill="white"/>
</clipPath>
</defs>
</svg>
