<svg width="50" height="50" viewBox="0 0 50 50" fill="none" xmlns="http://www.w3.org/2000/svg">
<g clip-path="url(#clip0_482_71)">
<path d="M12.1427 49.7181C11.8227 49.7181 11.5026 49.5956 11.2589 49.3518C10.77 48.863 10.77 48.0729 11.2589 47.5841L25.4019 33.4398C26.587 32.2546 27.2358 30.6869 27.2271 29.0267C27.2333 28.818 27.2196 28.6604 27.2071 28.5067L27.1958 28.3467C27.0608 26.9452 26.4395 25.6388 25.4019 24.6012C24.3642 23.5636 23.0578 22.9422 21.6239 22.8047C19.7312 22.6097 17.8959 23.2673 16.562 24.6012L2.419 38.7442C1.93019 39.233 1.14009 39.233 0.651276 38.7442C0.162465 38.2554 0.162465 37.4653 0.651276 36.9765L14.7943 22.8335C16.662 20.9657 19.2386 20.0431 21.8702 20.3169C23.8529 20.5069 25.7382 21.4008 27.1708 22.8335C28.6035 24.2661 29.4974 26.1514 29.6887 28.1416L29.7012 28.3167C29.7199 28.5629 29.7362 28.8142 29.7274 29.0655C29.7387 31.3483 28.831 33.5486 27.1696 35.2088L13.0266 49.353C12.7828 49.5968 12.4628 49.7181 12.1427 49.7181Z" fill="#585E48"/>
<path d="M20.2526 35.577C19.2887 35.577 18.3298 35.2045 17.5972 34.4719L15.5295 32.4041C14.1531 31.0277 14.0493 28.8549 15.2882 27.3498L20.7839 20.7577C21.0477 20.4401 21.454 20.2764 21.8628 20.3139C23.8543 20.5051 25.7395 21.399 27.1722 22.8317C28.6049 24.2644 29.4987 26.1496 29.69 28.1399C29.7288 28.5512 29.5625 28.955 29.2462 29.2187L22.6604 34.7082C21.954 35.2895 21.1002 35.577 20.2526 35.577ZM22.2553 22.8954L17.2134 28.9437C16.8009 29.445 16.8346 30.1751 17.296 30.6364L19.365 32.7042C19.8275 33.1667 20.5576 33.1992 21.0639 32.7817L27.1059 27.7448C26.8684 26.5584 26.2858 25.4808 25.4032 24.5969C24.5206 23.713 23.4417 23.133 22.2553 22.8954Z" fill="#585E48"/>
<path d="M13.9105 40.8759C13.5904 40.8759 13.2704 40.7534 13.0266 40.5096L9.4899 36.9742C9.00109 36.4866 9.00109 35.6953 9.4899 35.2065C9.97871 34.7176 10.7688 34.7176 11.2576 35.2065L14.7943 38.7419C15.2831 39.2295 15.2831 40.0208 14.7943 40.5096C14.5505 40.7534 14.2305 40.8759 13.9105 40.8759Z" fill="#585E48"/>
<path d="M31.2613 35.5987C30.8575 35.5987 30.4625 35.4036 30.2212 35.0436C29.8374 34.4698 29.9912 33.6934 30.565 33.3096C31.1051 32.9483 31.6151 32.5283 32.0814 32.062C33.9704 30.173 35.0106 27.6614 35.0106 24.9898C35.0106 22.3183 33.9704 19.8067 32.0814 17.9177C30.1925 16.0287 27.6809 14.9886 25.0093 14.9886C22.3377 14.9886 19.8262 16.0287 17.9372 17.9177C17.4721 18.3828 17.0521 18.8916 16.6895 19.4341C16.3045 20.008 15.5281 20.1617 14.9556 19.7767C14.3817 19.3929 14.228 18.6165 14.613 18.0427C15.0668 17.3651 15.5906 16.7288 16.1707 16.15C18.531 13.7884 21.6701 12.4883 25.0093 12.4883C28.3485 12.4883 31.4876 13.7884 33.8492 16.15C36.2107 18.5115 37.5109 21.6507 37.5109 24.9898C37.5109 28.329 36.2107 31.4682 33.8492 33.8297C33.2678 34.411 32.6303 34.9348 31.9552 35.3874C31.7414 35.5299 31.5001 35.5987 31.2613 35.5987Z" fill="#585E48"/>
<path d="M25.0069 43.7417C24.5631 43.7417 24.1168 43.7255 23.6705 43.6942C22.9817 43.6442 22.4628 43.0466 22.5116 42.359C22.5616 41.6702 23.1667 41.1614 23.8468 41.2002C28.5599 41.5364 33.1667 39.815 36.5009 36.4821C42.8366 30.145 42.8366 19.835 36.5009 13.4979C30.1651 7.16215 19.8538 7.16215 13.5167 13.4979C10.1826 16.8321 8.4636 21.4439 8.79864 26.152C8.84739 26.8409 8.32983 27.4384 7.63974 27.4872C6.96091 27.5359 6.35333 27.0184 6.30458 26.3283C5.91828 20.8976 7.90228 15.5769 11.749 11.7302C19.0612 4.41805 30.9564 4.41805 38.2686 11.7302C45.5807 19.0411 45.5807 30.9389 38.2686 38.2498C34.7381 41.7802 29.9663 43.7417 25.0069 43.7417Z" fill="#585E48"/>
<path d="M25.0394 50.0006C23.2816 50.0006 21.5089 49.8168 19.7462 49.4381C19.0711 49.293 18.6411 48.6292 18.7848 47.9529C18.9299 47.2778 19.5937 46.849 20.27 46.9915C27.7785 48.6055 35.4982 46.3252 40.9214 40.902C49.695 32.1284 49.695 17.8516 40.9214 9.07801C32.1465 0.306913 17.871 0.306913 9.09737 9.07926C3.6742 14.5024 1.39766 22.2222 3.00786 29.7306C3.15288 30.4057 2.72158 31.0695 2.04649 31.2158C1.37391 31.3595 0.707574 30.9307 0.561306 30.2544C-1.22642 21.9134 1.30265 13.336 7.3284 7.31154C17.0771 -2.43718 32.9391 -2.43718 42.6878 7.31154C52.4365 17.0603 52.4365 32.9222 42.6878 42.671C37.9372 47.4228 31.5964 49.9994 25.0381 49.9994L25.0394 50.0006Z" fill="#585E48"/>
</g>
<defs>
<clipPath id="clip0_482_71">
<rect width="50" height="50" fill="white"/>
</clipPath>
</defs>
</svg>
