<svg width="50" height="50" viewBox="0 0 50 50" fill="none" xmlns="http://www.w3.org/2000/svg">
<g clip-path="url(#clip0_265_17668)">
<path d="M48.7482 23.3566C48.1872 23.3566 47.6787 22.9813 47.5363 22.4195L45.7847 15.4405C45.3537 13.7232 44.0581 12.3035 42.3178 11.643L40.5937 10.9887C40.3513 10.8973 40.099 10.8195 39.8441 10.7591L35.334 9.68868C32.4692 9.00967 30.3029 6.77387 29.8144 3.99362L29.3671 1.44671C29.2497 0.775101 29.7044 0.135595 30.3841 0.0195453C31.0637 -0.0940349 31.7109 0.354113 31.8283 1.02448L32.2756 3.5714C32.5929 5.38004 34.0222 6.8393 35.9174 7.28868L40.4263 8.35782C40.7874 8.443 41.1422 8.55164 41.4882 8.68251L43.2148 9.33806C45.7173 10.2874 47.585 12.3467 48.2122 14.8455L49.9638 21.8245C50.13 22.4862 49.7214 23.1553 49.0518 23.3195C48.9506 23.3442 48.8494 23.3553 48.7494 23.3553L48.7482 23.3566Z" fill="#585E48"/>
<path d="M1.25079 23.4564C1.15085 23.4564 1.04965 23.4452 0.948451 23.4206C0.278803 23.2564 -0.129733 22.5872 0.03643 21.9255L1.813 14.8465C2.44017 12.3477 4.30794 10.2885 6.81037 9.33908L8.53447 8.68475C8.88179 8.55389 9.2366 8.44401 9.59891 8.35883L14.1065 7.28969C16.0005 6.84031 17.4298 5.38105 17.7484 3.57117L18.1956 1.0255C18.3143 0.353891 18.964 -0.0930221 19.6399 0.0205581C20.3195 0.136607 20.7755 0.776114 20.6569 1.44772L20.2096 3.99463C19.7198 6.77488 17.5547 9.01068 14.69 9.69093L10.1811 10.7601C9.92374 10.8206 9.67262 10.8983 9.42775 10.9909L7.7049 11.6452C5.96457 12.3057 4.66775 13.7255 4.23797 15.4428L2.46141 22.5218C2.32023 23.0835 1.8105 23.4588 1.24954 23.4588L1.25079 23.4564Z" fill="#585E48"/>
<path d="M5.35222 43.0074C5.21104 43.0074 5.06737 42.9827 4.92619 42.9333C4.27778 42.7012 3.94171 41.9926 4.17784 41.3518L9.00905 28.179C9.24393 27.5382 9.96105 27.2123 10.6095 27.4382C11.2579 27.6703 11.5939 28.379 11.3578 29.0197L6.5266 42.1926C6.34295 42.6938 5.8632 43.0074 5.35222 43.0074Z" fill="#585E48"/>
<path d="M10.1859 49.3823C10.0872 49.3823 9.986 49.3712 9.88605 49.3465C9.2164 49.1835 8.80662 48.5144 8.97153 47.8527L10.4795 41.8021C11.374 38.2107 11.1554 34.4798 9.84482 31.0144L7.61724 25.1243C7.37612 24.4848 7.70345 23.7749 8.34936 23.5354C8.99527 23.2947 9.71614 23.6206 9.95726 24.2588L12.1848 30.1502C13.6716 34.0823 13.9214 38.3156 12.907 42.3922L11.399 48.4428C11.2591 49.0058 10.7481 49.3823 10.1871 49.3823H10.1859Z" fill="#585E48"/>
<path d="M44.904 43.0071C44.393 43.0071 43.9133 42.6948 43.7296 42.1935L38.8984 29.0207C38.6635 28.3787 38.9984 27.6713 39.6468 27.4392C40.2964 27.2121 41.0123 27.5392 41.2472 28.18L46.0784 41.3528C46.3133 41.9948 45.9784 42.7022 45.33 42.9343C45.1901 42.9837 45.0452 43.0084 44.904 43.0084V43.0071Z" fill="#585E48"/>
<path d="M40.0716 49.3825C39.5106 49.3825 38.9996 49.0059 38.8597 48.4429L37.3517 42.3923C36.3373 38.3158 36.5859 34.0837 38.0726 30.1504L40.3014 24.259C40.5426 23.6195 41.2647 23.2948 41.9093 23.5355C42.5552 23.7738 42.8838 24.4849 42.6415 25.1244L40.4139 31.0145C39.1046 34.4812 38.8834 38.2121 39.7792 41.8022L41.2872 47.8528C41.4521 48.5146 41.0423 49.1837 40.3726 49.3466C40.2714 49.3726 40.1703 49.3825 40.0716 49.3825Z" fill="#585E48"/>
<path d="M29.9481 50C29.2584 50 28.6987 49.4481 28.6987 48.7654V45.4888C28.7987 44.3938 29.2947 43.479 30.0643 42.8592C30.5365 42.4802 30.7851 41.8987 30.9101 41.4765C31.1349 40.7234 31.3336 39.9432 31.5023 39.158C31.8958 37.3222 32.1007 35.7234 32.1569 34.0172C32.1182 33.9629 32.0632 33.9037 31.9857 33.8654C31.7896 33.7691 31.566 33.8654 31.556 33.8679C31.1799 34.0284 30.7364 34.0061 30.3891 33.795C30.0405 33.5851 29.8044 33.2259 29.7794 32.8234C29.7732 32.7308 29.7269 32.6592 29.6857 32.6419C29.6332 32.6135 29.5133 32.6345 29.4271 32.737C29.0898 33.137 28.5363 33.2814 28.0428 33.1074C27.5481 32.9296 27.2195 32.4654 27.2195 31.9469V25.495C27.1533 25.3197 26.9609 25.1777 26.8035 25.2037C26.6098 25.2098 26.4349 25.3666 26.3974 25.5679C26.2775 26.2148 25.6553 26.6518 25.0044 26.5703C24.3435 26.4839 23.8688 25.9 23.9237 25.2432C23.94 25.0456 23.8463 24.9098 23.7888 24.8456C23.7051 24.753 23.5964 24.6963 23.4952 24.6925C23.3953 24.7037 23.2728 24.7444 23.1816 24.837C23.1192 24.9024 23.0167 25.0419 23.033 25.2469L23.0367 37.4493C23.0367 37.9271 22.7581 38.3604 22.3233 38.5642C21.8873 38.7703 21.3713 38.7061 20.9965 38.4049L18.9551 36.7567C18.6677 36.5246 18.1905 36.5172 17.8744 36.7185C17.8382 36.8567 17.8694 37.0074 17.9656 37.1234L20.5792 40.237C21.0477 40.795 21.3201 41.4716 21.3676 42.1925C21.3988 42.6567 21.5175 43.1012 21.7186 43.5111C21.8548 43.7876 22.0285 44.0469 22.2346 44.2814C22.7518 44.8716 23.0404 45.6469 23.0454 46.4679L23.0579 48.758C23.0617 49.4407 22.5057 49.9963 21.8148 50H21.8086C21.1215 50 20.563 49.4518 20.5592 48.7728L20.5468 46.4814C20.5468 46.2518 20.4743 46.0444 20.3456 45.8987C19.9958 45.5 19.7022 45.0592 19.4711 44.5901C19.1287 43.8925 18.9276 43.1407 18.8739 42.3555C18.8601 42.1543 18.7852 41.9679 18.6552 41.8135L16.0416 38.6987C15.2308 37.7296 15.1346 36.3617 15.8042 35.295C15.8555 35.2148 15.9142 35.1395 15.9829 35.0716C17.2023 33.8679 19.2012 33.7654 20.5368 34.8432H20.5393V25.3432C20.4743 24.5913 20.7779 23.7481 21.3751 23.1296C21.9585 22.5259 22.7431 22.1913 23.5814 22.2222C24.2923 22.2469 24.9832 22.5444 25.5054 23.0456C25.874 22.8592 26.2862 22.7481 26.716 22.7333C28.1228 22.679 29.4346 23.7086 29.6982 25.1185C29.7119 25.1925 29.7194 25.2679 29.7194 25.3432V30.1604C30.0705 30.1728 30.4216 30.2518 30.7526 30.4061C31.2037 30.616 31.5772 30.9469 31.8421 31.3543C32.2506 31.3617 32.6854 31.4481 33.1077 31.658C34.1009 32.1493 34.4832 33.0246 34.6006 33.379C34.6456 33.5123 34.6668 33.6543 34.6631 33.795C34.6169 35.7666 34.3957 37.5765 33.9485 39.6691C33.7661 40.5185 33.5512 41.3604 33.3076 42.174C32.9852 43.2592 32.4093 44.158 31.6422 44.774C31.3886 44.9777 31.2249 45.2814 31.1937 45.6049L31.1987 48.7654C31.1987 49.4481 30.6377 50 29.9481 50Z" fill="#585E48"/>
<path d="M25.2168 32.3938C24.5309 32.3938 23.9724 31.8481 23.9674 31.1691L23.92 25.3543C23.915 24.6728 24.4684 24.1148 25.1593 24.1099C25.8889 24.1259 26.4136 24.6531 26.4186 25.3346L26.4661 31.1506C26.4711 31.8321 25.9177 32.3889 25.2268 32.395L25.2168 32.3938Z" fill="#585E48"/>
<path d="M28.134 21.7456C27.7992 21.7456 27.4669 21.6135 27.2207 21.353C26.2812 20.3567 24.6958 20.3011 23.6888 21.2307C23.1841 21.6949 22.3933 21.6678 21.9223 21.1702C21.4525 20.6715 21.48 19.89 21.9835 19.4246C23.9974 17.569 27.1658 17.6764 29.0473 19.6678C29.517 20.1665 29.4895 20.948 28.9861 21.4135C28.7449 21.6357 28.4388 21.7456 28.134 21.7456Z" fill="#585E48"/>
<path d="M31.7883 18.3776C31.4535 18.3776 31.1212 18.2455 30.8751 17.985C28.0553 14.9986 23.3028 14.8331 20.2806 17.6196C19.7759 18.0838 18.9863 18.0566 18.5141 17.5591C18.0443 17.0603 18.0718 16.2788 18.5753 15.8134C22.6069 12.0986 28.9436 12.3183 32.7016 16.301C33.1714 16.7998 33.1439 17.5813 32.6404 18.0467C32.3993 18.2689 32.0932 18.3788 31.7883 18.3788V18.3776Z" fill="#585E48"/>
</g>
<defs>
<clipPath id="clip0_265_17668">
<rect width="50" height="50" fill="white"/>
</clipPath>
</defs>
</svg>
