<svg width="60" height="60" viewBox="0 0 60 60" fill="none" xmlns="http://www.w3.org/2000/svg">
<g clip-path="url(#clip0_408_4012)">
<path d="M58.5003 57.0814C58.1164 57.0814 57.7325 56.9342 57.44 56.6413L55.7169 54.9138C55.0991 54.2844 54.4017 53.7571 53.6324 53.3395C52.905 52.9445 52.6336 52.0327 53.0295 51.3041C53.4239 50.5756 54.3327 50.3022 55.0616 50.7003C56.0933 51.2606 57.0291 51.9666 57.8464 52.8003L59.5605 54.5172C60.1469 55.1046 60.1469 56.0554 59.5605 56.6413C59.2681 56.9342 58.8842 57.0814 58.5003 57.0814Z" fill="#585E48"/>
<path d="M41.7955 46.6415C41.2901 46.6415 40.7982 46.3861 40.5148 45.9234C40.3423 45.6425 40.1983 45.3616 40.0574 45.0687L36.0473 39.2975C35.5749 38.6155 35.7428 37.6797 36.4222 37.2065C37.1 36.7333 38.0373 36.9001 38.5112 37.5821L42.5903 43.4554C42.6368 43.5245 42.6788 43.5966 42.7148 43.6717C42.8258 43.9076 42.9352 44.1329 43.0717 44.3567C43.5051 45.0642 43.2832 45.9895 42.5768 46.4222C42.3324 46.5724 42.0609 46.643 41.7955 46.643V46.6415Z" fill="#585E48"/>
<path d="M39.2958 42.1351C38.8624 42.1351 38.4334 41.9488 38.1365 41.5883C37.6101 40.9484 37.7031 40.0005 38.342 39.4733C40.6829 37.543 42.2876 34.8256 42.8605 31.8199L43.2354 29.8385C43.3328 29.3158 43.7018 28.8847 44.2012 28.7044L45.8658 28.1036C47.103 27.6424 48.0298 26.6375 48.3957 25.3517L48.4992 24.9791C48.6686 24.3692 48.5307 23.7429 48.1183 23.2652C47.7089 22.789 47.115 22.5622 46.4866 22.6403L46.2662 22.6613C45.8088 22.7004 45.3574 22.5306 45.041 22.1926C44.726 21.8562 44.5821 21.3935 44.6525 20.9384L44.8175 19.8568C45.089 18.0542 45.074 16.4094 44.7725 14.9704C44.0992 11.7257 42.5065 8.92424 40.1686 6.86781C37.3387 4.37726 33.7065 3.00581 29.9394 3.00581C29.11 3.00581 28.4397 2.33285 28.4397 1.50367C28.4397 0.674485 29.11 0.00152588 29.9394 0.00152588C34.4368 0.00152588 38.7739 1.63886 42.1481 4.61159C44.981 7.10064 46.9035 10.4714 47.7104 14.356C48.0538 15.9903 48.1033 17.8034 47.8618 19.7517C48.8246 19.986 49.7154 20.5193 50.3918 21.3034C51.4565 22.5381 51.8299 24.2145 51.3905 25.7903L51.2856 26.1688C50.6557 28.3905 49.0586 30.1224 46.9005 30.9261L46.0262 31.24L45.8103 32.3802C45.1054 36.0754 43.1319 39.4177 40.2525 41.7926C39.9721 42.0224 39.6362 42.1351 39.3003 42.1351H39.2958Z" fill="#585E48"/>
<path d="M20.6219 42.075C20.2815 42.075 19.9396 41.9593 19.6576 41.7235C17.6856 40.0651 16.0959 37.9095 15.0612 35.4956C14.5723 34.3555 14.2079 33.1613 13.9754 31.9475L13.8359 31.2235L13.0306 30.9291C10.8831 30.1224 9.24998 28.3424 8.64861 26.1628L8.54664 25.8413C8.09224 24.2205 8.46715 22.5441 9.53191 21.3079C10.1888 20.5448 11.0526 20.0175 11.9974 19.7742C11.7244 17.5676 11.8324 15.4841 12.3153 13.5598C13.0876 10.4504 14.6593 7.63691 16.8638 5.42876C20.358 1.92877 25.0009 0.00152588 29.9363 0.00152588C30.7656 0.00152588 31.436 0.674485 31.436 1.50367C31.436 2.33285 30.7656 3.00581 29.9363 3.00581C25.8018 3.00581 21.9116 4.62061 18.9843 7.55279C17.1667 9.37488 15.8665 11.7047 15.2246 14.2884C14.7942 15.9993 14.7342 17.886 15.0417 19.9019L15.2051 20.9098C15.2756 21.3454 15.1511 21.7886 14.8662 22.1235C14.5813 22.4585 14.1629 22.6523 13.7235 22.6523C13.6605 22.6523 13.4925 22.6493 13.4295 22.6403C12.8057 22.5562 12.2118 22.7905 11.8009 23.2682C11.3885 23.7474 11.249 24.3707 11.4185 24.9806L11.522 25.3081C11.8834 26.618 12.8312 27.6454 14.0684 28.1096L15.661 28.6909C16.1559 28.8727 16.5203 29.2993 16.6208 29.8175L16.9208 31.3797C17.1112 32.3817 17.4111 33.3656 17.816 34.3059C18.6664 36.2932 19.9711 38.0613 21.5877 39.4207C22.2221 39.954 22.3045 40.9018 21.7707 41.5372C21.4752 41.8902 21.0508 42.0735 20.6204 42.0735L20.6219 42.075Z" fill="#585E48"/>
<path d="M49.2895 60C48.6941 60 48.1288 59.6395 47.8948 59.0507L46.7596 56.1786C46.5196 55.5702 45.8793 55.2503 45.3844 55.0895L42.2651 54.0741C40.8239 53.6054 39.6287 52.8874 38.7169 51.9441L37.5966 50.7859C37.4017 50.5846 37.1407 50.4149 36.8213 50.2797L33.2041 48.746C32.3853 48.4005 31.8244 47.729 31.667 46.9059C31.4795 45.934 31.8784 44.872 32.7602 43.9962C34.2089 42.5587 36.5469 41.9563 38.0885 42.6338L39.5432 43.2722C40.1775 43.5516 41.0204 43.6778 41.9651 43.6282L43.0254 43.5786C43.8412 43.5621 44.5551 44.181 44.5941 45.0087C44.6315 45.8379 43.9942 46.5409 43.1664 46.5799L42.1076 46.6295C40.6934 46.6971 39.3947 46.4868 38.339 46.0241L36.8843 45.3857C36.6218 45.27 35.5661 45.4398 34.8717 46.1308C34.8567 46.1443 34.8432 46.1593 34.8312 46.1728L37.9895 47.5127C38.6824 47.8057 39.2748 48.2037 39.7516 48.6964L40.8704 49.8546C41.4403 50.4434 42.2216 50.9016 43.1934 51.217L46.3142 52.2325C47.8783 52.7417 49.0286 53.7511 49.5489 55.073L50.6842 57.9451C50.9886 58.7172 50.6122 59.59 49.8414 59.8949C49.6599 59.967 49.474 60 49.2895 60Z" fill="#585E48"/>
<path d="M54.3522 56.0314L48.7555 42.3168C48.4496 41.5657 47.9967 41.1016 47.3338 40.8582C45.4907 40.1823 42.5634 41.3509 41.5931 41.8572C40.8568 42.2372 39.9525 41.9563 39.5685 41.2218C39.1861 40.4872 39.4681 39.5814 40.1999 39.1969C40.6753 38.946 44.9448 36.7919 48.3566 38.0357C49.8097 38.566 50.9075 39.6535 51.5314 41.1812L57.1281 54.8957L54.3507 56.0329L54.3522 56.0314Z" fill="#585E48"/>
<path d="M1.50004 57.0814C1.11612 57.0814 0.73221 56.9341 0.439776 56.6412C-0.146592 56.0554 -0.146592 55.1045 0.439776 54.5172L2.16289 52.7897C2.96971 51.9666 3.9055 51.2591 4.93876 50.6988C5.6661 50.3007 6.57789 50.5741 6.97081 51.3026C7.36672 52.0312 7.09528 52.943 6.36794 53.338C5.59861 53.7556 4.90127 54.2814 4.29391 54.9017L2.5603 56.6397C2.26786 56.9326 1.88395 57.0814 1.50004 57.0814Z" fill="#585E48"/>
<path d="M18.2043 46.6415C17.9374 46.6415 17.6675 46.5709 17.423 46.4207C16.7167 45.9881 16.4947 45.0628 16.9281 44.3552C17.0646 44.1314 17.1741 43.9076 17.285 43.6703C17.321 43.5952 17.363 43.5231 17.4095 43.454L21.4886 37.5806C21.961 36.8986 22.8968 36.7319 23.5776 37.2051C24.2585 37.6782 24.4249 38.6141 23.9525 39.296L19.9425 45.0673C19.8015 45.3602 19.659 45.6411 19.4851 45.922C19.2031 46.3846 18.7097 46.6415 18.2043 46.6415Z" fill="#585E48"/>
<path d="M10.7107 60C10.5262 60 10.3403 59.9654 10.1588 59.8933C9.38798 59.5884 9.01156 58.7157 9.31599 57.9436L10.4512 55.0715C10.9731 53.7496 12.1219 52.7416 13.686 52.2309L16.8053 51.2155C17.7771 50.9 18.5599 50.4404 19.1298 49.853L20.247 48.6949C20.7269 48.2007 21.3193 47.8026 22.0121 47.5097L25.1689 46.1713C25.1554 46.1578 25.1419 46.1427 25.1284 46.1292C24.4296 45.4382 23.3693 45.27 23.1159 45.3857L21.6612 46.0241C20.6055 46.4882 19.3097 46.6985 17.8911 46.6294L16.8338 46.5799C16.006 46.5408 15.3671 45.8378 15.4061 45.0086C15.4451 44.1809 16.165 43.541 16.9748 43.5786L18.0335 43.6282C18.9828 43.6777 19.8211 43.55 20.457 43.2722L21.9117 42.6337C23.4518 41.9578 25.7898 42.5586 27.24 43.9962C28.1218 44.8719 28.5207 45.9339 28.3332 46.9058C28.1757 47.7275 27.6149 48.399 26.7961 48.746L23.1804 50.2796C22.8594 50.4148 22.597 50.5876 22.4005 50.7889L21.2848 51.944C20.3715 52.8889 19.1763 53.6054 17.7336 54.074L14.6158 55.0895C14.1209 55.2502 13.4806 55.5702 13.2406 56.1785L12.1054 59.0506C11.8729 59.641 11.3075 60 10.7107 60Z" fill="#585E48"/>
<path d="M5.64774 56.0314L2.87036 54.8943L8.4671 41.1797C9.09096 39.652 10.1887 38.5645 11.6419 38.0342C15.0506 36.7875 19.3232 38.9445 19.7986 39.1954C20.5304 39.5799 20.8123 40.4857 20.4299 41.2203C20.046 41.9548 19.1432 42.2357 18.4054 41.8557C17.4336 41.3495 14.5047 40.1808 12.6647 40.8568C12.0018 41.1001 11.5489 41.5643 11.243 42.3153L5.64624 56.0299L5.64774 56.0314Z" fill="#585E48"/>
</g>
<defs>
<clipPath id="clip0_408_4012">
<rect width="60" height="60" fill="white"/>
</clipPath>
</defs>
</svg>
