<svg width="50" height="50" viewBox="0 0 50 50" fill="none" xmlns="http://www.w3.org/2000/svg">
<g clip-path="url(#clip0_452_14507)">
<path d="M33.1273 49.7326C32.419 49.7326 31.8381 49.1827 31.8277 48.4947L31.751 43.2218C31.8212 41.2532 32.4099 39.3964 33.4561 37.7919C33.8901 37.1265 34.2228 36.4046 34.4438 35.6451C34.6387 34.9797 35.3574 34.5842 36.0475 34.7788C36.7389 34.9659 37.1405 35.6601 36.9455 36.3268C36.6557 37.3173 36.2216 38.2602 35.655 39.129C34.8532 40.3581 34.4009 41.783 34.3489 43.2481L34.4269 48.4596C34.4373 49.1526 33.8628 49.7226 33.1455 49.7326H33.1273Z" fill="#585E48"/>
<path d="M15.5197 37.3889C15.1455 37.3889 14.7738 37.2332 14.5177 36.9332L11.1959 33.0475C10.2732 31.9678 9.46354 30.7865 8.78904 29.5373L6.04946 24.4552C5.43734 23.56 5.27749 22.4627 5.61149 21.4295C5.94939 20.3837 6.74475 19.5689 7.79224 19.1923C9.14904 18.7064 10.6566 19.0642 11.6352 20.1088L15.4976 24.2304C15.6354 23.9856 15.7979 23.7408 15.9915 23.501C16.3281 23.0993 16.4386 22.7239 16.3749 22.356L13.8276 7.38968C13.4858 5.37843 14.8063 3.42368 16.7726 3.03072C17.7681 2.83236 18.7766 3.02067 19.6161 3.56178C20.4622 4.10916 21.0587 4.98296 21.2523 5.96222L21.3719 6.57112L21.4733 3.7614C21.5486 1.68863 23.1914 0.0364431 25.2122 -0.0012207C26.2649 -0.0012207 27.2344 0.367885 27.9687 1.08978C28.716 1.82296 29.1228 2.83863 29.0851 3.8769L28.9239 8.33253L29.9078 4.93525C30.4354 3.03072 32.4056 1.83803 34.3732 2.23852C35.4077 2.44693 36.2889 3.04578 36.8503 3.92712C37.4195 4.81975 37.5833 5.91451 37.3012 6.93269L36.6748 9.09585C37.001 8.87238 37.3688 8.70666 37.7639 8.60873C38.6879 8.38024 39.6704 8.55475 40.4554 9.08957C41.6199 9.88303 42.1423 11.318 41.755 12.6601L39.0167 22.1564C39.0011 22.2104 38.9816 22.2631 38.9596 22.3146C38.5801 23.1671 38.3422 24.0685 38.25 24.9975C38.1811 25.688 37.5521 26.1965 36.8321 26.1274C36.1173 26.0609 35.5936 25.4482 35.6624 24.7577C35.7768 23.5989 36.0705 22.4703 36.5358 21.4031L39.2507 11.9847C39.3416 11.6683 39.2221 11.3205 38.957 11.141C38.7347 10.9891 38.5164 11.0129 38.4059 11.0406C38.2877 11.0694 38.068 11.1586 37.9329 11.4222L33.3907 20.346C33.0944 20.9273 32.3887 21.1985 31.761 20.965C31.1346 20.7327 30.7928 20.0786 30.9734 19.4534L34.7943 6.26855C34.8905 5.9233 34.8359 5.5542 34.637 5.24284C34.4538 4.95534 34.1731 4.762 33.8443 4.69546C33.214 4.57117 32.5889 4.96538 32.4134 5.59688L28.4964 19.1282C28.3196 19.7397 27.688 20.1213 27.046 20.0309C26.3962 19.933 25.9231 19.3818 25.9465 18.7466L26.4872 3.78776C26.5002 3.42995 26.3689 3.096 26.1168 2.84868C25.8867 2.62269 25.5644 2.48961 25.2616 2.50845C24.6417 2.51975 24.0972 3.13367 24.0699 3.84802L23.5643 17.8351C23.5409 18.4741 23.025 18.9939 22.3648 19.0429C21.7098 19.083 21.1133 18.6549 20.9885 18.0259L18.6973 6.43176C18.6336 6.10534 18.4452 5.82663 18.1696 5.64835C17.989 5.5316 17.6914 5.40856 17.2976 5.48891C16.6894 5.61069 16.2748 6.29366 16.3918 6.98165L18.939 21.948C19.121 23.0189 18.8078 24.1287 18.08 24.9938C17.5523 25.6491 17.4159 26.3371 17.3873 26.8079C17.3574 27.3126 17.0156 27.752 16.5217 27.9202C16.0292 28.0872 15.4782 27.9541 15.126 27.5787L9.70527 21.7936C9.44405 21.5149 9.04637 21.4157 8.69547 21.5463C8.40696 21.6492 8.18602 21.8802 8.08985 22.179C7.98718 22.4941 8.03917 22.8281 8.23021 23.0942C8.2614 23.1382 8.29129 23.1846 8.31599 23.2323L11.0907 28.3785C11.6807 29.472 12.389 30.5052 13.196 31.4493L16.5178 35.335C16.9753 35.8698 16.8973 36.6608 16.3437 37.1027C16.1007 37.2948 15.8083 37.3902 15.5171 37.3902L15.5197 37.3889Z" fill="#585E48"/>
<path d="M18.9536 49.8481C18.244 49.8481 17.6644 49.2983 17.654 48.6103L17.6046 45.0673C17.5955 44.3731 18.1699 43.8044 18.8873 43.7943H18.9055C19.6151 43.7943 20.1947 44.3442 20.2051 45.0322L20.2545 48.5751C20.2636 49.2694 19.6892 49.8381 18.9718 49.8481H18.9536Z" fill="#585E48"/>
<path d="M16.3568 26.7075C16.0345 26.7075 15.7122 26.592 15.4614 26.361C14.9415 25.8826 14.9208 25.0879 15.4159 24.5857C15.9098 24.0836 16.7415 24.0572 17.2588 24.5355C17.7786 25.0139 17.8046 25.8023 17.3107 26.3045L17.2977 26.3183C17.043 26.5769 16.6999 26.7075 16.3568 26.7075Z" fill="#585E48"/>
<path d="M9.50404 50C9.34549 50 9.18304 49.9724 9.02578 49.9122C8.35908 49.6573 8.03158 48.9279 8.2954 48.2826L9.40397 45.577C9.89522 44.3781 10.9817 43.4591 12.462 42.9933L15.5096 42.0367C16.4843 41.7303 17.2705 41.2846 17.845 40.7121L18.9392 39.6211C19.3876 39.1742 19.9477 38.8101 20.604 38.5427L23.8947 37.1981C23.8492 37.1366 23.7868 37.0638 23.7023 36.9809C23.0252 36.3318 21.9335 36.0858 21.554 36.2477L20.1349 36.8491C19.1264 37.2759 17.8839 37.4668 16.5297 37.4065L15.4953 37.3601C14.7779 37.3287 14.2242 36.7399 14.2567 36.0468C14.2905 35.3551 14.9286 34.819 15.6148 34.8516L16.6506 34.8981C17.6058 34.9458 18.448 34.8203 19.0926 34.5491L20.5131 33.9477C21.9595 33.3363 24.1637 33.8874 25.5335 35.1982C26.3548 35.9841 26.7265 36.9307 26.555 37.7932C26.412 38.5151 25.9 39.1051 25.1514 39.4115L21.619 40.854C21.2863 40.9896 21.0134 41.1628 20.8068 41.3675L19.7125 42.4585C18.8405 43.3273 17.6968 43.9901 16.314 44.4233L13.2677 45.3799C12.7518 45.5419 12.0812 45.8696 11.8225 46.4998L10.714 49.2053C10.5125 49.6987 10.0226 49.9988 9.50534 49.9988L9.50404 50Z" fill="#585E48"/>
<path d="M2.40688 45.6762L0 44.7246L5.47137 31.8059C6.32781 29.7795 8.03161 28.6672 10.3995 28.5906C11.1507 28.5304 11.7186 29.1091 11.742 29.8034C11.7667 30.4964 11.204 31.0764 10.4866 31.099C9.16617 31.1417 8.33702 31.669 7.87695 32.755L2.40558 45.6749L2.40688 45.6762Z" fill="#585E48"/>
<path d="M42.7675 38.7599C42.2438 38.7599 41.7512 38.4523 41.5524 37.9514L40.4789 35.2333C40.2294 34.598 39.5627 34.2653 39.0494 34.0971L36.0161 33.1028C34.6385 32.6508 33.5039 31.9766 32.6436 31.0953L31.5636 29.9917C31.3608 29.7846 31.0905 29.6088 30.7578 29.4682L27.245 27.9805C26.5003 27.6654 25.9973 27.0703 25.8622 26.3471C25.701 25.4821 26.0857 24.5405 26.9175 23.7634C28.3068 22.4678 30.5187 21.9467 31.9535 22.5745L33.3661 23.1922C34.0069 23.4734 34.849 23.6065 35.8016 23.5713L36.8387 23.5374C37.5951 23.496 38.1578 24.0572 38.1825 24.7489C38.2072 25.4407 37.6458 26.0232 36.9284 26.0471L35.8926 26.081C34.5449 26.1262 33.2986 25.919 32.2953 25.4796L30.8826 24.8619C30.5551 24.7175 29.4608 24.8833 28.7252 25.5688C28.6395 25.6491 28.5758 25.7219 28.5303 25.7822L31.8027 27.1682C32.4551 27.4457 33.0114 27.8148 33.4545 28.268L34.5345 29.3715C35.1011 29.9503 35.8809 30.4048 36.853 30.7237L39.8863 31.718C41.3601 32.2014 42.4335 33.1316 42.9105 34.3381L43.984 37.0562C44.24 37.7053 43.9034 38.4297 43.2328 38.677C43.0807 38.7335 42.9235 38.7586 42.7701 38.7586L42.7675 38.7599Z" fill="#585E48"/>
<path d="M47.5823 34.5215L42.2799 21.5375C41.8341 20.444 41.0115 19.9079 39.6911 19.8489C38.9737 19.8162 38.42 19.2287 38.4525 18.5369C38.4863 17.8452 39.1205 17.3304 39.8106 17.3405C42.1772 17.4459 43.8667 18.5796 44.6972 20.616L49.9983 33.5987L47.581 34.5202L47.5823 34.5215Z" fill="#585E48"/>
</g>
<defs>
<clipPath id="clip0_452_14507">
<rect width="50" height="50" fill="white"/>
</clipPath>
</defs>
</svg>
