<svg width="50" height="50" viewBox="0 0 50 50" fill="none" xmlns="http://www.w3.org/2000/svg">
<g clip-path="url(#clip0_639_228)">
<path d="M48.7494 23.6481C48.1897 23.6481 47.68 23.2681 47.5375 22.6994L45.786 15.6329C45.3549 13.8941 44.0594 12.4566 42.319 11.7878L40.5937 11.1253C40.3513 11.0328 40.0989 10.9541 39.8441 10.8928L35.3339 9.80903C32.4692 9.12151 30.3028 6.85771 29.8143 4.04139L29.3671 1.46382C29.2484 0.783805 29.7057 0.136289 30.384 0.0175356C31.0662 -0.0962173 31.7096 0.355044 31.8283 1.03506L32.2756 3.61388C32.5929 5.44517 34.0221 6.92271 35.9161 7.37897L40.425 8.4615C40.7861 8.54775 41.1396 8.65775 41.487 8.79025L43.2136 9.45402C45.716 10.4153 47.5838 12.5003 48.2109 15.0304L49.9625 22.0968C50.1287 22.7669 49.7201 23.4444 49.0517 23.6106C48.9505 23.6356 48.8493 23.6481 48.7494 23.6481Z" fill="white"/>
<path d="M1.25054 23.7485C1.15059 23.7485 1.04939 23.7372 0.948194 23.7122C0.278546 23.546 -0.12874 22.8685 0.0374223 22.1984L1.81524 15.0308C2.44241 12.5007 4.31018 10.4157 6.81262 9.45438L8.53796 8.79186C8.88528 8.65936 9.24009 8.5481 9.6024 8.46185L14.11 7.37932C16.004 6.92431 17.4333 5.44678 17.7506 3.61548L18.1979 1.03667C18.3178 0.357899 18.9612 -0.0933618 19.6421 0.019141C20.3218 0.137894 20.7778 0.78416 20.6591 1.46543L20.2118 4.04424C19.7233 6.85931 17.557 9.12312 14.6922 9.81064L10.1833 10.8932C9.92723 10.9544 9.67611 11.0332 9.43124 11.1269L7.70715 11.7894C5.96556 12.4582 4.66999 13.8957 4.24022 15.6345L2.4624 22.8022C2.32122 23.371 1.81149 23.751 1.25054 23.751V23.7485Z" fill="white"/>
<path d="M5.35344 43.5481C5.21226 43.5481 5.06734 43.5231 4.92741 43.4719C4.27775 43.2369 3.94418 42.5206 4.1778 41.8706L9.00902 28.5315C9.24389 27.8815 9.96227 27.5465 10.6094 27.7828C11.2591 28.0178 11.5927 28.734 11.359 29.384L6.52782 42.7231C6.34417 43.2319 5.86442 43.5481 5.35344 43.5481Z" fill="white"/>
<path d="M25.0219 50.0002C24.331 50.0002 23.7725 49.4401 23.7725 48.7501V45C23.7725 44.31 24.331 43.75 25.0219 43.75C25.7128 43.75 26.2712 44.31 26.2712 45V48.7501C26.2712 49.4401 25.7128 50.0002 25.0219 50.0002Z" fill="white"/>
<path d="M25.0219 40.0002C24.331 40.0002 23.7725 39.4401 23.7725 38.7501V35C23.7725 34.31 24.331 33.75 25.0219 33.75C25.7128 33.75 26.2712 34.31 26.2712 35V38.7501C26.2712 39.4401 25.7128 40.0002 25.0219 40.0002Z" fill="white"/>
<path d="M25.0219 30.0002C24.331 30.0002 23.7725 29.4401 23.7725 28.7501V25C23.7725 24.31 24.331 23.75 25.0219 23.75C25.7128 23.75 26.2712 24.31 26.2712 25V28.7501C26.2712 29.4401 25.7128 30.0002 25.0219 30.0002Z" fill="white"/>
<path d="M25.0219 20.0002C24.331 20.0002 23.7725 19.4401 23.7725 18.7501V15C23.7725 14.31 24.331 13.75 25.0219 13.75C25.7128 13.75 26.2712 14.31 26.2712 15V18.7501C26.2712 19.4401 25.7128 20.0002 25.0219 20.0002Z" fill="white"/>
<path d="M25.0219 9.9982C24.331 9.9982 23.7725 9.43819 23.7725 8.74817V4.99808C23.7725 4.30806 24.331 3.74805 25.0219 3.74805C25.7128 3.74805 26.2712 4.30806 26.2712 4.99808V8.74817C26.2712 9.43819 25.7128 9.9982 25.0219 9.9982Z" fill="white"/>
<path d="M10.1872 50.0003C10.0885 50.0003 9.98854 49.989 9.88735 49.964C9.2177 49.799 8.80916 49.1215 8.97408 48.4515L10.4808 42.3251C11.3753 38.6875 11.1554 34.9112 9.84487 31.4023L7.61729 25.4372C7.37616 24.7897 7.70349 24.0696 8.35065 23.8284C8.99531 23.5846 9.71619 23.9146 9.95731 24.5609L12.1849 30.526C13.6729 34.5086 13.9227 38.7937 12.9058 42.9214L11.3991 49.0478C11.2591 49.6178 10.7481 50.0003 10.1872 50.0003Z" fill="white"/>
<path d="M44.9052 43.5475C44.3942 43.5475 43.9145 43.2312 43.7308 42.7225L38.8996 29.3834C38.6647 28.7334 38.9996 28.0171 39.6492 27.7821C40.2989 27.5471 41.016 27.8821 41.2496 28.5309L46.0808 41.87C46.3157 42.52 45.9809 43.2363 45.3312 43.4713C45.1913 43.5225 45.0464 43.5475 44.9052 43.5475Z" fill="white"/>
<path d="M40.0727 50.001C39.5118 50.001 39.002 49.6197 38.8609 49.0497L37.3542 42.9233C36.3384 38.797 36.5871 34.5106 38.075 30.528L40.3026 24.5628C40.5437 23.9166 41.2646 23.5866 41.9093 23.8303C42.5564 24.0716 42.8838 24.7916 42.6426 25.4391L40.4151 31.4043C39.1045 34.9131 38.8846 38.6895 39.7791 42.3258L41.2858 48.4534C41.4508 49.1235 41.0422 49.801 40.3726 49.966C40.2726 49.991 40.1714 50.001 40.0727 50.001Z" fill="white"/>
<path d="M18.5765 22.4243C18.3266 22.4243 18.073 22.3493 17.8531 22.1918L13.7303 19.2543C13.1681 18.8543 13.0369 18.073 13.4379 17.5105C13.839 16.948 14.6173 16.8142 15.1808 17.218L19.3036 20.1555C19.8658 20.5555 19.997 21.3368 19.596 21.8993C19.3523 22.2418 18.9663 22.4243 18.5765 22.4243Z" fill="white"/>
<path d="M12.9207 20.2701C12.2936 20.2701 11.6601 20.0826 11.1129 19.6914L9.07774 18.2388C8.39935 17.7551 7.94958 17.0351 7.81091 16.2113C7.67223 15.3875 7.86338 14.5588 8.34937 13.88C8.83287 13.2012 9.55249 12.7512 10.3746 12.6125C11.1979 12.4737 12.0249 12.665 12.7033 13.15L14.7385 14.6013C16.1403 15.6025 16.4676 17.5576 15.4694 18.9601C14.861 19.8139 13.8977 20.2689 12.922 20.2689L12.9207 20.2701ZM10.8918 15.07C10.8506 15.07 10.8143 15.0738 10.7881 15.0788C10.6931 15.095 10.5132 15.1488 10.3833 15.3313C10.2521 15.515 10.2584 15.7025 10.2746 15.7975C10.2921 15.8938 10.3458 16.0725 10.5282 16.2038L12.5634 17.6563C12.842 17.8563 13.2343 17.7901 13.4342 17.5101C13.6341 17.2288 13.5679 16.8376 13.288 16.6376L11.2541 15.1863C11.1242 15.0938 10.9917 15.07 10.8918 15.07Z" fill="white"/>
<path d="M29.0123 29.0119C28.6225 29.0119 28.2389 28.8294 27.9953 28.4894C27.5943 27.9281 27.723 27.1468 28.2839 26.7456L32.4068 23.7955C32.969 23.3942 33.7485 23.5242 34.1508 24.0855C34.5519 24.6468 34.4232 25.428 33.8622 25.8293L29.7394 28.7794C29.5183 28.9369 29.2647 29.0131 29.0135 29.0131L29.0123 29.0119Z" fill="white"/>
<path d="M34.6643 26.8548C33.6886 26.8548 32.7253 26.3998 32.1169 25.5461C31.1174 24.1423 31.446 22.1872 32.8478 21.1872L34.883 19.7359C35.5613 19.2509 36.3872 19.0596 37.2105 19.1984C38.0326 19.3359 38.7522 19.7859 39.2382 20.4659C40.2376 21.8697 39.9103 23.8248 38.5073 24.8248L36.4721 26.2761C35.9249 26.6673 35.2915 26.8548 34.6643 26.8548ZM34.1496 24.0923C34.352 24.3723 34.743 24.4398 35.0204 24.2398L37.0568 22.7872C37.3367 22.5872 37.4016 22.196 37.2017 21.9147C37.0718 21.7322 36.8919 21.6772 36.7969 21.661C36.7008 21.646 36.5133 21.6385 36.3322 21.7685L34.2958 23.221C34.0159 23.421 33.9509 23.811 34.1496 24.0923Z" fill="white"/>
<path d="M20.2793 39.1006C19.8058 39.1006 19.3536 38.8306 19.1424 38.3719L17.031 33.7718C16.7437 33.1442 17.0186 32.4017 17.6457 32.1142C18.2704 31.8267 19.0138 32.1005 19.3024 32.728L21.4137 37.3281C21.7011 37.9556 21.4262 38.6981 20.7991 38.9856C20.6304 39.0631 20.4542 39.1006 20.2793 39.1006Z" fill="white"/>
<path d="M17.3896 34.6656C16.2065 34.6656 15.0721 33.9893 14.5461 32.8443L13.5042 30.5717C12.787 29.0067 13.4754 27.1479 15.0409 26.4291C16.6025 25.7104 18.4628 26.4004 19.1812 27.9654L20.2231 30.238C20.5705 30.9955 20.6029 31.8455 20.3131 32.628C20.0232 33.4106 19.446 34.0343 18.6864 34.3818C18.2654 34.5756 17.8244 34.6668 17.3884 34.6668L17.3896 34.6656ZM16.3414 28.6442C16.2552 28.6442 16.1665 28.6617 16.0828 28.7004C15.7692 28.8442 15.6318 29.2155 15.7755 29.528L16.8174 31.8005C16.9611 32.113 17.3334 32.2518 17.6457 32.108C17.8506 32.0143 17.9368 31.848 17.9706 31.758C18.0043 31.6668 18.0468 31.4843 17.9518 31.2805L16.9099 29.008C16.8049 28.7792 16.5776 28.6442 16.3414 28.6442Z" fill="white"/>
</g>
<defs>
<clipPath id="clip0_639_228">
<rect width="50" height="50" fill="white"/>
</clipPath>
</defs>
</svg>
