<svg width="60" height="60" viewBox="0 0 60 60" fill="none" xmlns="http://www.w3.org/2000/svg">
<g clip-path="url(#clip0_643_351)">
<path d="M58.4978 28.0275C57.8247 28.0275 57.2145 27.5771 57.0436 26.9031L54.9417 18.5282C54.4245 16.4675 52.8698 14.7638 50.7814 13.9712L48.7125 13.186C48.4216 13.0764 48.1188 12.9831 47.8129 12.9105L42.4008 11.626C38.9631 10.8112 36.3635 8.12825 35.7773 4.79195L35.2405 1.73566C35.0996 0.92973 35.6453 0.162323 36.4609 0.0230638C37.2765 -0.113233 38.0531 0.424545 38.194 1.22899L38.7307 4.28529C39.1115 6.45566 40.8266 8.20677 43.1009 8.74603L48.5116 10.029C48.9449 10.1312 49.3706 10.2616 49.7859 10.4186L51.8578 11.2053C54.8607 12.3445 57.1021 14.8157 57.8547 17.8142L59.9566 26.189C60.156 26.9831 59.6657 27.786 58.8621 27.9831C58.7407 28.0127 58.6193 28.026 58.4993 28.026L58.4978 28.0275Z" fill="#585E48"/>
<path d="M1.50095 28.1461C1.38101 28.1461 1.25958 28.1327 1.13814 28.1031C0.334563 27.9061 -0.155679 27.1031 0.0437161 26.309L2.1756 17.8142C2.9282 14.8157 5.16953 12.3446 8.17245 11.2053L10.2414 10.4201C10.6581 10.2631 11.0839 10.1313 11.5187 10.029L16.9279 8.74607C19.2007 8.20681 20.9158 6.4557 21.2981 4.28385L21.8348 1.22903C21.9772 0.423107 22.7568 -0.113189 23.5679 0.0231072C24.3834 0.162366 24.9307 0.929774 24.7882 1.7357L24.2515 4.792C23.6638 8.12829 21.0657 10.8113 17.628 11.6276L12.2173 12.9105C11.9085 12.9831 11.6071 13.0764 11.3133 13.1876L9.24588 13.9727C7.15748 14.7653 5.6013 16.469 5.08557 18.5298L2.95369 27.0246C2.78428 27.6987 2.1726 28.149 1.49945 28.149L1.50095 28.1461Z" fill="#585E48"/>
<path d="M6.42264 51.6087C6.25323 51.6087 6.08082 51.579 5.91141 51.5198C5.13332 51.2413 4.73003 50.3909 5.01338 49.622L10.8108 33.8146C11.0927 33.0457 11.9532 32.6546 12.7313 32.9257C13.5094 33.2042 13.9127 34.0546 13.6294 34.8235L7.8319 50.6309C7.61151 51.2324 7.03582 51.6087 6.42264 51.6087Z" fill="#585E48"/>
<path d="M12.2232 59.258C12.1047 59.258 11.9833 59.2447 11.8634 59.215C11.0598 59.0195 10.568 58.2165 10.7659 57.4224L12.5755 50.1617C13.6489 45.8521 13.3866 41.375 11.8139 37.2165L9.14079 30.1484C8.85144 29.3809 9.24423 28.5291 10.0193 28.2417C10.7944 27.9528 11.6595 28.3439 11.9488 29.1098L14.6219 36.1795C16.406 40.898 16.7058 45.978 15.4885 50.8698L13.6789 58.1306C13.511 58.8061 12.8978 59.258 12.2247 59.258H12.2232Z" fill="#585E48"/>
<path d="M53.8848 51.6078C53.2716 51.6078 52.6959 51.233 52.4755 50.6315L46.6781 34.8241C46.3962 34.0537 46.798 33.2048 47.5761 32.9263C48.3557 32.6537 49.2147 33.0463 49.4966 33.8152L55.294 49.6226C55.5759 50.393 55.1741 51.2418 54.396 51.5204C54.2281 51.5796 54.0542 51.6093 53.8848 51.6093V51.6078Z" fill="#585E48"/>
<path d="M48.0858 59.2582C47.4127 59.2582 46.7995 58.8063 46.6316 58.1308L44.8221 50.87C43.6047 45.9782 43.903 40.8996 45.6871 36.1796L48.3617 29.11C48.651 28.3426 49.5176 27.953 50.2912 28.2419C51.0663 28.5278 51.4606 29.3811 51.1697 30.1485L48.4966 37.2167C46.9254 41.3767 46.6601 45.8537 47.735 50.1619L49.5446 57.4226C49.7425 58.2167 49.2507 59.0196 48.4471 59.2152C48.3257 59.2463 48.2043 59.2582 48.0858 59.2582Z" fill="#585E48"/>
<path d="M35.9377 59.9997C35.1101 59.9997 34.4385 59.3375 34.4385 58.5183V54.5864C34.5584 53.2723 35.1536 52.1746 36.0771 51.4309C36.6438 50.976 36.9422 50.2783 37.0921 49.7716C37.3619 48.8679 37.6003 47.9316 37.8027 46.9894C38.275 44.7864 38.5208 42.8679 38.5883 40.8205C38.5418 40.7553 38.4758 40.6842 38.3829 40.6383C38.1475 40.5227 37.8792 40.6383 37.8672 40.6412C37.4159 40.8338 36.8837 40.8072 36.4669 40.5538C36.0486 40.302 35.7653 39.8709 35.7353 39.3879C35.7278 39.2768 35.6723 39.1909 35.6228 39.1701C35.5599 39.136 35.416 39.1612 35.3125 39.2842C34.9077 39.7642 34.2436 39.9375 33.6514 39.7286C33.0577 39.5153 32.6634 38.9583 32.6634 38.336V30.5938C32.5839 30.3835 32.3531 30.2131 32.1642 30.2442C31.9318 30.2516 31.7219 30.4397 31.6769 30.6812C31.533 31.4575 30.7864 31.982 30.0053 31.8842C29.2122 31.7805 28.6425 31.0798 28.7085 30.2916C28.728 30.0546 28.6155 29.8916 28.5466 29.8146C28.4461 29.7035 28.3157 29.6353 28.1942 29.6309C28.0743 29.6442 27.9274 29.6931 27.8179 29.8042C27.743 29.8827 27.6201 30.0501 27.6395 30.296L27.644 44.939C27.644 45.5123 27.3097 46.0323 26.788 46.2768C26.2648 46.5242 25.6456 46.4472 25.1958 46.0857L22.7461 44.1079C22.4013 43.8294 21.8286 43.8205 21.4493 44.062C21.4058 44.2279 21.4433 44.4086 21.5587 44.5479L24.6951 48.2842C25.2573 48.9538 25.5841 49.7657 25.6411 50.6309C25.6786 51.1879 25.821 51.7212 26.0624 52.2131C26.2258 52.5449 26.4342 52.856 26.6815 53.1375C27.3022 53.8457 27.6485 54.776 27.6545 55.7612L27.6695 58.5094C27.674 59.3286 27.0069 59.9953 26.1778 59.9997H26.1703C25.3457 59.9997 24.6756 59.342 24.6711 58.5272L24.6561 55.7775C24.6561 55.502 24.5692 55.2531 24.4147 55.0783C23.995 54.5998 23.6426 54.0709 23.3653 53.5079C22.9545 52.6709 22.7131 51.7686 22.6487 50.8264C22.6322 50.5849 22.5422 50.3612 22.3863 50.176L19.2499 46.4383C18.277 45.2753 18.1615 43.6338 18.9651 42.3538C19.0266 42.2575 19.097 42.1672 19.1795 42.0857C20.6427 40.6412 23.0415 40.5183 24.6441 41.8116H24.6471V30.4116C24.5692 29.5094 24.9335 28.4975 25.6501 27.7553C26.3502 27.0309 27.2917 26.6294 28.2977 26.6664C29.1507 26.696 29.9798 27.0531 30.6065 27.6546C31.0487 27.4309 31.5435 27.2975 32.0592 27.2798C33.7473 27.2146 35.3215 28.4501 35.6378 30.142C35.6543 30.2309 35.6633 30.3212 35.6633 30.4116V36.1923C36.0846 36.2072 36.5059 36.302 36.9032 36.4872C37.4444 36.739 37.8927 37.136 38.2105 37.6249C38.7007 37.6338 39.2225 37.7375 39.7292 37.9894C40.9211 38.579 41.3798 39.6294 41.5208 40.0546C41.5747 40.2146 41.6002 40.3849 41.5957 40.5538C41.5402 42.9198 41.2749 45.0916 40.7382 47.6027C40.5193 48.622 40.2614 49.6323 39.9691 50.6086C39.5823 51.9109 38.8911 52.9894 37.9706 53.7286C37.6663 53.9731 37.4699 54.3375 37.4324 54.7257L37.4384 58.5183C37.4384 59.3375 36.7652 59.9997 35.9377 59.9997Z" fill="#585E48"/>
<path d="M30.2602 38.8724C29.4371 38.8724 28.767 38.2176 28.761 37.4028L28.704 30.425C28.698 29.6072 29.3622 28.9376 30.1912 28.9316C31.0668 28.9509 31.6964 29.5835 31.7024 30.4013L31.7594 37.3805C31.7654 38.1983 31.1013 38.8665 30.2722 38.8739L30.2602 38.8724Z" fill="#585E48"/>
<path d="M33.7608 26.0947C33.359 26.0947 32.9602 25.9361 32.6648 25.6236C31.5374 24.428 29.6349 24.3613 28.4266 25.4769C27.8209 26.0339 26.8719 26.0013 26.3067 25.4043C25.743 24.8058 25.776 23.868 26.3801 23.3095C28.7969 21.0828 32.5989 21.2117 34.8567 23.6013C35.4204 24.1999 35.3874 25.1376 34.7832 25.6961C34.4939 25.9628 34.1266 26.0947 33.7608 26.0947Z" fill="#585E48"/>
<path d="M38.146 22.0525C37.7442 22.0525 37.3454 21.894 37.05 21.5814C33.6663 17.9977 27.9633 17.7992 24.3367 21.1429C23.731 21.6999 22.7835 21.6673 22.2168 21.0703C21.6531 20.4718 21.6861 19.534 22.2903 18.9755C27.1283 14.5177 34.7323 14.7814 39.2419 19.5607C39.8056 20.1592 39.7726 21.097 39.1684 21.6555C38.8791 21.9221 38.5118 22.054 38.146 22.054V22.0525Z" fill="#585E48"/>
</g>
<defs>
<clipPath id="clip0_643_351">
<rect width="60" height="60" fill="white"/>
</clipPath>
</defs>
</svg>
