<svg width="50" height="50" viewBox="0 0 50 50" fill="none" xmlns="http://www.w3.org/2000/svg">
<g clip-path="url(#clip0_265_17714)">
<path d="M45.625 32.5008H4.375C1.9625 32.5008 0 30.5383 0 28.1259C0 25.7134 1.9625 23.751 4.375 23.751H45.625C48.0375 23.751 50 25.7134 50 28.1259C50 30.5383 48.0375 32.5008 45.625 32.5008ZM4.375 26.2509C3.34125 26.2509 2.5 27.0921 2.5 28.1259C2.5 29.1596 3.34125 30.0008 4.375 30.0008H45.625C46.6587 30.0008 47.5 29.1596 47.5 28.1259C47.5 27.0921 46.6587 26.2509 45.625 26.2509H4.375Z" fill="#585E48"/>
<path d="M13.125 26.2508H6.875C4.4625 26.2508 2.5 24.2883 2.5 21.8759C2.5 19.4634 4.4625 17.501 6.875 17.501H13.125C15.5375 17.501 17.5 19.4634 17.5 21.8759C17.5 24.2883 15.5375 26.2508 13.125 26.2508ZM6.875 20.0009C5.84125 20.0009 5 20.8421 5 21.8759C5 22.9096 5.84125 23.7508 6.875 23.7508H13.125C14.1587 23.7508 15 22.9096 15 21.8759C15 20.8421 14.1587 20.0009 13.125 20.0009H6.875Z" fill="#585E48"/>
<path d="M5 50C4.30875 50 3.75 49.4413 3.75 48.75V31.2505C3.75 30.5592 4.30875 30.0005 5 30.0005C5.69125 30.0005 6.25 30.5592 6.25 31.2505V48.75C6.25 49.4413 5.69125 50 5 50Z" fill="#585E48"/>
<path d="M5.00007 42.5005C4.68007 42.5005 4.36007 42.378 4.11632 42.1342C3.62757 41.6455 3.62757 40.8555 4.11632 40.3668L14.1163 30.367C14.6051 29.8783 15.3951 29.8783 15.8838 30.367C16.3726 30.8558 16.3726 31.6458 15.8838 32.1345L5.88382 42.1342C5.64007 42.378 5.32007 42.5005 5.00007 42.5005Z" fill="#585E48"/>
<path d="M45 50C44.3088 50 43.75 49.4413 43.75 48.75V31.2505C43.75 30.5592 44.3088 30.0005 45 30.0005C45.6912 30.0005 46.25 30.5592 46.25 31.2505V48.75C46.25 49.4413 45.6912 50 45 50Z" fill="#585E48"/>
<path d="M45.0001 42.5005C44.6801 42.5005 44.3601 42.378 44.1163 42.1342L34.1163 32.1345C33.6276 31.6458 33.6276 30.8558 34.1163 30.367C34.6051 29.8783 35.3951 29.8783 35.8838 30.367L45.8838 40.3668C46.3726 40.8555 46.3726 41.6455 45.8838 42.1342C45.6401 42.378 45.3201 42.5005 45.0001 42.5005Z" fill="#585E48"/>
<path d="M48.75 21.251C48.0588 21.251 47.5 20.691 47.5 20.001V3.09768L45.5588 3.87391C43.58 4.66514 41.3488 4.5739 39.44 3.61892C38.1688 2.98269 36.6875 2.92144 35.3675 3.44893L34.025 3.98641C32.2325 4.70139 30.26 4.70139 28.4738 3.98641L26.8475 3.33518C25.6563 2.85894 24.3425 2.85894 23.1513 3.33518L21.525 3.98641C19.735 4.70264 17.7625 4.70264 15.9738 3.98641L14.6313 3.45017C13.31 2.92144 11.8288 2.98394 10.5588 3.61892C8.65128 4.57265 6.41878 4.66514 4.44003 3.87266L2.49878 3.09643V16.2499C2.49878 16.9398 1.94003 17.4998 1.24878 17.4998C0.557529 17.4998 -0.0012207 16.9398 -0.0012207 16.2499V1.25148C2.9297e-05 0.83649 0.206279 0.449 0.548779 0.216506C0.893779 -0.0172384 1.33253 -0.0622373 1.71378 0.0902589L5.36878 1.55147C6.68753 2.08021 8.17128 2.01771 9.44128 1.38273C11.3488 0.429 13.5813 0.336503 15.56 1.12898L16.9025 1.66522C18.0938 2.14271 19.4075 2.14146 20.5988 1.66522L22.225 1.01399C24.015 0.297754 25.9875 0.297754 27.7763 1.01399L29.4025 1.66522C30.5938 2.14146 31.9075 2.14146 33.0988 1.66522L34.4413 1.12773C36.42 0.336503 38.6513 0.42775 40.56 1.38273C41.8313 2.01771 43.3113 2.07896 44.6325 1.55272L48.2875 0.0902589C48.67 -0.0647373 49.1075 -0.0184884 49.4525 0.216506C49.795 0.449 50.0013 0.83649 50.0013 1.25148V20.001C50.0013 20.691 49.4413 21.251 48.75 21.251Z" fill="#585E48"/>
<path d="M7.5 12.5012C6.80875 12.5012 6.25 11.9412 6.25 11.2512V3.75143C6.25 3.06145 6.80875 2.50146 7.5 2.50146C8.19125 2.50146 8.75 3.06145 8.75 3.75143V11.2512C8.75 11.9412 8.19125 12.5012 7.5 12.5012Z" fill="#585E48"/>
<path d="M18.75 12.5012C18.0588 12.5012 17.5 11.9412 17.5 11.2512V3.75143C17.5 3.06145 18.0588 2.50146 18.75 2.50146C19.4412 2.50146 20 3.06145 20 3.75143V11.2512C20 11.9412 19.4412 12.5012 18.75 12.5012Z" fill="#585E48"/>
<path d="M31.25 12.5012C30.5588 12.5012 30 11.9412 30 11.2512V3.75143C30 3.06145 30.5588 2.50146 31.25 2.50146C31.9412 2.50146 32.5 3.06145 32.5 3.75143V11.2512C32.5 11.9412 31.9412 12.5012 31.25 12.5012Z" fill="#585E48"/>
<path d="M42.5 12.5012C41.8088 12.5012 41.25 11.9412 41.25 11.2512V3.75143C41.25 3.06145 41.8088 2.50146 42.5 2.50146C43.1912 2.50146 43.75 3.06145 43.75 3.75143V11.2512C43.75 11.9412 43.1912 12.5012 42.5 12.5012Z" fill="#585E48"/>
</g>
<defs>
<clipPath id="clip0_265_17714">
<rect width="50" height="50" fill="white"/>
</clipPath>
</defs>
</svg>
