<svg width="50" height="50" viewBox="0 0 50 50" fill="none" xmlns="http://www.w3.org/2000/svg">
<g clip-path="url(#clip0_452_14777)">
<path d="M13.064 50C13.0113 50 12.9598 49.9962 12.907 49.9899C12.2185 49.9043 11.7297 49.2751 11.8164 48.5854C11.9722 47.3332 12.1343 45.9678 12.275 44.6287C12.4848 42.6554 11.9069 40.701 10.6919 39.265C7.39135 35.3662 5.69897 30.4039 5.9289 25.2932C6.01936 23.2683 6.42015 21.2723 7.11871 19.3619C7.35743 18.71 8.07735 18.3765 8.73069 18.6131C9.38276 18.8522 9.71697 19.5759 9.47825 20.2278C8.86763 21.8953 8.51835 23.637 8.4392 25.4052C8.23817 29.8792 9.71948 34.2235 12.608 37.6365C14.2652 39.5935 15.0542 42.2376 14.774 44.893C14.6308 46.2459 14.4674 47.629 14.3091 48.8963C14.23 49.5331 13.6885 50 13.064 50Z" fill="#585E48"/>
<path d="M33.878 50C33.8252 50 33.7725 49.9962 33.7184 49.9899C33.0299 49.9031 32.5424 49.2738 32.6291 48.5842L32.8766 46.6247C33.1241 44.6702 34.8002 43.1953 36.7765 43.1953H41.7042C42.6578 43.1953 43.4418 42.488 43.5285 41.5467L44.3087 33.0506C44.1931 32.1079 44.7283 31.1804 45.6292 30.8205L47.1833 30.2026C47.3731 30.1271 47.4422 29.9761 47.4648 29.893C47.4887 29.8125 47.5088 29.6526 47.3907 29.4941L45.2435 26.597C44.5499 25.6619 44.0901 24.5784 43.9142 23.4608C43.0963 18.2494 40.0055 13.7012 35.4334 10.9791C34.8366 10.6242 34.6419 9.85146 34.9962 9.25368C35.3505 8.65464 36.1182 8.45957 36.7187 8.81572C41.9341 11.9217 45.4621 17.1168 46.3968 23.0694C46.5099 23.7843 46.8089 24.4852 47.2612 25.0956L49.4097 27.9914C49.965 28.7402 50.1384 29.6841 49.8834 30.5814C49.6283 31.4812 48.9825 32.196 48.1118 32.5434L46.8265 33.1185L46.0312 41.7795C45.8252 44.0221 43.9644 45.7135 41.7054 45.7135H36.7778C36.0641 45.7135 35.4586 46.2421 35.3706 46.9431L35.1231 48.9013C35.0427 49.5368 34.5012 50 33.878 50Z" fill="#585E48"/>
<path d="M22.4403 19.4563C22.3913 19.4563 22.3436 19.4563 22.2946 19.4538L13.6015 19.0813C11.5913 18.9957 9.67776 18.0758 8.35099 16.5605L0.311238 7.36346C-0.146095 6.84119 -0.0933254 6.04582 0.42934 5.58773C0.949493 5.12963 1.7448 5.18123 2.20213 5.70602L10.2419 14.9006C11.1176 15.9011 12.3815 16.5089 13.7096 16.5656L22.4027 16.9381C22.8512 16.957 23.2344 16.6247 23.2821 16.1805C23.3311 15.7262 23.002 15.3071 22.5497 15.2479L17.524 14.5885C16.6747 14.4765 15.9661 13.9064 15.6746 13.0984C15.3831 12.2905 15.5653 11.3982 16.147 10.7689L16.6295 10.2479C17.7803 9.00328 19.4124 8.25951 21.1073 8.20665L22.7607 8.15505C24.7295 8.10471 26.6732 8.73144 28.2236 9.95218L31.2352 12.3194C31.3495 12.4088 31.4978 12.4327 31.6285 12.3849C31.8056 12.3232 31.8697 12.1835 31.891 12.1055C31.9137 12.0274 31.9325 11.8764 31.8144 11.7304L29.5076 8.85855C27.7889 6.72289 25.2434 5.50341 22.5107 5.50341C22.4743 5.50341 22.4378 5.50341 22.4014 5.50341L12.9997 5.61667C11.1503 5.60786 9.32345 5.04028 7.84591 3.93155L5.62082 2.26152C5.06548 1.8437 4.95241 1.05589 5.36828 0.499631C5.78666 -0.0566241 6.57317 -0.16863 7.12725 0.246673L9.35235 1.9167C10.3889 2.69445 11.6616 3.14247 12.9695 3.09968L22.3712 2.98642C25.957 2.94237 29.2375 4.50794 31.4651 7.27914L33.7719 10.151C34.3687 10.891 34.5684 11.8815 34.3071 12.7964C34.0458 13.7113 33.3535 14.4463 32.4564 14.7609C31.5091 15.0919 30.4726 14.9182 29.6823 14.299L26.6707 11.9318C25.5801 11.0748 24.2069 10.6204 22.8374 10.6708L21.1827 10.7224C20.1562 10.7538 19.1674 11.2044 18.4688 11.9582L18.2929 12.1483L22.8713 12.7498C24.6667 12.9864 25.9696 14.6439 25.7761 16.4473C25.5927 18.1588 24.139 19.4526 22.4366 19.4526L22.4403 19.4563Z" fill="#585E48"/>
<path d="M26.6346 22.3445C26.3306 22.3445 26.024 22.3169 25.7149 22.2602C25.0327 22.1331 24.5829 21.4762 24.7085 20.7928C24.8367 20.1095 25.49 19.6589 26.1735 19.7848C27.5342 20.0402 28.8497 19.1341 29.1047 17.7699C29.2316 17.0878 29.8837 16.6335 30.5697 16.7631C31.2519 16.8902 31.7017 17.5472 31.5748 18.2305C31.1263 20.6494 29.0067 22.3445 26.6346 22.3445Z" fill="#585E48"/>
<path d="M26.6556 27.3811C26.0374 27.3811 25.4155 27.3232 24.7961 27.2074C24.1139 27.0803 23.6641 26.4233 23.791 25.74C23.9179 25.0566 24.5674 24.6048 25.2559 24.7332C27.2348 25.1007 29.2387 24.6765 30.8997 23.5351C32.5594 22.3936 33.6764 20.6733 34.0458 18.6899C34.1714 18.0065 34.821 17.5535 35.5107 17.6831C36.193 17.8102 36.6427 18.4671 36.5159 19.1505C36.0246 21.7946 34.5358 24.0888 32.322 25.6103C30.6283 26.7745 28.6658 27.3811 26.6556 27.3811Z" fill="#585E48"/>
</g>
<defs>
<clipPath id="clip0_452_14777">
<rect width="50" height="50" fill="white"/>
</clipPath>
</defs>
</svg>
