<svg width="15" height="15" viewBox="0 0 15 15" fill="none" xmlns="http://www.w3.org/2000/svg">
<g clip-path="url(#clip0_397_1004)">
<path d="M9.01034 13.3704C9.64376 13.7791 10.3986 13.9572 11.1478 13.8748C11.8971 13.7923 12.5952 13.4544 13.1246 12.9179L13.5875 12.4653C13.7904 12.2577 13.904 11.979 13.904 11.6887C13.904 11.3985 13.7904 11.1197 13.5875 10.9122L11.6229 8.96816C11.4171 8.76589 11.1401 8.65255 10.8515 8.65255C10.5629 8.65255 10.2859 8.76589 10.0801 8.96816V8.96816C9.87249 9.17109 9.59375 9.2847 9.30348 9.2847C9.01321 9.2847 8.73447 9.17109 8.52691 8.96816L5.44119 5.88245C5.33826 5.78101 5.25651 5.66011 5.20072 5.5268C5.14493 5.39348 5.11619 5.2504 5.11619 5.10588C5.11619 4.96136 5.14493 4.81828 5.20072 4.68496C5.25651 4.55164 5.33826 4.43075 5.44119 4.32931V4.32931C5.64347 4.12349 5.75681 3.84646 5.75681 3.55788C5.75681 3.2693 5.64347 2.99227 5.44119 2.78645L3.48691 0.832165C3.27935 0.629243 3.00061 0.515625 2.71034 0.515625C2.42006 0.515625 2.14132 0.629243 1.93376 0.832165L1.48119 1.29502C0.944635 1.82447 0.606737 2.52252 0.524317 3.2718C0.441896 4.02108 0.619979 4.77589 1.02862 5.40931C3.15781 8.5472 5.86696 11.2494 9.01034 13.3704V13.3704Z" stroke="#585E48" stroke-width="1.5" stroke-linecap="round" stroke-linejoin="round"/>
</g>
<defs>
<clipPath id="clip0_397_1004">
<rect width="14.4" height="14.4" fill="white"/>
</clipPath>
</defs>
</svg>
