<svg width="174" height="50" viewBox="0 0 174 50" fill="none" xmlns="http://www.w3.org/2000/svg">
<circle cx="24.5" cy="25.5" r="24.5" fill="#585E48"/>
<path d="M20.9835 21.4693C21.2923 21.0818 21.5548 20.7089 21.8603 20.3764C23.2996 18.8095 24.9235 17.4475 26.5326 16.0677C28.5524 14.3359 30.3611 12.4226 31.546 9.97799C32.878 7.22989 33.2137 4.40515 32.2627 1.46377C32.191 1.24214 32.1394 1.01388 32.0498 0.682706C32.2868 0.863648 32.4623 0.960057 32.5262 1.14613C32.6372 1.46926 32.8815 1.59577 33.172 1.71281C36.5333 3.06677 39.5281 4.99753 41.9814 7.70235C45.5179 11.6014 47.821 16.144 48.6676 21.3978C49.3123 25.3984 49.028 29.337 47.7377 33.1779C46.6209 36.5024 44.8521 39.4523 42.5576 42.08C39.9941 45.016 36.8431 47.0771 33.2499 48.478C32.4926 48.7732 32.4997 48.7757 32.117 48.0436C30.5322 45.0115 30.3648 41.8607 31.3422 38.6138C32.0446 36.2805 33.0944 34.1265 34.6488 32.2523C35.7794 30.8892 37.2588 30.0667 38.9237 29.5427C40.1578 29.1542 41.4292 28.9395 42.6824 28.6405C43.1926 28.5188 43.6793 28.339 44.1212 28.0474C44.9716 27.4862 45.1415 26.5514 44.5347 25.7299C44.3949 25.5406 44.2333 25.3674 44.0772 25.1909C43.6872 24.75 43.6543 24.3222 43.9764 23.8245C44.3238 23.2877 44.237 22.916 43.7042 22.5507C43.4994 22.4103 43.3353 22.5035 43.157 22.5809C42.6591 22.7973 42.1708 23.0468 41.6074 23.0666C41.5639 22.8609 41.7145 22.8141 41.8092 22.7483C42.1848 22.4874 42.5672 22.2366 42.9498 21.9863C43.1582 21.85 43.365 21.7138 43.525 21.5171C43.9077 21.0465 43.8666 20.7645 43.3644 20.4237C42.5991 19.9044 42.5105 19.433 43.0433 18.6803C43.2556 18.3804 43.4855 18.0929 43.6177 17.7425C43.7954 17.2716 43.7263 17.0937 43.2503 16.9398C42.4431 16.6787 41.6528 16.3789 40.8863 16.0111C40.5091 15.8301 40.127 15.6575 39.7872 15.4134C39.5332 15.2308 39.287 15.4292 39.2795 15.5511C39.2638 15.8056 39.0894 15.8816 38.9628 16.0064C38.7165 16.249 38.707 16.2391 38.9777 16.4974C37.765 16.6388 36.5559 17.0573 35.4633 16.1496C35.4857 16.1188 35.5009 16.0813 35.5141 16.082C36.5758 16.1346 37.554 15.7015 38.5789 15.5412C39.1119 15.4579 39.4717 15.1242 39.7261 14.6563C38.5974 15.3514 37.3462 15.6095 35.977 15.866C36.1376 15.5917 36.3082 15.5536 36.4533 15.4875C37.1218 15.1827 37.8189 14.9708 38.547 14.8796C38.8158 14.8459 38.8785 14.7445 38.7718 14.4898C38.5613 13.9872 38.4653 13.4503 38.4368 12.9116C38.3843 11.9199 37.9577 11.0894 37.4198 10.2994C36.6164 9.11971 35.6846 8.06115 34.5404 7.20686C34.4395 7.13154 34.3386 6.99344 34.2032 7.0577C34.061 7.12516 34.1182 7.29257 34.1199 7.41693C34.1597 10.3192 33.4671 13.0508 32.2859 15.6777C31.5176 17.3863 30.6961 19.0578 29.4939 20.5068C28.6048 21.5786 27.5931 22.4991 26.3158 23.07C25.9664 23.2261 25.9359 23.3897 26.0757 23.7295C26.662 25.1542 26.9418 26.6459 27.0251 28.1887C27.2931 33.1491 25.8125 37.6134 23.3542 41.8217C22.1476 43.8872 20.6761 45.7413 19.1171 47.5338C18.7904 47.9094 18.4548 48.2782 18.1467 48.6691C17.8954 48.9878 17.621 49.0633 17.2294 48.951C16.3116 48.6878 15.4248 48.3437 14.5632 47.939C11.4925 46.4967 8.7766 44.5475 6.49576 42.0073C4.23578 39.4903 2.53667 36.6338 1.4423 33.4023C0.728189 31.2937 0.249812 29.1417 0.0704684 26.926C-0.170439 23.95 0.2208 21.0342 1.02301 18.1735C1.63727 15.983 2.47922 13.8734 3.64458 11.9295C6.37071 7.3822 10.1357 4.03071 14.9817 1.90402C18.252 0.468863 21.6482 -0.128138 25.1804 0.0227358C27.1189 0.105546 29.036 0.412783 30.9209 0.898738C31.1841 0.966622 31.444 1.03228 31.7254 1.03038C32.0675 1.02808 32.0774 1.3331 32.0862 1.57719C32.126 2.67482 31.9201 3.72656 31.4776 4.7304C30.7049 6.48298 29.4849 7.89707 28.1781 9.2525C26.1662 11.3393 24.2463 13.5014 22.7839 16.041C21.8885 17.5959 21.2436 19.2349 20.9675 21.017C20.9476 21.1452 20.9002 21.2731 20.9835 21.4693ZM31.4389 1.90879C31.3719 1.98417 31.3066 2.06113 31.2376 2.13458C31.1572 2.22019 31.0762 2.30558 30.991 2.38617C29.9562 3.36439 28.6749 3.87808 27.3759 4.36278C25.5831 5.03169 23.754 5.59701 22.078 6.57171C19.5902 8.01853 17.8167 10.0285 16.9417 12.8252C16.2577 15.0117 16.0971 17.23 16.3773 19.5024C16.706 22.1673 17.5434 24.6282 19.071 26.8348C19.2125 27.0391 19.3291 27.2684 19.5664 27.4612C19.5664 27.3181 19.5777 27.2386 19.5647 27.1634C19.3611 25.9794 19.2871 24.791 19.3341 23.5866C19.3832 22.3302 19.5182 21.0898 19.8053 19.8692C20.567 16.6304 22.1844 13.8714 24.4558 11.4939C25.5419 10.3572 26.673 9.26463 27.7632 8.13173C28.8938 6.95685 29.8946 5.67425 30.652 4.21836C31.025 3.50145 31.3137 2.74152 31.4389 1.90879ZM11.4694 7.2413C11.1323 7.43885 10.8807 7.71631 10.6309 8.00428C8.33379 10.6518 7.16843 13.7109 7.23711 17.2577C7.2935 20.1697 8.34586 22.6427 10.3034 24.736C11.4254 25.9358 12.7027 26.9555 14.0495 27.8859C16.4708 29.5588 18.8172 31.3258 20.8734 33.4579C20.9329 33.5196 20.9793 33.6136 21.1147 33.6058C21.1186 33.2601 20.9928 32.9426 20.9082 32.6202C20.3217 30.384 19.326 28.3852 17.5853 26.829C16.6476 25.9906 15.6324 25.2516 14.6062 24.5318C13.5329 23.779 12.4672 23.0121 11.6552 21.967C9.57063 19.2841 8.86438 16.2216 9.31162 12.8633C9.58426 10.816 10.2786 8.93421 11.4694 7.2413ZM15.2637 23.3013C15.251 23.2261 15.2403 23.1504 15.2253 23.0756C14.7068 20.4951 14.4388 17.8994 14.7393 15.2658C14.8759 14.0695 15.1076 12.895 15.5419 11.7731C16.7225 8.72381 18.9329 6.72772 21.853 5.44556C23.3963 4.76793 24.9928 4.24825 26.5797 3.69628C27.1348 3.50321 27.6735 3.26174 28.2196 3.04237C28.2091 3.00488 28.1987 2.96735 28.1882 2.92985C27.505 2.98378 26.8226 3.04851 26.1387 3.08955C24.4108 3.19332 22.6918 3.34487 21.0091 3.79606C18.0145 4.59897 15.6356 6.28259 13.9212 8.89406C12.7847 10.6253 12.1441 12.5319 11.9781 14.622C11.8101 16.7387 12.0691 18.7466 13.089 20.6255C13.6443 21.6483 14.3549 22.5436 15.2637 23.3013ZM8.17793 40.6169C8.31019 40.5888 8.36255 40.5863 8.40782 40.5668C9.43007 40.1263 10.4921 40.0606 11.5852 40.1753C12.593 40.281 13.6016 40.4251 14.6192 40.3626C15.7701 40.2919 16.8312 39.9478 17.8066 39.3065C18.659 38.746 19.3548 38.0244 20.0054 37.2509C20.2088 37.0092 20.5154 36.8635 20.678 36.5378C17.6742 36.0127 14.8558 36.3394 12.2601 38.0095C14.992 35.8873 18.0682 35.1937 21.4941 35.7181C21.4092 35.6276 21.3712 35.5772 21.324 35.5383C20.909 35.1955 20.4552 34.9124 19.9873 34.651C17.6175 33.3273 15.2419 33.1243 12.8309 34.5619C11.2435 35.5084 10.1341 36.8959 9.20631 38.4611C8.81223 39.1258 8.46148 39.8143 8.17793 40.6169ZM22.3231 41.3348C22.3463 41.2901 22.3715 41.2463 22.3923 41.2006C23.4667 38.8455 23.6182 36.3674 23.279 33.8456C23.0544 32.1758 22.5815 30.5458 22.432 28.861C22.2891 27.2496 22.4924 25.7134 23.3271 24.2888C24.0652 23.0292 25.1152 22.0619 26.1715 21.1084C27.3851 20.0129 28.6598 18.9896 29.717 17.7235C30.6371 16.6215 31.4907 15.4703 32.1035 14.1691C32.9817 12.304 33.5776 10.3444 33.8558 8.28644C34.0274 7.01759 33.9399 5.77378 33.6903 4.53138C33.6678 4.71358 33.6419 4.89961 33.6723 5.07567C33.8004 5.81616 33.7283 6.55395 33.6035 7.2784C33.1697 9.79579 32.1181 12.0416 30.595 14.0661C29.1402 16 27.3146 17.5548 25.4983 19.114C24.2379 20.196 23.1236 21.4023 22.239 22.817C21.0818 24.6676 20.6023 26.6761 20.9145 28.8593C21.1153 30.2626 21.5698 31.5985 21.9817 32.9453C22.4575 34.501 22.8167 36.0792 22.7856 37.7182C22.7625 38.9326 22.5839 40.1308 22.3231 41.3348ZM7.34841 30.9078C10.2876 30.4961 13.1762 30.6855 15.9995 31.7872C15.9835 31.6053 15.8893 31.5277 15.819 31.4363C15.3849 30.8728 14.8815 30.3736 14.3608 29.8973C12.7843 28.4555 10.9442 27.8913 8.83986 28.2604C6.73114 28.6302 4.94242 29.6907 3.24105 30.9344C2.97538 31.1285 2.67645 31.2919 2.46346 31.5962C2.91137 31.7539 3.34395 31.8422 3.75173 32.0156C4.66726 32.4048 5.50046 32.9491 6.37557 33.414C7.28461 33.8968 8.22699 34.2321 9.26862 34.2746C11.379 34.3608 12.967 33.1424 14.7226 32.0958C12.2992 31.1489 9.85716 30.8478 7.34841 30.9078Z" fill="white"/>
<path d="M65.34 34V14.2H72.99C74.03 14.2 74.98 14.29 75.84 14.47C76.72 14.63 77.49 14.87 78.15 15.19C78.83 15.51 79.4 15.91 79.86 16.39C80.32 16.85 80.67 17.39 80.91 18.01C81.15 18.61 81.27 19.28 81.27 20.02C81.27 20.72 81.16 21.36 80.94 21.94C80.72 22.5 80.39 22.99 79.95 23.41C79.53 23.83 78.99 24.18 78.33 24.46C77.69 24.72 76.94 24.91 76.08 25.03V25.42C77 25.54 77.75 25.77 78.33 26.11C78.93 26.45 79.41 26.92 79.77 27.52C80.13 28.12 80.44 28.89 80.7 29.83L81.9 34H77.73L76.8 30.16C76.62 29.36 76.34 28.72 75.96 28.24C75.6 27.76 75.14 27.42 74.58 27.22C74.02 27.02 73.34 26.92 72.54 26.92H69.12V34H65.34ZM69.12 24.01H72.72C74.22 24.01 75.36 23.73 76.14 23.17C76.94 22.61 77.34 21.75 77.34 20.59C77.34 19.43 76.96 18.57 76.2 18.01C75.46 17.45 74.32 17.17 72.78 17.17H69.12V24.01ZM92.2198 34.39C90.9598 34.39 89.8298 34.21 88.8298 33.85C87.8498 33.49 87.0198 32.97 86.3398 32.29C85.6598 31.59 85.1398 30.75 84.7798 29.77C84.4198 28.79 84.2398 27.68 84.2398 26.44C84.2398 25.2 84.4098 24.06 84.7498 23.02C85.1098 21.98 85.6198 21.08 86.2798 20.32C86.9398 19.56 87.7398 18.97 88.6798 18.55C89.6398 18.13 90.7298 17.92 91.9498 17.92C93.0898 17.92 94.1098 18.11 95.0098 18.49C95.9098 18.87 96.6698 19.44 97.2898 20.2C97.9098 20.94 98.3698 21.87 98.6698 22.99C98.9698 24.09 99.0698 25.37 98.9698 26.83L86.6998 26.92V24.73L96.7798 24.64L95.4598 25.87C95.5798 24.73 95.4898 23.8 95.1898 23.08C94.8898 22.34 94.4598 21.8 93.8998 21.46C93.3398 21.1 92.6998 20.92 91.9798 20.92C91.1598 20.92 90.4398 21.14 89.8198 21.58C89.1998 22 88.7198 22.62 88.3798 23.44C88.0598 24.24 87.8998 25.22 87.8998 26.38C87.8998 28.12 88.2798 29.42 89.0398 30.28C89.8198 31.14 90.8798 31.57 92.2198 31.57C92.8198 31.57 93.3198 31.5 93.7198 31.36C94.1398 31.2 94.4898 31 94.7698 30.76C95.0498 30.5 95.2698 30.21 95.4298 29.89C95.6098 29.57 95.7498 29.23 95.8498 28.87L99.1498 29.62C98.9898 30.36 98.7298 31.02 98.3698 31.6C98.0098 32.18 97.5398 32.68 96.9598 33.1C96.3998 33.52 95.7298 33.84 94.9498 34.06C94.1698 34.28 93.2598 34.39 92.2198 34.39ZM105.791 34L100.421 18.34H104.621L108.251 30.97H108.701L112.331 18.34H116.411L111.011 34H105.791ZM125.586 34.39C124.046 34.39 122.686 34.08 121.506 33.46C120.326 32.82 119.396 31.89 118.716 30.67C118.056 29.43 117.726 27.91 117.726 26.11C117.726 24.27 118.066 22.75 118.746 21.55C119.446 20.33 120.386 19.42 121.566 18.82C122.746 18.22 124.076 17.92 125.556 17.92C127.096 17.92 128.456 18.23 129.636 18.85C130.816 19.47 131.746 20.4 132.426 21.64C133.106 22.86 133.446 24.38 133.446 26.2C133.446 28.04 133.106 29.57 132.426 30.79C131.746 32.01 130.806 32.92 129.606 33.52C128.426 34.1 127.086 34.39 125.586 34.39ZM125.736 31.51C126.576 31.51 127.286 31.32 127.866 30.94C128.446 30.54 128.886 29.95 129.186 29.17C129.506 28.39 129.666 27.46 129.666 26.38C129.666 25.24 129.496 24.27 129.156 23.47C128.836 22.65 128.366 22.02 127.746 21.58C127.146 21.14 126.386 20.92 125.466 20.92C124.666 20.92 123.966 21.12 123.366 21.52C122.766 21.9 122.306 22.47 121.986 23.23C121.686 23.99 121.536 24.93 121.536 26.05C121.536 27.81 121.906 29.16 122.646 30.1C123.406 31.04 124.436 31.51 125.736 31.51ZM135.622 34V30.76L143.962 21.82V21.4H135.742V18.31H148.822V21.49L140.362 30.49V30.88H148.882V34H135.622ZM155.625 34.39C154.765 34.39 153.995 34.23 153.315 33.91C152.635 33.57 152.095 33.07 151.695 32.41C151.315 31.75 151.125 30.93 151.125 29.95C151.125 29.13 151.275 28.43 151.575 27.85C151.895 27.27 152.365 26.8 152.985 26.44C153.605 26.06 154.375 25.75 155.295 25.51C156.215 25.25 157.295 25.03 158.535 24.85C159.215 24.75 159.765 24.65 160.185 24.55C160.625 24.45 160.945 24.3 161.145 24.1C161.345 23.88 161.445 23.56 161.445 23.14C161.445 22.52 161.225 21.99 160.785 21.55C160.365 21.09 159.675 20.86 158.715 20.86C158.135 20.86 157.575 20.96 157.035 21.16C156.515 21.36 156.065 21.68 155.685 22.12C155.305 22.54 155.045 23.1 154.905 23.8L151.515 22.75C151.735 21.95 152.055 21.26 152.475 20.68C152.895 20.08 153.415 19.57 154.035 19.15C154.655 18.73 155.365 18.42 156.165 18.22C156.965 18.02 157.845 17.92 158.805 17.92C160.265 17.92 161.465 18.16 162.405 18.64C163.345 19.1 164.045 19.83 164.505 20.83C164.965 21.81 165.195 23.08 165.195 24.64V27.58C165.195 28.26 165.205 28.97 165.225 29.71C165.265 30.43 165.305 31.16 165.345 31.9C165.405 32.62 165.475 33.32 165.555 34H162.165C162.085 33.44 162.015 32.84 161.955 32.2C161.895 31.56 161.845 30.91 161.805 30.25H161.325C161.045 31.01 160.645 31.71 160.125 32.35C159.605 32.97 158.965 33.47 158.205 33.85C157.465 34.21 156.605 34.39 155.625 34.39ZM157.125 31.6C157.525 31.6 157.925 31.53 158.325 31.39C158.745 31.25 159.155 31.04 159.555 30.76C159.955 30.48 160.325 30.14 160.665 29.74C161.005 29.32 161.295 28.83 161.535 28.27L161.475 25.6L162.195 25.72C161.855 26 161.435 26.22 160.935 26.38C160.435 26.54 159.905 26.66 159.345 26.74C158.805 26.82 158.255 26.92 157.695 27.04C157.155 27.14 156.665 27.28 156.225 27.46C155.785 27.62 155.435 27.86 155.175 28.18C154.915 28.48 154.785 28.9 154.785 29.44C154.785 30.12 155.005 30.65 155.445 31.03C155.885 31.41 156.445 31.6 157.125 31.6Z" fill="white"/>
<path d="M170.448 34.36C169.628 34.36 169.008 34.18 168.588 33.82C168.168 33.46 167.958 32.9 167.958 32.14C167.958 31.36 168.168 30.79 168.588 30.43C169.008 30.07 169.628 29.89 170.448 29.89C171.308 29.89 171.948 30.07 172.368 30.43C172.808 30.79 173.028 31.36 173.028 32.14C173.028 33.62 172.168 34.36 170.448 34.36Z" fill="#585E48"/>
</svg>
