<svg width="110" height="110" viewBox="0 0 110 110" fill="none" xmlns="http://www.w3.org/2000/svg">
<path d="M58.7012 9.95608L57.6525 0L59.7465 0.356676L60.4675 9.42856L59.8097 9.31652L63.3575 0.971714L65.7066 1.37183L66.1591 10.398L65.5148 10.2882L69.3175 1.98687L71.3176 2.32754L66.9164 11.3554L64.6076 10.9621L64.0577 2.09589L64.5947 2.18735L61.0101 10.3493L58.7012 9.95608Z" fill="black"/>
<path d="M75.5403 14.7229C75.5759 14.5225 75.6296 14.3157 75.7014 14.1024C75.7814 13.893 75.8851 13.655 76.0125 13.3886L75.9632 13.3658L77.3585 10.4469C77.4781 10.1966 77.4844 9.96299 77.3774 9.74612C77.2824 9.52496 77.0705 9.33857 76.7417 9.18695C76.4292 9.0429 76.1534 8.97977 75.9141 8.99755C75.6831 9.01913 75.4905 9.11758 75.3365 9.29291L73.5729 8.47982C73.9215 7.96058 74.4333 7.6349 75.1085 7.50277C75.7837 7.37065 76.5571 7.50549 77.4286 7.9073C78.333 8.32427 78.9291 8.84051 79.2168 9.45602C79.5045 10.0715 79.4708 10.7507 79.1157 11.4936L77.8131 14.2187C77.7166 14.4206 77.6305 14.6322 77.5548 14.8535C77.4912 15.0705 77.4363 15.3113 77.3902 15.5758L75.5403 14.7229ZM73.2872 13.8319C72.6623 13.5438 72.2383 13.161 72.0149 12.6836C71.7955 12.1981 71.8093 11.697 72.0563 11.1802C72.3304 10.6069 72.7682 10.2472 73.37 10.1009C73.9838 9.95027 74.7104 10.0044 75.5498 10.2634L77.509 10.8562L77.0053 11.91L75.366 11.435C75.014 11.3318 74.729 11.3088 74.511 11.366C74.2931 11.4232 74.1301 11.5648 74.022 11.7909C73.9255 11.9928 73.9262 12.1803 74.024 12.3535C74.1218 12.5267 74.294 12.6702 74.5407 12.7839C74.9271 12.962 75.3042 13.0127 75.672 12.936C76.0437 12.8511 76.2951 12.6714 76.4264 12.3969L76.1358 13.4454C75.735 13.8223 75.2936 14.0425 74.8117 14.1061C74.3298 14.1697 73.8216 14.0783 73.2872 13.8319Z" fill="black"/>
<path d="M81.7953 18.6117C81.0616 18.1169 80.6358 17.5755 80.518 16.9875C80.4129 16.3972 80.6097 15.7454 81.1083 15.0322L84.5246 10.1458L86.6412 10.6641L82.7545 16.2234C82.5797 16.4734 82.5197 16.7089 82.5746 16.9298C82.6294 17.1507 82.8066 17.3622 83.1061 17.5642C83.2184 17.6399 83.331 17.6996 83.4437 17.7431C83.5565 17.7867 83.6718 17.8266 83.7897 17.8628L82.9106 19.1203C82.7773 19.1061 82.6105 19.0532 82.4102 18.9614C82.2174 18.8747 82.0125 18.7581 81.7953 18.6117ZM81.6994 11.9412L82.5785 10.6837L86.8127 13.539L85.9336 14.7964L81.6994 11.9412Z" fill="black"/>
<path d="M86.5993 22.527C86.0756 22.0324 85.7211 21.4872 85.5358 20.8914C85.3506 20.2956 85.3322 19.6966 85.4809 19.0945C85.6361 18.4985 85.956 17.953 86.4408 17.4579C86.9256 16.9629 87.4682 16.6276 88.0685 16.4521C88.6754 16.2828 89.2855 16.2774 89.8989 16.436C90.5123 16.5946 91.0809 16.9212 91.6046 17.4158C92.0432 17.8301 92.3573 18.2815 92.5468 18.7699C92.7492 19.2581 92.8263 19.7456 92.7782 20.2323C92.7366 20.7251 92.5659 21.1889 92.2662 21.6236L90.8424 20.2788C91.0033 19.9729 91.0487 19.6692 90.9785 19.3677C90.9148 19.0724 90.7586 18.8073 90.5098 18.5724C90.2742 18.3498 90.0113 18.2128 89.7212 18.1616C89.4377 18.1166 89.1462 18.1569 88.8468 18.2825C88.5474 18.4081 88.256 18.6155 87.9727 18.9048C87.6894 19.1941 87.4896 19.4882 87.3735 19.7869C87.2574 20.0856 87.2278 20.3732 87.2847 20.6497C87.3481 20.9324 87.4976 21.185 87.7333 21.4076C87.9821 21.6426 88.2579 21.7856 88.5608 21.8365C88.8703 21.8937 89.1775 21.8373 89.4825 21.6675L90.9063 23.0123C90.4757 23.3234 90.0104 23.509 89.5106 23.569C89.0173 23.6352 88.5152 23.5817 88.0043 23.4086C87.5062 23.2352 87.0379 22.9413 86.5993 22.527Z" fill="black"/>
<path d="M90.6438 26.3765L98.7128 20.8984L99.8748 22.5494L91.8059 28.0274L90.6438 26.3765ZM93.3941 30.2837L96.9354 27.8795C97.2492 27.6664 97.4277 27.4259 97.471 27.158C97.5195 26.8974 97.4378 26.6167 97.226 26.3158C97.0453 26.059 96.8228 25.8685 96.5587 25.7442C96.2997 25.6272 96.0243 25.5811 95.7324 25.6057C95.4458 25.6376 95.1605 25.75 94.8766 25.9427L96.1543 24.8638C96.7018 24.7632 97.2228 24.8053 97.7173 24.9901C98.2244 25.1772 98.6612 25.5312 99.0279 26.0522C99.4669 26.6759 99.6233 27.2745 99.4971 27.8482C99.3784 28.4168 99.0202 28.904 98.4225 29.3098L94.5561 31.9347L93.3941 30.2837Z" fill="black"/>
<path d="M98.9284 42.3176C98.7299 41.6311 98.6643 40.9633 98.7315 40.314C98.8011 39.6733 98.988 39.0787 99.292 38.5303C99.6073 37.988 100.027 37.5138 100.552 37.1079C101.088 36.708 101.718 36.407 102.444 36.2047C103.405 35.9367 104.302 35.9044 105.135 36.1079C105.977 36.3089 106.701 36.7095 107.309 37.3096C107.92 37.9183 108.357 38.6817 108.623 39.5998C108.893 40.5351 108.931 41.4149 108.735 42.2392C108.539 43.0635 108.136 43.7785 107.528 44.384C106.922 44.9981 106.138 45.4392 105.177 45.7073C104.461 45.9071 103.766 45.9709 103.094 45.8988C102.433 45.8328 101.822 45.6463 101.261 45.3391C100.711 45.038 100.234 44.6286 99.8294 44.1109C99.4273 43.6018 99.1269 43.004 98.9284 42.3176ZM100.524 41.8588C100.68 42.3994 100.957 42.8366 101.356 43.1705C101.755 43.5044 102.232 43.719 102.789 43.8142C103.356 43.9155 103.967 43.8748 104.623 43.6921C105.269 43.5117 105.799 43.2387 106.213 42.873C106.626 42.5073 106.905 42.082 107.048 41.597C107.191 41.112 107.183 40.595 107.024 40.0458C106.868 39.5052 106.599 39.0655 106.218 38.7267C105.837 38.388 105.372 38.1698 104.825 38.0721C104.288 37.9806 103.693 38.0262 103.037 38.209C102.373 38.3942 101.826 38.6721 101.395 39.0426C100.972 39.4108 100.681 39.8398 100.52 40.3296C100.369 40.8171 100.37 41.3268 100.524 41.8588Z" fill="black"/>
<path d="M100.692 51.7956C100.674 51.3143 100.762 50.8959 100.957 50.5404C101.162 50.1934 101.437 49.9242 101.784 49.7325C102.14 49.5406 102.541 49.4362 102.985 49.4194L107.682 49.2422L107.761 51.2477L103.459 51.41C103.078 51.4244 102.795 51.5288 102.612 51.7232C102.429 51.9176 102.344 52.1841 102.357 52.5228C102.369 52.8259 102.452 53.0905 102.606 53.3168C102.76 53.5431 102.967 53.7183 103.227 53.8424C103.495 53.9751 103.798 54.0351 104.134 54.0224L102.466 54.2594C101.958 54.0554 101.541 53.7453 101.216 53.3291C100.891 52.9129 100.716 52.4017 100.692 51.7956ZM100.922 54.1837L102.556 54.1221L102.554 54.082L107.864 53.8816L107.942 55.8872L100.999 56.1492L100.922 54.1837Z" fill="black"/>
<path d="M100.806 58.9576L107.69 59.8842L107.418 61.8328L105.798 61.6148L105.792 61.6546L100.528 60.9461L100.806 58.9576ZM104.119 61.4293L105.776 61.4768C106.339 61.7146 106.748 62.0353 107.003 62.4388C107.258 62.8423 107.349 63.3136 107.273 63.8527C107.25 64.0206 107.215 64.1419 107.168 64.2166L105.278 63.9622C105.302 63.9205 105.32 63.8598 105.331 63.7803C105.351 63.702 105.369 63.6054 105.385 63.4905C105.474 62.8542 105.422 62.37 105.23 62.0381C105.047 61.7073 104.677 61.5044 104.119 61.4293Z" fill="black"/>
<path d="M97.6139 71.9124L108.005 72.6797L107.117 74.6352L98.5583 73.7758L98.6637 73.5436L105.033 79.2306L104.19 81.0884L96.6602 74.0146L97.6139 71.9124Z" fill="black"/>
<path d="M93.9005 79.0118L99.6649 82.8217L98.524 84.4868L92.7596 80.6769L93.9005 79.0118ZM100.472 83.2742L102.303 84.4844L101.086 86.2604L99.2545 85.0502L100.472 83.2742Z" fill="black"/>
<path d="M87.9768 86.3903L89.1051 87.4189L88.9925 87.4988C88.6881 87.0996 88.5806 86.6365 88.6698 86.1094C88.7529 85.5887 89.0076 85.1029 89.434 84.6518C89.8665 84.1941 90.3499 83.8924 90.8843 83.7466C91.4191 83.6135 91.9693 83.6343 92.5351 83.8093C93.1009 83.9843 93.65 84.3145 94.1826 84.8C94.7218 85.2915 95.1015 85.8141 95.3218 86.3678C95.542 86.9215 95.6013 87.4684 95.4997 88.0087C95.3919 88.5554 95.1217 89.0576 94.6892 89.5153C94.2382 89.9925 93.7604 90.2751 93.256 90.363C92.7455 90.4574 92.2691 90.3518 91.8269 90.046L91.9189 89.9291L95.1941 92.9146L93.8039 94.3857L86.6143 87.8319L87.9768 86.3903ZM90.1874 86.2148C89.8599 86.5613 89.7173 86.9547 89.7598 87.395C89.8088 87.8413 90.0663 88.2769 90.5323 88.7016C90.9983 89.1264 91.4595 89.3399 91.9159 89.3422C92.3728 89.357 92.768 89.1879 93.1017 88.8349C93.423 88.4949 93.5622 88.0985 93.5193 87.6456C93.4703 87.1993 93.2127 86.7637 92.7467 86.3389C92.2807 85.9141 91.8226 85.6974 91.3724 85.6886C90.916 85.6863 90.521 85.8617 90.1874 86.2148Z" fill="black"/>
<path d="M81.749 91.4758C82.3787 91.0372 83.0137 90.7755 83.6539 90.6906C84.2992 90.613 84.9092 90.7022 85.4837 90.9582C86.0508 91.2194 86.5393 91.6337 86.949 92.2013C87.364 92.7762 87.6006 93.3659 87.6586 93.9707C87.7145 94.5879 87.5994 95.1764 87.3134 95.7364C87.0326 96.3037 86.5885 96.7989 85.9809 97.222C85.3956 97.6295 84.804 97.8665 84.2062 97.9329C83.6083 97.9993 83.0412 97.9077 82.5046 97.658C81.9681 97.4083 81.4976 97.0033 81.0931 96.4431C81.009 96.3266 80.9339 96.2149 80.8678 96.1079C80.8069 96.0081 80.7523 95.9094 80.7041 95.8118L85.6164 92.3912L86.3965 93.4717L82.829 95.9559L82.9761 95.5583C83.3018 96.0094 83.652 96.2631 84.0266 96.3193C84.3991 96.388 84.7743 96.2908 85.1521 96.0277C85.5893 95.7233 85.825 95.3404 85.8594 94.8791C85.8864 94.4229 85.6897 93.9038 85.2694 93.3217C84.8597 92.7541 84.4364 92.4146 83.9997 92.3032C83.5556 92.1969 83.0927 92.3115 82.6111 92.6468C82.3444 92.8326 82.1462 93.0362 82.0166 93.2576C81.887 93.4791 81.845 93.7216 81.8905 93.9851L80.3235 95.0763C80.1199 94.4089 80.1312 93.7613 80.3573 93.1337C80.5812 92.5186 81.0451 91.9659 81.749 91.4758Z" fill="black"/>
<path d="M73.798 95.9795C74.4968 95.6789 75.1725 95.5488 75.8253 95.5894C76.4733 95.6417 77.0564 95.8485 77.5746 96.2099C78.0881 96.583 78.4888 97.0923 78.7767 97.7377C79.0646 98.3832 79.1705 99.0096 79.0944 99.6169C79.0099 100.228 78.7657 100.781 78.3619 101.276C77.9497 101.775 77.3942 102.174 76.6954 102.475C75.9883 102.779 75.3125 102.909 74.6681 102.865C74.0154 102.825 73.436 102.626 72.9297 102.269C72.4235 101.912 72.0265 101.411 71.7386 100.766C71.4506 100.12 71.3453 99.484 71.4224 98.8568C71.4949 98.2413 71.7354 97.6801 72.144 97.1732C72.5478 96.6781 73.0991 96.2802 73.798 95.9795ZM74.4431 97.4257C74.1519 97.551 73.9226 97.7373 73.7553 97.9845C73.5796 98.2354 73.4812 98.5261 73.4601 98.8566C73.4426 99.1952 73.5194 99.5565 73.6907 99.9405C73.9422 100.504 74.2893 100.871 74.7319 101.041C75.1699 101.223 75.6094 101.219 76.0503 101.029C76.4912 100.839 76.7964 100.523 76.9657 100.08C77.1267 99.6406 77.0833 99.1431 76.8354 98.5875C76.6641 98.2035 76.4458 97.9031 76.1805 97.6861C75.9188 97.4773 75.6387 97.3495 75.3401 97.3027C75.0332 97.2594 74.7342 97.3004 74.4431 97.4257Z" fill="black"/>
<path d="M63.7525 104.778L63.5835 106.236L64.5241 105.06L65.5993 106.366L64.1888 106.974L65.7153 107.147L65.0649 108.701L63.8215 107.838L64.4074 109.187L62.6818 109.434L62.8508 107.977L61.9103 109.153L60.8486 107.844L62.2475 107.252L60.7325 107.063L61.3695 105.512L62.6129 106.375L62.0269 105.025L63.7525 104.778Z" fill="black"/>
<path d="M50.66 100.027L51.5248 110L49.4376 109.606L48.8843 100.523L49.5399 100.647L45.8387 108.927L43.4973 108.485L43.2116 99.4522L43.8538 99.5734L39.8983 107.806L37.9049 107.429L42.472 98.4815L44.7732 98.9158L45.1593 107.79L44.6241 107.689L48.3588 99.5926L50.66 100.027Z" fill="black"/>
<path d="M33.899 94.9515C33.8597 95.1512 33.8021 95.357 33.7262 95.5689C33.6423 95.7769 33.5341 96.0129 33.4018 96.277L33.4506 96.3007L32.0007 99.1938C31.8764 99.4419 31.8657 99.6753 31.9686 99.8941C32.0594 100.117 32.2678 100.307 32.5938 100.465C32.9034 100.614 33.1781 100.683 33.4176 100.669C33.649 100.652 33.8434 100.557 34.0007 100.384L35.7487 101.229C35.3905 101.742 34.8725 102.058 34.195 102.178C33.5174 102.298 32.7467 102.149 31.8829 101.732C30.9865 101.298 30.4002 100.771 30.1241 100.151C29.848 99.5302 29.8945 98.8517 30.2635 98.1155L31.6171 95.4144C31.7174 95.2143 31.8074 95.0043 31.8873 94.7844C31.9549 94.5686 32.0143 94.3289 32.0655 94.0652L33.899 94.9515ZM36.135 95.8832C36.7543 96.1826 37.1711 96.5729 37.3854 97.0543C37.5957 97.5437 37.5725 98.0445 37.3158 98.5567C37.031 99.1249 36.5864 99.4767 35.9821 99.6121C35.3656 99.7515 34.6401 99.6842 33.8056 99.4101L31.858 98.7818L32.3814 97.7374L34.0114 98.242C34.3614 98.3515 34.646 98.3797 34.865 98.3265C35.084 98.2733 35.2496 98.1346 35.3619 97.9105C35.4622 97.7104 35.4651 97.5229 35.3705 97.348C35.276 97.173 35.1065 97.0265 34.862 96.9083C34.479 96.7232 34.1029 96.6656 33.7337 96.7357C33.3605 96.8138 33.1057 96.9889 32.9693 97.261L33.2795 96.2179C33.6874 95.8484 34.1329 95.6362 34.6159 95.5814C35.0989 95.5266 35.6053 95.6272 36.135 95.8832Z" fill="black"/>
<path d="M27.7188 90.955C28.4433 91.4629 28.8589 92.0118 28.9657 92.6018C29.0598 93.1939 28.8509 93.842 28.339 94.5462L24.8322 99.3704L22.7257 98.814L26.7153 93.3256C26.8948 93.0788 26.9591 92.8444 26.9084 92.6225C26.8576 92.4007 26.6844 92.186 26.3888 91.9787C26.2779 91.901 26.1665 91.8393 26.0545 91.7937C25.9426 91.7481 25.828 91.7062 25.7108 91.6678L26.6133 90.4264C26.7463 90.4429 26.9121 90.4989 27.1106 90.5943C27.3017 90.6844 27.5045 90.8047 27.7188 90.955ZM27.6904 97.6261L26.788 98.8675L22.6077 95.9366L23.5102 94.6951L27.6904 97.6261Z" fill="black"/>
<path d="M22.9903 86.9536C23.5047 87.4575 23.8491 88.009 24.0233 88.608C24.1975 89.207 24.2047 89.8062 24.0449 90.4056C23.8787 90.9987 23.5487 91.5384 23.0548 92.0247C22.5609 92.511 22.0123 92.8365 21.4088 93.0013C20.7989 93.1598 20.1887 93.1542 19.5784 92.9847C18.968 92.8152 18.4056 92.4785 17.8911 91.9745C17.4603 91.5525 17.1546 91.0956 16.9741 90.6038C16.7808 90.1121 16.7127 89.6234 16.7699 89.1376C16.8206 88.6456 16.9998 88.1849 17.3075 87.7556L18.7062 89.1257C18.5396 89.4287 18.4887 89.7315 18.5533 90.0342C18.6115 90.3305 18.7628 90.5984 19.0071 90.8378C19.2386 91.0645 19.4989 91.2061 19.788 91.2625C20.0707 91.3126 20.3628 91.2776 20.6645 91.1573C20.9662 91.0371 21.2614 90.8349 21.55 90.5507C21.8386 90.2665 22.0438 89.9761 22.1654 89.6795C22.287 89.3829 22.322 89.0958 22.2702 88.8184C22.2121 88.5346 22.0672 88.2793 21.8357 88.0526C21.5913 87.8132 21.3182 87.6653 21.0163 87.6089C20.7079 87.5463 20.3997 87.5971 20.0916 87.7615L18.693 86.3914C19.1293 86.0881 19.5979 85.9109 20.0987 85.8598C20.5932 85.8024 21.0942 85.8648 21.6018 86.0471C22.0966 86.2294 22.5594 86.5316 22.9903 86.9536Z" fill="black"/>
<path d="M19.0173 83.0309L10.8478 88.3633L9.71662 86.6918L17.8861 81.3594L19.0173 83.0309ZM16.3402 79.075L12.7547 81.4153C12.437 81.6227 12.254 81.8599 12.2058 82.127C12.1525 82.3867 12.2289 82.6689 12.435 82.9735C12.611 83.2335 12.8299 83.428 13.0917 83.557C13.3484 83.6786 13.6229 83.7297 13.9152 83.7103C14.2024 83.6835 14.4897 83.5763 14.7772 83.3887L13.4796 84.4445C12.9303 84.5352 12.4102 84.4838 11.9192 84.2901C11.4157 84.094 10.9855 83.7322 10.6285 83.2047C10.2012 82.5733 10.056 81.9719 10.1928 81.4006C10.3221 80.8342 10.6893 80.3536 11.2945 79.9586L15.209 77.4035L16.3402 79.075Z" fill="black"/>
<path d="M11.0311 66.9407C11.2166 67.6306 11.2696 68.2996 11.1902 68.9475C11.1085 69.5868 10.9104 70.1779 10.5961 70.7207C10.2706 71.2572 9.8418 71.7236 9.30958 72.1199C8.76626 72.5099 8.13016 72.7995 7.40129 72.9885C6.43531 73.239 5.53778 73.255 4.7087 73.0363C3.87084 72.82 3.1537 72.4063 2.55728 71.7953C1.95854 71.1756 1.5351 70.4043 1.28698 69.4815C1.03422 68.5414 1.01358 67.6611 1.22507 66.8405C1.43655 66.02 1.85224 65.3125 2.47212 64.7181C3.08969 64.1151 3.88146 63.6884 4.84743 63.4378C5.56753 63.2511 6.263 63.1999 6.93386 63.2842C7.59362 63.3622 8.20101 63.5599 8.75604 63.8773C9.29996 64.1883 9.76932 64.6062 10.1641 65.1312C10.5566 65.6476 10.8456 66.2507 11.0311 66.9407ZM9.42753 67.3704C9.28143 66.827 9.01223 66.3848 8.61991 66.0437C8.22759 65.7026 7.75424 65.4794 7.19986 65.3741C6.63438 65.2624 6.02233 65.292 5.36371 65.4628C4.71387 65.6313 4.17877 65.8946 3.75839 66.2527C3.33801 66.6109 3.05175 67.0311 2.89961 67.5134C2.74747 67.9957 2.7456 68.5128 2.89401 69.0647C3.04011 69.6081 3.30053 70.0526 3.67528 70.3982C4.05004 70.7439 4.51022 70.9705 5.05581 71.0781C5.59031 71.1794 6.18687 71.1446 6.84549 70.9738C7.51289 70.8007 8.06557 70.5328 8.50351 70.1702C8.93267 69.8098 9.2321 69.3861 9.4018 68.8993C9.56272 68.4147 9.5713 67.9051 9.42753 67.3704Z" fill="black"/>
<path d="M9.44475 57.4242C9.4546 57.9058 9.35867 58.3225 9.15693 58.6745C8.94593 59.0176 8.66518 59.2819 8.31468 59.4673C7.9551 59.6528 7.55283 59.75 7.10787 59.7588L2.40857 59.8516L2.36749 57.845L6.67178 57.76C7.05317 57.7524 7.3373 57.6531 7.52416 57.4621C7.71102 57.271 7.80099 57.0061 7.79405 56.6672C7.78784 56.364 7.70972 56.0979 7.55968 55.8688C7.40964 55.6398 7.20612 55.461 6.94912 55.3322C6.68285 55.1947 6.38173 55.1293 6.04574 55.1359L7.71758 54.9289C8.22159 55.142 8.63235 55.4596 8.94986 55.8815C9.26737 56.3035 9.43233 56.8177 9.44475 57.4242ZM9.25951 55.0323L7.62497 55.0646L7.62579 55.1047L2.31354 55.2096L2.27246 53.203L9.21925 53.0658L9.25951 55.0323Z" fill="black"/>
<path d="M9.46294 50.2809L2.59739 49.2315L2.90537 47.288L4.52079 47.535L4.52708 47.4953L9.7772 48.2977L9.46294 50.2809ZM6.19635 47.7504L4.54022 47.6733C3.98202 47.4255 3.57898 47.0976 3.33111 46.6896C3.08324 46.2816 3.00191 45.8088 3.08711 45.2711C3.11364 45.1036 3.15115 44.983 3.19962 44.9092L5.08428 45.1972C5.05934 45.2385 5.04059 45.2989 5.02802 45.3782C5.00648 45.4561 4.98663 45.5524 4.96847 45.667C4.8679 46.3016 4.91055 46.7866 5.0964 47.1219C5.27327 47.4559 5.63992 47.6654 6.19635 47.7504Z" fill="black"/>
<path d="M12.8997 37.3739L2.52527 36.418L3.44906 34.4789L11.9905 35.4936L11.8808 35.7239L5.61997 29.9221L6.49757 28.08L13.8928 35.2894L12.8997 37.3739Z" fill="black"/>
<path d="M16.7444 30.3453L11.0519 26.4325L12.2237 24.7882L17.9162 28.701L16.7444 30.3453ZM10.2539 25.9656L8.44568 24.7227L9.69562 22.9688L11.5038 24.2117L10.2539 25.9656Z" fill="black"/>
<path d="M22.8027 23.0768L21.6936 22.0283L21.8077 21.9504C22.1046 22.355 22.2036 22.8199 22.1046 23.3454C22.0118 23.8644 21.7482 24.3457 21.3135 24.7891C20.8726 25.2389 20.3837 25.532 19.8468 25.6682C19.3096 25.7918 18.7598 25.761 18.1973 25.576C17.6349 25.3909 17.0919 25.051 16.5685 24.5561C16.0384 24.055 15.6684 23.5257 15.4585 22.9682C15.2486 22.4106 15.1994 21.8627 15.311 21.3244C15.4289 20.7796 15.7083 20.2823 16.1493 19.8325C16.6091 19.3634 17.092 19.0894 17.5979 19.0105C18.1101 18.9252 18.5845 19.0394 19.0209 19.353L18.9268 19.4683L15.7074 16.4247L17.1247 14.9787L24.1916 21.6598L22.8027 23.0768ZM20.5892 23.2129C20.9231 22.8723 21.0729 22.4815 21.0386 22.0405C20.9979 21.5934 20.7484 21.1533 20.2904 20.7203C19.8323 20.2872 19.3752 20.0655 18.9189 20.0551C18.4624 20.0321 18.0641 20.1941 17.7239 20.5412C17.3964 20.8753 17.2499 21.2692 17.2843 21.7228C17.3251 22.1699 17.5745 22.61 18.0326 23.043C18.4906 23.4761 18.9446 23.701 19.3946 23.7178C19.8509 23.7282 20.2491 23.5599 20.5892 23.2129Z" fill="black"/>
<path d="M29.1257 18.1C28.4879 18.5272 27.8481 18.7774 27.2065 18.8508C26.5598 18.9168 25.9516 18.8167 25.3819 18.5504C24.8198 18.279 24.3392 17.8559 23.94 17.2811C23.5358 16.6989 23.3103 16.1049 23.2636 15.4992C23.2192 14.8812 23.3452 14.2947 23.6417 13.74C23.9329 13.1778 24.3863 12.6907 25.0016 12.2787C25.5944 11.8817 26.1903 11.6554 26.7893 11.5998C27.3883 11.5441 27.9537 11.646 28.4855 11.9052C29.0172 12.1645 29.4801 12.5779 29.8741 13.1454C29.956 13.2633 30.029 13.3763 30.0931 13.4845C30.1521 13.5854 30.2048 13.685 30.2512 13.7835L25.276 17.1152L24.5161 16.0208L28.1294 13.6012L27.9749 13.9961C27.6576 13.5392 27.3123 13.2793 26.9388 13.2163C26.5676 13.1409 26.1907 13.2314 25.808 13.4877C25.3653 13.7842 25.1224 14.1627 25.0794 14.6233C25.044 15.0789 25.2309 15.6015 25.6403 16.1911C26.0394 16.766 26.4562 17.113 26.8908 17.2323C27.3328 17.3465 27.7978 17.2403 28.2855 16.9136C28.5557 16.7327 28.7576 16.5327 28.8913 16.3136C29.025 16.0945 29.0716 15.8528 29.031 15.5885L30.6181 14.5257C30.8092 15.1967 30.7858 15.8439 30.5481 16.4674C30.3127 17.0784 29.8386 17.6226 29.1257 18.1Z" fill="black"/>
<path d="M37.1596 13.7414C36.4552 14.0293 35.7771 14.1471 35.1253 14.0948C34.4784 14.0307 33.8992 13.8134 33.3879 13.4427C32.8816 13.0603 32.4905 12.5438 32.2147 11.8933C31.939 11.2427 31.8449 10.6145 31.9324 10.0086C32.0284 9.39936 32.2829 8.85087 32.696 8.36315C33.1174 7.872 33.6803 7.48246 34.3847 7.19451C35.0974 6.90314 35.7755 6.78535 36.419 6.84114C37.0708 6.89351 37.6464 7.10264 38.1458 7.46853C38.6453 7.83442 39.0328 8.34265 39.3086 8.99322C39.5843 9.64379 39.6777 10.282 39.5888 10.9077C39.5047 11.5218 39.2537 12.0785 38.8357 12.5779C38.4226 13.0656 37.8639 13.4534 37.1596 13.7414ZM36.5418 12.2838C36.8352 12.1638 37.068 11.9817 37.2399 11.7375C37.4203 11.4899 37.5241 11.201 37.5515 10.871C37.5754 10.5327 37.5053 10.1701 37.3412 9.78301C37.1004 9.21479 36.7603 8.84175 36.3209 8.66389C35.8864 8.47436 35.4469 8.47044 35.0025 8.65212C34.5581 8.8338 34.2471 9.14452 34.0695 9.58429C33.9002 10.0206 33.9343 10.5188 34.1716 11.0788C34.3357 11.4658 34.5483 11.7702 34.8095 11.9919C35.0673 12.2054 35.3449 12.3383 35.6426 12.3905C35.9486 12.4393 36.2483 12.4038 36.5418 12.2838Z" fill="black"/>
<path d="M47.3603 5.13227L47.5562 3.67802L46.5941 4.83694L45.5432 3.51164L46.9647 2.92922L45.4417 2.72854L46.1208 1.1869L47.348 2.072L46.7872 0.712405L48.5171 0.496062L48.3211 1.95031L49.2832 0.791395L50.3205 2.11838L48.9109 2.68584L50.4221 2.90148L49.7565 4.44144L48.5293 3.55633L49.0901 4.91593L47.3603 5.13227Z" fill="black"/>
</svg>
