<svg width="42" height="50" viewBox="0 0 42 50" fill="none" xmlns="http://www.w3.org/2000/svg">
<g clip-path="url(#clip0_439_13715)">
<path d="M24.1733 27.7853C23.7065 27.7853 23.2596 27.5249 23.0467 27.0782C22.7542 26.4624 23.0194 25.7268 23.6405 25.4344C24.5704 24.9987 25.6111 24.8 26.6182 24.8445C27.4398 24.8852 28.2365 25.0827 28.9822 25.4356C29.6034 25.7281 29.8685 26.4636 29.5735 27.0806C29.2797 27.6964 28.5328 27.9593 27.9154 27.6656C27.466 27.4546 26.9892 27.3348 26.4962 27.3114C25.7132 27.2744 25.0945 27.4829 24.7061 27.6668C24.5331 27.747 24.3514 27.7853 24.1733 27.7853Z" fill="#585E48"/>
<path d="M13.7231 27.7853C13.2563 27.7853 12.8094 27.525 12.5966 27.0782C12.304 26.4624 12.5692 25.7269 13.1903 25.4344C14.1202 24.9988 15.1609 24.8001 16.168 24.8445C16.9896 24.8853 17.7863 25.0827 18.532 25.4357C19.1532 25.7281 19.4183 26.4636 19.1233 27.0807C18.8295 27.6965 18.0826 27.9594 17.4652 27.6656C17.0158 27.4546 16.539 27.3349 16.046 27.3115C15.2605 27.2744 14.6456 27.483 14.2559 27.6669C14.0829 27.7471 13.9012 27.7853 13.7231 27.7853Z" fill="#585E48"/>
<path d="M37.7924 20.9806C37.5895 20.9806 37.3829 20.9312 37.1936 20.8275C36.5911 20.498 36.372 19.7477 36.7032 19.1504C37.6667 17.4165 39.107 14.1598 37.9169 11.8212C35.487 7.04533 38.3626 1.38831 38.4858 1.15013C38.802 0.545433 39.5489 0.307256 40.1601 0.615776C40.7713 0.92553 41.0141 1.66968 40.7029 2.27561C40.678 2.32251 38.2866 7.06508 40.1402 10.7093C41.761 13.892 40.3518 17.7041 38.8854 20.3426C38.6576 20.751 38.2331 20.9806 37.7937 20.9806H37.7924Z" fill="#585E48"/>
<path d="M4.20613 20.9806C3.7667 20.9806 3.3422 20.7498 3.11439 20.3426C1.64672 17.7054 0.237545 13.8945 1.85834 10.7094C3.72313 7.0429 1.32181 2.32501 1.29816 2.27688C0.984455 1.66971 1.22471 0.926795 1.83718 0.614572C2.45089 0.299882 3.19904 0.542996 3.51399 1.14893C3.63848 1.38711 6.51159 7.04537 4.08164 11.82C2.89157 14.1611 4.33061 17.4178 5.29662 19.1505C5.62899 19.7465 5.4099 20.4981 4.80739 20.8263C4.61693 20.93 4.41028 20.9806 4.20737 20.9806H4.20613Z" fill="#585E48"/>
<path d="M25.9513 9.38763C25.828 9.38763 25.7048 9.36912 25.5803 9.33086C24.8297 9.09886 24.0554 8.92238 23.2773 8.80885C22.1408 8.63978 20.9569 8.60029 19.8179 8.68174C19.1395 8.73604 18.5345 8.22019 18.4859 7.54268C18.4349 6.8627 18.9502 6.27158 19.6361 6.22098C20.9582 6.12472 22.3288 6.17162 23.6471 6.36784C24.5508 6.50112 25.4508 6.70597 26.3222 6.975C26.9783 7.17863 27.3443 7.86971 27.1401 8.52007C26.9733 9.04826 26.4816 9.38763 25.9513 9.38763Z" fill="#585E48"/>
<path d="M20.9334 49.9998C20.3384 49.9998 19.7396 49.9665 19.1358 49.8974C12.4336 49.1285 6.83547 43.8146 5.52091 36.9741L5.36033 36.1361L4.44163 35.8017C2.41501 35.0649 0.857704 33.3952 0.273869 31.3343L0.169302 30.9604C-0.241499 29.5103 0.105814 27.9591 1.09672 26.8163C1.75773 26.0549 2.64033 25.5452 3.60384 25.3453C3.31006 23.1684 3.40218 21.1013 3.88393 19.1947C4.6408 16.1897 6.16699 13.487 8.29444 11.378C8.73138 10.9448 9.19447 10.5314 9.66875 10.1489C9.92395 9.94277 10.2538 9.84774 10.58 9.87983L11.5622 9.97979C11.6207 9.98596 11.6779 9.99583 11.7352 10.0094L12.2941 10.1476C13.5502 10.4586 14.4813 11.4792 14.6693 12.7454C14.7054 12.9959 14.866 13.1267 14.9581 13.1822C15.0502 13.2378 15.2432 13.3217 15.481 13.2402C15.8021 13.1329 15.9739 12.7984 15.8756 12.4788L14.8486 9.14431C14.6257 8.42485 14.1465 7.81274 13.4979 7.42154L11.0331 5.93077C10.8003 5.79008 10.6211 5.57782 10.5215 5.3273L9.08367 1.68553C8.83346 1.04998 9.14965 0.334215 9.7895 0.0861652C10.4256 -0.164353 11.1514 0.150337 11.4028 0.784655L12.6875 4.04016L14.7938 5.31496C15.9627 6.02209 16.8291 7.12536 17.2287 8.42485L18.2557 11.7593C18.7512 13.3649 17.8823 15.0445 16.2764 15.5813C15.4038 15.8738 14.4452 15.7676 13.6573 15.2888C12.868 14.8087 12.3377 14.0128 12.2058 13.1045C12.1647 12.8317 11.963 12.6108 11.6904 12.543L10.8489 12.3887C10.575 12.6232 10.3086 12.87 10.0522 13.1242C8.2434 14.9173 6.94502 17.2238 6.29521 19.7944C5.86823 21.4876 5.80847 23.3535 6.11471 25.3416L6.26782 26.3363C6.32758 26.7189 6.20185 27.1051 5.93047 27.3828C5.65909 27.6605 5.26198 27.7913 4.88604 27.7481C4.0856 27.6518 3.43703 27.9048 2.98391 28.4281C2.52954 28.9513 2.37642 29.6338 2.56439 30.2989L2.66896 30.6728C3.03619 31.9711 4.01838 33.0238 5.29435 33.4878L6.87655 34.0629C7.28736 34.2122 7.58985 34.5651 7.67201 34.9909L7.96455 36.515C9.07745 42.3065 13.788 46.8023 19.4197 47.4477C26.2452 48.2264 32.6176 43.6122 33.9023 36.9309L34.272 35.0094C34.3541 34.5836 34.6566 34.2319 35.0662 34.0826L36.6994 33.489C37.9779 33.025 38.9588 31.9723 39.3261 30.6728L39.4306 30.3026C39.6186 29.635 39.4655 28.9538 39.0111 28.4293C38.5567 27.9048 37.8957 27.6494 37.2073 27.737L37.0492 27.7567C36.6646 27.8073 36.2749 27.6691 36.0036 27.3939C35.7309 27.1175 35.6052 26.73 35.665 26.3474L35.8255 25.2984C36.0944 23.5386 36.0783 21.9109 35.777 20.4633C35.1122 17.2757 33.5213 14.5076 31.1798 12.4628C31.1536 12.4405 31.1287 12.4183 31.1026 12.3961L30.7789 12.4307L30.3021 12.5479C30.032 12.6158 29.8303 12.8355 29.7905 13.1094C29.6573 14.0177 29.127 14.8137 28.3378 15.2937C27.5473 15.7726 26.5937 15.8799 25.7174 15.585C24.114 15.0482 23.2451 13.3698 23.7393 11.7643L24.7675 8.42978C25.1671 7.13153 26.0323 6.02826 27.2 5.3199L29.3075 4.0451L30.5922 0.789591C30.8437 0.155274 31.5669 -0.159417 32.2055 0.0911015C32.8466 0.339152 33.1628 1.05492 32.9114 1.69047L31.4736 5.33224C31.374 5.58276 31.1935 5.79502 30.9619 5.93571L28.4971 7.42648C27.8485 7.81891 27.3705 8.43102 27.1477 9.15049L26.1195 12.4837C26.0211 12.8034 26.1954 13.139 26.5141 13.2464C26.7531 13.3266 26.9448 13.2452 27.0369 13.1884C27.129 13.1316 27.2909 13.0008 27.327 12.7515C27.5124 11.4841 28.4436 10.4635 29.6984 10.1526L30.2598 10.0143C30.3146 10.0008 30.3706 9.99089 30.4266 9.98472L31.3628 9.88476C31.7001 9.84774 32.0225 9.94523 32.2815 10.1538C32.4632 10.3019 32.6437 10.4537 32.823 10.6079C35.5766 13.0132 37.4401 16.2477 38.2157 19.9647C38.5567 21.6073 38.5966 23.414 38.3352 25.3392C39.3211 25.5304 40.2273 26.045 40.902 26.8225C41.8929 27.9665 42.2403 29.5165 41.8295 30.969L41.7249 31.3393C41.1435 33.4014 39.585 35.0711 37.5571 35.8091L36.5862 36.162L36.3496 37.3961C34.9355 44.7512 28.349 50.006 20.9322 50.006L20.9334 49.9998Z" fill="#585E48"/>
</g>
<defs>
<clipPath id="clip0_439_13715">
<rect width="42" height="50" fill="white"/>
</clipPath>
</defs>
</svg>
