<svg width="29" height="29" viewBox="0 0 29 29" fill="none" xmlns="http://www.w3.org/2000/svg">
<g clip-path="url(#clip0_920_39)">
<path d="M28.0793 13.6213C27.7569 13.6213 27.4633 13.4024 27.3813 13.0748L26.3724 9.00456C26.1241 8.00302 25.3779 7.175 24.3754 6.78979L23.3816 6.40818C23.242 6.3549 23.0967 6.30954 22.9498 6.27426L20.352 5.65C18.7019 5.25399 17.4541 3.95004 17.1727 2.32784L16.9151 0.843161C16.8467 0.451472 17.1101 0.0785022 17.5009 0.0101005C17.8938 -0.0554211 18.2644 0.204505 18.3328 0.596195L18.5904 2.08159C18.7732 3.13642 19.5964 3.98748 20.6874 4.25029L23.2845 4.87382C23.4924 4.9235 23.6961 4.98686 23.8962 5.06319L24.8907 5.44552C26.3321 5.99921 27.4079 7.2002 27.7692 8.65752L28.7781 12.7278C28.8738 13.1137 28.6385 13.504 28.2535 13.5997C28.1952 13.6141 28.1369 13.6213 28.0793 13.6213Z" fill="white"/>
<path d="M0.720133 13.68C0.662563 13.68 0.604273 13.6735 0.545984 13.6591C0.160267 13.5633 -0.0743303 13.1731 0.0213795 12.7871L1.0454 8.65855C1.40665 7.20123 2.48249 6.00024 3.92389 5.44655L4.91769 5.06494C5.11774 4.98862 5.32212 4.92454 5.53081 4.87485L8.1272 4.25132C9.21815 3.98923 10.0414 3.13817 10.2242 2.08335L10.4818 0.597948C10.5509 0.206978 10.9215 -0.0529483 11.3137 0.0118534C11.7052 0.0802551 11.9678 0.452504 11.8995 0.844914L11.6418 2.33031C11.3605 3.95179 10.1126 5.25574 8.46255 5.65175L5.86543 6.27529C5.71791 6.31057 5.57326 6.35593 5.43222 6.40993L4.43914 6.79154C3.43599 7.17675 2.68974 8.00477 2.44219 9.00632L1.41817 13.1349C1.33685 13.4625 1.04324 13.6814 0.720133 13.6814V13.68Z" fill="white"/>
<path d="M3.08338 25.0835C3.00206 25.0835 2.91858 25.0691 2.83798 25.0395C2.46378 24.9042 2.27164 24.4916 2.40621 24.1172L5.18899 16.4339C5.32428 16.0595 5.73806 15.8665 6.11083 16.0026C6.48503 16.138 6.67717 16.5505 6.5426 16.9249L3.75982 24.6083C3.65404 24.9013 3.3777 25.0835 3.08338 25.0835Z" fill="white"/>
<path d="M14.412 28.8003C14.0141 28.8003 13.6924 28.4777 13.6924 28.0803V25.9202C13.6924 25.5228 14.0141 25.2002 14.412 25.2002C14.81 25.2002 15.1316 25.5228 15.1316 25.9202V28.0803C15.1316 28.4777 14.81 28.8003 14.412 28.8003Z" fill="white"/>
<path d="M14.412 23.0395C14.0141 23.0395 13.6924 22.717 13.6924 22.3195V20.1595C13.6924 19.762 14.0141 19.4395 14.412 19.4395C14.81 19.4395 15.1316 19.762 15.1316 20.1595V22.3195C15.1316 22.717 14.81 23.0395 14.412 23.0395Z" fill="white"/>
<path d="M14.412 17.2798C14.0141 17.2798 13.6924 16.9572 13.6924 16.5598V14.3997C13.6924 14.0023 14.0141 13.6797 14.412 13.6797C14.81 13.6797 15.1316 14.0023 15.1316 14.3997V16.5598C15.1316 16.9572 14.81 17.2798 14.412 17.2798Z" fill="white"/>
<path d="M14.412 11.52C14.0141 11.52 13.6924 11.1974 13.6924 10.8V8.63994C13.6924 8.24249 14.0141 7.91992 14.412 7.91992C14.81 7.91992 15.1316 8.24249 15.1316 8.63994V10.8C15.1316 11.1974 14.81 11.52 14.412 11.52Z" fill="white"/>
<path d="M14.412 5.75927C14.0141 5.75927 13.6924 5.4367 13.6924 5.03925V2.8792C13.6924 2.48175 14.0141 2.15918 14.412 2.15918C14.81 2.15918 15.1316 2.48175 15.1316 2.8792V5.03925C15.1316 5.4367 14.81 5.75927 14.412 5.75927Z" fill="white"/>
<path d="M5.86772 28.8C5.81087 28.8 5.7533 28.7935 5.69501 28.7791C5.30929 28.6841 5.07397 28.2938 5.16896 27.9079L6.03683 24.3791C6.55208 22.2838 6.42542 20.1087 5.67054 18.0876L4.38745 14.6516C4.24857 14.2787 4.43711 13.8639 4.80987 13.725C5.1812 13.5846 5.59642 13.7747 5.7353 14.1469L7.01839 17.5828C7.87546 19.8768 8.01939 22.345 7.43361 24.7225L6.56575 28.2513C6.48515 28.5797 6.19083 28.8 5.86772 28.8Z" fill="white"/>
<path d="M25.8647 25.0831C25.5704 25.0831 25.2941 24.9009 25.1883 24.6079L22.4055 16.9246C22.2702 16.5502 22.4631 16.1376 22.8373 16.0022C23.2115 15.8669 23.6246 16.0598 23.7591 16.4335L26.5419 24.1168C26.6772 24.4912 26.4843 24.9038 26.1101 25.0392C26.0295 25.0687 25.9461 25.0831 25.8647 25.0831Z" fill="white"/>
<path d="M23.0815 28.8003C22.7583 28.8003 22.4647 28.5806 22.3834 28.2523L21.5156 24.7235C20.9305 22.3467 21.0737 19.8778 21.9308 17.5838L23.2139 14.1479C23.3527 13.7756 23.768 13.5856 24.1393 13.726C24.5121 13.8649 24.7006 14.2797 24.5617 14.6526L23.2786 18.0885C22.5237 20.1096 22.3971 22.2848 22.9123 24.3793L23.7802 27.9089C23.8752 28.2948 23.6399 28.6851 23.2542 28.7801C23.1966 28.7945 23.1383 28.8003 23.0815 28.8003Z" fill="white"/>
<path d="M10.7001 12.9166C10.5562 12.9166 10.4101 12.8734 10.2834 12.7827L7.90868 11.0907C7.58485 10.8603 7.50929 10.4102 7.74029 10.0862C7.97129 9.76222 8.41961 9.68518 8.74416 9.91775L11.1189 11.6098C11.4427 11.8402 11.5183 12.2902 11.2873 12.6142C11.147 12.8115 10.9246 12.9166 10.7001 12.9166Z" fill="white"/>
<path d="M7.44227 11.6755C7.08102 11.6755 6.71617 11.5675 6.40097 11.3421L5.22871 10.5055C4.83795 10.2268 4.57889 9.81208 4.49901 9.33759C4.41913 8.8631 4.52924 8.38573 4.80917 7.99476C5.08766 7.60379 5.50217 7.34458 5.97568 7.26466C6.44991 7.18474 6.9263 7.2949 7.31705 7.57427L8.48932 8.41021C9.29673 8.98694 9.48527 10.113 8.9103 10.9209C8.55984 11.4127 8.00501 11.6748 7.44299 11.6748L7.44227 11.6755ZM6.2736 8.68021C6.24985 8.68021 6.22898 8.68237 6.21387 8.68525C6.15918 8.69461 6.05555 8.72557 5.98071 8.8307C5.90515 8.93654 5.90875 9.04454 5.91811 9.09926C5.92818 9.1547 5.95913 9.25767 6.06419 9.33327L7.23645 10.1699C7.39693 10.2851 7.62289 10.247 7.73803 10.0857C7.85317 9.92368 7.81503 9.69832 7.65384 9.58312L6.48229 8.74717C6.40745 8.69389 6.33117 8.68021 6.2736 8.68021Z" fill="white"/>
<path d="M16.7104 16.7111C16.4859 16.7111 16.2649 16.606 16.1246 16.4101C15.8936 16.0869 15.9677 15.6368 16.2908 15.4057L18.6656 13.7065C18.9894 13.4753 19.4385 13.5502 19.6702 13.8735C19.9012 14.1968 19.8271 14.6468 19.504 14.8779L17.1292 16.5772C17.0018 16.6679 16.8557 16.7118 16.7111 16.7118L16.7104 16.7111Z" fill="white"/>
<path d="M19.9666 15.4677C19.4045 15.4677 18.8497 15.2057 18.4992 14.7139C17.9235 13.9053 18.1128 12.7792 18.9202 12.2032L20.0925 11.3672C20.4832 11.0879 20.9589 10.9777 21.4331 11.0576C21.9067 11.1368 22.3212 11.396 22.6011 11.7877C23.1768 12.5963 22.9882 13.7224 22.1801 14.2984L21.0078 15.1344C20.6927 15.3597 20.3278 15.4677 19.9666 15.4677ZM19.6701 13.8765C19.7866 14.0378 20.0119 14.0767 20.1716 13.9615L21.3446 13.1248C21.5058 13.0096 21.5432 12.7842 21.4281 12.6222C21.3533 12.5171 21.2496 12.4854 21.1949 12.4761C21.1395 12.4674 21.0316 12.4631 20.9272 12.538L19.7543 13.3746C19.5931 13.4898 19.5556 13.7145 19.6701 13.8765Z" fill="white"/>
<path d="M11.6808 22.5216C11.408 22.5216 11.1475 22.3661 11.0259 22.1018L9.80977 19.4522C9.64425 19.0907 9.80257 18.663 10.1638 18.4974C10.5236 18.3318 10.9518 18.4895 11.118 18.851L12.3342 21.5006C12.4997 21.8621 12.3414 22.2898 11.9801 22.4554C11.883 22.5 11.7815 22.5216 11.6808 22.5216Z" fill="white"/>
<path d="M10.0158 19.9667C9.33432 19.9667 8.68091 19.5772 8.37794 18.9177L7.77778 17.6087C7.36472 16.7072 7.76123 15.6365 8.66292 15.2225C9.56244 14.8085 10.634 15.206 11.0477 16.1074L11.6479 17.4164C11.848 17.8528 11.8667 18.3424 11.6997 18.7931C11.5328 19.2438 11.2003 19.6031 10.7628 19.8033C10.5203 19.9149 10.2662 19.9674 10.0151 19.9674L10.0158 19.9667ZM9.41204 16.4984C9.36239 16.4984 9.3113 16.5085 9.26308 16.5308C9.08246 16.6136 9.0033 16.8275 9.08605 17.0075L9.68622 18.3164C9.76897 18.4965 9.98342 18.5764 10.1633 18.4936C10.2813 18.4396 10.331 18.3438 10.3504 18.292C10.3699 18.2394 10.3943 18.1343 10.3396 18.0169L9.73947 16.7079C9.67902 16.5762 9.54805 16.4984 9.41204 16.4984Z" fill="white"/>
</g>
<defs>
<clipPath id="clip0_920_39">
<rect width="28.8" height="28.8" fill="white"/>
</clipPath>
</defs>
</svg>
