<svg width="50" height="50" viewBox="0 0 50 50" fill="none" xmlns="http://www.w3.org/2000/svg">
<g clip-path="url(#clip0_265_18725)">
<path d="M48.7503 47.5678C48.4304 47.5678 48.1104 47.4451 47.8667 47.201L46.4308 45.7615C45.9159 45.237 45.3348 44.7976 44.6937 44.4496C44.0876 44.1204 43.8614 43.3606 44.1913 42.7534C44.52 42.1463 45.2773 41.9185 45.8847 42.2502C46.7445 42.7171 47.5243 43.3055 48.2054 44.0002L49.6338 45.431C50.1225 45.9204 50.1225 46.7128 49.6338 47.201C49.3901 47.4451 49.0702 47.5678 48.7503 47.5678Z" fill="#585E48"/>
<path d="M34.8296 38.8679C34.4085 38.8679 33.9986 38.6551 33.7624 38.2696C33.6186 38.0355 33.4987 37.8014 33.3812 37.5573L30.0394 32.748C29.6458 32.1797 29.7857 31.3998 30.3519 31.0055C30.9167 30.6112 31.6978 30.7501 32.0927 31.3184L35.492 36.2129C35.5307 36.2705 35.5657 36.3306 35.5957 36.3932C35.6882 36.5897 35.7794 36.7775 35.8931 36.964C36.2543 37.5536 36.0693 38.3247 35.4807 38.6852C35.277 38.8104 35.0508 38.8692 34.8296 38.8692V38.8679Z" fill="#585E48"/>
<path d="M32.7464 35.1125C32.3853 35.1125 32.0278 34.9573 31.7804 34.6569C31.3417 34.1236 31.4192 33.3337 31.9516 32.8943C33.9024 31.2858 35.2396 29.0213 35.717 26.5165L36.0294 24.8654C36.1107 24.4298 36.4181 24.0705 36.8343 23.9203L38.2214 23.4196C39.2525 23.0353 40.0248 22.1979 40.3297 21.1263L40.4159 20.8159C40.5572 20.3077 40.4422 19.7857 40.0985 19.3876C39.7573 18.9908 39.2625 18.8018 38.7388 18.8669L38.5551 18.8844C38.174 18.9169 37.7978 18.7755 37.5341 18.4938C37.2717 18.2134 37.1517 17.8279 37.2104 17.4486L37.3479 16.5473C37.5741 15.0452 37.5616 13.6745 37.3104 12.4752C36.7493 9.77139 35.4221 7.43682 33.4738 5.72312C31.1155 3.64767 28.0887 2.50479 24.9494 2.50479C24.2583 2.50479 23.6997 1.94399 23.6997 1.253C23.6997 0.56202 24.2583 0.0012207 24.9494 0.0012207C28.6973 0.0012207 32.3115 1.36566 35.1234 3.84294C37.4841 5.91715 39.0862 8.72615 39.7586 11.9633C40.0448 13.3252 40.086 14.8361 39.8848 16.4597C40.6871 16.655 41.4295 17.0993 41.9931 17.7528C42.8804 18.7817 43.1916 20.1787 42.8254 21.4918L42.7379 21.8073C42.213 23.6587 40.8821 25.102 39.0837 25.7717L38.3552 26.0333L38.1752 26.9834C37.5878 30.0628 35.9432 32.848 33.5437 34.8271C33.31 35.0186 33.0301 35.1125 32.7502 35.1125H32.7464Z" fill="#585E48"/>
<path d="M17.1849 35.0624C16.9012 35.0624 16.6163 34.966 16.3814 34.7695C14.738 33.3875 13.4133 31.5912 12.551 29.5796C12.1436 28.6295 11.8399 27.6343 11.6462 26.6229L11.53 26.0195L10.8589 25.7742C9.06926 25.102 7.70831 23.6186 7.20718 21.8023L7.1222 21.5344C6.74353 20.1837 7.05596 18.7867 7.94326 17.7565C8.49064 17.1206 9.21048 16.6812 9.9978 16.4784C9.77035 14.6396 9.86033 12.9034 10.2627 11.2998C10.9063 8.70863 12.216 6.36404 14.0531 4.52392C16.965 1.60726 20.8341 0.0012207 24.9469 0.0012207C25.638 0.0012207 26.1967 0.56202 26.1967 1.253C26.1967 1.94399 25.638 2.50479 24.9469 2.50479C21.5015 2.50479 18.2597 3.85046 15.8202 6.29394C14.3056 7.81235 13.2221 9.75387 12.6872 11.9069C12.3285 13.3327 12.2785 14.905 12.5347 16.5849L12.6709 17.4248C12.7297 17.7878 12.626 18.1571 12.3885 18.4362C12.1511 18.7154 11.8024 18.8769 11.4362 18.8769C11.3837 18.8769 11.2438 18.8744 11.1913 18.8669C10.6714 18.7968 10.1765 18.992 9.83409 19.3901C9.49041 19.7894 9.37419 20.3089 9.51541 20.8171L9.60164 21.09C9.90282 22.1816 10.6926 23.0378 11.7237 23.4246L13.0509 23.909C13.4633 24.0605 13.767 24.416 13.8507 24.8479L14.1006 26.1497C14.2593 26.9847 14.5093 27.8046 14.8467 28.5882C15.5553 30.2443 16.6426 31.7177 17.9898 32.8505C18.5184 33.2949 18.5871 34.0848 18.1422 34.6143C17.896 34.9085 17.5424 35.0612 17.1837 35.0612L17.1849 35.0624Z" fill="#585E48"/>
<path d="M41.0745 50C40.5783 50 40.1072 49.6996 39.9122 49.2089L38.9662 46.8155C38.7662 46.3085 38.2326 46.0419 37.8202 45.9079L35.2208 45.0617C34.0198 44.6712 33.0238 44.0728 32.2639 43.2867L31.3304 42.3216C31.1679 42.1538 30.9505 42.0124 30.6843 41.8997L27.67 40.6217C26.9876 40.3338 26.5202 39.7742 26.389 39.0882C26.2328 38.2783 26.5652 37.3933 27.3001 36.6635C28.5073 35.4656 30.4556 34.9636 31.7403 35.5282L32.9525 36.0602C33.4812 36.293 34.1835 36.3981 34.9708 36.3568L35.8544 36.3155C36.5342 36.3018 37.1291 36.8175 37.1616 37.5072C37.1928 38.1982 36.6617 38.784 35.9719 38.8166L35.0896 38.8579C33.9111 38.9142 32.8288 38.739 31.949 38.3534L30.7368 37.8214C30.5181 37.725 29.6383 37.8665 29.0597 38.4423C29.0472 38.4536 29.0359 38.4661 29.0259 38.4774L31.6578 39.5939C32.2352 39.838 32.7288 40.1698 33.1262 40.5804L34.0585 41.5455C34.5334 42.0362 35.1845 42.418 35.9944 42.6808L38.595 43.5271C39.8985 43.9514 40.857 44.7926 41.2907 45.8942L42.2367 48.2876C42.4904 48.931 42.1767 49.6583 41.5344 49.9124C41.3831 49.9725 41.2282 50 41.0745 50Z" fill="#585E48"/>
<path d="M45.2936 46.6928L40.6296 35.264C40.3747 34.6381 39.9973 34.2513 39.4449 34.0486C37.909 33.4852 35.4695 34.4591 34.661 34.881C34.0473 35.1977 33.2938 34.9636 32.9738 34.3515C32.6552 33.7394 32.8901 32.9845 33.5 32.6641C33.8961 32.455 37.4541 30.66 40.2972 31.6964C41.5082 32.1383 42.423 33.0446 42.9428 34.3177L47.6068 45.7465L45.2923 46.6941L45.2936 46.6928Z" fill="#585E48"/>
<path d="M1.25003 47.5678C0.930103 47.5678 0.610175 47.4452 0.36648 47.2011C-0.12216 46.7129 -0.12216 45.9205 0.36648 45.431L1.80241 43.9915C2.47476 43.3055 3.25458 42.7159 4.11564 42.249C4.72175 41.9173 5.48158 42.1451 5.809 42.7522C6.13893 43.3593 5.91273 44.1192 5.30662 44.4484C4.66551 44.7964 4.08439 45.2345 3.57826 45.7515L2.13358 47.1998C1.88989 47.4439 1.56996 47.5678 1.25003 47.5678Z" fill="#585E48"/>
<path d="M15.1703 38.868C14.9478 38.868 14.7229 38.8091 14.5192 38.684C13.9306 38.3234 13.7456 37.5523 14.1068 36.9628C14.2205 36.7762 14.3117 36.5897 14.4042 36.3919C14.4342 36.3294 14.4692 36.2693 14.5079 36.2117L17.9072 31.3172C18.3008 30.7489 19.0807 30.61 19.648 31.0043C20.2154 31.3986 20.3541 32.1784 19.9605 32.7467L16.6187 37.5561C16.5012 37.8002 16.3825 38.0343 16.2375 38.2684C16.0026 38.6539 15.5914 38.868 15.1703 38.868Z" fill="#585E48"/>
<path d="M8.92548 50C8.77177 50 8.6168 49.9712 8.46559 49.9111C7.82323 49.657 7.50955 48.9297 7.76324 48.2863L8.70928 45.8929C9.14418 44.7913 10.1015 43.9514 11.4049 43.5257L14.0043 42.6795C14.8142 42.4167 15.4665 42.0336 15.9414 41.5442L16.8724 40.579C17.2724 40.1672 17.766 39.8355 18.3434 39.5914L20.974 38.476C20.9628 38.4648 20.9515 38.4523 20.9403 38.441C20.3579 37.8652 19.4744 37.725 19.2632 37.8214L18.0509 38.3534C17.1711 38.7402 16.0914 38.9154 14.9091 38.8578L14.0281 38.8165C13.3382 38.784 12.8059 38.1982 12.8384 37.5072C12.8708 36.8174 13.4707 36.2842 14.1456 36.3155L15.0279 36.3568C15.8189 36.3981 16.5175 36.2917 17.0474 36.0601L18.2596 35.5281C19.5431 34.9648 21.4914 35.4655 22.6999 36.6635C23.4347 37.3933 23.7671 38.2783 23.6109 39.0882C23.4797 39.7729 23.0123 40.3324 22.33 40.6216L19.3169 41.8997C19.0495 42.0123 18.8308 42.1563 18.667 42.324L17.7373 43.2867C16.9762 44.074 15.9801 44.6711 14.7779 45.0617L12.1798 45.9079C11.7673 46.0418 11.2337 46.3085 11.0338 46.8154L10.0877 49.2088C9.89402 49.7008 9.42287 50 8.92548 50Z" fill="#585E48"/>
<path d="M4.70645 46.6929L2.39197 45.7453L7.05592 34.3165C7.5758 33.0434 8.4906 32.1371 9.70157 31.6953C12.5422 30.6563 16.1026 32.4538 16.4988 32.6629C17.1087 32.9833 17.3436 33.7382 17.0249 34.3503C16.705 34.9624 15.9527 35.1965 15.3378 34.8798C14.528 34.4579 12.0873 33.4841 10.5539 34.0474C10.0015 34.2501 9.62409 34.6369 9.36915 35.2628L4.7052 46.6916L4.70645 46.6929Z" fill="#585E48"/>
</g>
<defs>
<clipPath id="clip0_265_18725">
<rect width="50" height="50" fill="white"/>
</clipPath>
</defs>
</svg>
