<svg width="40" height="40" viewBox="0 0 40 40" fill="none" xmlns="http://www.w3.org/2000/svg">
<g clip-path="url(#clip0_265_18035)">
<path d="M38.9985 18.919C38.5498 18.919 38.143 18.615 38.029 18.16L36.6278 12.507C36.2829 11.116 35.2465 9.96596 33.8542 9.43096L32.4749 8.90096C32.281 8.82696 32.0792 8.76396 31.8753 8.71496L28.2672 7.84796C25.9754 7.29796 24.2423 5.48696 23.8515 3.23496L23.4937 1.17196C23.3997 0.627959 23.7635 0.109959 24.3072 0.0159587C24.8489 -0.0760413 25.3687 0.286959 25.4626 0.829959L25.8204 2.89296C26.0743 4.35796 27.2177 5.53996 28.7339 5.90396L32.341 6.76996C32.6299 6.83896 32.9137 6.92696 33.1906 7.03296L34.5718 7.56396C36.5738 8.33296 38.068 10.001 38.5697 12.025L39.971 17.678C40.1039 18.214 39.7771 18.756 39.2414 18.889C39.1604 18.909 39.0795 18.918 38.9995 18.918L38.9985 18.919Z" fill="white"/>
<path d="M1.00051 19C0.920554 19 0.839596 18.991 0.758639 18.971C0.22292 18.838 -0.103908 18.296 0.029022 17.76L1.45028 12.026C1.95201 10.002 3.44623 8.33396 5.44818 7.56496L6.82745 7.03496C7.10531 6.92896 7.38916 6.83996 7.67901 6.77096L11.2851 5.90496C12.8003 5.54097 13.9437 4.35896 14.1986 2.89296L14.5564 0.830965C14.6513 0.286965 15.1681 -0.0750354 15.7118 0.0169646C16.2555 0.110965 16.6203 0.628965 16.5254 1.17296L16.1675 3.23596C15.7758 5.48796 14.0437 7.29896 11.7519 7.84996L8.14476 8.71596C7.93887 8.76496 7.73797 8.82796 7.54208 8.90296L6.1638 9.43296C4.77153 9.96796 3.73408 11.118 3.39026 12.509L1.969 18.243C1.85606 18.698 1.44828 19.002 0.999512 19.002L1.00051 19Z" fill="white"/>
<path d="M4.2818 34.8359C4.16886 34.8359 4.05392 34.8159 3.94098 34.7759C3.42225 34.5879 3.15339 34.0139 3.34229 33.4949L7.20726 22.8249C7.39516 22.3059 7.96986 22.0419 8.48759 22.2249C9.00632 22.4129 9.27518 22.9869 9.08628 23.5059L5.22131 34.1759C5.07438 34.5819 4.69058 34.8359 4.2818 34.8359Z" fill="white"/>
<path d="M8.14874 40C8.06978 40 7.98882 39.991 7.90886 39.971C7.37315 39.839 7.04532 39.297 7.17725 38.761L8.38361 33.86C9.09924 30.951 8.92433 27.929 7.87588 25.122L6.09382 20.351C5.90092 19.833 6.16278 19.258 6.67951 19.064C7.19624 18.869 7.77294 19.133 7.96583 19.65L9.7479 24.422C10.9373 27.607 11.1372 31.036 10.3256 34.338L9.11923 39.239C9.00729 39.695 8.5985 40 8.14974 40H8.14874Z" fill="white"/>
<path d="M35.9232 34.8361C35.5144 34.8361 35.1306 34.5831 34.9837 34.1771L31.1187 23.5071C30.9308 22.9871 31.1987 22.4141 31.7174 22.2261C32.2352 22.0421 32.8099 22.3071 32.9978 22.8261L36.8627 33.4961C37.0506 34.0161 36.7828 34.5891 36.264 34.7771C36.1521 34.8171 36.0362 34.8371 35.9232 34.8371V34.8361Z" fill="white"/>
<path d="M32.0573 39.9999C31.6085 39.9999 31.1997 39.6949 31.0878 39.2389L29.8814 34.3379C29.0698 31.0359 29.2687 27.6079 30.4581 24.4219L32.2412 19.6499C32.4341 19.1319 33.0138 18.8689 33.5275 19.0639C34.0442 19.2569 34.3071 19.8329 34.1132 20.3509L32.3311 25.1219C31.2837 27.9299 31.1068 30.9519 31.8234 33.8599L33.0298 38.7609C33.1617 39.2969 32.8339 39.8389 32.2981 39.9709C32.2172 39.9919 32.1362 39.9999 32.0573 39.9999Z" fill="white"/>
<path d="M19.9386 16.0211C15.8278 16.0211 12.7284 14.3281 12.7284 12.0821C12.7284 9.83607 15.8288 8.14307 19.9386 8.14307C24.0485 8.14307 27.1488 9.83607 27.1488 12.0821C27.1488 14.3281 24.0485 16.0211 19.9386 16.0211ZM19.9386 10.1431C16.8053 10.1431 14.7273 11.3101 14.7273 12.0821C14.7273 12.8541 16.8063 14.0211 19.9386 14.0211C23.071 14.0211 25.1499 12.8541 25.1499 12.0821C25.1499 11.3101 23.071 10.1431 19.9386 10.1431Z" fill="white"/>
<path d="M19.9386 26.0211C15.8278 26.0211 12.7284 24.3281 12.7284 22.0821C12.7284 19.8361 15.8288 18.1431 19.9386 18.1431C24.0485 18.1431 27.1488 19.8361 27.1488 22.0821C27.1488 24.3281 24.0485 26.0211 19.9386 26.0211ZM19.9386 20.1431C16.8053 20.1431 14.7273 21.3101 14.7273 22.0821C14.7273 22.8541 16.8063 24.0211 19.9386 24.0211C23.071 24.0211 25.1499 22.8541 25.1499 22.0821C25.1499 21.3101 23.071 20.1431 19.9386 20.1431Z" fill="white"/>
<path d="M19.9386 36.0211C15.8278 36.0211 12.7284 34.3281 12.7284 32.0821C12.7284 29.8361 15.8288 28.1431 19.9386 28.1431C24.0485 28.1431 27.1488 29.8361 27.1488 32.0821C27.1488 34.3281 24.0485 36.0211 19.9386 36.0211ZM19.9386 30.1421C16.8053 30.1421 14.7273 31.3091 14.7273 32.0811C14.7273 32.8531 16.8063 34.0201 19.9386 34.0201C23.071 34.0201 25.1499 32.8531 25.1499 32.0811C25.1499 31.3091 23.071 30.1421 19.9386 30.1421Z" fill="white"/>
</g>
<defs>
<clipPath id="clip0_265_18035">
<rect width="40" height="40" fill="white"/>
</clipPath>
</defs>
</svg>
