<svg width="50" height="50" viewBox="0 0 50 50" fill="none" xmlns="http://www.w3.org/2000/svg">
<g clip-path="url(#clip0_452_14869)">
<path d="M37.6658 17.0513H35.1637C35.1637 15.7067 33.411 14.2429 30.5887 13.2294C30.2021 13.0914 29.9081 12.7703 29.8018 12.3714C29.6967 11.9738 29.7918 11.5499 30.0582 11.235C30.3572 10.8838 30.635 10.3984 30.8439 9.87031C31.7559 7.55231 30.2522 5.03989 29.7693 4.32493C29.4215 3.81065 29.0099 3.34153 28.5382 2.9251C27.9415 3.47575 27.2897 3.96493 26.5916 4.38137C26.0049 4.73384 25.0366 5.23431 23.7681 5.60559C23.0024 5.83012 22.4907 5.8966 21.5612 6.01952L21.1346 6.07597C18.8227 6.38829 17.678 6.54258 16.5921 6.8248C15.2223 7.17977 14.588 7.3604 13.9012 7.8985C13.4533 8.25097 12.794 8.77026 12.6501 9.48523C12.505 10.209 12.8866 10.9503 13.2319 11.4445C13.4545 11.7606 13.5171 12.1632 13.4033 12.5332C13.2894 12.9045 13.0117 13.2005 12.6501 13.3385C10.0067 14.3407 8.36535 15.7631 8.36535 17.0513H5.86328C5.86328 14.8851 7.48212 12.961 10.4571 11.5473C10.1205 10.6844 10.0305 9.81888 10.1969 8.98726C10.5234 7.36792 11.7544 6.39958 12.3449 5.93297C13.4858 5.03738 14.5254 4.7677 15.9654 4.39517C17.1964 4.07406 18.3911 3.91351 20.7718 3.5924L21.236 3.52968C22.1204 3.41303 22.487 3.36537 23.0675 3.19478C23.8581 2.96273 24.6538 2.61904 25.3093 2.22769C26.1225 1.73976 26.8556 1.13266 27.4886 0.41895C27.9052 -0.0489137 28.602 -0.139225 29.1225 0.213241C30.2121 0.948276 31.1266 1.85892 31.8422 2.91757C32.499 3.88967 34.5344 7.33029 33.1721 10.7885C33.082 11.018 32.9832 11.2388 32.8768 11.4533C35.9431 12.8707 37.6683 14.8638 37.6683 17.0488L37.6658 17.0513Z" fill="#585E48"/>
<path d="M16.2738 14.3922C13.7855 14.3922 11.3723 13.1968 11.2709 13.1466C10.6542 12.8368 10.404 12.0855 10.7117 11.4658C11.0195 10.8474 11.7688 10.5953 12.3881 10.9014C12.4081 10.9114 14.386 11.8835 16.2738 11.8835C16.9644 11.8835 17.5248 12.4442 17.5248 13.1378C17.5248 13.8315 16.9644 14.3922 16.2738 14.3922Z" fill="#585E48"/>
<path d="M27.384 13.8591C27.2202 13.8591 27.0538 13.854 26.8886 13.844C26.1993 13.8026 25.6739 13.2081 25.7152 12.5169C25.7565 11.8245 26.3444 11.304 27.0388 11.3404C28.9128 11.4608 30.9545 10.6016 30.9745 10.5928C31.61 10.3244 32.3444 10.6191 32.6146 11.2551C32.8848 11.8923 32.5908 12.6286 31.9566 12.9007C31.859 12.9421 29.6922 13.8591 27.384 13.8591Z" fill="#585E48"/>
<path d="M30.0248 47.5227H11.2593C5.05167 47.5227 0 42.459 0 36.2338V26.1991C0 24.1245 1.68389 22.4362 3.7531 22.4362H38.782C40.8512 22.4362 42.5351 24.1245 42.5351 26.1991V27.4535C42.5351 28.1471 41.9746 28.7078 41.2841 28.7078C40.5935 28.7078 40.033 28.1471 40.033 27.4535V26.1991C40.033 25.5068 39.4713 24.9448 38.782 24.9448H3.7531C3.06378 24.9448 2.50206 25.5068 2.50206 26.1991V36.2338C2.50206 41.0742 6.43031 45.0141 11.2593 45.0141H30.0248C30.7153 45.0141 31.2758 45.5747 31.2758 46.2684C31.2758 46.962 30.7153 47.5227 30.0248 47.5227Z" fill="#585E48"/>
<path d="M40.0329 24.9448H2.50195V19.9275C2.50195 17.8528 4.18584 16.1645 6.25505 16.1645H36.2798C38.349 16.1645 40.0329 17.8528 40.0329 19.9275V24.9448ZM5.00402 22.4362H37.5309V19.9275C37.5309 19.2351 36.9691 18.6732 36.2798 18.6732H6.25505C5.56573 18.6732 5.00402 19.2351 5.00402 19.9275V22.4362Z" fill="#585E48"/>
<path d="M21.2679 42.5054C17.1282 42.5054 13.7617 39.13 13.7617 34.9794C13.7617 30.8289 17.1282 27.4535 21.2679 27.4535C25.4076 27.4535 28.7741 30.8289 28.7741 34.9794C28.7741 39.13 25.4076 42.5054 21.2679 42.5054ZM21.2679 29.9621C18.5081 29.9621 16.2638 32.2124 16.2638 34.9794C16.2638 37.7465 18.5081 39.9967 21.2679 39.9967C24.0277 39.9967 26.272 37.7465 26.272 34.9794C26.272 32.2124 24.0277 29.9621 21.2679 29.9621Z" fill="#585E48"/>
<path d="M45.7511 49.9874C45.6736 49.9874 45.596 49.9799 45.5172 49.9649L42.4021 49.3753C40.9146 49.0994 39.6461 48.1649 38.928 46.8127C38.604 46.2019 38.8342 45.4418 39.4447 45.1156C40.0552 44.7908 40.8121 45.0228 41.1373 45.6337C41.4901 46.2972 42.1344 46.7739 42.8625 46.9093L44.7578 47.2681L45.1231 45.3703C45.2457 44.7117 45.1094 44.0495 44.7378 43.5164C44.3425 42.9494 44.4801 42.1667 45.0468 41.7691C45.6135 41.3752 46.3942 41.512 46.7895 42.0802C47.5476 43.1677 47.8291 44.5023 47.5814 45.8356L46.9796 48.9677C46.8645 49.5672 46.3404 49.9849 45.7524 49.9849L45.7511 49.9874Z" fill="#585E48"/>
<path d="M34.3144 50C33.7264 50 33.2023 49.5836 33.0872 48.9827L32.4867 45.8607C32.2402 44.5274 32.5142 43.1965 33.2573 42.1053C33.6464 41.5333 34.427 41.389 34.9962 41.7766C35.5667 42.168 35.7131 42.9482 35.324 43.5214C34.9562 44.0608 34.8223 44.7268 34.9462 45.3941L35.3077 47.2769L37.1943 46.9119C37.9424 46.7764 38.5704 46.311 38.9282 45.6349C39.2097 45.1232 39.2973 44.5587 39.1897 43.983L38.8031 41.9711C38.673 41.29 39.1159 40.6327 39.7952 40.501C40.4733 40.3718 41.1288 40.8158 41.2601 41.4957L41.648 43.5151C41.8594 44.6603 41.6742 45.8344 41.1263 46.8291C40.4157 48.1687 39.1459 49.1032 37.6534 49.3766L34.5509 49.9774C34.4721 49.9925 34.392 50 34.3132 50H34.3144Z" fill="#585E48"/>
<path d="M35.8267 44.4057C35.1224 44.4057 34.4193 44.2539 33.7676 43.9529C32.4515 43.3709 31.4456 42.2282 31.0278 40.8271L30.1158 37.7816C29.9169 37.1181 30.2922 36.4182 30.9527 36.2187L33.9927 35.3031C35.0524 34.9932 36.182 35.0296 37.1804 35.4059C37.6695 35.589 37.9935 36.0582 37.9935 36.5812C37.9935 37.2749 37.4331 37.8418 36.7425 37.8418C36.5498 37.8418 36.3672 37.7992 36.2046 37.7214C35.7329 37.5709 35.2037 37.5634 34.7033 37.7089L32.8718 38.2608L33.4248 40.1071C33.6337 40.8058 34.1329 41.3727 34.7972 41.6663C35.3576 41.9247 35.9706 41.966 36.5398 41.7904L38.3914 41.2335L38.2913 40.9049C38.1312 40.4609 38.225 39.9428 38.579 39.5878C39.0657 39.0987 39.8526 39.0911 40.3417 39.5816C40.4843 39.7246 40.6019 39.9127 40.6632 40.1046L41.1449 41.7164C41.3413 42.3787 40.966 43.0761 40.3054 43.2756L37.2654 44.19C36.7963 44.333 36.3096 44.4057 35.8267 44.4057Z" fill="#585E48"/>
<path d="M39.4575 41.7214C39.1372 41.7214 38.8169 41.5985 38.573 41.3539L36.9341 39.7107C36.121 38.9105 35.6218 37.8706 35.4992 36.7104C35.3266 35.2027 35.8495 33.7063 36.9341 32.6175L39.186 30.3597C39.4212 30.1239 39.7389 29.9922 40.0705 29.9922C40.4032 29.9922 40.7223 30.1252 40.9574 30.3622L43.1968 32.62C44.2539 33.6812 44.7831 35.155 44.6442 36.6677C44.5804 37.3576 43.9699 37.8569 43.2844 37.8017C42.5963 37.7377 42.0896 37.1268 42.1534 36.437C42.2235 35.6718 41.9583 34.9255 41.4253 34.3911L40.068 33.0227L38.7031 34.3911C38.1601 34.9355 37.8987 35.6793 37.9862 36.4344C38.0475 37.0202 38.2928 37.532 38.6943 37.9271L40.3419 39.5778C40.8311 40.0682 40.8311 40.861 40.3419 41.3514C40.098 41.596 39.7777 41.7189 39.4575 41.7189V41.7214Z" fill="#585E48"/>
<path d="M44.2381 44.3982C43.7614 44.3982 43.2773 44.3292 42.7994 44.1849L39.7619 43.2693C39.1001 43.0698 38.7248 42.3699 38.9249 41.7064L39.8382 38.6596C40.6338 36.0105 43.4349 34.504 46.0721 35.3005L49.1096 36.2162C49.4274 36.3128 49.6938 36.531 49.8515 36.8233C50.0078 37.1168 50.0429 37.4605 49.9478 37.7791L49.0333 40.8246C48.3815 42.9933 46.3898 44.3982 44.2381 44.3982ZM41.6797 41.2272L43.5187 41.7816C44.8373 42.178 46.2385 41.4279 46.6363 40.1021L47.1893 38.2582L45.3502 37.7038C44.0292 37.3049 42.6317 38.0575 42.2327 39.3821L41.6797 41.2272Z" fill="#585E48"/>
</g>
<defs>
<clipPath id="clip0_452_14869">
<rect width="50" height="50" fill="white"/>
</clipPath>
</defs>
</svg>
