<svg width="50" height="50" viewBox="0 0 50 50" fill="none" xmlns="http://www.w3.org/2000/svg">
<g clip-path="url(#clip0_629_29)">
<path d="M13.0642 50C13.0114 50 12.9599 49.9963 12.9071 49.99C12.2186 49.9044 11.7299 49.2751 11.8165 48.5855C11.9723 47.3333 12.1344 45.9678 12.2751 44.6288C12.485 42.6555 11.907 40.701 10.6921 39.2651C7.39148 35.3663 5.6991 30.404 5.92902 25.2933C6.01948 23.2683 6.42027 21.2724 7.11884 19.362C7.35755 18.7101 8.07748 18.3766 8.73081 18.6132C9.38288 18.8523 9.71709 19.5759 9.47837 20.2278C8.86776 21.8953 8.51847 23.6371 8.43932 25.4053C8.2383 29.8792 9.7196 34.2235 12.6081 37.6366C14.2653 39.5935 15.0543 42.2376 14.7741 44.8931C14.6309 46.2459 14.4676 47.629 14.3093 48.8963C14.2301 49.5331 13.6886 50 13.0642 50Z" fill="white"/>
<path d="M33.879 50.0008C33.8263 50.0008 33.7735 49.997 33.7195 49.9908C33.031 49.9039 32.5435 49.2747 32.6302 48.585L32.8777 46.6255C33.1252 44.6711 34.8012 43.1961 36.7776 43.1961H41.7052C42.6588 43.1961 43.4428 42.4889 43.5295 41.5475L44.3097 33.0514C44.1941 32.1088 44.7294 31.1813 45.6302 30.8214L47.1844 30.2034C47.3741 30.1279 47.4432 29.9769 47.4658 29.8939C47.4897 29.8133 47.5098 29.6535 47.3917 29.4949L45.2445 26.5979C44.551 25.6628 44.0911 24.5792 43.9152 23.4617C43.0973 18.2503 40.0065 13.7021 35.4345 10.9799C34.8377 10.625 34.6429 9.85232 34.9972 9.25453C35.3515 8.65549 36.1192 8.46042 36.7198 8.81658C41.9351 11.9225 45.4631 17.1176 46.3979 23.0703C46.511 23.7851 46.81 24.4861 47.2623 25.0965L49.4107 27.9923C49.9661 28.7411 50.1395 29.6849 49.8844 30.5822C49.6294 31.4821 48.9836 32.1969 48.1129 32.5442L46.8276 33.1194L46.0323 41.7803C45.8262 44.023 43.9655 45.7144 41.7064 45.7144H36.7788C36.0652 45.7144 35.4596 46.243 35.3716 46.9439L35.1241 48.9022C35.0437 49.5377 34.5022 50.0008 33.879 50.0008Z" fill="white"/>
<path d="M22.4406 19.4564C22.3916 19.4564 22.3439 19.4564 22.2949 19.4539L13.6018 19.0814C11.5916 18.9958 9.67806 18.0758 8.3513 16.5606L0.311543 7.36352C-0.145789 6.84125 -0.0930203 6.04588 0.429645 5.58779C0.949798 5.12969 1.7451 5.18129 2.20244 5.70608L10.2422 14.9006C11.1179 15.9011 12.3819 16.509 13.7099 16.5656L22.403 16.9381C22.8515 16.957 23.2347 16.6248 23.2824 16.1805C23.3314 15.7262 23.0023 15.3071 22.55 15.248L17.5243 14.5885C16.675 14.4765 15.9664 13.9064 15.6749 13.0985C15.3834 12.2905 15.5656 11.3983 16.1473 10.769L16.6298 10.248C17.7806 9.00334 19.4127 8.25957 21.1076 8.20671L22.761 8.15512C24.7298 8.10478 26.6735 8.73151 28.2239 9.95225L31.2355 12.3195C31.3498 12.4088 31.4981 12.4327 31.6288 12.3849C31.8059 12.3232 31.87 12.1836 31.8913 12.1055C31.914 12.0275 31.9328 11.8765 31.8147 11.7305L29.5079 8.85861C27.7892 6.72295 25.2437 5.50347 22.511 5.50347C22.4746 5.50347 22.4381 5.50347 22.4017 5.50347L13 5.61673C11.1506 5.60792 9.32376 5.04034 7.84622 3.93161L5.62112 2.26158C5.06579 1.84376 4.95271 1.05595 5.36858 0.499692C5.78697 -0.056563 6.57348 -0.168569 7.12755 0.246734L9.35265 1.91676C10.3892 2.69451 11.6619 3.14253 12.9698 3.09974L22.3715 2.98648C25.9573 2.94243 29.2378 4.508 31.4654 7.2792L33.7722 10.1511C34.369 10.8911 34.5688 11.8815 34.3074 12.7964C34.0461 13.7114 33.3538 14.4463 32.4567 14.761C31.5094 15.0919 30.4729 14.9183 29.6826 14.2991L26.671 11.9319C25.5804 11.0748 24.2072 10.6205 22.8377 10.6708L21.183 10.7224C20.1565 10.7539 19.1677 11.2044 18.4691 11.9583L18.2932 12.1483L22.8716 12.7499C24.667 12.9865 25.9699 14.6439 25.7764 16.4473C25.593 18.1589 24.1393 19.4526 22.4369 19.4526L22.4406 19.4564Z" fill="white"/>
<path d="M26.6358 22.3438C26.3318 22.3438 26.0252 22.3161 25.7161 22.2594C25.0339 22.1323 24.5841 21.4754 24.7098 20.792C24.8379 20.1087 25.4913 19.6581 26.1747 19.784C27.5354 20.0394 28.8509 19.1333 29.1059 17.7691C29.2328 17.087 29.8849 16.6327 30.5709 16.7623C31.2531 16.8894 31.7029 17.5464 31.576 18.2297C31.1275 20.6486 29.0079 22.3438 26.6358 22.3438Z" fill="white"/>
<path d="M26.656 27.3803C26.0378 27.3803 25.4159 27.3224 24.7965 27.2066C24.1143 27.0795 23.6645 26.4225 23.7914 25.7392C23.9183 25.0558 24.5678 24.604 25.2564 24.7324C27.2352 25.0999 29.2392 24.6758 30.9001 23.5343C32.5599 22.3928 33.6768 20.6725 34.0462 18.6891C34.1718 18.0057 34.8214 17.5527 35.5112 17.6823C36.1934 17.8094 36.6432 18.4663 36.5163 19.1497C36.025 21.7938 34.5362 24.088 32.3224 25.6096C30.6288 26.7737 28.6662 27.3803 26.656 27.3803Z" fill="white"/>
</g>
<defs>
<clipPath id="clip0_629_29">
<rect width="50" height="50" fill="white"/>
</clipPath>
</defs>
</svg>
