<svg width="50" height="50" viewBox="0 0 50 50" fill="none" xmlns="http://www.w3.org/2000/svg">
<g clip-path="url(#clip0_359_894)">
<path d="M48.7503 47.5678C48.4304 47.5678 48.1104 47.4451 47.8667 47.201L46.4308 45.7615C45.9159 45.237 45.3348 44.7976 44.6937 44.4496C44.0876 44.1204 43.8614 43.3606 44.1913 42.7534C44.52 42.1463 45.2773 41.9185 45.8847 42.2502C46.7445 42.7171 47.5243 43.3055 48.2054 44.0002L49.6338 45.431C50.1225 45.9204 50.1225 46.7128 49.6338 47.201C49.3901 47.4451 49.0702 47.5678 48.7503 47.5678Z" fill="#585E48"/>
<path d="M34.8297 38.8679C34.4085 38.8679 33.9986 38.6551 33.7624 38.2696C33.6187 38.0355 33.4987 37.8014 33.3812 37.5573L30.0395 32.748C29.6458 32.1797 29.7858 31.3998 30.3519 31.0055C30.9168 30.6112 31.6979 30.7501 32.0928 31.3184L35.492 36.2129C35.5308 36.2705 35.5658 36.3306 35.5958 36.3932C35.6882 36.5897 35.7795 36.7775 35.8932 36.964C36.2544 37.5536 36.0694 38.3247 35.4808 38.6852C35.2771 38.8104 35.0509 38.8692 34.8297 38.8692V38.8679Z" fill="#585E48"/>
<path d="M32.7464 35.1132C32.3852 35.1132 32.0278 34.958 31.7803 34.6576C31.3417 34.1243 31.4192 33.3344 31.9515 32.8951C33.9023 31.2865 35.2395 29.0221 35.7169 26.5172L36.0294 24.8661C36.1106 24.4305 36.418 24.0713 36.8342 23.921L38.2214 23.4203C39.2524 23.036 40.0247 22.1986 40.3297 21.1271L40.4159 20.8166C40.5571 20.3084 40.4421 19.7864 40.0985 19.3883C39.7573 18.9915 39.2624 18.8025 38.7388 18.8676L38.5551 18.8851C38.1739 18.9177 37.7977 18.7762 37.534 18.4946C37.2716 18.2142 37.1516 17.8286 37.2104 17.4493L37.3478 16.548C37.574 15.0459 37.5615 13.6752 37.3103 12.476C36.7492 9.77212 35.422 7.43755 33.4737 5.72386C31.1155 3.6484 28.0887 2.50552 24.9494 2.50552C24.2583 2.50552 23.6996 1.94472 23.6996 1.25374C23.6996 0.562752 24.2583 0.00195312 24.9494 0.00195312C28.6973 0.00195312 32.3115 1.3664 35.1233 3.84368C37.484 5.91788 39.0862 8.72689 39.7585 11.964C40.0447 13.3259 40.086 14.8368 39.8848 16.4604C40.6871 16.6557 41.4294 17.1001 41.993 17.7535C42.8803 18.7825 43.1915 20.1795 42.8253 21.4926L42.7379 21.808C42.213 23.6594 40.882 25.1027 39.0837 25.7724L38.3551 26.034L38.1751 26.9842C37.5878 30.0635 35.9431 32.8488 33.5437 34.8278C33.31 35.0194 33.03 35.1132 32.7501 35.1132H32.7464Z" fill="#585E48"/>
<path d="M17.1849 35.0632C16.9012 35.0632 16.6162 34.9668 16.3813 34.7702C14.7379 33.3883 13.4132 31.592 12.5509 29.5804C12.1435 28.6302 11.8398 27.6351 11.6461 26.6236L11.5299 26.0203L10.8588 25.7749C9.0692 25.1027 7.70825 23.6194 7.20712 21.803L7.12214 21.5351C6.74347 20.1845 7.0559 18.7875 7.9432 17.7573C8.49058 17.1213 9.21042 16.682 9.99774 16.4792C9.77029 14.6403 9.86027 12.9041 10.2627 11.3006C10.9063 8.70936 12.216 6.36477 14.0531 4.52465C16.9649 1.60799 20.8341 0.00195312 24.9469 0.00195312C25.638 0.00195312 26.1966 0.562752 26.1966 1.25374C26.1966 1.94472 25.638 2.50552 24.9469 2.50552C21.5014 2.50552 18.2596 3.85119 15.8202 6.29467C14.3055 7.81308 13.222 9.7546 12.6871 11.9077C12.3285 13.3334 12.2785 14.9057 12.5347 16.5856L12.6709 17.4255C12.7296 17.7885 12.6259 18.1578 12.3885 18.437C12.151 18.7161 11.8023 18.8776 11.4362 18.8776C11.3837 18.8776 11.2437 18.8751 11.1912 18.8676C10.6713 18.7975 10.1764 18.9928 9.83403 19.3908C9.49035 19.7901 9.37413 20.3096 9.51535 20.8179L9.60158 21.0908C9.90276 22.1823 10.6926 23.0385 11.7236 23.4253L13.0508 23.9098C13.4632 24.0612 13.7669 24.4167 13.8506 24.8486L14.1006 26.1505C14.2593 26.9854 14.5092 27.8053 14.8466 28.5889C15.5552 30.245 16.6425 31.7184 17.9897 32.8513C18.5183 33.2956 18.5871 34.0855 18.1422 34.615C17.896 34.9092 17.5423 35.0619 17.1836 35.0619L17.1849 35.0632Z" fill="#585E48"/>
<path d="M41.0745 50.0003C40.5784 50.0003 40.1072 49.6998 39.9123 49.2091L38.9662 46.8157C38.7663 46.3088 38.2327 46.0421 37.8203 45.9082L35.2208 45.062C34.0199 44.6714 33.0238 44.0731 32.264 43.287L31.3305 42.3218C31.168 42.1541 30.9505 42.0126 30.6844 41.9L27.67 40.6219C26.9877 40.334 26.5203 39.7744 26.3891 39.0885C26.2329 38.2786 26.5653 37.3936 27.3001 36.6638C28.5073 35.4658 30.4557 34.9638 31.7404 35.5284L32.9526 36.0604C33.4812 36.2932 34.1836 36.3984 34.9709 36.3571L35.8544 36.3158C36.5343 36.302 37.1292 36.8177 37.1617 37.5075C37.1929 38.1985 36.6618 38.7843 35.9719 38.8168L35.0896 38.8581C33.9111 38.9145 32.8289 38.7392 31.9491 38.3537L30.7368 37.8217C30.5181 37.7253 29.6383 37.8667 29.0597 38.4426C29.0472 38.4538 29.036 38.4663 29.026 38.4776L31.6579 39.5942C32.2353 39.8383 32.7289 40.17 33.1263 40.5806L34.0586 41.5457C34.5335 42.0364 35.1846 42.4182 35.9944 42.6811L38.5951 43.5273C39.8985 43.9517 40.8571 44.7928 41.2907 45.8944L42.2368 48.2878C42.4905 48.9312 42.1768 49.6585 41.5344 49.9126C41.3832 49.9727 41.2282 50.0003 41.0745 50.0003Z" fill="#585E48"/>
<path d="M45.2936 46.6933L40.6296 35.2645C40.3747 34.6386 39.9973 34.2518 39.4449 34.049C37.909 33.4857 35.4695 34.4596 34.661 34.8815C34.0473 35.1982 33.2938 34.9641 32.9738 34.352C32.6552 33.7398 32.8901 32.985 33.5 32.6646C33.8961 32.4555 37.4541 30.6605 40.2972 31.6969C41.5082 32.1388 42.423 33.0451 42.9428 34.3182L47.6068 45.747L45.2923 46.6946L45.2936 46.6933Z" fill="#585E48"/>
<path d="M1.25003 47.569C0.930103 47.569 0.610175 47.4464 0.36648 47.2023C-0.12216 46.7141 -0.12216 45.9217 0.36648 45.4323L1.80241 43.9927C2.47476 43.3067 3.25458 42.7171 4.11564 42.2502C4.72175 41.9185 5.48158 42.1463 5.809 42.7534C6.13893 43.3606 5.91273 44.1204 5.30662 44.4496C4.66551 44.7976 4.08439 45.2357 3.57826 45.7527L2.13358 47.201C1.88989 47.4451 1.56996 47.569 1.25003 47.569Z" fill="#585E48"/>
<path d="M15.1703 38.8692C14.9479 38.8692 14.7229 38.8104 14.5192 38.6852C13.9306 38.3247 13.7457 37.5536 14.1068 36.964C14.2206 36.7775 14.3118 36.5909 14.4043 36.3932C14.4343 36.3306 14.4693 36.2705 14.508 36.2129L17.9072 31.3184C18.3009 30.7501 19.0807 30.6112 19.6481 31.0055C20.2155 31.3998 20.3542 32.1797 19.9605 32.748L16.6188 37.5573C16.5013 37.8014 16.3826 38.0355 16.2376 38.2696C16.0027 38.6551 15.5915 38.8692 15.1703 38.8692Z" fill="#585E48"/>
<path d="M8.92548 49.9997C8.77177 49.9997 8.6168 49.9709 8.46559 49.9109C7.82323 49.6567 7.50955 48.9295 7.76324 48.286L8.70928 45.8926C9.14418 44.7911 10.1015 43.9511 11.4049 43.5255L14.0043 42.6793C14.8142 42.4164 15.4665 42.0334 15.9414 41.5439L16.8724 40.5788C17.2724 40.167 17.766 39.8352 18.3434 39.5911L20.974 38.4758C20.9628 38.4645 20.9515 38.452 20.9403 38.4408C20.3579 37.8649 19.4744 37.7247 19.2632 37.8211L18.0509 38.3531C17.1711 38.7399 16.0914 38.9152 14.9091 38.8576L14.0281 38.8163C13.3382 38.7837 12.8059 38.1979 12.8384 37.5069C12.8708 36.8172 13.4707 36.2839 14.1456 36.3152L15.0279 36.3565C15.8189 36.3978 16.5175 36.2914 17.0474 36.0599L18.2596 35.5279C19.5431 34.9646 21.4914 35.4653 22.6999 36.6632C23.4347 37.393 23.7671 38.278 23.6109 39.0879C23.4797 39.7727 23.0123 40.3322 22.33 40.6214L19.3169 41.8994C19.0495 42.0121 18.8308 42.1561 18.667 42.3238L17.7373 43.2864C16.9762 44.0738 15.9801 44.6709 14.7779 45.0614L12.1798 45.9076C11.7673 46.0416 11.2337 46.3082 11.0338 46.8152L10.0877 49.2086C9.89402 49.7006 9.42287 49.9997 8.92548 49.9997Z" fill="#585E48"/>
<path d="M4.70645 46.6936L2.39197 45.746L7.05592 34.3172C7.5758 33.0442 8.4906 32.1379 9.70157 31.696C12.5422 30.657 16.1026 32.4546 16.4988 32.6636C17.1087 32.9841 17.3436 33.7389 17.0249 34.351C16.705 34.9631 15.9527 35.1972 15.3378 34.8805C14.528 34.4587 12.0873 33.4848 10.5539 34.0481C10.0015 34.2509 9.62409 34.6377 9.36915 35.2636L4.7052 46.6924L4.70645 46.6936Z" fill="#585E48"/>
</g>
<defs>
<clipPath id="clip0_359_894">
<rect width="50" height="50" fill="white"/>
</clipPath>
</defs>
</svg>
