<svg width="50" height="50" viewBox="0 0 50 50" fill="none" xmlns="http://www.w3.org/2000/svg">
<g clip-path="url(#clip0_639_316)">
<path d="M45.625 32.4998H4.375C1.9625 32.4998 0 30.5373 0 28.1249C0 25.7125 1.9625 23.75 4.375 23.75H45.625C48.0375 23.75 50 25.7125 50 28.1249C50 30.5373 48.0375 32.4998 45.625 32.4998ZM4.375 26.2499C3.34125 26.2499 2.5 27.0912 2.5 28.1249C2.5 29.1586 3.34125 29.9998 4.375 29.9998H45.625C46.6587 29.9998 47.5 29.1586 47.5 28.1249C47.5 27.0912 46.6587 26.2499 45.625 26.2499H4.375Z" fill="white"/>
<path d="M13.125 26.2517H6.875C4.4625 26.2517 2.5 24.2893 2.5 21.8768C2.5 19.4644 4.4625 17.502 6.875 17.502H13.125C15.5375 17.502 17.5 19.4644 17.5 21.8768C17.5 24.2893 15.5375 26.2517 13.125 26.2517ZM6.875 20.0019C5.84125 20.0019 5 20.8431 5 21.8768C5 22.9106 5.84125 23.7518 6.875 23.7518H13.125C14.1587 23.7518 15 22.9106 15 21.8768C15 20.8431 14.1587 20.0019 13.125 20.0019H6.875Z" fill="white"/>
<path d="M5 49.9995C4.30875 49.9995 3.75 49.4408 3.75 48.7495V31.25C3.75 30.5587 4.30875 30 5 30C5.69125 30 6.25 30.5587 6.25 31.25V48.7495C6.25 49.4408 5.69125 49.9995 5 49.9995Z" fill="white"/>
<path d="M5.00007 42.5C4.68007 42.5 4.36007 42.3775 4.11632 42.1338C3.62757 41.645 3.62757 40.855 4.11632 40.3663L14.1163 30.3666C14.6051 29.8778 15.3951 29.8778 15.8838 30.3666C16.3726 30.8553 16.3726 31.6453 15.8838 32.134L5.88382 42.1338C5.64007 42.3775 5.32007 42.5 5.00007 42.5Z" fill="white"/>
<path d="M45 49.9995C44.3088 49.9995 43.75 49.4408 43.75 48.7495V31.25C43.75 30.5587 44.3088 30 45 30C45.6912 30 46.25 30.5587 46.25 31.25V48.7495C46.25 49.4408 45.6912 49.9995 45 49.9995Z" fill="white"/>
<path d="M45.0001 42.5C44.6801 42.5 44.3601 42.3775 44.1163 42.1338L34.1163 32.134C33.6276 31.6453 33.6276 30.8553 34.1163 30.3666C34.6051 29.8778 35.3951 29.8778 35.8838 30.3666L45.8838 40.3663C46.3726 40.855 46.3726 41.645 45.8838 42.1338C45.6401 42.3775 45.3201 42.5 45.0001 42.5Z" fill="white"/>
<path d="M48.75 21.251C48.0588 21.251 47.5 20.691 47.5 20.001V3.09768L45.5588 3.87391C43.58 4.66514 41.3488 4.5739 39.44 3.61892C38.1688 2.98269 36.6875 2.92144 35.3675 3.44893L34.025 3.98641C32.2325 4.70139 30.26 4.70139 28.4738 3.98641L26.8475 3.33518C25.6563 2.85894 24.3425 2.85894 23.1513 3.33518L21.525 3.98641C19.735 4.70264 17.7625 4.70264 15.9738 3.98641L14.6313 3.45017C13.31 2.92144 11.8288 2.98394 10.5588 3.61892C8.65128 4.57265 6.41878 4.66514 4.44003 3.87266L2.49878 3.09643V16.2499C2.49878 16.9398 1.94003 17.4998 1.24878 17.4998C0.557529 17.4998 -0.0012207 16.9398 -0.0012207 16.2499V1.25148C2.9297e-05 0.83649 0.206279 0.449 0.548779 0.216506C0.893779 -0.0172384 1.33253 -0.0622373 1.71378 0.0902589L5.36878 1.55147C6.68753 2.08021 8.17128 2.01771 9.44128 1.38273C11.3488 0.429 13.5813 0.336503 15.56 1.12898L16.9025 1.66522C18.0938 2.14271 19.4075 2.14146 20.5988 1.66522L22.225 1.01399C24.015 0.297754 25.9875 0.297754 27.7763 1.01399L29.4025 1.66522C30.5938 2.14146 31.9075 2.14146 33.0988 1.66522L34.4413 1.12773C36.42 0.336503 38.6513 0.42775 40.56 1.38273C41.8313 2.01771 43.3113 2.07896 44.6325 1.55272L48.2875 0.0902589C48.67 -0.0647373 49.1075 -0.0184884 49.4525 0.216506C49.795 0.449 50.0013 0.83649 50.0013 1.25148V20.001C50.0013 20.691 49.4413 21.251 48.75 21.251Z" fill="white"/>
<path d="M7.5 12.5017C6.80875 12.5017 6.25 11.9417 6.25 11.2517V3.75192C6.25 3.06194 6.80875 2.50195 7.5 2.50195C8.19125 2.50195 8.75 3.06194 8.75 3.75192V11.2517C8.75 11.9417 8.19125 12.5017 7.5 12.5017Z" fill="white"/>
<path d="M18.75 12.5017C18.0588 12.5017 17.5 11.9417 17.5 11.2517V3.75192C17.5 3.06194 18.0588 2.50195 18.75 2.50195C19.4412 2.50195 20 3.06194 20 3.75192V11.2517C20 11.9417 19.4412 12.5017 18.75 12.5017Z" fill="white"/>
<path d="M31.25 12.5017C30.5588 12.5017 30 11.9417 30 11.2517V3.75192C30 3.06194 30.5588 2.50195 31.25 2.50195C31.9412 2.50195 32.5 3.06194 32.5 3.75192V11.2517C32.5 11.9417 31.9412 12.5017 31.25 12.5017Z" fill="white"/>
<path d="M42.5 12.5017C41.8088 12.5017 41.25 11.9417 41.25 11.2517V3.75192C41.25 3.06194 41.8088 2.50195 42.5 2.50195C43.1912 2.50195 43.75 3.06194 43.75 3.75192V11.2517C43.75 11.9417 43.1912 12.5017 42.5 12.5017Z" fill="white"/>
</g>
<defs>
<clipPath id="clip0_639_316">
<rect width="50" height="50" fill="white"/>
</clipPath>
</defs>
</svg>
