<svg width="50" height="50" viewBox="0 0 50 50" fill="none" xmlns="http://www.w3.org/2000/svg">
<g clip-path="url(#clip0_265_18693)">
<path d="M45.625 32.5005H4.375C1.9625 32.5005 0 30.5381 0 28.1256C0 25.7132 1.9625 23.7507 4.375 23.7507H45.625C48.0375 23.7507 50 25.7132 50 28.1256C50 30.5381 48.0375 32.5005 45.625 32.5005ZM4.375 26.2507C3.34125 26.2507 2.5 27.0919 2.5 28.1256C2.5 29.1593 3.34125 30.0006 4.375 30.0006H45.625C46.6587 30.0006 47.5 29.1593 47.5 28.1256C47.5 27.0919 46.6587 26.2507 45.625 26.2507H4.375Z" fill="#585E48"/>
<path d="M13.125 26.2505H6.875C4.4625 26.2505 2.5 24.2881 2.5 21.8756C2.5 19.4632 4.4625 17.5007 6.875 17.5007H13.125C15.5375 17.5007 17.5 19.4632 17.5 21.8756C17.5 24.2881 15.5375 26.2505 13.125 26.2505ZM6.875 20.0007C5.84125 20.0007 5 20.8419 5 21.8756C5 22.9093 5.84125 23.7506 6.875 23.7506H13.125C14.1587 23.7506 15 22.9093 15 21.8756C15 20.8419 14.1587 20.0007 13.125 20.0007H6.875Z" fill="#585E48"/>
<path d="M5 50C4.30875 50 3.75 49.4413 3.75 48.75V31.2505C3.75 30.5592 4.30875 30.0005 5 30.0005C5.69125 30.0005 6.25 30.5592 6.25 31.2505V48.75C6.25 49.4413 5.69125 50 5 50Z" fill="#585E48"/>
<path d="M5.00001 42.5002C4.68001 42.5002 4.36001 42.3777 4.11626 42.134C3.62751 41.6453 3.62751 40.8553 4.11626 40.3665L14.1163 30.3668C14.605 29.8781 15.395 29.8781 15.8838 30.3668C16.3725 30.8555 16.3725 31.6455 15.8838 32.1343L5.88376 42.134C5.64001 42.3777 5.32001 42.5002 5.00001 42.5002Z" fill="#585E48"/>
<path d="M45 50C44.3088 50 43.75 49.4413 43.75 48.75V31.2505C43.75 30.5592 44.3088 30.0005 45 30.0005C45.6912 30.0005 46.25 30.5592 46.25 31.2505V48.75C46.25 49.4413 45.6912 50 45 50Z" fill="#585E48"/>
<path d="M45 42.5002C44.68 42.5002 44.36 42.3777 44.1163 42.134L34.1163 32.1343C33.6275 31.6455 33.6275 30.8555 34.1163 30.3668C34.605 29.8781 35.395 29.8781 35.8838 30.3668L45.8838 40.3665C46.3725 40.8553 46.3725 41.6453 45.8838 42.134C45.64 42.3777 45.32 42.5002 45 42.5002Z" fill="#585E48"/>
<path d="M48.75 21.2507C48.0588 21.2507 47.5 20.6908 47.5 20.0008V3.09744L45.5588 3.87367C43.58 4.6649 41.3488 4.57365 39.44 3.61868C38.1688 2.98244 36.6875 2.92119 35.3675 3.44868L34.025 3.98617C32.2325 4.70115 30.26 4.70115 28.4738 3.98617L26.8475 3.33493C25.6563 2.8587 24.3425 2.8587 23.1513 3.33493L21.525 3.98617C19.735 4.7024 17.7625 4.7024 15.9738 3.98617L14.6313 3.44993C13.31 2.92119 11.8288 2.98369 10.5588 3.61868C8.65128 4.5724 6.41878 4.6649 4.44003 3.87242L2.49878 3.09619V16.2496C2.49878 16.9396 1.94003 17.4996 1.24878 17.4996C0.557529 17.4996 -0.0012207 16.9396 -0.0012207 16.2496V1.25124C2.9297e-05 0.836246 0.206279 0.448756 0.548779 0.216262C0.893779 -0.0174826 1.33253 -0.0624815 1.71378 0.0900147L5.36878 1.55123C6.68753 2.07997 8.17128 2.01747 9.44128 1.38248C11.3488 0.428756 13.5813 0.336259 15.56 1.12874L16.9025 1.66498C18.0938 2.14246 19.4075 2.14121 20.5988 1.66498L22.225 1.01374C24.015 0.29751 25.9875 0.29751 27.7763 1.01374L29.4025 1.66498C30.5938 2.14121 31.9075 2.14121 33.0988 1.66498L34.4413 1.12749C36.42 0.336259 38.6513 0.427506 40.56 1.38248C41.8313 2.01747 43.3113 2.07871 44.6325 1.55248L48.2875 0.0900147C48.67 -0.0649814 49.1075 -0.0187325 49.4525 0.216262C49.795 0.448756 50.0013 0.836246 50.0013 1.25124V20.0008C50.0013 20.6908 49.4413 21.2507 48.75 21.2507Z" fill="#585E48"/>
<path d="M7.5 12.501C6.80875 12.501 6.25 11.941 6.25 11.251V3.75119C6.25 3.06121 6.80875 2.50122 7.5 2.50122C8.19125 2.50122 8.75 3.06121 8.75 3.75119V11.251C8.75 11.941 8.19125 12.501 7.5 12.501Z" fill="#585E48"/>
<path d="M18.75 12.501C18.0588 12.501 17.5 11.941 17.5 11.251V3.75119C17.5 3.06121 18.0588 2.50122 18.75 2.50122C19.4412 2.50122 20 3.06121 20 3.75119V11.251C20 11.941 19.4412 12.501 18.75 12.501Z" fill="#585E48"/>
<path d="M31.25 12.501C30.5588 12.501 30 11.941 30 11.251V3.75119C30 3.06121 30.5588 2.50122 31.25 2.50122C31.9412 2.50122 32.5 3.06121 32.5 3.75119V11.251C32.5 11.941 31.9412 12.501 31.25 12.501Z" fill="#585E48"/>
<path d="M42.5 12.501C41.8088 12.501 41.25 11.941 41.25 11.251V3.75119C41.25 3.06121 41.8088 2.50122 42.5 2.50122C43.1912 2.50122 43.75 3.06121 43.75 3.75119V11.251C43.75 11.941 43.1912 12.501 42.5 12.501Z" fill="#585E48"/>
</g>
<defs>
<clipPath id="clip0_265_18693">
<rect width="50" height="50" fill="white"/>
</clipPath>
</defs>
</svg>
