<svg width="50" height="50" viewBox="0 0 50 50" fill="none" xmlns="http://www.w3.org/2000/svg">
<g clip-path="url(#clip0_265_17965)">
<path d="M33.1271 49.7326C32.4189 49.7326 31.8379 49.1827 31.8275 48.4947L31.7509 43.2218C31.821 41.2532 32.4098 39.3964 33.4559 37.7919C33.89 37.1265 34.2227 36.4046 34.4437 35.6451C34.6386 34.9797 35.3573 34.5842 36.0474 34.7788C36.7388 34.9659 37.1403 35.6601 36.9454 36.3268C36.6556 37.3173 36.2215 38.2602 35.6549 39.129C34.853 40.3581 34.4008 41.783 34.3488 43.2481L34.4268 48.4596C34.4372 49.1526 33.8627 49.7226 33.1453 49.7326H33.1271Z" fill="#585E48"/>
<path d="M15.52 37.3889C15.1457 37.3889 14.774 37.2332 14.518 36.9332L11.1962 33.0475C10.2734 31.9678 9.46379 30.7865 8.78929 29.5373L6.0497 24.4552C5.43759 23.56 5.27773 22.4627 5.61173 21.4295C5.94963 20.3837 6.745 19.5689 7.79248 19.1923C9.14928 18.7064 10.6568 19.0642 11.6354 20.1088L15.4979 24.2304C15.6356 23.9856 15.7981 23.7408 15.9917 23.501C16.3283 23.0993 16.4388 22.7239 16.3751 22.356L13.8279 7.38968C13.4861 5.37843 14.8065 3.42368 16.7728 3.03072C17.7683 2.83236 18.7768 3.02067 19.6164 3.56178C20.4624 4.10916 21.0589 4.98296 21.2526 5.96222L21.3721 6.57112L21.4735 3.7614C21.5489 1.68863 23.1916 0.0364431 25.2125 -0.0012207C26.2652 -0.0012207 27.2347 0.367885 27.969 1.08978C28.7163 1.82296 29.123 2.83863 29.0853 3.8769L28.9242 8.33253L29.908 4.93525C30.4356 3.03072 32.4059 1.83803 34.3735 2.23852C35.408 2.44693 36.2891 3.04578 36.8505 3.92712C37.4198 4.81975 37.5835 5.91451 37.3015 6.93269L36.6751 9.09585C37.0013 8.87238 37.3691 8.70666 37.7642 8.60873C38.6882 8.38024 39.6707 8.55475 40.4557 9.08957C41.6201 9.88303 42.1426 11.318 41.7553 12.6601L39.017 22.1564C39.0014 22.2104 38.9819 22.2631 38.9598 22.3146C38.5803 23.1671 38.3425 24.0685 38.2502 24.9975C38.1813 25.688 37.5523 26.1965 36.8323 26.1274C36.1175 26.0609 35.5938 25.4482 35.6627 24.7577C35.777 23.5989 36.0708 22.4703 36.536 21.4031L39.2509 11.9847C39.3419 11.6683 39.2223 11.3205 38.9572 11.141C38.735 10.9891 38.5166 11.0129 38.4062 11.0406C38.2879 11.0694 38.0683 11.1586 37.9331 11.4222L33.391 20.346C33.0946 20.9273 32.389 21.1985 31.7612 20.965C31.1348 20.7327 30.793 20.0786 30.9737 19.4534L34.7945 6.26855C34.8907 5.9233 34.8361 5.5542 34.6373 5.24284C34.454 4.95534 34.1733 4.762 33.8445 4.69546C33.2142 4.57117 32.5891 4.96538 32.4137 5.59688L28.4966 19.1282C28.3199 19.7397 27.6883 20.1213 27.0462 20.0309C26.3964 19.933 25.9234 19.3818 25.9468 18.7466L26.4874 3.78776C26.5004 3.42995 26.3692 3.096 26.117 2.84868C25.887 2.62269 25.5647 2.48961 25.2619 2.50845C24.642 2.51975 24.0974 3.13367 24.0701 3.84802L23.5646 17.8351C23.5412 18.4741 23.0252 18.9939 22.365 19.0429C21.71 19.083 21.1135 18.6549 20.9888 18.0259L18.6975 6.43176C18.6339 6.10534 18.4454 5.82663 18.1699 5.64835C17.9892 5.5316 17.6916 5.40856 17.2979 5.48891C16.6896 5.61069 16.2751 6.29366 16.392 6.98165L18.9393 21.948C19.1212 23.0189 18.808 24.1287 18.0802 24.9938C17.5526 25.6491 17.4161 26.3371 17.3875 26.8079C17.3576 27.3126 17.0158 27.752 16.522 27.9202C16.0294 28.0872 15.4784 27.9541 15.1262 27.5787L9.70551 21.7936C9.44429 21.5149 9.04661 21.4157 8.69572 21.5463C8.4072 21.6492 8.18627 21.8802 8.0901 22.179C7.98743 22.4941 8.03941 22.8281 8.23045 23.0942C8.26165 23.1382 8.29154 23.1846 8.31623 23.2323L11.0909 28.3785C11.6809 29.472 12.3892 30.5052 13.1963 31.4493L16.5181 35.335C16.9755 35.8698 16.8976 36.6608 16.3439 37.1027C16.1009 37.2948 15.8085 37.3902 15.5174 37.3902L15.52 37.3889Z" fill="#585E48"/>
<path d="M18.9536 49.8481C18.244 49.8481 17.6644 49.2983 17.654 48.6103L17.6046 45.0673C17.5955 44.3731 18.1699 43.8044 18.8873 43.7943H18.9055C19.6151 43.7943 20.1947 44.3442 20.2051 45.0322L20.2545 48.5751C20.2636 49.2694 19.6892 49.8381 18.9718 49.8481H18.9536Z" fill="#585E48"/>
<path d="M16.3569 26.7075C16.0346 26.7075 15.7123 26.592 15.4615 26.361C14.9417 25.8826 14.9209 25.0879 15.416 24.5857C15.9099 24.0836 16.7416 24.0572 17.2589 24.5355C17.7787 25.0139 17.8047 25.8023 17.3109 26.3045L17.2979 26.3183C17.0431 26.5769 16.7 26.7075 16.3569 26.7075Z" fill="#585E48"/>
<path d="M9.50404 50C9.34549 50 9.18304 49.9724 9.02578 49.9121C8.35908 49.6572 8.03158 48.9278 8.2954 48.2825L9.40397 45.577C9.89522 44.378 10.9817 43.459 12.462 42.9932L15.5096 42.0366C16.4843 41.7303 17.2705 41.2846 17.845 40.7121L18.9392 39.6211C19.3876 39.1741 19.9477 38.8101 20.604 38.5426L23.8947 37.198C23.8492 37.1365 23.7868 37.0637 23.7023 36.9808C23.0252 36.3318 21.9335 36.0857 21.554 36.2477L20.1349 36.849C19.1264 37.2759 17.8839 37.4667 16.5297 37.4064L15.4953 37.36C14.7779 37.3286 14.2242 36.7398 14.2567 36.0468C14.2905 35.355 14.9286 34.8189 15.6148 34.8516L16.6506 34.898C17.6058 34.9457 18.448 34.8202 19.0926 34.549L20.5131 33.9477C21.9595 33.3362 24.1637 33.8874 25.5335 35.1981C26.3548 35.984 26.7265 36.9306 26.555 37.7931C26.412 38.515 25.9 39.1051 25.1514 39.4114L21.619 40.8539C21.2863 40.9895 21.0134 41.1628 20.8068 41.3674L19.7125 42.4584C18.8405 43.3272 17.6968 43.9901 16.314 44.4232L13.2677 45.3799C12.7518 45.5418 12.0812 45.8695 11.8225 46.4997L10.714 49.2053C10.5125 49.6987 10.0226 49.9987 9.50534 49.9987L9.50404 50Z" fill="#585E48"/>
<path d="M2.40688 45.6762L0 44.7246L5.47137 31.8059C6.32781 29.7795 8.03161 28.6672 10.3995 28.5906C11.1507 28.5304 11.7186 29.1091 11.742 29.8034C11.7667 30.4964 11.204 31.0764 10.4866 31.099C9.16617 31.1417 8.33702 31.669 7.87695 32.755L2.40558 45.6749L2.40688 45.6762Z" fill="#585E48"/>
<path d="M42.7677 38.7598C42.2439 38.7598 41.7514 38.4522 41.5525 37.9513L40.479 35.2332C40.2295 34.598 39.5628 34.2653 39.0495 34.097L36.0162 33.1027C34.6386 32.6507 33.504 31.9766 32.6437 31.0952L31.5637 29.9917C31.361 29.7845 31.0906 29.6088 30.7579 29.4682L27.2451 27.9804C26.5004 27.6653 25.9975 27.0702 25.8623 26.3471C25.7011 25.4821 26.0858 24.5405 26.9176 23.7633C28.3069 22.4677 30.5188 21.9467 31.9536 22.5744L33.3663 23.1921C34.007 23.4733 34.8491 23.6064 35.8017 23.5713L36.8388 23.5374C37.5952 23.4959 38.1579 24.0571 38.1826 24.7489C38.2073 25.4406 37.6459 26.0232 36.9285 26.047L35.8927 26.0809C34.545 26.1261 33.2987 25.919 32.2954 25.4796L30.8827 24.8619C30.5552 24.7175 29.4609 24.8832 28.7254 25.5687C28.6396 25.649 28.5759 25.7219 28.5304 25.7821L31.8028 27.1681C32.4552 27.4456 33.0115 27.8147 33.4546 28.2679L34.5346 29.3715C35.1012 29.9503 35.881 30.4047 36.8531 30.7236L39.8864 31.7179C41.3602 32.2013 42.4337 33.1316 42.9106 34.3381L43.9841 37.0562C44.2401 37.7052 43.9035 38.4296 43.2329 38.677C43.0809 38.7335 42.9236 38.7586 42.7703 38.7586L42.7677 38.7598Z" fill="#585E48"/>
<path d="M47.5827 34.5215L42.2803 21.5375C41.8345 20.444 41.0118 19.9079 39.6914 19.8489C38.974 19.8162 38.4204 19.2287 38.4529 18.5369C38.4867 17.8452 39.1209 17.3304 39.811 17.3405C42.1776 17.4459 43.8671 18.5796 44.6975 20.616L49.9987 33.5987L47.5814 34.5202L47.5827 34.5215Z" fill="#585E48"/>
</g>
<defs>
<clipPath id="clip0_265_17965">
<rect width="50" height="50" fill="white"/>
</clipPath>
</defs>
</svg>
