<svg width="50" height="50" viewBox="0 0 50 50" fill="none" xmlns="http://www.w3.org/2000/svg">
<g clip-path="url(#clip0_928_178)">
<path d="M19.9083 13.4492C12.649 13.4492 7.17383 10.5589 7.17383 6.72459C7.17383 2.89023 12.649 0 19.9083 0C27.1676 0 32.6428 2.89023 32.6428 6.72459C32.6428 10.5589 27.1688 13.4492 19.9083 13.4492ZM19.9083 2.68984C13.6672 2.68984 9.68481 5.07975 9.68481 6.72459C9.68481 8.36942 13.6672 10.7593 19.9083 10.7593C26.1493 10.7593 30.1318 8.36942 30.1318 6.72459C30.1318 5.07975 26.1493 2.68984 19.9083 2.68984Z" fill="#585E48"/>
<path d="M19.9094 28.2417C10.1956 28.2417 2.87109 24.484 2.87109 19.4998C2.87109 14.5155 10.1956 10.7578 19.9094 10.7578C29.6231 10.7578 36.9477 14.5155 36.9477 19.4998C36.9477 24.484 29.6231 28.2417 19.9094 28.2417ZM19.9094 13.4476C11.3482 13.4476 5.38208 16.6378 5.38208 19.4998C5.38208 22.3618 11.3482 25.5519 19.9094 25.5519C28.4706 25.5519 34.4367 22.3618 34.4367 19.4998C34.4367 16.6378 28.4706 13.4476 19.9094 13.4476Z" fill="#585E48"/>
<path d="M20.7516 23.6534C20.0573 23.6534 19.4961 23.0509 19.4961 22.3085C19.4961 21.5661 20.0573 20.9636 20.7516 20.9636C25.5626 20.9636 28.2971 19.6402 28.6901 18.9301C29.0454 18.2913 29.815 18.0841 30.4113 18.4621C31.0077 18.8427 31.2023 19.6671 30.8483 20.3059C29.4748 22.7752 24.5507 23.6534 20.7516 23.6534Z" fill="#585E48"/>
<path d="M19.9083 45.7285C8.74451 45.7285 0 41.2983 0 35.6416C0 29.9848 8.74576 25.5547 19.9083 25.5547C26.0264 25.5547 31.6849 26.8888 35.4325 29.2156C36.0339 29.5881 36.2385 30.4112 35.8895 31.0541C35.5405 31.6956 34.7709 31.9148 34.1745 31.5436C30.8475 29.4778 25.5141 28.2459 19.9083 28.2459C9.65599 28.2459 2.51099 32.1434 2.51099 35.6429C2.51099 39.1424 9.65599 43.04 19.9083 43.04C22.8776 43.04 25.818 42.697 28.4105 42.0461C29.0835 41.8753 29.7615 42.3258 29.9184 43.0494C30.0766 43.7729 29.6572 44.4965 28.9818 44.666C26.2046 45.3626 23.0672 45.7311 19.9071 45.7311L19.9083 45.7285Z" fill="#585E48"/>
<path d="M18.0246 41.1358C12.6096 41.1358 7.86513 39.9455 5.94046 38.1057C5.4232 37.6107 5.37926 36.7607 5.84002 36.2066C6.30204 35.6525 7.09803 35.6055 7.61278 36.099C8.83312 37.2664 12.8005 38.4473 18.0246 38.4473C18.7189 38.4473 19.2801 39.0498 19.2801 39.7922C19.2801 40.5346 18.7189 41.1358 18.0246 41.1358Z" fill="#585E48"/>
<path d="M45.7355 49.9868C45.6577 49.9868 45.5798 49.98 45.5007 49.9626L42.3746 49.3304C40.8818 49.0359 39.6087 48.0339 38.8881 46.5841C38.5616 45.9291 38.7939 45.1141 39.4066 44.7644C40.0168 44.4161 40.7801 44.6649 41.1053 45.3199C41.4581 46.0314 42.1059 46.5424 42.8366 46.6877L44.7387 47.0723L45.104 45.0388C45.227 44.3314 45.0902 43.6226 44.7173 43.0497C44.3218 42.4404 44.4599 41.6025 45.0287 41.1762C45.6012 40.7499 46.3808 40.9005 46.7776 41.5097C47.5372 42.6771 47.8196 44.1068 47.5723 45.5378L46.9697 48.896C46.8529 49.5402 46.3269 49.9868 45.738 49.9868H45.7355Z" fill="#585E48"/>
<path d="M34.2595 49.9986C34.0109 49.9986 33.7648 49.9193 33.5552 49.7673C33.2789 49.5669 33.0894 49.2589 33.0253 48.9079L32.424 45.5591C32.1779 44.1321 32.4516 42.7052 33.1973 41.5337C33.5891 40.9191 34.3687 40.7618 34.9425 41.18C35.515 41.5983 35.6631 42.4348 35.2727 43.0495C34.9036 43.6291 34.7692 44.3433 34.8923 45.0588L35.2551 47.0775L37.1484 46.6861C37.9004 46.5395 38.5307 46.0406 38.8897 45.317C39.1735 44.7683 39.2601 44.1631 39.1521 43.5471L38.7642 41.3898C38.6336 40.6609 39.0793 39.9548 39.7611 39.8149C40.4365 39.6697 41.0982 40.1512 41.2312 40.8815L41.6204 43.0468C41.8339 44.2733 41.6468 45.5335 41.0969 46.6014C40.3838 48.0364 39.1107 49.0384 37.6129 49.3316L34.4993 49.9744C34.4202 49.9906 34.3411 49.9986 34.262 49.9986H34.2595Z" fill="#585E48"/>
<path d="M35.7764 44.0034C35.0696 44.0034 34.364 43.8407 33.7099 43.5179C32.3866 42.8938 31.3784 41.6686 30.9604 40.1663L30.0451 36.8995C29.8467 36.1881 30.2234 35.439 30.8863 35.2251L33.9371 34.2433C35.003 33.9098 36.1342 33.9515 37.1361 34.3523C37.6283 34.5486 37.9522 35.0516 37.9522 35.6125C37.9522 36.3549 37.391 36.9641 36.6967 36.9641C36.5046 36.9641 36.3201 36.9184 36.1568 36.835C35.6798 36.6696 35.1499 36.6669 34.6502 36.8229L32.811 37.4146L33.3659 39.3957C33.5743 40.1435 34.0752 40.7514 34.7419 41.0661C35.3031 41.3432 35.9196 41.3862 36.4921 41.1992L38.3489 40.6008L38.2485 40.2457C38.089 39.7696 38.1845 39.2168 38.5385 38.8376C39.0307 38.3104 39.8191 38.3063 40.3075 38.8308C40.4506 38.9855 40.5712 39.1872 40.6314 39.3957L41.1135 41.1199C41.3094 41.83 40.9327 42.5778 40.2711 42.7916L37.2202 43.7734C36.7494 43.9281 36.2623 44.0047 35.7777 44.0047L35.7764 44.0034Z" fill="#585E48"/>
<path d="M39.4178 41.1258C39.0964 41.1258 38.775 40.994 38.5302 40.7317L36.8855 38.9699C36.0707 38.1145 35.5685 36.9996 35.4455 35.7542C35.2697 34.1362 35.7945 32.5317 36.8855 31.3643L39.1454 28.9448C39.3814 28.692 39.6991 28.5508 40.033 28.5508C40.367 28.5508 40.6871 28.6933 40.9219 28.9475L43.1692 31.3684C44.2289 32.5035 44.76 34.0865 44.6219 35.7071C44.5578 36.4468 43.9564 36.9901 43.2571 36.9256C42.5666 36.8583 42.0581 36.2034 42.1209 35.465C42.1912 34.6406 41.9251 33.8403 41.3915 33.2688L40.0293 31.8014L38.6595 33.2688C38.1134 33.8524 37.851 34.65 37.9389 35.4583C38.0016 36.0864 38.2477 36.6364 38.6495 37.0587L40.303 38.83C40.7939 39.3558 40.7939 40.2072 40.303 40.7317C40.0581 40.994 39.7367 41.1258 39.4153 41.1258H39.4178Z" fill="#585E48"/>
<path d="M44.2275 43.9948C43.7403 43.9948 43.2519 43.9182 42.7736 43.7635L39.724 42.7817C39.4051 42.6795 39.1377 42.4455 38.9795 42.1308C38.8213 41.8174 38.7874 41.4489 38.8841 41.106L39.8018 37.8405C40.5978 35.0014 43.4076 33.3861 46.0567 34.2402L49.105 35.2219C49.7692 35.4358 50.1459 36.1862 49.9462 36.8977L49.0297 40.1632C48.6418 41.539 47.7792 42.6714 46.5966 43.352C45.8546 43.7783 45.0448 43.9962 44.2262 43.9962L44.2275 43.9948ZM41.6499 40.5935L43.4968 41.188C44.1383 41.3938 44.8188 41.3211 45.4076 40.9822C46.0002 40.642 46.4308 40.0757 46.6242 39.3872L47.1791 37.4101L45.3335 36.8157C44.009 36.3893 42.6041 37.1963 42.2061 38.6152L41.6499 40.5935Z" fill="#585E48"/>
<path d="M19.9131 9.10326C18.9991 9.10326 18.0851 9.01584 17.1736 8.83966C16.4919 8.70786 16.0386 8.0085 16.1604 7.27686C16.2834 6.54657 16.93 6.06106 17.6193 6.19152C19.1447 6.4874 20.6827 6.48605 22.1943 6.19152C23.382 5.96019 24.5358 5.54865 25.6243 4.9663C26.2408 4.6341 26.9978 4.90443 27.3079 5.56882C27.618 6.23321 27.3657 7.0415 26.7455 7.37235C25.446 8.06902 24.065 8.56126 22.6425 8.83697C21.7386 9.01315 20.8271 9.10057 19.9118 9.10057L19.9131 9.10326Z" fill="#585E48"/>
</g>
<defs>
<clipPath id="clip0_928_178">
<rect width="50" height="50" fill="white"/>
</clipPath>
</defs>
</svg>
