<svg width="60" height="60" viewBox="0 0 60 60" fill="none" xmlns="http://www.w3.org/2000/svg">
<g clip-path="url(#clip0_643_252)">
<path d="M58.4978 28.3798C57.8246 28.3798 57.2145 27.9238 57.0435 27.2413L54.9416 18.7618C54.4244 16.6753 52.8697 14.9503 50.7813 14.1478L48.7124 13.3528C48.4216 13.2418 48.1187 13.1473 47.8129 13.0738L42.4007 11.7733C38.963 10.9483 36.3634 8.23178 35.7772 4.85378L35.2405 1.75928C35.0996 0.943281 35.6453 0.166281 36.4608 0.0252808C37.2734 -0.112719 38.053 0.431781 38.1939 1.24628L38.7307 4.34078C39.1115 6.53828 40.8266 8.31128 43.1009 8.85728L48.5115 10.1563C48.9448 10.2598 49.3706 10.3918 49.7859 10.5508L51.8578 11.3473C54.8607 12.5008 57.102 15.0028 57.8546 18.0388L59.9565 26.5183C60.1559 27.3223 59.6657 28.1353 58.8621 28.3348C58.7407 28.3648 58.6192 28.3783 58.4993 28.3783L58.4978 28.3798Z" fill="#585E48"/>
<path d="M1.50071 28.5018C1.38077 28.5018 1.25933 28.4883 1.1379 28.4583C0.334319 28.2588 -0.155923 27.4458 0.0434719 26.6418L2.17535 18.0408C2.92796 15.0048 5.16928 12.5028 8.1722 11.3493L10.2411 10.5543C10.6579 10.3953 11.0837 10.2618 11.5184 10.1583L16.9276 8.85928C19.2004 8.31328 20.9155 6.54028 21.2978 4.34128L21.8345 1.24828C21.977 0.432278 22.752 -0.110722 23.5676 0.0272779C24.3832 0.168278 24.9304 0.945278 24.788 1.76128L24.2513 4.85578C23.6636 8.23378 21.0654 10.9503 17.6277 11.7768L12.2171 13.0758C11.9082 13.1493 11.6069 13.2438 11.3131 13.3563L9.24564 14.1513C7.15724 14.9538 5.60105 16.6788 5.08532 18.7653L2.95344 27.3663C2.78403 28.0488 2.17235 28.5048 1.49921 28.5048L1.50071 28.5018Z" fill="#585E48"/>
<path d="M6.42264 52.2554C6.25323 52.2554 6.08082 52.2254 5.91141 52.1654C5.13332 51.8834 4.73003 51.0224 5.01338 50.2439L10.8108 34.2389C11.0927 33.4604 11.9547 33.0644 12.7313 33.3389C13.5094 33.6209 13.9127 34.4819 13.6294 35.2604L7.8319 51.2654C7.61151 51.8744 7.03582 52.2554 6.42264 52.2554Z" fill="#585E48"/>
<path d="M12.2231 60.0004C12.1047 60.0004 11.9832 59.9869 11.8633 59.9569C11.0597 59.7589 10.568 58.9459 10.7659 58.1419L12.5754 50.7904C13.6489 46.4269 13.3865 41.8939 11.8138 37.6834L9.14073 30.5269C8.85138 29.7499 9.24417 28.8874 10.0193 28.5964C10.7944 28.3039 11.6594 28.6999 11.9488 29.4754L14.6218 36.6334C16.4059 41.4109 16.7058 46.5544 15.4884 51.5074L13.6788 58.8589C13.5109 59.5429 12.8978 60.0004 12.2246 60.0004H12.2231Z" fill="#585E48"/>
<path d="M53.8847 52.2545C53.2715 52.2545 52.6958 51.875 52.4755 51.266L46.678 35.261C46.3962 34.481 46.7979 33.6215 47.576 33.3395C48.3526 33.0635 49.2147 33.461 49.4965 34.2395L55.294 50.2445C55.5758 51.0245 55.174 51.884 54.396 52.166C54.228 52.226 54.0541 52.256 53.8847 52.256V52.2545Z" fill="#585E48"/>
<path d="M48.0857 60.0006C47.4126 60.0006 46.7994 59.5431 46.6315 58.8591L44.8219 51.5076C43.6046 46.5546 43.9029 41.4126 45.687 36.6336L48.3616 29.4756C48.6509 28.6986 49.5205 28.3041 50.2911 28.5966C51.0661 28.8861 51.4604 29.7501 51.1696 30.5271L48.4965 37.6836C46.9253 41.8956 46.66 46.4286 47.7349 50.7906L49.5445 58.1421C49.7423 58.9461 49.2506 59.7591 48.447 59.9571C48.3256 59.9886 48.2042 60.0006 48.0857 60.0006Z" fill="#585E48"/>
<path d="M29.9078 24.0338C23.7415 24.0338 19.0925 21.4943 19.0925 18.1253C19.0925 14.7563 23.743 12.2168 29.9078 12.2168C36.0726 12.2168 40.7231 14.7563 40.7231 18.1253C40.7231 21.4943 36.0726 24.0338 29.9078 24.0338ZM29.9078 15.2168C25.2078 15.2168 22.0909 16.9673 22.0909 18.1253C22.0909 19.2833 25.2093 21.0338 29.9078 21.0338C34.6063 21.0338 37.7247 19.2833 37.7247 18.1253C37.7247 16.9673 34.6063 15.2168 29.9078 15.2168Z" fill="#585E48"/>
<path d="M29.9078 39.0338C23.7415 39.0338 19.0925 36.4943 19.0925 33.1253C19.0925 29.7563 23.743 27.2168 29.9078 27.2168C36.0726 27.2168 40.7231 29.7563 40.7231 33.1253C40.7231 36.4943 36.0726 39.0338 29.9078 39.0338ZM29.9078 30.2168C25.2078 30.2168 22.0909 31.9673 22.0909 33.1253C22.0909 34.2833 25.2093 36.0338 29.9078 36.0338C34.6063 36.0338 37.7247 34.2833 37.7247 33.1253C37.7247 31.9673 34.6063 30.2168 29.9078 30.2168Z" fill="#585E48"/>
<path d="M29.9078 54.0338C23.7415 54.0338 19.0925 51.4943 19.0925 48.1253C19.0925 44.7563 23.743 42.2168 29.9078 42.2168C36.0726 42.2168 40.7231 44.7563 40.7231 48.1253C40.7231 51.4943 36.0726 54.0338 29.9078 54.0338ZM29.9078 45.2153C25.2078 45.2153 22.0909 46.9658 22.0909 48.1238C22.0909 49.2818 25.2093 51.0323 29.9078 51.0323C34.6063 51.0323 37.7247 49.2818 37.7247 48.1238C37.7247 46.9658 34.6063 45.2153 29.9078 45.2153Z" fill="#585E48"/>
</g>
<defs>
<clipPath id="clip0_643_252">
<rect width="60" height="60" fill="white"/>
</clipPath>
</defs>
</svg>
