<svg width="50" height="50" viewBox="0 0 50 50" fill="none" xmlns="http://www.w3.org/2000/svg">
<g clip-path="url(#clip0_265_17761)">
<path d="M47.5 43.75H2.5C1.12125 43.75 0 42.6287 0 41.25V38.75C0 37.3712 1.12125 36.25 2.5 36.25H47.5C48.8787 36.25 50 37.3712 50 38.75V41.25C50 42.6287 48.8787 43.75 47.5 43.75ZM2.5 38.75V41.25H47.5013V38.75H2.5Z" fill="#585E48"/>
<path d="M7.5 50H5C3.62125 50 2.5 48.8787 2.5 47.5V42.5C2.5 41.8088 3.06 41.25 3.75 41.25H8.75C9.44 41.25 10 41.8088 10 42.5V47.5C10 48.8787 8.87875 50 7.5 50ZM5 43.75V47.5H7.50125V43.75H5Z" fill="#585E48"/>
<path d="M45 50H42.5C41.1212 50 40 48.8787 40 47.5V42.5C40 41.8088 40.56 41.25 41.25 41.25H46.25C46.94 41.25 47.5 41.8088 47.5 42.5V47.5C47.5 48.8787 46.3787 50 45 50ZM42.5 43.75V47.5H45.0012V43.75H42.5Z" fill="#585E48"/>
<path d="M19.0638 11.3252C19.0125 11.3252 18.96 11.3227 18.9088 11.3152C18.2238 11.2315 17.7363 10.6077 17.8213 9.92272L18.5838 3.74897L16.25 3.75146C15.9188 3.75146 15.6 3.62021 15.3663 3.38521L14.4825 2.50146H11.4L12.205 9.87646C12.2813 10.5627 11.7863 11.1802 11.0988 11.2565C10.4175 11.329 9.79627 10.8365 9.71877 10.1502L8.90627 2.77646C8.83377 2.06021 9.06502 1.35271 9.54002 0.826465C10.0138 0.301465 10.6913 0.00146484 11.3988 0.00146484H14.9988C15.33 0.00146484 15.6488 0.132715 15.8825 0.367715L16.7663 1.25146H18.5863C19.3075 1.25146 19.9938 1.56396 20.47 2.10896C20.9413 2.65021 21.1575 3.36397 21.0613 4.07022L20.3013 10.229C20.2225 10.8627 19.6838 11.3265 19.0625 11.3265L19.0638 11.3252Z" fill="#585E48"/>
<path d="M21.25 38.75H8.75C4.61375 38.75 1.25 35.3862 1.25 31.25V30C1.25 25.5725 3.40375 21.3887 7.01 18.8087C7.8175 18.2287 8.48375 17.4825 8.98875 16.595C9.32875 15.9937 10.0912 15.785 10.6925 16.1237C11.2925 16.465 11.5025 17.2287 11.1625 17.8275C10.4788 19.0325 9.5725 20.045 8.4675 20.84C5.51375 22.9525 3.75125 26.3762 3.75125 29.9987V31.2487C3.75125 34.0062 5.99375 36.2487 8.75125 36.2487H21.2512C24.0087 36.2487 26.2512 34.0062 26.2512 31.2487V29.9987C26.2512 26.3762 24.4888 22.9525 21.5363 20.8412C20.3813 20.0187 19.4037 18.8975 18.7113 17.6C18.3862 16.9912 18.6163 16.2337 19.225 15.9087C19.8363 15.5837 20.5925 15.8137 20.9175 16.4225C21.4287 17.3812 22.145 18.205 22.99 18.805C26.5988 21.3862 28.7525 25.57 28.7525 29.9975V31.2475C28.7525 35.3837 25.3888 38.7475 21.2525 38.7475L21.25 38.75Z" fill="#585E48"/>
<path d="M18.8125 15.0253C18.2188 15.0253 17.7213 14.6116 17.5938 14.0566C17.4388 13.4928 17.6975 12.8803 18.2413 12.6091C18.8613 12.3016 19.61 12.5516 19.9188 13.1678C20.005 13.3416 20.0625 13.5816 20.0625 13.7753C20.0625 14.4653 19.5025 15.0253 18.8125 15.0253Z" fill="#585E48"/>
<path d="M18.5662 18.75H11.0662C9.34372 18.75 7.94122 17.3488 7.94122 15.625C7.94122 13.9013 9.34372 12.5 11.0662 12.5H18.5662C20.2887 12.5 21.6912 13.9013 21.6912 15.625C21.6912 17.3488 20.2887 18.75 18.5662 18.75ZM11.0662 15C10.7212 15 10.4412 15.2812 10.4412 15.625C10.4412 15.9688 10.7212 16.25 11.0662 16.25H18.5662C18.9112 16.25 19.1912 15.9688 19.1912 15.625C19.1912 15.2812 18.9112 15 18.5662 15H11.0662Z" fill="#585E48"/>
<path d="M18.5662 15H11.0662C9.34372 15 7.94122 13.5988 7.94122 11.875C7.94122 10.1513 9.34372 8.75 11.0662 8.75H18.5662C20.2887 8.75 21.6912 10.1513 21.6912 11.875C21.6912 13.5988 20.2887 15 18.5662 15ZM11.0662 11.25C10.7212 11.25 10.4412 11.5312 10.4412 11.875C10.4412 12.2188 10.7212 12.5 11.0662 12.5H18.5662C18.9112 12.5 19.1912 12.2188 19.1912 11.875C19.1912 11.5312 18.9112 11.25 18.5662 11.25H11.0662Z" fill="#585E48"/>
<path d="M8.74875 28.7503C8.18875 28.7503 7.68 28.3716 7.5375 27.8028C6.66 24.2953 7.70375 20.5291 10.2612 17.9728L11.6162 16.6166C12.1037 16.1278 12.895 16.1278 13.3837 16.6166C13.8725 17.1053 13.8725 17.8953 13.3837 18.3841L12.0287 19.7403C10.09 21.6803 9.2975 24.5366 9.96375 27.1978C10.1312 27.8666 9.72375 28.5453 9.05375 28.7128C8.95125 28.7391 8.85 28.7503 8.74875 28.7503Z" fill="#585E48"/>
<path d="M15.13 29.0328C14.6925 29.0328 14.2688 28.8028 14.0388 28.394C12.2575 25.2228 12.355 21.339 14.2938 18.2615L15.1925 16.834C15.5613 16.249 16.3325 16.074 16.9163 16.444C17.5 16.8115 17.675 17.5828 17.3075 18.1678L16.4088 19.594C14.96 21.8965 14.8863 24.8003 16.2188 27.1715C16.5575 27.7728 16.3425 28.5353 15.7413 28.8728C15.5475 28.9815 15.3375 29.0328 15.13 29.0328Z" fill="#585E48"/>
<path d="M21.25 26.2503C20.56 26.2503 20 25.6916 20 25.0003C20 22.9166 19.1888 20.9578 17.715 19.4828L16.6163 18.3841C16.1275 17.8953 16.1275 17.1053 16.6163 16.6166C17.105 16.1278 17.895 16.1278 18.3838 16.6166L19.4825 17.7153C21.4288 19.6628 22.5 22.2491 22.5 25.0003C22.5 25.6916 21.94 26.2503 21.25 26.2503Z" fill="#585E48"/>
<path d="M15 7.5C14.31 7.5 13.75 6.94125 13.75 6.25V2.5C13.75 1.80875 14.31 1.25 15 1.25C15.69 1.25 16.25 1.80875 16.25 2.5V6.25C16.25 6.94125 15.69 7.5 15 7.5Z" fill="#585E48"/>
<path d="M45.7137 38.2253C45.6362 38.2253 45.5587 38.2178 45.48 38.2028L42.3675 37.6153C40.8825 37.3403 39.615 36.4103 38.8962 35.0628C38.5712 34.4541 38.8025 33.6953 39.4112 33.3703C40.0212 33.0491 40.7775 33.2778 41.1025 33.8853C41.455 34.5478 42.1 35.0228 42.8262 35.1578L44.72 35.5153L45.085 33.6241C45.2075 32.9678 45.0712 32.3066 44.7 31.7753C44.305 31.2091 44.4437 30.4303 45.0112 30.0341C45.5787 29.6416 46.3575 29.7791 46.7512 30.3441C47.5075 31.4291 47.7887 32.7591 47.5425 34.0878L46.9412 37.2091C46.8262 37.8066 46.3025 38.2228 45.715 38.2228L45.7137 38.2253Z" fill="#585E48"/>
<path d="M34.2862 38.2375C33.6987 38.2375 33.175 37.8225 33.06 37.2238L32.46 34.1113C32.2137 32.7838 32.4875 31.4575 33.23 30.37C33.6187 29.8013 34.3975 29.6563 34.9675 30.0425C35.5375 30.4325 35.6837 31.21 35.295 31.7813C34.9275 32.3188 34.7937 32.9813 34.9175 33.6463L35.2787 35.5238L37.1637 35.16C37.91 35.025 38.5387 34.5613 38.8975 33.8863C39.1737 33.385 39.2637 32.8063 39.1587 32.2413L38.7725 30.2363C38.6425 29.5575 39.085 28.9025 39.7637 28.7713C40.44 28.6425 41.0962 29.085 41.2275 29.7625L41.615 31.775C41.8262 32.9163 41.6412 34.0863 41.0937 35.0775C40.3825 36.4138 39.115 37.3438 37.6237 37.6163L34.5237 38.215C34.445 38.23 34.365 38.2375 34.2862 38.2375Z" fill="#585E48"/>
<path d="M35.7975 32.6613C35.0925 32.6613 34.3912 32.5113 33.74 32.2113C32.4237 31.6288 31.42 30.49 31.0025 29.0963L30.0912 26.06C29.995 25.7413 30.03 25.4 30.1875 25.1075C30.3437 24.8163 30.6112 24.5975 30.9287 24.5025L33.9662 23.5913C35.02 23.2825 36.1487 23.3175 37.1487 23.6913C37.6387 23.8738 37.9625 24.3413 37.9625 24.8638C37.9625 25.555 37.4025 26.12 36.7125 26.12C36.5187 26.12 36.335 26.0775 36.1712 25.9988C35.6987 25.85 35.1712 25.8438 34.6762 25.9888L32.8437 26.5375L33.3962 28.3788C33.605 29.0738 34.1037 29.64 34.7687 29.9338C35.3262 30.1888 35.94 30.2313 36.51 30.0563L38.3587 29.5L38.2587 29.1738C38.0987 28.7313 38.1925 28.215 38.5462 27.8613C39.0337 27.3725 39.82 27.365 40.3075 27.855C40.45 27.9975 40.5675 28.185 40.6287 28.3763L41.11 29.9813C41.3062 30.6413 40.9312 31.3363 40.2725 31.535L37.235 32.4475C36.765 32.59 36.28 32.6613 35.7975 32.6613Z" fill="#585E48"/>
<path d="M39.425 29.9879C39.105 29.9879 38.785 29.8654 38.5412 29.6216L36.9037 27.9829C36.0912 27.1854 35.5925 26.1491 35.47 24.9929C35.2975 23.4904 35.82 21.9991 36.9037 20.9154L39.1525 18.6641C39.3875 18.4291 39.705 18.2979 40.0375 18.2979C40.37 18.2979 40.69 18.4304 40.9237 18.6666L43.1612 20.9179C44.2175 21.9729 44.7462 23.4441 44.6075 24.9516C44.545 25.6391 43.9362 26.1454 43.2487 26.0816C42.5612 26.0179 42.055 25.4091 42.1187 24.7216C42.1887 23.9579 41.9237 23.2154 41.3925 22.6841L40.0362 21.3191L38.6737 22.6829C38.1312 23.2254 37.87 23.9666 37.9562 24.7179C38.0175 25.3016 38.2625 25.8116 38.6637 26.2054L40.31 27.8516C40.7987 28.3404 40.7987 29.1304 40.31 29.6191C40.0662 29.8629 39.7462 29.9854 39.4262 29.9854L39.425 29.9879Z" fill="#585E48"/>
<path d="M44.2013 32.6554C43.725 32.6554 43.2413 32.5867 42.7638 32.443L39.7288 31.5279C39.0675 31.3292 38.6938 30.6317 38.8925 29.9717L39.805 26.9367C40.19 25.6579 41.05 24.6054 42.2263 23.9729C43.4038 23.3429 44.755 23.208 46.0338 23.5892L49.0688 24.5017C49.3863 24.5979 49.6525 24.8154 49.81 25.1067C49.9663 25.3992 50.0013 25.7417 49.9063 26.0592L48.9925 29.0942C48.3413 31.2554 46.3513 32.6554 44.2013 32.6554ZM41.645 29.4955L43.4838 30.0492C44.8038 30.4392 46.2013 29.6954 46.5975 28.3742L47.15 26.5367L45.3125 25.9842C44.6725 25.7917 43.9975 25.8592 43.4088 26.1742C42.8213 26.4904 42.3913 27.0167 42.1988 27.6567L41.645 29.4955Z" fill="#585E48"/>
</g>
<defs>
<clipPath id="clip0_265_17761">
<rect width="50" height="50" fill="white"/>
</clipPath>
</defs>
</svg>
