<svg width="50" height="50" viewBox="0 0 50 50" fill="none" xmlns="http://www.w3.org/2000/svg">
<path d="M33.1271 49.7338C32.4189 49.7338 31.8379 49.1839 31.8275 48.4959L31.7509 43.223C31.821 41.2544 32.4098 39.3976 33.4559 37.7931C33.89 37.1277 34.2227 36.4058 34.4437 35.6463C34.6386 34.9809 35.3573 34.5854 36.0474 34.78C36.7388 34.9671 37.1403 35.6614 36.9454 36.328C36.6556 37.3186 36.2215 38.2614 35.6549 39.1302C34.853 40.3593 34.4008 41.7842 34.3488 43.2494L34.4268 48.4608C34.4372 49.1538 33.8627 49.7238 33.1453 49.7338H33.1271Z" fill="white"/>
<path d="M15.52 37.3901C15.1457 37.3901 14.774 37.2345 14.518 36.9344L11.1962 33.0488C10.2734 31.9691 9.46379 30.7877 8.78929 29.5385L6.0497 24.4564C5.43759 23.5612 5.27773 22.464 5.61173 21.4307C5.94963 20.3849 6.745 19.5701 7.79248 19.1935C9.14928 18.7076 10.6568 19.0654 11.6354 20.11L15.4979 24.2317C15.6356 23.9868 15.7981 23.742 15.9917 23.5022C16.3283 23.1005 16.4388 22.7251 16.3751 22.3573L13.8279 7.3909C13.4861 5.37965 14.8065 3.4249 16.7728 3.03194C17.7683 2.83358 18.7768 3.02189 19.6164 3.563C20.4624 4.11038 21.0589 4.98418 21.2526 5.96344L21.3721 6.57234L21.4735 3.76262C21.5489 1.68985 23.1916 0.0376638 25.2125 0C26.2652 0 27.2347 0.369106 27.969 1.091C28.7163 1.82419 29.123 2.83985 29.0853 3.87812L28.9242 8.33375L29.908 4.93647C30.4356 3.03194 32.4059 1.83925 34.3735 2.23974C35.408 2.44815 36.2891 3.047 36.8505 3.92834C37.4198 4.82097 37.5835 5.91573 37.3015 6.93391L36.6751 9.09707C37.0013 8.8736 37.3691 8.70788 37.7642 8.60995C38.6882 8.38146 39.6707 8.55597 40.4557 9.09079C41.6201 9.88425 42.1426 11.3192 41.7553 12.6613L39.017 22.1576C39.0014 22.2116 38.9819 22.2643 38.9598 22.3158C38.5803 23.1683 38.3425 24.0697 38.2502 24.9987C38.1813 25.6892 37.5523 26.1977 36.8323 26.1287C36.1175 26.0621 35.5938 25.4495 35.6627 24.7589C35.777 23.6002 36.0708 22.4715 36.536 21.4044L39.2509 11.9859C39.3419 11.6695 39.2223 11.3217 38.9572 11.1422C38.735 10.9903 38.5166 11.0142 38.4062 11.0418C38.2879 11.0707 38.0683 11.1598 37.9331 11.4234L33.391 20.3473C33.0946 20.9285 32.389 21.1997 31.7612 20.9662C31.1348 20.7339 30.793 20.0798 30.9737 19.4546L34.7945 6.26977C34.8907 5.92452 34.8361 5.55542 34.6373 5.24406C34.454 4.95656 34.1733 4.76322 33.8445 4.69668C33.2142 4.57239 32.5891 4.9666 32.4136 5.5981L28.4966 19.1295C28.3199 19.7409 27.6883 20.1225 27.0463 20.0321C26.3964 19.9342 25.9234 19.3831 25.9468 18.7478L26.4874 3.78898C26.5004 3.43118 26.3692 3.09722 26.117 2.8499C25.887 2.62391 25.5647 2.49084 25.2619 2.50967C24.642 2.52097 24.0974 3.13489 24.0701 3.84924L23.5646 17.8363C23.5412 18.4754 23.0252 18.9951 22.365 19.0441C21.71 19.0843 21.1135 18.6562 20.9888 18.0272L18.6975 6.43298C18.6339 6.10656 18.4454 5.82785 18.1699 5.64958C17.9892 5.53282 17.6916 5.40978 17.2979 5.49013C16.6896 5.61191 16.2751 6.29488 16.392 6.98288L18.9393 21.9492C19.1212 23.0201 18.808 24.13 18.0802 24.995C17.5526 25.6503 17.4161 26.3383 17.3875 26.8091C17.3576 27.3138 17.0158 27.7532 16.522 27.9215C16.0294 28.0884 15.4784 27.9554 15.1262 27.58L9.70551 21.7948C9.44429 21.5161 9.04661 21.4169 8.69572 21.5475C8.4072 21.6504 8.18627 21.8814 8.0901 22.1802C7.98743 22.4954 8.03941 22.8293 8.23045 23.0955C8.26165 23.1394 8.29154 23.1859 8.31623 23.2336L11.0909 28.3797C11.6809 29.4732 12.3892 30.5065 13.1963 31.4506L16.5181 35.3362C16.9755 35.871 16.8976 36.662 16.3439 37.1039C16.1009 37.296 15.8085 37.3914 15.5174 37.3914L15.52 37.3901Z" fill="white"/>
<path d="M18.9535 49.8494C18.2439 49.8494 17.6643 49.2995 17.6539 48.6115L17.6045 45.0686C17.5954 44.3743 18.1699 43.8056 18.8873 43.7955H18.9055C19.615 43.7955 20.1947 44.3454 20.2051 45.0334L20.2544 48.5763C20.2635 49.2706 19.6891 49.8393 18.9717 49.8494H18.9535Z" fill="white"/>
<path d="M16.3569 26.7087C16.0346 26.7087 15.7123 26.5932 15.4615 26.3622C14.9416 25.8839 14.9208 25.0892 15.416 24.587C15.9098 24.0848 16.7416 24.0584 17.2588 24.5367C17.7787 25.0151 17.8047 25.8035 17.3108 26.3057L17.2978 26.3195C17.0431 26.5781 16.7 26.7087 16.3569 26.7087Z" fill="white"/>
<path d="M9.50407 50.0012C9.34552 50.0012 9.18307 49.9736 9.02581 49.9133C8.35911 49.6585 8.03161 48.929 8.29543 48.2837L9.404 45.5782C9.89525 44.3792 10.9817 43.4602 12.462 42.9945L15.5096 42.0378C16.4843 41.7315 17.2706 41.2858 17.845 40.7133L18.9393 39.6223C19.3876 39.1754 19.9478 38.8113 20.6041 38.5439L23.8947 37.1993C23.8492 37.1377 23.7868 37.0649 23.7023 36.9821C23.0252 36.333 21.9336 36.0869 21.5541 36.2489L20.1349 36.8502C19.1264 37.2771 17.884 37.4679 16.5298 37.4077L15.4953 37.3612C14.7779 37.3298 14.2243 36.741 14.2568 36.048C14.2905 35.3562 14.9287 34.8202 15.6149 34.8528L16.6506 34.8993C17.6059 34.947 18.448 34.8214 19.0926 34.5502L20.5131 33.9489C21.9596 33.3375 24.1637 33.8886 25.5335 35.1993C26.3548 35.9852 26.7265 36.9318 26.555 37.7943C26.412 38.5162 25.9 39.1063 25.1514 39.4126L21.6191 40.8552C21.2864 40.9908 21.0134 41.164 20.8068 41.3686L19.7125 42.4596C18.8405 43.3284 17.6968 43.9913 16.314 44.4244L13.2677 45.3811C12.7518 45.5431 12.0812 45.8707 11.8226 46.501L10.714 49.2065C10.5126 49.6999 10.0226 49.9999 9.50537 49.9999L9.50407 50.0012Z" fill="white"/>
<path d="M2.40688 45.6774L0 44.7258L5.47137 31.8071C6.32781 29.7808 8.03161 28.6684 10.3995 28.5918C11.1507 28.5316 11.7186 29.1103 11.742 29.8046C11.7667 30.4976 11.204 31.0777 10.4866 31.1003C9.16617 31.1429 8.33701 31.6702 7.87695 32.7562L2.40558 45.6762L2.40688 45.6774Z" fill="white"/>
<path d="M42.7677 38.761C42.2439 38.761 41.7514 38.4535 41.5525 37.9525L40.479 35.2345C40.2295 34.5992 39.5628 34.2665 39.0495 34.0983L36.0162 33.1039C34.6386 32.652 33.504 31.9778 32.6437 31.0965L31.5637 29.9929C31.361 29.7858 31.0906 29.61 30.7579 29.4694L27.2451 27.9817C26.5004 27.6665 25.9975 27.0714 25.8623 26.3483C25.7011 25.4833 26.0858 24.5417 26.9176 23.7646C28.3069 22.4689 30.5188 21.9479 31.9536 22.5756L33.3663 23.1933C34.007 23.4745 34.8491 23.6076 35.8017 23.5725L36.8388 23.5386C37.5952 23.4971 38.1579 24.0583 38.1826 24.7501C38.2073 25.4419 37.6459 26.0244 36.9285 26.0482L35.8927 26.0821C34.545 26.1273 33.2987 25.9202 32.2954 25.4808L30.8827 24.8631C30.5552 24.7187 29.4609 24.8844 28.7254 25.5699C28.6396 25.6503 28.5759 25.7231 28.5304 25.7833L31.8028 27.1694C32.4552 27.4468 33.0115 27.8159 33.4546 28.2692L34.5346 29.3727C35.1012 29.9515 35.881 30.4059 36.8531 30.7248L39.8864 31.7192C41.3602 32.2025 42.4337 33.1328 42.9106 34.3393L43.9841 37.0574C44.2401 37.7065 43.9035 38.4309 43.2329 38.6782C43.0809 38.7347 42.9236 38.7598 42.7703 38.7598L42.7677 38.761Z" fill="white"/>
<path d="M47.5827 34.5227L42.2803 21.5387C41.8345 20.4452 41.0119 19.9091 39.6915 19.8501C38.9741 19.8175 38.4204 19.2299 38.4529 18.5382C38.4867 17.8464 39.1209 17.3317 39.811 17.3417C42.1776 17.4472 43.8671 18.5808 44.6976 20.6172L49.9987 33.5999L47.5814 34.5214L47.5827 34.5227Z" fill="white"/>
</svg>
