<svg width="50" height="50" viewBox="0 0 50 50" fill="none" xmlns="http://www.w3.org/2000/svg">
<g clip-path="url(#clip0_1030_2)">
<path d="M19.9084 13.4492C12.6491 13.4492 7.17389 10.5589 7.17389 6.72459C7.17389 2.89023 12.6491 0 19.9084 0C27.1676 0 32.6428 2.89023 32.6428 6.72459C32.6428 10.5589 27.1689 13.4492 19.9084 13.4492ZM19.9084 2.68984C13.6673 2.68984 9.68487 5.07975 9.68487 6.72459C9.68487 8.36942 13.6673 10.7593 19.9084 10.7593C26.1494 10.7593 30.1318 8.36942 30.1318 6.72459C30.1318 5.07975 26.1494 2.68984 19.9084 2.68984Z" fill="#585E48"/>
<path d="M19.9083 28.2437C10.1946 28.2437 2.87006 24.486 2.87006 19.5017C2.87006 14.5175 10.1946 10.7598 19.9083 10.7598C29.6221 10.7598 36.9466 14.5175 36.9466 19.5017C36.9466 24.486 29.6221 28.2437 19.9083 28.2437ZM19.9083 13.4496C11.3471 13.4496 5.38104 16.6397 5.38104 19.5017C5.38104 22.3637 11.3471 25.5539 19.9083 25.5539C28.4696 25.5539 34.4357 22.3637 34.4357 19.5017C34.4357 16.6397 28.4696 13.4496 19.9083 13.4496Z" fill="#585E48"/>
<path d="M20.7508 23.6534C20.0565 23.6534 19.4953 23.0509 19.4953 22.3085C19.4953 21.5661 20.0565 20.9636 20.7508 20.9636C25.5618 20.9636 28.2963 19.6402 28.6893 18.9301C29.0446 18.2913 29.8142 18.0841 30.4106 18.4621C31.0069 18.8427 31.2015 19.6671 30.8475 20.3059C29.474 22.7752 24.5499 23.6534 20.7508 23.6534Z" fill="#585E48"/>
<path d="M19.9083 45.7275C8.74451 45.7275 0 41.2973 0 35.6406C0 29.9839 8.74576 25.5537 19.9083 25.5537C26.0264 25.5537 31.6849 26.8879 35.4325 29.2146C36.0339 29.5871 36.2385 30.4102 35.8895 31.0531C35.5405 31.6946 34.7709 31.9138 34.1745 31.5426C30.8475 29.4768 25.5141 28.2449 19.9083 28.2449C9.65599 28.2449 2.51099 32.1425 2.51099 35.6419C2.51099 39.1414 9.65599 43.039 19.9083 43.039C22.8776 43.039 25.818 42.696 28.4105 42.0451C29.0835 41.8743 29.7615 42.3248 29.9184 43.0484C30.0766 43.772 29.6572 44.4955 28.9818 44.665C26.2046 45.3617 23.0672 45.7302 19.9071 45.7302L19.9083 45.7275Z" fill="#585E48"/>
<path d="M18.0251 41.1367C12.6102 41.1367 7.86568 39.9465 5.94101 38.1066C5.42375 37.6117 5.37981 36.7617 5.84057 36.2076C6.30259 35.6535 7.09858 35.6064 7.61333 36.1C8.83367 37.2674 12.801 38.4482 18.0251 38.4482C18.7194 38.4482 19.2806 39.0508 19.2806 39.7932C19.2806 40.5356 18.7194 41.1367 18.0251 41.1367Z" fill="#585E48"/>
<path d="M45.7364 49.9868C45.6585 49.9868 45.5807 49.98 45.5016 49.9626L42.3754 49.3304C40.8826 49.0359 39.6096 48.0339 38.8889 46.5841C38.5625 45.9291 38.7948 45.1141 39.4074 44.7644C40.0176 44.4161 40.7809 44.6649 41.1061 45.3199C41.4589 46.0314 42.1067 46.5424 42.8374 46.6877L44.7395 47.0723L45.1049 45.0388C45.2279 44.3314 45.0911 43.6226 44.7182 43.0497C44.3227 42.4404 44.4608 41.6025 45.0295 41.1762C45.602 40.7499 46.3817 40.9005 46.7784 41.5097C47.538 42.6771 47.8205 44.1068 47.5732 45.5378L46.9705 48.896C46.8538 49.5402 46.3277 49.9868 45.7389 49.9868H45.7364Z" fill="#585E48"/>
<path d="M34.2586 49.9996C34.01 49.9996 33.764 49.9203 33.5543 49.7683C33.2781 49.5679 33.0885 49.2599 33.0245 48.9089L32.4231 45.5601C32.177 44.1331 32.4507 42.7061 33.1965 41.5347C33.5882 40.9201 34.3679 40.7627 34.9416 41.181C35.5141 41.5993 35.6623 42.4358 35.2718 43.0504C34.9027 43.6301 34.7684 44.3442 34.8914 45.0597L35.2542 47.0785L37.1475 46.6871C37.8996 46.5405 38.5298 46.0415 38.8889 45.318C39.1726 44.7692 39.2593 44.164 39.1513 43.5481L38.7633 41.3908C38.6328 40.6619 39.0785 39.9558 39.7602 39.8159C40.4357 39.6707 41.0973 40.1521 41.2304 40.8824L41.6196 43.0477C41.833 44.2743 41.646 45.5345 41.096 46.6024C40.3829 48.0374 39.1099 49.0394 37.6121 49.3325L34.4984 49.9754C34.4193 49.9916 34.3402 49.9996 34.2611 49.9996H34.2586Z" fill="#585E48"/>
<path d="M35.7765 44.0014C35.0697 44.0014 34.3641 43.8387 33.71 43.5159C32.3867 42.8919 31.3786 41.6667 30.9605 40.1644L30.0452 36.8976C29.8469 36.1861 30.2235 35.437 30.8864 35.2232L33.9372 34.2414C35.0032 33.9078 36.1344 33.9495 37.1362 34.3503C37.6284 34.5467 37.9523 35.0497 37.9523 35.6105C37.9523 36.3529 37.3911 36.9621 36.6968 36.9621C36.5047 36.9621 36.3202 36.9164 36.157 36.833C35.6799 36.6676 35.1501 36.6649 34.6504 36.8209L32.8111 37.4127L33.366 39.3938C33.5744 40.1415 34.0754 40.7494 34.742 41.0641C35.3032 41.3412 35.9197 41.3842 36.4922 41.1973L38.3491 40.5988L38.2486 40.2437C38.0892 39.7676 38.1846 39.2149 38.5386 38.8356C39.0308 38.3084 39.8192 38.3044 40.3076 38.8289C40.4507 38.9836 40.5713 39.1853 40.6315 39.3938L41.1136 41.1179C41.3095 41.8281 40.9329 42.5758 40.2712 42.7897L37.2204 43.7715C36.7496 43.9261 36.2624 44.0028 35.7778 44.0028L35.7765 44.0014Z" fill="#585E48"/>
<path d="M39.4187 41.1248C39.0973 41.1248 38.7759 40.993 38.5311 40.7307L36.8864 38.9689C36.0715 38.1135 35.5693 36.9986 35.4463 35.7532C35.2705 34.1352 35.7953 32.5308 36.8864 31.3634L39.1462 28.9439C39.3823 28.691 39.6999 28.5498 40.0339 28.5498C40.3678 28.5498 40.688 28.6924 40.9228 28.9466L43.1701 31.3674C44.2297 32.5025 44.7608 34.0855 44.6227 35.7061C44.5587 36.4458 43.9573 36.9892 43.258 36.9246C42.5675 36.8574 42.059 36.2024 42.1218 35.464C42.1921 34.6396 41.9259 33.8394 41.3923 33.2678L40.0301 31.8005L38.6604 33.2678C38.1142 33.8515 37.8518 34.649 37.9397 35.4573C38.0025 36.0854 38.2486 36.6354 38.6503 37.0578L40.3038 38.829C40.7947 39.3549 40.7947 40.2062 40.3038 40.7307C40.059 40.993 39.7376 41.1248 39.4162 41.1248H39.4187Z" fill="#585E48"/>
<path d="M44.2272 43.9948C43.7401 43.9948 43.2517 43.9182 42.7734 43.7635L39.7238 42.7817C39.4049 42.6795 39.1374 42.4455 38.9793 42.1308C38.8211 41.8174 38.7872 41.4489 38.8838 41.106L39.8016 37.8405C40.5976 35.0014 43.4074 33.3861 46.0565 34.2402L49.1048 35.2219C49.769 35.4358 50.1456 36.1862 49.946 36.8977L49.0295 40.1632C48.6415 41.539 47.779 42.6714 46.5963 43.352C45.8543 43.7783 45.0445 43.9962 44.226 43.9962L44.2272 43.9948ZM41.6497 40.5935L43.4965 41.188C44.1381 41.3938 44.8186 41.3211 45.4074 40.9822C46 40.642 46.4306 40.0757 46.624 39.3872L47.1789 37.4101L45.3333 36.8157C44.0088 36.3893 42.6039 37.1963 42.2059 38.6152L41.6497 40.5935Z" fill="#585E48"/>
<path d="M19.9134 9.10229C18.9994 9.10229 18.0854 9.01487 17.1739 8.83868C16.4922 8.70688 16.0389 8.00752 16.1607 7.27589C16.2837 6.5456 16.9303 6.06008 17.6196 6.19054C19.145 6.48642 20.683 6.48508 22.1946 6.19054C23.3823 5.95921 24.5361 5.54767 25.6246 4.96532C26.2411 4.63312 26.9981 4.90345 27.3082 5.56784C27.6183 6.23223 27.366 7.04053 26.7458 7.37138C25.4463 8.06804 24.0653 8.56028 22.6428 8.83599C21.7389 9.01218 20.8274 9.0996 19.9121 9.0996L19.9134 9.10229Z" fill="#585E48"/>
</g>
<defs>
<clipPath id="clip0_1030_2">
<rect width="50" height="50" fill="white"/>
</clipPath>
</defs>
</svg>
