<svg width="50" height="50" viewBox="0 0 50 50" fill="none" xmlns="http://www.w3.org/2000/svg">
<g clip-path="url(#clip0_439_14170)">
<path d="M45.625 32.5004H4.375C1.9625 32.5004 0 30.5379 0 28.1255C0 25.7131 1.9625 23.7506 4.375 23.7506H45.625C48.0375 23.7506 50 25.7131 50 28.1255C50 30.5379 48.0375 32.5004 45.625 32.5004ZM4.375 26.2505C3.34125 26.2505 2.5 27.0918 2.5 28.1255C2.5 29.1592 3.34125 30.0005 4.375 30.0005H45.625C46.6587 30.0005 47.5 29.1592 47.5 28.1255C47.5 27.0918 46.6587 26.2505 45.625 26.2505H4.375Z" fill="#585E48"/>
<path d="M13.125 26.2505H6.875C4.4625 26.2505 2.5 24.2881 2.5 21.8756C2.5 19.4632 4.4625 17.5007 6.875 17.5007H13.125C15.5375 17.5007 17.5 19.4632 17.5 21.8756C17.5 24.2881 15.5375 26.2505 13.125 26.2505ZM6.875 20.0007C5.84125 20.0007 5 20.8419 5 21.8756C5 22.9093 5.84125 23.7506 6.875 23.7506H13.125C14.1587 23.7506 15 22.9093 15 21.8756C15 20.8419 14.1587 20.0007 13.125 20.0007H6.875Z" fill="#585E48"/>
<path d="M5 50C4.30875 50 3.75 49.4413 3.75 48.75V31.2505C3.75 30.5592 4.30875 30.0005 5 30.0005C5.69125 30.0005 6.25 30.5592 6.25 31.2505V48.75C6.25 49.4413 5.69125 50 5 50Z" fill="#585E48"/>
<path d="M5.00031 42.5002C4.68031 42.5002 4.36031 42.3777 4.11656 42.1339C3.62781 41.6452 3.62781 40.8552 4.11656 40.3665L14.1166 30.3667C14.6053 29.878 15.3953 29.878 15.8841 30.3667C16.3728 30.8555 16.3728 31.6455 15.8841 32.1342L5.88406 42.1339C5.64031 42.3777 5.32031 42.5002 5.00031 42.5002Z" fill="#585E48"/>
<path d="M45 50C44.3088 50 43.75 49.4413 43.75 48.75V31.2505C43.75 30.5592 44.3088 30.0005 45 30.0005C45.6912 30.0005 46.25 30.5592 46.25 31.2505V48.75C46.25 49.4413 45.6912 50 45 50Z" fill="#585E48"/>
<path d="M45.0003 42.5002C44.6803 42.5002 44.3603 42.3777 44.1166 42.1339L34.1166 32.1342C33.6278 31.6455 33.6278 30.8555 34.1166 30.3667C34.6053 29.878 35.3953 29.878 35.8841 30.3667L45.8841 40.3665C46.3728 40.8552 46.3728 41.6452 45.8841 42.1339C45.6403 42.3777 45.3203 42.5002 45.0003 42.5002Z" fill="#585E48"/>
<path d="M48.7513 21.2507C48.06 21.2507 47.5013 20.6908 47.5013 20.0008V3.09744L45.56 3.87367C43.5812 4.6649 41.35 4.57365 39.4412 3.61868C38.17 2.98244 36.6888 2.92119 35.3688 3.44868L34.0262 3.98617C32.2337 4.70115 30.2612 4.70115 28.475 3.98617L26.8488 3.33493C25.6575 2.8587 24.3438 2.8587 23.1525 3.33493L21.5262 3.98617C19.7362 4.7024 17.7638 4.7024 15.975 3.98617L14.6325 3.44993C13.3113 2.92119 11.83 2.98369 10.56 3.61868C8.6525 4.5724 6.42 4.6649 4.44125 3.87242L2.5 3.09619V16.2496C2.5 16.9396 1.94125 17.4996 1.25 17.4996C0.55875 17.4996 0 16.9396 0 16.2496V1.25124C0.00125 0.836246 0.2075 0.448756 0.55 0.216262C0.895 -0.0174826 1.33375 -0.0624815 1.715 0.0900147L5.37 1.55123C6.68875 2.07997 8.1725 2.01747 9.4425 1.38248C11.35 0.428756 13.5825 0.336259 15.5613 1.12874L16.9038 1.66498C18.095 2.14246 19.4087 2.14121 20.6 1.66498L22.2262 1.01374C24.0163 0.29751 25.9888 0.29751 27.7775 1.01374L29.4037 1.66498C30.595 2.14121 31.9087 2.14121 33.1 1.66498L34.4425 1.12749C36.4212 0.336259 38.6525 0.427506 40.5613 1.38248C41.8325 2.01747 43.3125 2.07871 44.6338 1.55248L48.2887 0.0900147C48.6712 -0.0649814 49.1087 -0.0187325 49.4538 0.216262C49.7962 0.448756 50.0025 0.836246 50.0025 1.25124V20.0008C50.0025 20.6908 49.4425 21.2507 48.7513 21.2507Z" fill="#585E48"/>
<path d="M7.5 12.5008C6.80875 12.5008 6.25 11.9409 6.25 11.2509V3.75107C6.25 3.06108 6.80875 2.5011 7.5 2.5011C8.19125 2.5011 8.75 3.06108 8.75 3.75107V11.2509C8.75 11.9409 8.19125 12.5008 7.5 12.5008Z" fill="#585E48"/>
<path d="M18.75 12.5008C18.0588 12.5008 17.5 11.9409 17.5 11.2509V3.75107C17.5 3.06108 18.0588 2.5011 18.75 2.5011C19.4412 2.5011 20 3.06108 20 3.75107V11.2509C20 11.9409 19.4412 12.5008 18.75 12.5008Z" fill="#585E48"/>
<path d="M31.25 12.5008C30.5588 12.5008 30 11.9409 30 11.2509V3.75107C30 3.06108 30.5588 2.5011 31.25 2.5011C31.9412 2.5011 32.5 3.06108 32.5 3.75107V11.2509C32.5 11.9409 31.9412 12.5008 31.25 12.5008Z" fill="#585E48"/>
<path d="M42.5 12.5008C41.8088 12.5008 41.25 11.9409 41.25 11.2509V3.75107C41.25 3.06108 41.8088 2.5011 42.5 2.5011C43.1912 2.5011 43.75 3.06108 43.75 3.75107V11.2509C43.75 11.9409 43.1912 12.5008 42.5 12.5008Z" fill="#585E48"/>
</g>
<defs>
<clipPath id="clip0_439_14170">
<rect width="50" height="50" fill="white"/>
</clipPath>
</defs>
</svg>
