<svg width="60" height="60" viewBox="0 0 60 60" fill="none" xmlns="http://www.w3.org/2000/svg">
<g clip-path="url(#clip0_643_365)">
<path d="M57 52.5H3C1.3455 52.5 0 51.1545 0 49.5V46.5C0 44.8455 1.3455 43.5 3 43.5H57C58.6545 43.5 60 44.8455 60 46.5V49.5C60 51.1545 58.6545 52.5 57 52.5ZM3 46.5V49.5H57.0015V46.5H3Z" fill="#585E48"/>
<path d="M9 60H6C4.3455 60 3 58.6545 3 57V51C3 50.1705 3.672 49.5 4.5 49.5H10.5C11.328 49.5 12 50.1705 12 51V57C12 58.6545 10.6545 60 9 60ZM6 52.5V57H9.0015V52.5H6Z" fill="#585E48"/>
<path d="M54 60H51C49.3455 60 48 58.6545 48 57V51C48 50.1705 48.672 49.5 49.5 49.5H55.5C56.328 49.5 57 50.1705 57 51V57C57 58.6545 55.6545 60 54 60ZM51 52.5V57H54.0015V52.5H51Z" fill="#585E48"/>
<path d="M22.8765 13.5905C22.815 13.5905 22.752 13.5875 22.6905 13.5785C21.8685 13.478 21.2835 12.7295 21.3855 11.9075L22.3005 4.49895L19.5 4.50195C19.1025 4.50195 18.72 4.34445 18.4395 4.06245L17.379 3.00195H13.68L14.646 11.852C14.7375 12.6755 14.1435 13.4165 13.3185 13.508C12.501 13.595 11.7555 13.004 11.6625 12.1805L10.6875 3.33195C10.6005 2.47245 10.878 1.62345 11.448 0.991953C12.0165 0.361953 12.8295 0.00195312 13.6785 0.00195312H17.9985C18.396 0.00195312 18.7785 0.159453 19.059 0.441453L20.1195 1.50195H22.3035C23.169 1.50195 23.9925 1.87695 24.564 2.53095C25.1295 3.18045 25.389 4.03695 25.2735 4.88445L24.3615 12.275C24.267 13.0355 23.6205 13.592 22.875 13.592L22.8765 13.5905Z" fill="#585E48"/>
<path d="M25.5 46.5006H10.5C5.5365 46.5006 1.5 42.4641 1.5 37.5006V36.0006C1.5 30.6876 4.0845 25.6671 8.412 22.5711C9.381 21.8751 10.1805 20.9796 10.7865 19.9146C11.1945 19.1931 12.1095 18.9426 12.831 19.3491C13.551 19.7586 13.803 20.6751 13.395 21.3936C12.5745 22.8396 11.487 24.0546 10.161 25.0086C6.6165 27.5436 4.5015 31.6521 4.5015 35.9991V37.4991C4.5015 40.8081 7.1925 43.4991 10.5015 43.4991H25.5015C28.8105 43.4991 31.5015 40.8081 31.5015 37.4991V35.9991C31.5015 31.6521 29.3865 27.5436 25.8435 25.0101C24.4575 24.0231 23.2845 22.6776 22.4535 21.1206C22.0635 20.3901 22.3395 19.4811 23.07 19.0911C23.8035 18.7011 24.711 18.9771 25.101 19.7076C25.7145 20.8581 26.574 21.8466 27.588 22.5666C31.9185 25.6641 34.503 30.6846 34.503 35.9976V37.4976C34.503 42.4611 30.4665 46.4976 25.503 46.4976L25.5 46.5006Z" fill="#585E48"/>
<path d="M22.575 18.03C21.8625 18.03 21.2655 17.5335 21.1125 16.8675C20.9265 16.191 21.237 15.456 21.8895 15.1305C22.6335 14.7615 23.532 15.0615 23.9025 15.801C24.006 16.0095 24.075 16.2975 24.075 16.53C24.075 17.358 23.403 18.03 22.575 18.03Z" fill="#585E48"/>
<path d="M22.2795 22.5H13.2795C11.2125 22.5 9.52954 20.8185 9.52954 18.75C9.52954 16.6815 11.2125 15 13.2795 15H22.2795C24.3465 15 26.0295 16.6815 26.0295 18.75C26.0295 20.8185 24.3465 22.5 22.2795 22.5ZM13.2795 18C12.8655 18 12.5295 18.3375 12.5295 18.75C12.5295 19.1625 12.8655 19.5 13.2795 19.5H22.2795C22.6935 19.5 23.0295 19.1625 23.0295 18.75C23.0295 18.3375 22.6935 18 22.2795 18H13.2795Z" fill="#585E48"/>
<path d="M22.2795 18H13.2795C11.2125 18 9.52954 16.3185 9.52954 14.25C9.52954 12.1815 11.2125 10.5 13.2795 10.5H22.2795C24.3465 10.5 26.0295 12.1815 26.0295 14.25C26.0295 16.3185 24.3465 18 22.2795 18ZM13.2795 13.5C12.8655 13.5 12.5295 13.8375 12.5295 14.25C12.5295 14.6625 12.8655 15 13.2795 15H22.2795C22.6935 15 23.0295 14.6625 23.0295 14.25C23.0295 13.8375 22.6935 13.5 22.2795 13.5H13.2795Z" fill="#585E48"/>
<path d="M10.4985 34.5004C9.82647 34.5004 9.21597 34.0459 9.04497 33.3634C7.99197 29.1544 9.24447 24.6349 12.3135 21.5674L13.9395 19.9399C14.5245 19.3534 15.474 19.3534 16.0605 19.9399C16.647 20.5264 16.647 21.4744 16.0605 22.0609L14.4345 23.6884C12.108 26.0164 11.157 29.4439 11.9565 32.6374C12.1575 33.4399 11.6685 34.2544 10.8645 34.4554C10.7415 34.4869 10.62 34.5004 10.4985 34.5004Z" fill="#585E48"/>
<path d="M18.156 34.8393C17.631 34.8393 17.1225 34.5633 16.8465 34.0728C14.709 30.2673 14.826 25.6068 17.1525 21.9138L18.231 20.2008C18.6735 19.4988 19.599 19.2888 20.2995 19.7328C21 20.1738 21.21 21.0993 20.769 21.8013L19.6905 23.5128C17.952 26.2758 17.8635 29.7603 19.4625 32.6058C19.869 33.3273 19.611 34.2423 18.8895 34.6473C18.657 34.7778 18.405 34.8393 18.156 34.8393Z" fill="#585E48"/>
<path d="M25.5 31.5004C24.672 31.5004 24 30.8299 24 30.0004C24 27.4999 23.0265 25.1494 21.258 23.3794L19.9395 22.0609C19.353 21.4744 19.353 20.5264 19.9395 19.9399C20.526 19.3534 21.474 19.3534 22.0605 19.9399L23.379 21.2584C25.7145 23.5954 27 26.6989 27 30.0004C27 30.8299 26.328 31.5004 25.5 31.5004Z" fill="#585E48"/>
<path d="M18 9C17.172 9 16.5 8.3295 16.5 7.5V3C16.5 2.1705 17.172 1.5 18 1.5C18.828 1.5 19.5 2.1705 19.5 3V7.5C19.5 8.3295 18.828 9 18 9Z" fill="#585E48"/>
<path d="M54.8564 45.8711C54.7634 45.8711 54.6704 45.8621 54.5759 45.8441L50.8409 45.1391C49.0589 44.8091 47.5379 43.6931 46.6754 42.0761C46.2854 41.3456 46.5629 40.4351 47.2934 40.0451C48.0254 39.6596 48.9329 39.9341 49.3229 40.6631C49.7459 41.4581 50.5199 42.0281 51.3914 42.1901L53.6639 42.6191L54.1019 40.3496C54.2489 39.5621 54.0854 38.7686 53.6399 38.1311C53.1659 37.4516 53.3324 36.5171 54.0134 36.0416C54.6944 35.5706 55.6289 35.7356 56.1014 36.4136C57.0089 37.7156 57.3464 39.3116 57.0509 40.9061L56.3294 44.6516C56.1914 45.3686 55.5629 45.8681 54.8579 45.8681L54.8564 45.8711Z" fill="#585E48"/>
<path d="M41.1435 45.8862C40.4385 45.8862 39.81 45.3882 39.672 44.6697L38.952 40.9347C38.6565 39.3417 38.985 37.7502 39.876 36.4452C40.3425 35.7627 41.277 35.5887 41.961 36.0522C42.645 36.5202 42.8205 37.4532 42.354 38.1387C41.913 38.7837 41.7525 39.5787 41.901 40.3767L42.3345 42.6297L44.5965 42.1932C45.492 42.0312 46.2465 41.4747 46.677 40.6647C47.0085 40.0632 47.1165 39.3687 46.9905 38.6907L46.527 36.2847C46.371 35.4702 46.902 34.6842 47.7165 34.5267C48.528 34.3722 49.3155 34.9032 49.473 35.7162L49.938 38.1312C50.1915 39.5007 49.9695 40.9047 49.3125 42.0942C48.459 43.6977 46.938 44.8137 45.1485 45.1407L41.4285 45.8592C41.334 45.8772 41.238 45.8862 41.1435 45.8862Z" fill="#585E48"/>
<path d="M42.957 39.1947C42.111 39.1947 41.2695 39.0147 40.488 38.6547C38.9085 37.9557 37.704 36.5892 37.203 34.9167L36.1095 31.2732C35.994 30.8907 36.036 30.4812 36.225 30.1302C36.4125 29.7807 36.7335 29.5182 37.1145 29.4042L40.7595 28.3107C42.024 27.9402 43.3785 27.9822 44.5785 28.4307C45.1665 28.6497 45.555 29.2107 45.555 29.8377C45.555 30.6672 44.883 31.3452 44.055 31.3452C43.8225 31.3452 43.602 31.2942 43.4055 31.1997C42.8385 31.0212 42.2055 31.0137 41.6115 31.1877L39.4125 31.8462L40.0755 34.0557C40.326 34.8897 40.9245 35.5692 41.7225 35.9217C42.3915 36.2277 43.128 36.2787 43.812 36.0687L46.0305 35.4012L45.9105 35.0097C45.7185 34.4787 45.831 33.8592 46.2555 33.4347C46.8405 32.8482 47.784 32.8392 48.369 33.4272C48.54 33.5982 48.681 33.8232 48.7545 34.0527L49.332 35.9787C49.5675 36.7707 49.1175 37.6047 48.327 37.8432L44.682 38.9382C44.118 39.1092 43.536 39.1947 42.957 39.1947Z" fill="#585E48"/>
<path d="M47.31 35.985C46.926 35.985 46.542 35.838 46.2495 35.5455L44.2845 33.579C43.3095 32.622 42.711 31.3785 42.564 29.991C42.357 28.188 42.984 26.3985 44.2845 25.098L46.983 22.3965C47.265 22.1145 47.646 21.957 48.045 21.957C48.444 21.957 48.828 22.116 49.1085 22.3995L51.7935 25.101C53.061 26.367 53.6955 28.1325 53.529 29.9415C53.454 30.7665 52.7235 31.374 51.8985 31.2975C51.0735 31.221 50.466 30.4905 50.5425 29.6655C50.6265 28.749 50.3085 27.858 49.671 27.2205L48.0435 25.5825L46.4085 27.219C45.7575 27.87 45.444 28.7595 45.5475 29.661C45.621 30.3615 45.915 30.9735 46.3965 31.446L48.372 33.4215C48.9585 34.008 48.9585 34.956 48.372 35.5425C48.0795 35.835 47.6955 35.982 47.3115 35.982L47.31 35.985Z" fill="#585E48"/>
<path d="M53.0414 39.1869C52.4699 39.1869 51.8894 39.1044 51.3164 38.9319L47.6744 37.8339C46.8809 37.5954 46.4324 36.7584 46.6709 35.9664L47.7659 32.3244C48.2279 30.7899 49.2599 29.5269 50.6714 28.7679C52.0844 28.0119 53.7059 27.8499 55.2404 28.3074L58.8824 29.4024C59.2634 29.5179 59.5829 29.7789 59.7719 30.1284C59.9594 30.4794 60.0014 30.8904 59.8874 31.2714L58.7909 34.9134C58.0094 37.5069 55.6214 39.1869 53.0414 39.1869ZM49.974 35.3949L52.1804 36.0594C53.7644 36.5274 55.4414 35.6349 55.9169 34.0494L56.5799 31.8444L54.3749 31.1814C53.6069 30.9504 52.7969 31.0314 52.0904 31.4094C51.3854 31.7889 50.8694 32.4204 50.6384 33.1884L49.974 35.3949Z" fill="#585E48"/>
</g>
<defs>
<clipPath id="clip0_643_365">
<rect width="60" height="60" fill="white"/>
</clipPath>
</defs>
</svg>
