<svg width="20" height="20" viewBox="0 0 20 20" fill="none" xmlns="http://www.w3.org/2000/svg">
<g clip-path="url(#clip0_924_71)">
<mask id="mask0_924_71" style="mask-type:luminance" maskUnits="userSpaceOnUse" x="0" y="0" width="20" height="20">
<path d="M0 0L0 20L20 20L20 0L0 0Z" fill="white"/>
</mask>
<g mask="url(#mask0_924_71)">
<mask id="mask1_924_71" style="mask-type:luminance" maskUnits="userSpaceOnUse" x="0" y="0" width="20" height="20">
<path d="M0 0L0 20L20 20L20 0L0 0Z" fill="white"/>
</mask>
<g mask="url(#mask1_924_71)">
<mask id="mask2_924_71" style="mask-type:luminance" maskUnits="userSpaceOnUse" x="0" y="0" width="20" height="20">
<path d="M0 0L0 20L20 20L20 0L0 0Z" fill="white"/>
</mask>
<g mask="url(#mask2_924_71)">
<path d="M-80.0005 0.294895C-60.5755 0.102195 -45.295 0.0312997 -29.9946 0.0067997L20.0005 49.998V30.5098C20.0183 53.1689 20.0304 72.3055 19.6958 100L-80.0005 100L-80.0005 0.294895ZM20.0005 20.0029L20.0005 30.5098C19.9977 26.9545 19.9954 23.3125 19.9936 19.5371C19.9972 19.692 20.0005 19.8472 20.0005 20.0029ZM19.9927 19.4863C19.7186 8.6794 10.8734 0.00289917 0.000459671 0.00289917H-25.853C-11.932 -0.0122008 2.31436 0.0041 19.9995 0C19.9907 6.9722 19.9898 13.4026 19.9927 19.4863ZM-25.853 0.00289917C-27.2358 0.00439917 -28.6153 0.0045997 -29.9946 0.0067997L-25.853 0.00289917Z" fill="#D9D9D9"/>
</g>
</g>
</g>
</g>
<defs>
<clipPath id="clip0_924_71">
<rect width="20" height="20" fill="white" transform="matrix(-1 0 0 -1 20 20)"/>
</clipPath>
</defs>
</svg>
