<svg width="50" height="50" viewBox="0 0 50 50" fill="none" xmlns="http://www.w3.org/2000/svg">
<path d="M21.4117 21.9075C21.7268 21.512 21.9947 21.1315 22.3064 20.7922C23.7751 19.1934 25.4321 17.8035 27.0741 16.3956C29.1351 14.6284 30.9808 12.6761 32.1898 10.1816C33.549 7.37744 33.8915 4.49505 32.9211 1.49364C32.848 1.26749 32.7953 1.03457 32.7038 0.696639C32.9458 0.881273 33.1248 0.97965 33.19 1.16952C33.3033 1.49925 33.5526 1.62834 33.849 1.74777C37.2789 3.12936 40.3348 5.09952 42.8382 7.85955C46.4468 11.8382 48.7969 16.4735 49.6608 21.8345C50.3187 25.9168 50.0285 29.9357 48.7119 33.855C47.5723 37.2474 45.7674 40.2575 43.4261 42.9388C40.8103 45.9347 37.595 48.0378 33.9285 49.4673C33.1558 49.7686 33.1629 49.7711 32.7725 49.0241C31.1553 45.9301 30.9844 42.715 31.9818 39.4019C32.6986 37.0209 33.7698 34.8229 35.356 32.9105C36.5096 31.5196 38.0192 30.6804 39.7181 30.1456C40.9773 29.7492 42.2747 29.5301 43.5535 29.225C44.0741 29.1008 44.5707 28.9173 45.0217 28.6198C45.8894 28.0471 46.0627 27.0933 45.4436 26.255C45.3009 26.0618 45.1361 25.8851 44.9767 25.705C44.5787 25.2551 44.5452 24.8186 44.8739 24.3107C45.2283 23.763 45.1398 23.3837 44.5961 23.011C44.3872 22.8677 44.2197 22.9627 44.0378 23.0417C43.5297 23.2626 43.0314 23.5172 42.4565 23.5373C42.4122 23.3275 42.5658 23.2797 42.6624 23.2126C43.0457 22.9464 43.4359 22.6905 43.8263 22.4351C44.0389 22.296 44.25 22.157 44.4132 21.9562C44.8038 21.476 44.7619 21.1883 44.2494 20.8405C43.4684 20.3106 43.3781 19.8296 43.9218 19.0616C44.1384 18.7555 44.373 18.4622 44.5079 18.1046C44.6892 17.6241 44.6187 17.4426 44.133 17.2855C43.3093 17.019 42.5029 16.7131 41.7207 16.3378C41.3358 16.1532 40.9459 15.9771 40.5992 15.7279C40.34 15.5417 40.0888 15.744 40.0812 15.8685C40.0651 16.1282 39.8871 16.2057 39.7579 16.333C39.5067 16.5806 39.4969 16.5705 39.7732 16.8341C38.5357 16.9784 37.3019 17.4054 36.1871 16.4792C36.2099 16.4477 36.2254 16.4095 36.2389 16.4102C37.3222 16.4638 38.3204 16.022 39.3662 15.8584C39.9101 15.7733 40.2773 15.4329 40.5368 14.9554C39.3851 15.6647 38.1083 15.9281 36.7112 16.1898C36.8751 15.9099 37.0492 15.871 37.1972 15.8035C37.8794 15.4925 38.5907 15.2763 39.3337 15.1833C39.608 15.1489 39.6719 15.0454 39.563 14.7855C39.3483 14.2726 39.2503 13.7248 39.2212 13.1751C39.1677 12.1632 38.7323 11.3157 38.1834 10.5096C37.3637 9.30583 36.4129 8.22566 35.2453 7.35393C35.1424 7.27709 35.0394 7.13617 34.9012 7.20174C34.7561 7.27057 34.8145 7.4414 34.8162 7.5683C34.8568 10.5298 34.1501 13.3171 32.9448 15.9976C32.1608 17.7411 31.3225 19.4467 30.0959 20.9254C29.1885 22.019 28.1563 22.9582 26.8528 23.5408C26.4963 23.7001 26.4652 23.867 26.6079 24.2137C27.2062 25.6675 27.4916 27.1897 27.5766 28.7639C27.8502 33.8256 26.3392 38.3811 23.8308 42.6752C22.5996 44.7828 21.098 46.6748 19.5073 48.5039C19.1739 48.8872 18.8315 49.2635 18.517 49.6623C18.2606 49.9876 17.9806 50.0646 17.581 49.95C16.6445 49.6815 15.7396 49.3303 14.8604 48.9173C11.7271 47.4456 8.95571 45.4567 6.62832 42.8646C4.32222 40.2963 2.58844 37.3814 1.47174 34.084C0.74305 31.9323 0.25491 29.7364 0.0719066 27.4755C-0.173917 24.4388 0.225307 21.4635 1.04389 18.5444C1.67068 16.3091 2.52982 14.1565 3.71896 12.173C6.50073 7.53286 10.3426 4.11297 15.2875 1.94287C18.6245 0.478432 22.09 -0.130753 25.6942 0.0231998C27.6723 0.1077 29.6286 0.421207 31.5519 0.91708C31.8205 0.986349 32.0857 1.05335 32.3729 1.05141C32.722 1.04907 32.7321 1.3603 32.7411 1.60937C32.7817 2.72941 32.5715 3.80261 32.1199 4.82694C31.3316 6.61529 30.0867 8.05824 28.7532 9.44133C26.7002 11.5707 24.7411 13.777 23.2489 16.3683C22.3352 17.955 21.6771 19.6274 21.3954 21.4459C21.3751 21.5768 21.3267 21.7072 21.4117 21.9075ZM32.0805 1.94774C32.0122 2.02466 31.9455 2.1032 31.8751 2.17814C31.793 2.2655 31.7104 2.35263 31.6234 2.43486C30.5676 3.43305 29.2601 3.95723 27.9346 4.45182C26.1052 5.13437 24.2387 5.71123 22.5286 6.70583C19.99 8.18217 18.1803 10.2331 17.2875 13.087C16.5895 15.3181 16.4256 17.5816 16.7116 19.9004C17.0469 22.6196 17.9015 25.1309 19.4602 27.3825C19.6046 27.591 19.7236 27.8249 19.9658 28.0216C19.9658 27.8756 19.9773 27.7945 19.964 27.7178C19.7562 26.5096 19.6807 25.297 19.7287 24.0679C19.7788 22.7859 19.9165 21.5202 20.2095 20.2747C20.9868 16.9698 22.6371 14.1545 24.9549 11.7285C26.0632 10.5685 27.2174 9.4537 28.3298 8.29768C29.4834 7.09882 30.5047 5.79006 31.2775 4.30445C31.6581 3.57291 31.9528 2.79747 32.0805 1.94774ZM11.7035 7.38908C11.3595 7.59067 11.1028 7.87379 10.8478 8.16764C8.50386 10.8692 7.31472 13.9907 7.38481 17.6099C7.44235 20.5813 8.51619 23.1048 10.5137 25.2408C11.6586 26.4651 12.9619 27.5056 14.3362 28.455C16.807 30.162 19.2013 31.9651 21.2994 34.1407C21.3601 34.2037 21.4075 34.2996 21.5456 34.2916C21.5496 33.9389 21.4212 33.6149 21.3349 33.286C20.7364 31.0041 19.7204 28.9645 17.9442 27.3765C16.9873 26.521 15.9515 25.767 14.9042 25.0325C13.8091 24.2643 12.7217 23.4817 11.8931 22.4153C9.76594 19.6777 9.04528 16.5527 9.50165 13.1258C9.77986 11.0368 10.4884 9.11654 11.7035 7.38908ZM15.5752 23.7768C15.5623 23.7001 15.5513 23.6229 15.536 23.5466C15.0069 20.9133 14.7335 18.2647 15.0401 15.5773C15.1795 14.3566 15.4159 13.1581 15.8591 12.0134C17.0637 8.90185 19.3193 6.86502 22.299 5.55669C23.8738 4.86524 25.5029 4.33495 27.1222 3.77171C27.6886 3.5747 28.2382 3.32831 28.7955 3.10446C28.7848 3.0662 28.7742 3.0279 28.7635 2.98965C28.0664 3.04467 27.37 3.11072 26.6721 3.1526C24.909 3.25849 23.1549 3.41313 21.4378 3.87353C18.3821 4.69283 15.9547 6.41081 14.2053 9.07557C13.0456 10.8422 12.3919 12.7876 12.2226 14.9205C12.0512 17.0803 12.3154 19.1292 13.3561 21.0464C13.9227 22.0901 14.6479 23.0036 15.5752 23.7768ZM8.34482 41.4458C8.47979 41.4172 8.53321 41.4146 8.57941 41.3947C9.62252 40.9452 10.7062 40.8782 11.8217 40.9952C12.85 41.1031 13.8792 41.2501 14.9175 41.1863C16.0919 41.1141 17.1747 40.7631 18.17 40.1087C19.0398 39.5367 19.7498 38.8004 20.4137 38.0112C20.6212 37.7645 20.9341 37.6159 21.1 37.2834C18.0349 36.7476 15.159 37.081 12.5103 38.7853C15.298 36.6197 18.437 35.912 21.9328 36.4471C21.8461 36.3547 21.8074 36.3033 21.7592 36.2635C21.3357 35.9138 20.8727 35.6249 20.3952 35.3582C17.9771 34.0075 15.553 33.8003 13.0927 35.2672C11.4729 36.2331 10.3409 37.6489 9.39419 39.246C8.99207 39.9243 8.63417 40.6269 8.34482 41.4458ZM22.7787 42.1783C22.8023 42.1328 22.828 42.0881 22.8493 42.0414C23.9456 39.6383 24.1002 37.1096 23.7541 34.5364C23.5249 32.8324 23.0423 31.1692 22.8898 29.45C22.744 27.8057 22.9514 26.2381 23.8032 24.7845C24.5563 23.4992 25.6277 22.5122 26.7056 21.5392C27.944 20.4213 29.2447 19.3771 30.3235 18.0852C31.2624 16.9607 32.1334 15.786 32.7586 14.4583C33.6548 12.5551 34.2628 10.5555 34.5467 8.45555C34.7218 7.16081 34.6326 5.89162 34.3779 4.62386C34.3549 4.80977 34.3284 4.9996 34.3595 5.17926C34.4902 5.93485 34.4167 6.68771 34.2893 7.42694C33.8466 9.99571 32.7735 12.2873 31.2194 14.3532C29.7349 16.3265 27.872 17.913 26.0187 19.504C24.7325 20.6082 23.5955 21.839 22.6928 23.2826C21.5121 25.1711 21.0228 27.2206 21.3414 29.4483C21.5462 30.8802 22.01 32.2434 22.4303 33.6176C22.9158 35.2052 23.2823 36.8155 23.2506 38.488C23.227 39.7271 23.0448 40.9498 22.7787 42.1783ZM7.49837 31.5385C10.4976 31.1185 13.4451 31.3117 16.326 32.4359C16.3097 32.2503 16.2136 32.1711 16.1418 32.0779C15.6989 31.5029 15.1852 30.9935 14.6538 30.5075C13.0452 29.0363 11.1675 28.4605 9.02027 28.8371C6.86851 29.2145 5.04328 30.2967 3.30719 31.5657C3.0361 31.7638 2.73107 31.9305 2.51373 32.241C2.97079 32.4019 3.41219 32.492 3.8283 32.6689C4.76251 33.0661 5.61271 33.6215 6.50568 34.0959C7.43328 34.5886 8.39489 34.9307 9.45777 34.9741C11.6113 35.0621 13.2316 33.8188 15.023 32.7508C12.5502 31.7846 10.0583 31.4773 7.49837 31.5385Z" fill="white"/>
</svg>
