<svg width="110" height="110" viewBox="0 0 110 110" fill="none" xmlns="http://www.w3.org/2000/svg">
<path d="M58.7009 9.95608L57.6521 0L59.7462 0.356676L60.4671 9.42856L59.8094 9.31652L63.3571 0.971714L65.7062 1.37183L66.1587 10.398L65.5144 10.2882L69.3172 1.98687L71.3173 2.32754L66.9161 11.3554L64.6072 10.9621L64.0574 2.09589L64.5943 2.18735L61.0097 10.3493L58.7009 9.95608Z" fill="white"/>
<path d="M75.5399 14.7233C75.5755 14.523 75.6292 14.3162 75.701 14.1029C75.7811 13.8935 75.8848 13.6555 76.0122 13.3891L75.9628 13.3663L77.3581 10.4474C77.4778 10.1971 77.4841 9.96348 77.377 9.74661C77.2821 9.52545 77.0702 9.33906 76.7413 9.18743C76.4289 9.04339 76.153 8.98026 75.9137 8.99804C75.6827 9.01962 75.4901 9.11807 75.3361 9.2934L73.5725 8.4803C73.9211 7.96107 74.433 7.63539 75.1082 7.50326C75.7834 7.37114 76.5567 7.50598 77.4282 7.90779C78.3326 8.32476 78.9287 8.841 79.2164 9.45651C79.5041 10.072 79.4705 10.7512 79.1154 11.4941L77.8127 14.2192C77.7162 14.4211 77.6301 14.6327 77.5544 14.854C77.4908 15.071 77.4359 15.3118 77.3898 15.5762L75.5399 14.7233ZM73.2868 13.8324C72.662 13.5443 72.2379 13.1615 72.0146 12.6841C71.7951 12.1986 71.8089 11.6975 72.0559 11.1807C72.33 10.6074 72.7679 10.2476 73.3696 10.1013C73.9834 9.95075 74.71 10.0049 75.5495 10.2639L77.5086 10.8567L77.0049 11.9105L75.3657 11.4355C75.0136 11.3323 74.7287 11.3093 74.5107 11.3665C74.2927 11.4237 74.1297 11.5653 74.0216 11.7914C73.9251 11.9933 73.9258 12.1808 74.0236 12.354C74.1214 12.5272 74.2936 12.6706 74.5403 12.7844C74.9267 12.9625 75.3038 13.0132 75.6716 12.9364C76.0433 12.8516 76.2948 12.6719 76.426 12.3974L76.1355 13.4459C75.7346 13.8228 75.2932 14.043 74.8113 14.1066C74.3294 14.1702 73.8212 14.0788 73.2868 13.8324Z" fill="white"/>
<path d="M81.795 18.6122C81.0612 18.1174 80.6354 17.576 80.5176 16.988C80.4125 16.3977 80.6093 15.7459 81.108 15.0327L84.5243 10.1463L86.6408 10.6646L82.7541 16.2239C82.5793 16.4739 82.5193 16.7094 82.5742 16.9303C82.6291 17.1512 82.8062 17.3627 83.1057 17.5647C83.2181 17.6404 83.3306 17.7 83.4434 17.7436C83.5561 17.7872 83.6714 17.8271 83.7894 17.8633L82.9102 19.1208C82.7769 19.1066 82.6101 19.0536 82.4098 18.9619C82.2171 18.8752 82.0121 18.7586 81.795 18.6122ZM81.699 11.9417L82.5782 10.6842L86.8123 13.5395L85.9332 14.7969L81.699 11.9417Z" fill="white"/>
<path d="M86.5989 22.527C86.0752 22.0324 85.7207 21.4872 85.5354 20.8914C85.3502 20.2956 85.3319 19.6966 85.4805 19.0945C85.6357 18.4985 85.9557 17.953 86.4405 17.4579C86.9253 16.9629 87.4678 16.6276 88.0682 16.4521C88.675 16.2828 89.2852 16.2774 89.8986 16.436C90.5119 16.5946 91.0805 16.9212 91.6042 17.4158C92.0428 17.8301 92.3569 18.2815 92.5464 18.7699C92.7488 19.2581 92.826 19.7456 92.7778 20.2323C92.7362 20.7251 92.5656 21.1889 92.2659 21.6236L90.842 20.2788C91.003 19.9729 91.0483 19.6692 90.9781 19.3677C90.9144 19.0724 90.7582 18.8073 90.5095 18.5724C90.2738 18.3498 90.0109 18.2128 89.7208 18.1616C89.4373 18.1166 89.1458 18.1569 88.8464 18.2825C88.547 18.4081 88.2556 18.6155 87.9723 18.9048C87.689 19.1941 87.4893 19.4882 87.3732 19.7869C87.257 20.0856 87.2274 20.3732 87.2843 20.6497C87.3477 20.9324 87.4973 21.185 87.7329 21.4076C87.9817 21.6426 88.2575 21.7856 88.5605 21.8365C88.8699 21.8937 89.1771 21.8373 89.4821 21.6675L90.9059 23.0123C90.4753 23.3234 90.0101 23.509 89.5102 23.569C89.0169 23.6352 88.5148 23.5817 88.0039 23.4086C87.5058 23.2352 87.0375 22.9413 86.5989 22.527Z" fill="white"/>
<path d="M90.6435 26.378L98.7124 20.8999L99.8745 22.5508L91.8055 28.0289L90.6435 26.378ZM93.3937 30.2852L96.9351 27.8809C97.2488 27.6679 97.4274 27.4274 97.4707 27.1595C97.5191 26.8989 97.4374 26.6181 97.2257 26.3173C97.0449 26.0605 96.8224 25.8699 96.5583 25.7456C96.2993 25.6287 96.0239 25.5825 95.7321 25.6071C95.4454 25.6391 95.1601 25.7515 94.8762 25.9442L96.1539 24.8653C96.7014 24.7647 97.2224 24.8068 97.7169 24.9916C98.224 25.1787 98.6609 25.5327 99.0276 26.0537C99.4666 26.6773 99.623 27.276 99.4968 27.8497C99.378 28.4183 99.0198 28.9054 98.4221 29.3112L94.5558 31.9361L93.3937 30.2852Z" fill="white"/>
<path d="M98.9281 42.319C98.7296 41.6326 98.6639 40.9647 98.7311 40.3154C98.8008 39.6747 98.9876 39.0802 99.2917 38.5317C99.607 37.9894 100.027 37.5153 100.552 37.1093C101.087 36.7095 101.718 36.4085 102.443 36.2062C103.404 35.9382 104.301 35.9059 105.134 36.1094C105.976 36.3104 106.701 36.711 107.309 37.3111C107.919 37.9198 108.357 38.6832 108.623 39.6013C108.893 40.5366 108.93 41.4164 108.734 42.2407C108.538 43.065 108.136 43.7799 107.528 44.3855C106.921 44.9996 106.138 45.4407 105.177 45.7087C104.46 45.9086 103.766 45.9724 103.094 45.9003C102.432 45.8343 101.821 45.6477 101.261 45.3405C100.711 45.0395 100.234 44.6301 99.829 44.1124C99.4269 43.6033 99.1266 43.0055 98.9281 42.319ZM100.523 41.8602C100.68 42.4008 100.957 42.8381 101.356 43.172C101.754 43.5059 102.232 43.7204 102.788 43.8156C103.356 43.917 103.967 43.8763 104.622 43.6935C105.269 43.5132 105.799 43.2402 106.213 42.8745C106.626 42.5088 106.904 42.0834 107.047 41.5985C107.19 41.1135 107.182 40.5964 107.024 40.0472C106.867 39.5067 106.599 39.067 106.217 38.7282C105.836 38.3894 105.372 38.1712 104.824 38.0736C104.288 37.9821 103.692 38.0277 103.037 38.2104C102.373 38.3956 101.825 38.6735 101.394 39.0441C100.972 39.4123 100.681 39.8413 100.52 40.3311C100.368 40.8185 100.369 41.3282 100.523 41.8602Z" fill="white"/>
<path d="M100.692 51.7961C100.673 51.3148 100.761 50.8964 100.957 50.5409C101.161 50.1939 101.437 49.9247 101.784 49.733C102.14 49.5411 102.54 49.4367 102.985 49.4199L107.682 49.2427L107.76 51.2482L103.458 51.4105C103.077 51.4249 102.795 51.5293 102.612 51.7237C102.428 51.918 102.343 52.1846 102.357 52.5233C102.368 52.8264 102.452 53.091 102.606 53.3173C102.76 53.5436 102.967 53.7188 103.226 53.8429C103.495 53.9756 103.797 54.0356 104.133 54.0229L102.465 54.2599C101.958 54.0559 101.541 53.7458 101.216 53.3296C100.89 52.9134 100.716 52.4022 100.692 51.7961ZM100.922 54.1842L102.556 54.1226L102.554 54.0825L107.863 53.8821L107.942 55.8877L100.999 56.1497L100.922 54.1842Z" fill="white"/>
<path d="M100.805 58.9581L107.689 59.8847L107.417 61.8333L105.798 61.6153L105.792 61.6551L100.528 60.9465L100.805 58.9581ZM104.118 61.4298L105.776 61.4773C106.338 61.7151 106.747 62.0358 107.003 62.4393C107.258 62.8428 107.348 63.3141 107.273 63.8532C107.25 64.0211 107.214 64.1424 107.167 64.2171L105.277 63.9627C105.302 63.921 105.319 63.8603 105.33 63.7808C105.35 63.7024 105.369 63.6058 105.385 63.491C105.473 62.8547 105.422 62.3705 105.23 62.0386C105.047 61.7078 104.676 61.5049 104.118 61.4298Z" fill="white"/>
<path d="M97.6135 71.9143L108.004 72.6816L107.117 74.6371L98.558 73.7777L98.6633 73.5455L105.032 79.2326L104.19 81.0903L96.6599 74.0165L97.6135 71.9143Z" fill="white"/>
<path d="M93.9002 79.0128L99.6646 82.8227L98.5236 84.4877L92.7592 80.6778L93.9002 79.0128ZM100.471 83.2752L102.302 84.4854L101.085 86.2614L99.2542 85.0512L100.471 83.2752Z" fill="white"/>
<path d="M87.9764 86.3903L89.1048 87.4189L88.9921 87.4988C88.6878 87.0996 88.5802 86.6365 88.6695 86.1094C88.7526 85.5887 89.0073 85.1029 89.4336 84.6518C89.8661 84.1941 90.3496 83.8924 90.8839 83.7466C91.4187 83.6135 91.969 83.6343 92.5347 83.8093C93.1005 83.9843 93.6497 84.3145 94.1822 84.8C94.7215 85.2915 95.1012 85.8141 95.3214 86.3678C95.5416 86.9215 95.6009 87.4684 95.4993 88.0087C95.3915 88.5554 95.1214 89.0576 94.6888 89.5153C94.2378 89.9925 93.7601 90.2751 93.2557 90.363C92.7451 90.4574 92.2687 90.3518 91.8265 90.046L91.9185 89.9291L95.1937 92.9146L93.8035 94.3857L86.614 87.8319L87.9764 86.3903ZM90.187 86.2148C89.8595 86.5613 89.717 86.9547 89.7594 87.395C89.8084 87.8413 90.066 88.2769 90.532 88.7016C90.998 89.1264 91.4591 89.3399 91.9155 89.3422C92.3724 89.357 92.7677 89.1879 93.1013 88.8349C93.4226 88.4949 93.5618 88.0985 93.5189 87.6456C93.4699 87.1993 93.2124 86.7637 92.7464 86.3389C92.2804 85.9141 91.8223 85.6974 91.3721 85.6886C90.9157 85.6863 90.5207 85.8617 90.187 86.2148Z" fill="white"/>
<path d="M81.7486 91.4767C82.3784 91.0382 83.0133 90.7765 83.6535 90.6916C84.2989 90.6139 84.9088 90.7031 85.4834 90.9592C86.0505 91.2203 86.5389 91.6347 86.9487 92.2023C87.3637 92.7771 87.6002 93.3669 87.6582 93.9717C87.7141 94.5888 87.599 95.1774 87.313 95.7374C87.0323 96.3047 86.5881 96.7999 85.9806 97.2229C85.3952 97.6305 84.8037 97.8675 84.2058 97.9339C83.608 98.0003 83.0408 97.9086 82.5042 97.659C81.9677 97.4093 81.4972 97.0043 81.0927 96.444C81.0086 96.3276 80.9335 96.2159 80.8674 96.1088C80.8065 96.0091 80.752 95.9104 80.7037 95.8128L85.6161 92.3921L86.3962 93.4727L82.8286 95.9569L82.9758 95.5592C83.3015 96.0104 83.6516 96.2641 84.0262 96.3203C84.3987 96.389 84.7739 96.2918 85.1518 96.0287C85.5889 95.7243 85.8247 95.3414 85.859 94.8801C85.886 94.4239 85.6893 93.9048 85.2691 93.3226C84.8593 92.7551 84.4361 92.4156 83.9993 92.3042C83.5552 92.1979 83.0924 92.3125 82.6108 92.6478C82.344 92.8335 82.1459 93.0371 82.0163 93.2586C81.8867 93.4801 81.8446 93.7226 81.8901 93.9861L80.3231 95.0773C80.1196 94.4098 80.1308 93.7623 80.3569 93.1347C80.5808 92.5195 81.0447 91.9669 81.7486 91.4767Z" fill="white"/>
<path d="M73.7976 95.98C74.4964 95.6794 75.1722 95.5493 75.8249 95.5898C76.4729 95.6421 77.056 95.849 77.5742 96.2103C78.0877 96.5835 78.4884 97.0927 78.7763 97.7382C79.0642 98.3837 79.1701 99.0101 79.094 99.6174C79.0095 100.228 78.7654 100.781 78.3615 101.276C77.9494 101.775 77.3939 102.175 76.695 102.475C75.9879 102.78 75.3121 102.91 74.6678 102.866C74.015 102.825 73.4356 102.626 72.9294 102.27C72.4232 101.913 72.0261 101.412 71.7382 100.766C71.4503 100.121 71.3449 99.4845 71.4221 98.8573C71.4946 98.2418 71.7351 97.6806 72.1436 97.1737C72.5474 96.6786 73.0988 96.2807 73.7976 95.98ZM74.4427 97.4262C74.1515 97.5515 73.9223 97.7377 73.7549 97.985C73.5793 98.2359 73.4809 98.5266 73.4597 98.857C73.4422 99.1957 73.5191 99.557 73.6904 99.941C73.9418 100.505 74.2889 100.872 74.7316 101.041C75.1696 101.223 75.609 101.219 76.05 101.029C76.4909 100.84 76.796 100.523 76.9653 100.08C77.1263 99.6411 77.0829 99.1436 76.8351 98.588C76.6638 98.204 76.4455 97.9035 76.1801 97.6866C75.9184 97.4778 75.6383 97.35 75.3397 97.3032C75.0329 97.2599 74.7339 97.3009 74.4427 97.4262Z" fill="white"/>
<path d="M63.7522 104.777L63.5832 106.235L64.5237 105.059L65.5989 106.365L64.1884 106.973L65.7149 107.146L65.0645 108.7L63.8211 107.837L64.4071 109.186L62.6815 109.433L62.8505 107.976L61.9099 109.152L60.8482 107.843L62.2472 107.251L60.7322 107.062L61.3691 105.511L62.6125 106.374L62.0266 105.024L63.7522 104.777Z" fill="white"/>
<path d="M50.6597 100.027L51.5244 110L49.4373 109.606L48.884 100.523L49.5395 100.647L45.8383 108.927L43.497 108.485L43.2112 99.4522L43.8534 99.5734L39.898 107.806L37.9045 107.429L42.4717 98.4815L44.7729 98.9158L45.1589 107.79L44.6238 107.689L48.3585 99.5926L50.6597 100.027Z" fill="white"/>
<path d="M33.8986 94.9535C33.8593 95.1532 33.8017 95.359 33.7259 95.5709C33.6419 95.7788 33.5337 96.0149 33.4014 96.279L33.4503 96.3026L32.0004 99.1958C31.876 99.4439 31.8653 99.6773 31.9683 99.8961C32.0591 100.119 32.2674 100.309 32.5934 100.467C32.9031 100.616 33.1777 100.684 33.4173 100.671C33.6487 100.654 33.843 100.559 34.0004 100.386L35.7483 101.231C35.3901 101.744 34.8722 102.06 34.1946 102.18C33.517 102.3 32.7463 102.151 31.8825 101.734C30.9861 101.3 30.3999 100.773 30.1238 100.153C29.8477 99.5322 29.8941 98.8537 30.2631 98.1174L31.6167 95.4163C31.717 95.2163 31.8071 95.0063 31.8869 94.7864C31.9546 94.5705 32.014 94.3308 32.0651 94.0672L33.8986 94.9535ZM36.1346 95.8852C36.7539 96.1845 37.1707 96.5749 37.385 97.0563C37.5953 97.5457 37.5721 98.0465 37.3154 98.5587C37.0306 99.1269 36.5861 99.4787 35.9817 99.614C35.3652 99.7535 34.6397 99.6861 33.8053 99.412L31.8576 98.7838L32.381 97.7393L34.011 98.2439C34.3611 98.3535 34.6456 98.3816 34.8646 98.3284C35.0836 98.2752 35.2493 98.1366 35.3616 97.9125C35.4618 97.7124 35.4647 97.5249 35.3701 97.3499C35.2756 97.175 35.1061 97.0284 34.8616 96.9103C34.4786 96.7251 34.1025 96.6676 33.7333 96.7377C33.3601 96.8158 33.1054 96.9909 32.969 97.263L33.2792 96.2199C33.687 95.8504 34.1325 95.6382 34.6155 95.5834C35.0986 95.5285 35.6049 95.6291 36.1346 95.8852Z" fill="white"/>
<path d="M27.7185 90.9535C28.4429 91.4614 28.8585 92.0104 28.9653 92.6004C29.0594 93.1924 28.8505 93.8406 28.3386 94.5448L24.8318 99.3689L22.7253 98.8126L26.715 93.3242C26.8944 93.0773 26.9588 92.843 26.908 92.6211C26.8573 92.3992 26.6841 92.1846 26.3884 91.9773C26.2775 91.8995 26.1661 91.8379 26.0542 91.7923C25.9422 91.7467 25.8277 91.7047 25.7105 91.6663L26.6129 90.4249C26.7459 90.4415 26.9117 90.4974 27.1102 90.5928C27.3014 90.683 27.5041 90.8032 27.7185 90.9535ZM27.69 97.6246L26.7876 98.866L22.6074 95.9351L23.5098 94.6937L27.69 97.6246Z" fill="white"/>
<path d="M22.9899 86.9541C23.5044 87.458 23.8487 88.0095 24.0229 88.6085C24.1971 89.2074 24.2043 89.8066 24.0446 90.4061C23.8784 90.9992 23.5483 91.5389 23.0544 92.0252C22.5606 92.5115 22.0119 92.837 21.4084 93.0018C20.7985 93.1602 20.1884 93.1547 19.578 92.9852C18.9676 92.8157 18.4052 92.479 17.8908 91.975C17.4599 91.553 17.1543 91.0961 16.9738 90.6043C16.7804 90.1126 16.7124 89.6239 16.7695 89.1381C16.8202 88.6461 16.9995 88.1854 17.3072 87.7561L18.7059 89.1262C18.5393 89.4291 18.4883 89.732 18.5529 90.0346C18.6111 90.331 18.7624 90.5989 19.0068 90.8383C19.2383 91.065 19.4986 91.2066 19.7877 91.263C20.0703 91.3131 20.3625 91.278 20.6642 91.1578C20.9659 91.0376 21.261 90.8354 21.5496 90.5512C21.8383 90.267 22.0434 89.9766 22.165 89.68C22.2867 89.3833 22.3216 89.0963 22.2699 88.8189C22.2117 88.5351 22.0668 88.2798 21.8353 88.0531C21.591 87.8137 21.3178 87.6658 21.0159 87.6094C20.7075 87.5468 20.3993 87.5976 20.0913 87.762L18.6926 86.3919C19.1289 86.0886 19.5975 85.9114 20.0984 85.8603C20.5928 85.8029 21.0939 85.8653 21.6015 86.0476C22.0962 86.2299 22.559 86.532 22.9899 86.9541Z" fill="white"/>
<path d="M19.0169 83.0319L10.8474 88.3643L9.71625 86.6927L17.8857 81.3604L19.0169 83.0319ZM16.3398 79.076L12.7543 81.4163C12.4366 81.6237 12.2537 81.8609 12.2054 82.128C12.1521 82.3877 12.2286 82.6699 12.4347 82.9744C12.6106 83.2345 12.8295 83.429 13.0913 83.558C13.3481 83.6796 13.6226 83.7307 13.9148 83.7113C14.202 83.6845 14.4894 83.5773 14.7768 83.3896L13.4792 84.4454C12.9299 84.5362 12.4098 84.4848 11.9189 84.2911C11.4153 84.095 10.9851 83.7332 10.6282 83.2057C10.2008 82.5743 10.0556 81.9729 10.1925 81.4016C10.3218 80.8352 10.689 80.3545 11.2941 79.9595L15.2087 77.4045L16.3398 79.076Z" fill="white"/>
<path d="M11.0307 66.9402C11.2162 67.6301 11.2693 68.2991 11.1899 68.947C11.1081 69.5864 10.9101 70.1774 10.5957 70.7202C10.2703 71.2567 9.84143 71.7231 9.30921 72.1195C8.76589 72.5095 8.12979 72.799 7.40092 72.988C6.43495 73.2385 5.53742 73.2545 4.70834 73.0359C3.87048 72.8195 3.15333 72.4058 2.55691 71.7948C1.95817 71.1751 1.53474 70.4038 1.28662 69.481C1.03385 68.541 1.01322 67.6606 1.2247 66.84C1.43619 66.0195 1.85187 65.312 2.47176 64.7176C3.08932 64.1146 3.88109 63.6879 4.84707 63.4373C5.56716 63.2506 6.26263 63.1994 6.93349 63.2837C7.59325 63.3617 8.20065 63.5594 8.75567 63.8768C9.2996 64.1878 9.76895 64.6058 10.1637 65.1307C10.5562 65.6471 10.8452 66.2502 11.0307 66.9402ZM9.42716 67.3699C9.28107 66.8265 9.01186 66.3843 8.61955 66.0432C8.22723 65.7021 7.75388 65.4789 7.1995 65.3736C6.63402 65.2619 6.02197 65.2915 5.36335 65.4623C4.71351 65.6308 4.1784 65.8941 3.75802 66.2523C3.33764 66.6104 3.05138 67.0306 2.89924 67.5129C2.7471 67.9952 2.74524 68.5123 2.89365 69.0643C3.03974 69.6076 3.30016 70.0521 3.67492 70.3977C4.04967 70.7434 4.50985 70.97 5.05545 71.0776C5.58995 71.1789 6.18651 71.1441 6.84513 70.9733C7.51253 70.8002 8.0652 70.5323 8.50314 70.1697C8.9323 69.8093 9.23173 69.3857 9.40143 68.8988C9.56236 68.4142 9.57093 67.9046 9.42716 67.3699Z" fill="white"/>
<path d="M9.44438 57.4251C9.45424 57.9067 9.3583 58.3235 9.15656 58.6754C8.94556 59.0186 8.66481 59.2829 8.31431 59.4683C7.95473 59.6538 7.55246 59.751 7.10751 59.7597L2.4082 59.8525L2.36712 57.8459L6.67141 57.7609C7.05281 57.7534 7.33693 57.6541 7.5238 57.4631C7.71066 57.272 7.80062 57.0071 7.79368 56.6682C7.78747 56.3649 7.70935 56.0988 7.55931 55.8698C7.40927 55.6408 7.20575 55.4619 6.94875 55.3332C6.68249 55.1957 6.38136 55.1303 6.04537 55.1369L7.71722 54.9299C8.22122 55.143 8.63198 55.4605 8.94949 55.8825C9.267 56.3045 9.43196 56.8187 9.44438 57.4251ZM9.25915 55.0333L7.62461 55.0656L7.62543 55.1057L2.31317 55.2106L2.27209 53.204L9.21889 53.0668L9.25915 55.0333Z" fill="white"/>
<path d="M9.46257 50.2799L2.59702 49.2305L2.905 47.2871L4.52042 47.534L4.52671 47.4943L9.77684 48.2968L9.46257 50.2799ZM6.19598 47.7495L4.53986 47.6724C3.98165 47.4245 3.57861 47.0966 3.33074 46.6886C3.08287 46.2806 3.00154 45.8078 3.08674 45.2701C3.11328 45.1027 3.15078 44.982 3.19925 44.9082L5.08391 45.1962C5.05898 45.2376 5.04023 45.2979 5.02766 45.3772C5.00611 45.4552 4.98626 45.5514 4.9681 45.666C4.86754 46.3006 4.91018 46.7856 5.09603 47.1209C5.27291 47.4549 5.63956 47.6644 6.19598 47.7495Z" fill="white"/>
<path d="M12.8993 37.3734L2.5249 36.4175L3.44869 34.4784L11.9901 35.4932L11.8804 35.7234L5.6196 29.9216L6.4972 28.0795L13.8924 35.2889L12.8993 37.3734Z" fill="white"/>
<path d="M16.744 30.3458L11.0515 26.433L12.2234 24.7887L17.9158 28.7015L16.744 30.3458ZM10.2535 25.9661L8.44531 24.7231L9.69525 22.9692L11.5034 24.2122L10.2535 25.9661Z" fill="white"/>
<path d="M22.8024 23.0768L21.6932 22.0283L21.8074 21.9504C22.1043 22.355 22.2032 22.8199 22.1042 23.3454C22.0115 23.8644 21.7478 24.3457 21.3132 24.7891C20.8723 25.2389 20.3833 25.532 19.8464 25.6682C19.3092 25.7918 18.7594 25.761 18.197 25.576C17.6345 25.3909 17.0916 25.051 16.5681 24.5561C16.0381 24.055 15.6681 23.5257 15.4581 22.9682C15.2482 22.4106 15.199 21.8627 15.3106 21.3244C15.4286 20.7796 15.708 20.2823 16.1489 19.8325C16.6087 19.3634 17.0916 19.0894 17.5975 19.0105C18.1098 18.9252 18.5841 19.0394 19.0206 19.353L18.9264 19.4683L15.707 16.4247L17.1243 14.9787L24.1913 21.6598L22.8024 23.0768ZM20.5889 23.2129C20.9227 22.8723 21.0725 22.4815 21.0383 22.0405C20.9975 21.5934 20.7481 21.1533 20.29 20.7203C19.832 20.2872 19.3748 20.0655 18.9186 20.0551C18.462 20.0321 18.0637 20.1941 17.7236 20.5412C17.396 20.8753 17.2495 21.2692 17.284 21.7228C17.3248 22.1699 17.5742 22.61 18.0322 23.043C18.4903 23.4761 18.9443 23.701 19.3943 23.7178C19.8505 23.7282 20.2487 23.5599 20.5889 23.2129Z" fill="white"/>
<path d="M29.1253 18.1015C28.4875 18.5286 27.8478 18.7789 27.2061 18.8523C26.5594 18.9183 25.9512 18.8181 25.3816 18.5518C24.8194 18.2805 24.3388 17.8574 23.9397 17.2825C23.5355 16.7003 23.31 16.1064 23.2632 15.5007C23.2189 14.8826 23.3449 14.2962 23.6413 13.7414C23.9326 13.1793 24.3859 12.6922 25.0012 12.2801C25.5941 11.8832 26.19 11.6568 26.7889 11.6012C27.3879 11.5456 27.9533 11.6474 28.4851 11.9067C29.0169 12.166 29.4798 12.5793 29.8738 13.1468C29.9556 13.2647 30.0286 13.3778 30.0928 13.486C30.1518 13.5868 30.2045 13.6865 30.2509 13.785L25.2756 17.1167L24.5158 16.0223L28.129 13.6026L27.9745 13.9976C27.6573 13.5407 27.3119 13.2807 26.9384 13.2178C26.5673 13.1424 26.1903 13.2328 25.8076 13.4891C25.3649 13.7856 25.122 14.1642 25.0791 14.6248C25.0436 15.0804 25.2305 15.603 25.6399 16.1926C26.039 16.7674 26.4558 17.1145 26.8904 17.2337C27.3325 17.3479 27.7974 17.2417 28.2852 16.9151C28.5553 16.7342 28.7572 16.5342 28.891 16.3151C29.0247 16.096 29.0712 15.8543 29.0306 15.59L30.6178 14.5272C30.8088 15.1982 30.7854 15.8454 30.5477 16.4688C30.3124 17.0799 29.8382 17.6241 29.1253 18.1015Z" fill="white"/>
<path d="M37.1592 13.7424C36.4549 14.0303 35.7768 14.1481 35.1249 14.0957C34.478 14.0317 33.8989 13.8143 33.3876 13.4436C32.8812 13.0613 32.4901 12.5448 32.2144 11.8942C31.9386 11.2437 31.8445 10.6155 31.9321 10.0096C32.028 9.40034 32.2825 8.85184 32.6956 8.36413C33.1171 7.87298 33.68 7.48344 34.3843 7.19549C35.0971 6.90411 35.7752 6.78632 36.4186 6.84212C37.0704 6.89449 37.6461 7.10362 38.1455 7.46951C38.6449 7.8354 39.0325 8.34363 39.3082 8.9942C39.584 9.64477 39.6774 10.2829 39.5884 10.9087C39.5044 11.5228 39.2533 12.0795 38.8354 12.5789C38.4223 13.0666 37.8636 13.4544 37.1592 13.7424ZM36.5414 12.2848C36.8349 12.1648 37.0676 11.9827 37.2396 11.7385C37.4199 11.4908 37.5238 11.202 37.5511 10.872C37.575 10.5337 37.5049 10.171 37.3409 9.78399C37.1 9.21577 36.7599 8.84273 36.3205 8.66486C35.886 8.47534 35.4465 8.47141 35.0021 8.65309C34.5577 8.83478 34.2467 9.1455 34.0691 9.58527C33.8999 10.0216 33.9339 10.5198 34.1713 11.0797C34.3353 11.4668 34.548 11.7712 34.8092 11.9929C35.0669 12.2064 35.3446 12.3392 35.6422 12.3915C35.9482 12.4403 36.2479 12.4047 36.5414 12.2848Z" fill="white"/>
<path d="M47.3599 5.13032L47.5559 3.67607L46.5937 4.83498L45.5429 3.50969L46.9644 2.92727L45.4413 2.72659L46.1204 1.18494L47.3476 2.07005L46.7868 0.710452L48.5167 0.494109L48.3207 1.94836L49.2829 0.789442L50.3202 2.11643L48.9105 2.68388L50.4217 2.89953L49.7562 4.43948L48.5289 3.55438L49.0898 4.91398L47.3599 5.13032Z" fill="white"/>
</svg>
